<svg width="117" height="98" viewBox="0 0 117 98" fill="none" xmlns="http://www.w3.org/2000/svg">
<path fill-rule="evenodd" clip-rule="evenodd" d="M5.27683 0H19.6576C22.5676 0 24.9344 2.39524 24.9344 5.34009V92.659C24.9344 95.6039 22.5676 98 19.6576 98H5.27683C2.36774 98 0 95.6039 0 92.659V5.34009C0 2.39524 2.36774 0 5.27683 0ZM19.6576 76.4038H21.5707V5.34009C21.5707 4.27278 20.7131 3.40404 19.6576 3.40404H5.27683C4.22217 3.40404 3.36372 4.27278 3.36372 5.34009V76.4038H12.4677C13.3962 76.4038 14.1495 77.1662 14.1495 78.1059C14.1495 79.0464 13.3962 79.8079 12.4677 79.8079H3.36372V92.659C3.36372 93.7272 4.22217 94.596 5.27683 94.596H19.6576C20.7123 94.596 21.5707 93.7272 21.5707 92.659V79.8079H19.6576C18.7291 79.8079 17.9757 79.0464 17.9757 78.1059C17.9757 77.1662 18.7291 76.4038 19.6576 76.4038Z" fill="#CAFD35"/>
<path fill-rule="evenodd" clip-rule="evenodd" d="M7.67188 63.2721C7.67188 60.3871 10.0377 58.0391 12.9465 58.0391C15.8543 58.0391 18.2211 60.3871 18.2211 63.2721C18.2211 66.1579 15.8543 68.5051 12.9465 68.5051C10.0377 68.5051 7.67188 66.1579 7.67188 63.2721ZM11.0342 63.2721C11.0342 64.3188 11.8914 65.1693 12.9465 65.1693C14.0007 65.1693 14.8588 64.3188 14.8588 63.2721C14.8588 62.2262 14.0007 61.3748 12.9465 61.3748C11.8922 61.3748 11.0342 62.2262 11.0342 63.2721Z" fill="#CAFD35"/>
<path fill-rule="evenodd" clip-rule="evenodd" d="M7.67188 45.1939C7.67188 42.3081 10.0377 39.9609 12.9465 39.9609C15.8543 39.9609 18.2211 42.3081 18.2211 45.1939C18.2211 48.0797 15.8552 50.427 12.9465 50.427C10.0377 50.427 7.67188 48.0797 7.67188 45.1939ZM11.0342 45.1939C11.0342 46.2399 11.8914 47.0912 12.9465 47.0912C14.0007 47.0912 14.8588 46.2399 14.8588 45.1939C14.8588 44.148 14.0007 43.2967 12.9465 43.2967C11.8922 43.2967 11.0342 44.148 11.0342 45.1939Z" fill="#CAFD35"/>
<path fill-rule="evenodd" clip-rule="evenodd" d="M7.67188 27.1172C7.67188 24.2317 10.0377 21.8838 12.9465 21.8838C15.8543 21.8838 18.2211 24.2317 18.2211 27.1172C18.2211 30.0019 15.8543 32.3498 12.9465 32.3498C10.0377 32.3498 7.67188 30.0019 7.67188 27.1172ZM11.0342 27.1172C11.0342 28.1631 11.8914 29.0143 12.9465 29.0143C14.0007 29.0143 14.8588 28.1631 14.8588 27.1172C14.8588 26.0714 14.0007 25.2202 12.9465 25.2202C11.8922 25.2202 11.0342 26.0714 11.0342 27.1172Z" fill="#CAFD35"/>
<path fill-rule="evenodd" clip-rule="evenodd" d="M12.4738 14.2716C13.531 14.2716 14.3868 13.4193 14.3868 12.3687C14.3868 11.3172 13.531 10.4658 12.4738 10.4658H12.4539C11.3967 10.4658 10.5508 11.3172 10.5508 12.3687C10.5508 13.4193 11.4176 14.2716 12.4738 14.2716Z" fill="#CAFD35"/>
<path fill-rule="evenodd" clip-rule="evenodd" d="M97.3432 0H111.724C114.633 0 117.001 2.39524 117.001 5.34009V92.6599C117.001 95.6039 114.634 98 111.724 98H97.3432C94.4333 98 92.0664 95.6039 92.0664 92.6599V74.4678C92.0664 73.5273 92.8189 72.7658 93.7483 72.7658C94.6768 72.7658 95.4301 73.5273 95.4301 74.4678V76.4047H113.637V5.34009C113.637 4.27278 112.779 3.40404 111.724 3.40404H97.3432C96.2886 3.40404 95.4301 4.27278 95.4301 5.34009V67.1926C95.4301 68.1322 94.6768 68.8946 93.7483 68.8946C92.8189 68.8946 92.0664 68.1322 92.0664 67.1926V5.34009C92.0664 2.39612 94.4333 0 97.3432 0ZM111.724 94.596C112.779 94.596 113.637 93.7272 113.637 92.659V79.8079H95.4301V92.659C95.4301 93.7272 96.2877 94.596 97.3432 94.596H111.724Z" fill="#CAFD35"/>
<path fill-rule="evenodd" clip-rule="evenodd" d="M34.1576 65.6504H81.8814C84.8519 65.6504 87.2695 68.0346 87.2695 70.9648V92.6855C87.2695 95.6157 84.8528 97.9999 81.8814 97.9999H34.1576C31.1872 97.9999 28.7695 95.6157 28.7695 92.6855V70.9648C28.7695 68.0346 31.1872 65.6504 34.1576 65.6504ZM81.8814 94.6128C82.9583 94.6128 83.8349 93.7484 83.8349 92.6855V70.9648C83.8349 69.9019 82.9583 69.0375 81.8814 69.0375H34.1576C33.0807 69.0375 32.2042 69.9019 32.2042 70.9648V92.6855C32.2042 93.7484 33.0807 94.6128 34.1576 94.6128H81.8814Z" fill="#CAFD35"/>
<path fill-rule="evenodd" clip-rule="evenodd" d="M109.327 63.2721C109.327 66.1579 106.961 68.5051 104.052 68.5051C101.144 68.5051 98.7773 66.1579 98.7773 63.2721C98.7773 60.3871 101.144 58.0391 104.052 58.0391C106.961 58.0391 109.327 60.3871 109.327 63.2721ZM105.964 63.2721C105.964 62.2262 105.107 61.3748 104.052 61.3748C102.998 61.3748 102.14 62.2262 102.14 63.2721C102.14 64.3188 102.998 65.1693 104.052 65.1693C105.106 65.1693 105.964 64.3188 105.964 63.2721Z" fill="#CAFD35"/>
<path fill-rule="evenodd" clip-rule="evenodd" d="M109.327 45.1939C109.327 48.0797 106.961 50.427 104.052 50.427C101.144 50.427 98.7773 48.0797 98.7773 45.1939C98.7773 42.3081 101.144 39.9609 104.052 39.9609C106.961 39.9609 109.327 42.3081 109.327 45.1939ZM105.964 45.1939C105.964 44.148 105.107 43.2967 104.052 43.2967C102.998 43.2967 102.14 44.148 102.14 45.1939C102.14 46.2399 102.998 47.0912 104.052 47.0912C105.106 47.0912 105.964 46.2399 105.964 45.1939Z" fill="#CAFD35"/>
<path fill-rule="evenodd" clip-rule="evenodd" d="M104.052 32.3498C101.144 32.3498 98.7773 30.0026 98.7773 27.1168C98.7773 24.231 101.144 21.8838 104.052 21.8838C106.961 21.8838 109.327 24.231 109.327 27.1168C109.327 30.0017 106.961 32.3498 104.052 32.3498ZM105.964 27.1168C105.964 26.07 105.107 25.2187 104.052 25.2187C102.998 25.2187 102.14 26.07 102.14 27.1168C102.14 28.1627 102.998 29.014 104.052 29.014C105.106 29.014 105.964 28.1627 105.964 27.1168Z" fill="#CAFD35"/>
<path fill-rule="evenodd" clip-rule="evenodd" d="M106.449 12.3687C106.449 11.3172 105.593 10.4658 104.537 10.4658H104.516C103.46 10.4658 102.613 11.3172 102.613 12.3687C102.613 13.4193 103.48 14.2716 104.537 14.2716C105.593 14.2716 106.449 13.4193 106.449 12.3687Z" fill="#CAFD35"/>
<path fill-rule="evenodd" clip-rule="evenodd" d="M48.9102 81.3498C48.9102 76.3657 52.9968 72.3105 58.0208 72.3105C63.0448 72.3105 67.1315 76.3657 67.1315 81.3498C67.1315 86.3331 63.0448 90.3882 58.0208 90.3882C52.9968 90.3882 48.9102 86.334 48.9102 81.3498ZM52.3644 81.3498C52.3644 84.4438 54.9012 86.9613 58.0208 86.9613C61.1405 86.9613 63.6772 84.4438 63.6772 81.3498C63.6772 78.2549 61.1396 75.7374 58.0208 75.7374C54.9021 75.7374 52.3644 78.2549 52.3644 81.3498Z" fill="#CAFD35"/>
<path fill-rule="evenodd" clip-rule="evenodd" d="M43.45 79.9219H39.9819C39.0853 79.9219 38.3594 80.7732 38.3594 81.8248C38.3594 82.8754 39.0853 83.7277 39.9819 83.7277H43.45C44.3457 83.7277 45.0725 82.8754 45.0725 81.8248C45.0725 80.7732 44.3457 79.9219 43.45 79.9219Z" fill="#CAFD35"/>
<path fill-rule="evenodd" clip-rule="evenodd" d="M77.0164 79.9219H73.5483C72.6525 79.9219 71.9258 80.7732 71.9258 81.8248C71.9258 82.8754 72.6525 83.7277 73.5483 83.7277H77.0164C77.913 83.7277 78.6389 82.8754 78.6389 81.8248C78.6389 80.7732 77.913 79.9219 77.0164 79.9219Z" fill="#CAFD35"/>
<path fill-rule="evenodd" clip-rule="evenodd" d="M45.7966 37.7882C49.6329 35.3217 54.0253 34.0177 58.5005 34.0177C62.9757 34.0177 67.3681 35.3217 71.2044 37.7882C71.4879 37.9705 71.8037 38.0579 72.1151 38.0579C72.6919 38.0579 73.257 37.7594 73.5837 37.2153C74.0877 36.3782 73.8402 35.277 73.0294 34.7553C68.6451 31.9363 63.6218 30.4463 58.5005 30.4463C53.3792 30.4463 48.3551 31.9363 43.9716 34.7553C43.1608 35.2761 42.9134 36.3773 43.4173 37.2153C43.9213 38.0524 44.9867 38.3091 45.7966 37.7882Z" fill="#CAFD35"/>
<path fill-rule="evenodd" clip-rule="evenodd" d="M68.2918 44.7181C68.8716 44.7181 69.438 44.4396 69.76 43.9349C70.2488 43.1687 69.9883 42.1728 69.1784 41.7103C66.0851 39.944 62.5583 39.0098 58.9779 39.0098C55.3976 39.0098 51.8707 39.944 48.7774 41.7103C47.9675 42.1728 47.707 43.1687 48.1958 43.9349C48.6846 44.7012 49.7371 44.9477 50.547 44.4852C53.1061 43.0227 56.0219 42.2505 58.9779 42.2505C61.9339 42.2505 64.8488 43.0227 67.4079 44.4852C67.6853 44.643 67.9903 44.7181 68.2918 44.7181Z" fill="#CAFD35"/>
<path fill-rule="evenodd" clip-rule="evenodd" d="M63.5274 50.4271C64.117 50.4271 64.6883 50.1134 64.9967 49.5567C65.4505 48.7368 65.1614 47.6997 64.3509 47.2406C62.511 46.1982 60.5423 45.6699 58.4983 45.6699C56.4542 45.6699 54.4855 46.1982 52.6456 47.2406C51.8352 47.6997 51.546 48.7368 51.9999 49.5567C52.4537 50.3766 53.4788 50.6691 54.2892 50.21C55.621 49.4557 57.0369 49.0736 58.4983 49.0736C59.9597 49.0736 61.3755 49.4557 62.7073 50.21C62.9675 50.3571 63.2496 50.4271 63.5274 50.4271Z" fill="#CAFD35"/>
<path fill-rule="evenodd" clip-rule="evenodd" d="M60.4181 56.1363C60.4181 57.1879 59.559 58.0392 58.5001 58.0392C57.4412 58.0392 56.582 57.1879 56.582 56.1363C56.582 55.0857 57.4412 54.2334 58.5001 54.2334C59.559 54.2334 60.4181 55.0857 60.4181 56.1363Z" fill="#CAFD35"/>
</svg>
