<svg width="55" height="54" viewBox="0 0 55 54" fill="none" xmlns="http://www.w3.org/2000/svg">
<path fill-rule="evenodd" clip-rule="evenodd" d="M34.7895 38.764L36.672 38.5403C37.6193 38.4278 40.8313 37.0294 41.3786 38.4317C41.1958 38.3793 40.9979 38.3396 40.7836 38.3132C39.3848 38.3124 40.0191 40.0228 40.0821 40.0339C40.1209 40.0407 40.16 40.0478 40.1989 40.0548C40.1169 39.7663 39.9693 38.7118 40.865 38.6307C41.7588 38.7793 42.0255 39.4343 42.1468 40.3295C42.2367 40.9917 42.1335 40.7346 41.5867 40.543C41.4419 40.4922 41.2925 40.4409 41.1402 40.391C41.0186 40.5909 40.8659 40.7133 40.6856 40.6926C37.8895 40.3726 37.2877 39.8193 34.4176 40.0044C32.5983 40.122 33.7639 39.0624 34.7895 38.764ZM27.5847 40.0738C17.1696 40.1739 13.0945 33.7259 13.4645 27.9756C13.4582 27.9376 13.4528 27.8993 13.4486 27.8608C13.564 26.5285 13.9095 25.237 14.4597 24.0808C14.46 24.0802 14.4603 24.0796 14.4606 24.0791C15.6474 21.5854 16.0443 18.1306 17.7323 16.9009C17.9324 16.7555 18.1436 16.6132 18.3661 16.476H18.3664C18.3979 16.4567 18.4296 16.4374 18.4614 16.4182L18.4631 16.417C18.4945 16.3983 18.526 16.3796 18.5575 16.3609L18.5614 16.3589C18.5926 16.3405 18.6238 16.3223 18.6553 16.3045L18.6607 16.3014C19.4019 15.8782 20.1948 15.5465 21.0148 15.3101C21.016 15.3098 21.0174 15.3092 21.0185 15.309C21.1316 15.0397 21.1316 14.7293 21.0531 14.38C20.9709 14.0152 20.5732 13.6711 20.9896 13.8301C21.2082 13.9135 21.6594 14.2576 21.8233 14.759C21.8686 14.8982 21.8406 14.4756 22.0347 14.1113C22.382 13.4602 22.7082 13.2079 23.0563 13.1098C23.1961 13.0495 22.9478 14.1598 23.3922 14.3148C23.5751 13.8038 25.4576 13.2609 25.1914 13.5914C25.0256 13.7975 24.4887 14.3832 24.6642 14.8761L24.6718 14.8764C24.6814 14.8767 24.6914 14.877 24.701 14.8775C24.7438 14.8792 24.7866 14.8812 24.8294 14.8835C24.8374 14.8838 24.8453 14.8843 24.8529 14.8846C24.8983 14.8872 24.9439 14.89 24.9896 14.8928L25.0054 14.8937C25.0542 14.8971 25.103 14.9005 25.152 14.9045L25.1577 14.9047C25.3669 14.9212 25.5786 14.943 25.7926 14.9705C27.2678 15.1604 28.6332 15.9286 29.7523 17.1727C31.3287 18.9257 30.8794 19.3554 33.2112 21.2796C33.2554 21.3159 33.2999 21.3521 33.3444 21.3884L33.3487 21.3918C35.1521 22.8545 37.3458 24.161 38.8924 25.73C42.8807 29.7764 44.5418 37.6162 44.1243 37.8438C43.2231 38.3354 43.2858 37.2624 42.0286 37.246C41.2684 37.2361 40.6697 37.3007 40.1521 37.4161C38.9448 37.2607 37.0317 38.0159 36.344 38.1018C35.7167 38.188 35.0548 38.2741 34.4272 38.3946C33.6185 38.6636 32.9847 39.2765 32.9167 39.7354C31.5416 39.925 29.8147 40.0526 27.5847 40.0738ZM17.9974 38.1174C17.12 37.9683 16.2895 37.9771 16.0499 38.5488C16.1421 38.5307 16.2382 38.5156 16.3391 38.5043C17.2345 38.5037 17.1115 39.3028 16.9942 39.6455C17.016 39.2867 16.9363 38.7053 16.3272 38.7058C15.4493 38.8263 15.0896 39.3584 14.9702 40.0852C14.8821 40.6232 14.9836 40.4143 15.5207 40.2587C15.733 40.1971 15.9779 40.1348 16.2277 40.0764C16.3408 40.2731 16.4893 40.399 16.6682 40.3803C18.4554 40.1932 20.0567 40.0336 21.7637 40.0146C20.2979 39.5449 19.0467 38.8958 17.9974 38.1174ZM21.0522 23.8407C21.5341 25.3147 21.6546 26.6393 22.9064 26.7649C23.8656 26.8613 25.0607 26.6538 25.7745 26.2705C27.0501 25.5857 26.9628 24.3027 26.7213 22.9891C26.4296 23.2565 26.3272 23.7327 26.2419 24.1284C26.1985 24.3302 26.1597 24.5116 26.1047 24.6335C26.0058 24.8535 25.7141 25.281 25.3816 25.6115C25.148 25.8434 24.8938 26.0268 24.6715 26.0551C24.2625 26.107 23.746 25.91 23.2267 25.5967C22.5665 25.1982 21.9001 24.6114 21.4431 24.1074C21.3227 23.9742 21.1883 23.8931 21.0522 23.8407ZM19.8997 22.6569C19.8152 23.492 20.7042 22.9214 21.2966 23.5748C22.109 24.4711 23.5893 25.6322 24.5114 25.5151C25.0443 25.4474 25.7699 24.472 25.9383 24.0978C26.1248 23.6834 26.118 22.6331 26.7391 22.3258C27.5138 21.9426 27.6788 21.7158 27.4206 21.3108C27.1836 20.9386 26.4508 20.718 25.6707 20.6282C24.5635 20.5003 24.7398 20.2055 23.4623 20.4088C22.5311 20.5567 22.4415 20.9136 21.5117 21.4377C21.0945 21.6727 19.9705 21.9548 19.8997 22.6569ZM29.0536 19.197C29.1562 19.1777 29.2608 19.2752 29.2869 19.4144C29.3127 19.5538 29.2506 19.6825 29.148 19.7018C29.0454 19.7211 28.9408 19.6236 28.9147 19.4841C28.8886 19.3446 28.951 19.216 29.0536 19.197ZM17.5013 21.0602C17.6158 21.0389 17.7303 21.0451 17.8414 21.0755C17.982 21.3051 18.0917 21.5885 18.1507 21.9038C18.2907 22.6527 18.0985 23.3387 17.7133 23.5853C17.283 23.5144 16.8952 23.0804 16.7864 22.4993C16.6563 21.8028 16.9763 21.1585 17.5013 21.0602ZM17.126 21.5914C17.2286 21.5721 17.3329 21.6696 17.359 21.8091C17.3851 21.9483 17.323 22.077 17.2201 22.0962C17.1175 22.1155 17.0132 22.018 16.9871 21.8785C16.961 21.7391 17.0231 21.6104 17.126 21.5914ZM29.027 18.7548C29.5516 18.6567 30.0829 19.142 30.2133 19.8384C30.3218 20.4195 30.1166 20.9641 29.741 21.1857C29.2928 21.095 28.8657 20.5247 28.7259 19.7758C28.667 19.4606 28.667 19.1564 28.7151 18.8917C28.8076 18.8234 28.9124 18.776 29.027 18.7548ZM3.21837 36.7236L6.27948 35.298L6.46828 35.7034L5.21107 36.289L5.95208 37.8798L7.20928 37.2942L7.39828 37.6998L4.33717 39.1254L4.14808 38.72L5.59067 38.0482L4.84968 36.4571L3.40737 37.1292L3.21837 36.7236ZM47.2798 10.0853L47.8076 9.95433L48.4726 10.6179L46.7667 12.3269L45.9838 11.5454L46.083 11.4212C46.3557 11.0318 46.4983 10.684 46.5105 10.3778C46.5224 10.0714 46.4612 9.83243 46.3265 9.66093C46.1919 9.48913 46.1099 9.38683 46.081 9.35373C46.0518 9.32083 46.0167 9.28343 45.9753 9.24233C45.594 8.86163 45.1603 8.72443 44.6742 8.83043C44.1881 8.93643 43.6347 9.30043 43.0145 9.92173C42.5513 10.3857 42.2993 10.8515 42.2582 11.3195C42.2174 11.7872 42.3668 12.1906 42.7067 12.5296C43.0049 12.8275 43.3351 12.9894 43.6974 13.016C44.0594 13.0427 44.4185 12.9233 44.7743 12.658L44.9727 12.484L45.7806 13.2904C45.731 13.34 45.6856 13.3834 45.6442 13.4208C45.6028 13.4582 45.5677 13.4914 45.5388 13.5203C44.9721 13.9968 44.3357 14.166 43.6299 14.028C42.9241 13.8902 42.1984 13.4491 41.4526 12.7048C40.7689 12.0225 40.4373 11.2509 40.4568 10.3897C40.4769 9.52883 40.8196 8.76493 41.4855 8.09793C41.6632 7.91993 41.9382 7.70023 42.3104 7.43913C42.6826 7.17783 43.2206 7.05933 43.9244 7.08343C44.628 7.10753 45.1496 7.24783 45.4892 7.50433C45.829 7.76033 46.0598 7.94543 46.1822 8.05913C46.3044 8.17273 46.3676 8.23173 46.3716 8.23603C46.6783 8.54183 46.9042 8.84803 47.0494 9.15413C47.1945 9.46023 47.2713 9.77063 47.2798 10.0853ZM13.9937 8.22723L11.4394 10.555L11.567 10.6947C11.8093 10.9606 12.0707 11.1046 12.351 11.1267C12.6316 11.1485 12.8814 11.0598 13.1008 10.8597C13.1753 10.792 13.2808 10.6661 13.4166 10.4824C13.5523 10.299 13.5265 10.0107 13.3395 9.61783L13.2777 9.50763L14.2573 8.61493C14.6159 9.16773 14.7199 9.66633 14.5697 10.1105C14.4195 10.5547 14.2984 10.8552 14.2063 11.0116C14.1142 11.1684 13.9747 11.3317 13.7882 11.5017C13.1909 12.0457 12.5704 12.3677 11.927 12.4675C11.2835 12.5673 10.7979 12.4888 10.4702 12.2322C10.1425 11.9757 9.92968 11.7937 9.83217 11.6866C9.33887 11.1454 9.12827 10.53 9.20057 9.84093C9.27287 9.15183 9.62637 8.51803 10.2608 7.94003C10.8251 7.42553 11.4292 7.16983 12.0724 7.17303C12.7156 7.17613 13.2731 7.43663 13.7451 7.95453C13.7876 8.00103 13.829 8.04663 13.8693 8.09083C13.9098 8.13503 13.9512 8.18073 13.9937 8.22723ZM10.9445 9.95543L12.0851 8.91603C12.0687 8.88853 12.0389 8.85143 11.9967 8.80463C11.9496 8.75333 11.8765 8.69403 11.777 8.62683C11.6772 8.55973 11.54 8.50983 11.3651 8.47723C11.1902 8.44433 11.0187 8.50473 10.8506 8.65773C10.678 8.81513 10.5978 8.97983 10.61 9.15243C10.6219 9.32503 10.6511 9.46963 10.697 9.58553C10.7429 9.70153 10.7999 9.79673 10.8679 9.87153L10.9445 9.95543ZM4.72948 17.2941L3.97318 16.8003L5.40948 14.5992L7.63328 16.0505L7.90567 16.2282C8.06157 16.3085 8.21668 16.3269 8.36998 16.2849C8.52338 16.243 8.64637 16.1506 8.73938 16.0083C8.80288 15.911 8.84647 15.7835 8.87087 15.625C8.91027 15.2642 8.73878 14.9597 8.35418 14.7089L7.35948 14.0597C7.11628 13.901 6.93428 13.9154 6.81267 14.102L6.56098 14.4878L5.80438 13.994L7.26568 11.7552L9.98857 13.5322C10.0289 13.5586 10.068 13.5841 10.1057 13.6087C10.1437 13.6334 10.2035 13.649 10.2854 13.6558C10.3673 13.6623 10.4461 13.6079 10.5218 13.492L10.7684 13.1138L11.5023 13.5926L10.0856 15.7634L9.59398 15.4425L9.63087 15.6174C9.68157 15.881 9.68787 16.1276 9.64927 16.3578C9.61047 16.5877 9.51068 16.8261 9.34937 17.0732C8.92168 17.7289 8.52198 18.0934 8.15007 18.1671C7.77847 18.2411 7.25458 18.0574 6.57907 17.6166L5.48978 16.9057L5.33838 16.8071L5.26038 16.7776C5.14678 16.7538 5.05858 16.7898 4.99598 16.8856L4.72948 17.2941ZM6.94478 22.7635L6.13347 22.5053L6.30247 21.9936C6.34637 21.8607 6.32737 21.7589 6.24627 21.6883L6.18787 21.641L6.00397 21.5823L5.75308 21.5024L2.39148 20.4317C2.22988 20.3801 2.11738 20.3668 2.05388 20.3912C1.99038 20.4156 1.93738 20.4915 1.89568 20.6188L1.73528 21.1041L0.924275 20.8459L1.78568 18.2363L6.60208 19.7704L6.76108 19.8209L6.78888 19.8203L6.85317 19.8214C6.96887 19.8073 7.04848 19.7336 7.09247 19.6009L7.24697 19.1326L8.05788 19.3908L6.94478 22.7635ZM1.48497 29.8898L0.609375 29.8688L0.711075 25.6228C0.725875 25.0114 0.759875 24.578 0.813175 24.3234C0.866675 24.0686 0.996575 23.8157 1.20288 23.5649C1.40928 23.3137 1.72077 23.1932 2.13777 23.2034C2.52157 23.2125 2.81098 23.3296 3.00577 23.5538C3.20077 23.7783 3.35298 24.0394 3.46298 24.3367L3.50977 24.4714L3.54658 24.3305C3.67108 23.8327 3.86807 23.4577 4.13958 23.2054C4.41147 22.9531 4.73427 22.8315 5.10957 22.8406C5.20967 22.8429 5.39247 22.8752 5.65667 22.9373C5.92088 22.9994 6.15727 23.1802 6.36417 23.4801C6.57257 23.7797 6.69868 24.2114 6.74067 24.7744L6.73107 25.1832L6.61538 30.0043L5.73947 29.9834L5.75308 29.4164L5.75558 29.3161L5.75758 29.2242C5.76158 29.0576 5.63567 28.9711 5.38007 28.9649L4.97977 28.947L1.89338 28.873C1.74888 28.8696 1.65108 28.8838 1.60027 28.9161C1.54957 28.9481 1.51727 29.0142 1.50367 29.114L1.50138 29.214L1.49888 29.3226L1.48497 29.8898ZM3.08507 26.865L3.10608 25.9893L3.10917 25.864C3.08197 25.5965 3.00748 25.404 2.88357 25.2869C2.76108 25.1698 2.56808 25.1083 2.30527 25.1021C2.04818 25.0959 1.85997 25.1622 1.74258 25.3014C1.62388 25.4403 1.56118 25.6767 1.55328 26.0103L1.53338 26.8278L3.08507 26.865ZM5.74598 26.929L5.76528 26.128L5.77007 25.9278C5.73207 25.415 5.58607 25.1307 5.33267 25.0746C5.08098 25.0182 4.91208 24.9893 4.82837 24.9873C4.28078 24.974 3.99787 25.3484 3.97948 26.1104L3.96097 26.8862L5.74598 26.929ZM37.9275 4.95263L38.345 4.00133C38.4079 3.85813 38.4258 3.74593 38.3989 3.66513C38.3719 3.58403 38.3008 3.51833 38.1848 3.46753L37.7713 3.28583L38.1236 2.48363L40.5963 3.56963L38.5049 8.33293C38.4419 8.47633 38.4238 8.58833 38.4507 8.66943C38.4777 8.75023 38.5519 8.81733 38.6733 8.87033L39.1115 9.06313L38.7591 9.86503L36.3111 8.79043L36.5402 8.26943C36.382 8.34453 36.1606 8.40693 35.876 8.45623C35.5914 8.50553 35.2119 8.42623 34.7379 8.21783C34.4567 8.09453 34.222 7.92073 34.0344 7.69683C33.8464 7.47293 33.6877 7.15343 33.5579 6.73783C33.4277 6.32263 33.4898 5.82543 33.7441 5.24633C33.8263 5.05893 33.9709 4.80493 34.1772 4.48463C34.3836 4.16433 34.722 3.92163 35.1923 3.75643C35.6626 3.59143 36.1419 3.58973 36.63 3.75133C36.9552 3.89413 37.2256 4.06083 37.4413 4.25073C37.6573 4.44093 37.8192 4.67483 37.9275 4.95263ZM35.6702 5.91473L35.5685 6.14603C35.433 6.45473 35.3831 6.72233 35.4171 6.94763C35.4525 7.17383 35.5279 7.32833 35.6453 7.41283C35.7612 7.49673 35.8505 7.55223 35.9112 7.57893C36.1467 7.68233 36.3744 7.66223 36.5949 7.51913C36.8143 7.37543 37.0153 7.09703 37.197 6.68343L37.2551 6.55103C37.2718 6.51253 37.2902 6.47113 37.3095 6.42723C37.3339 6.37193 37.352 6.33053 37.3639 6.30303L37.407 6.11483C37.4867 5.73553 37.4555 5.47673 37.3138 5.33893C37.172 5.20123 37.051 5.11023 36.9504 5.06603C36.7491 4.97753 36.5416 4.99003 36.3259 5.10253C36.1105 5.21513 35.9168 5.42773 35.7465 5.74093L35.6702 5.91473ZM28.2063 6.54233L28.3376 5.67633L28.784 5.74403C29.034 5.78173 29.1803 5.66073 29.2228 5.38093L29.2716 5.05943L29.5071 3.50583C29.5304 3.35073 29.5188 3.23793 29.4717 3.16703C29.4247 3.09593 29.3356 3.05033 29.2047 3.03043L28.7492 2.96123L28.8886 2.04173L31.5589 2.44653L31.4653 3.06273C31.717 2.68683 31.9841 2.49413 32.2655 2.48503C32.547 2.47603 32.7324 2.47823 32.8217 2.49183C33.0479 2.52613 33.2364 2.60803 33.3875 2.73763C33.5383 2.86683 33.6299 2.99643 33.6619 3.12623C33.6939 3.25603 33.7121 3.36833 33.7157 3.46333C33.7197 3.55823 33.7174 3.63253 33.7095 3.68613C33.6761 3.90633 33.5876 4.08773 33.4442 4.23063C33.3008 4.37323 33.1582 4.44913 33.0167 4.45823C32.8753 4.46733 32.7659 4.46593 32.6885 4.45403C32.4861 4.42343 32.3197 4.34633 32.189 4.22293C32.0586 4.09963 31.9892 3.97493 31.9809 3.84883C31.9727 3.72263 31.9736 3.62683 31.9835 3.56133C32.007 3.40663 32.0714 3.28243 32.1771 3.18893C31.9815 3.23223 31.8117 3.32833 31.6674 3.47693C31.469 3.66003 31.3514 3.87373 31.3145 4.11783L31.0801 5.66273C31.0549 5.82933 31.0662 5.94533 31.1141 6.01053C31.162 6.07543 31.2754 6.12163 31.454 6.14853L31.9095 6.21773L31.7783 7.08403L28.2063 6.54233ZM23.8934 6.75513L23.8322 5.88093L24.2826 5.84953C24.5349 5.83193 24.6514 5.68193 24.6316 5.39963L24.6075 5.05723L24.4972 3.48033C24.4861 3.31813 24.4482 3.20933 24.3838 3.15343C24.3197 3.09733 24.2245 3.07413 24.0984 3.08283L23.6389 3.11493L23.5756 2.21373L26.2878 2.02443L26.5146 5.26783L26.5254 5.42113L26.5376 5.46543L26.5605 5.53623C26.6218 5.63463 26.7275 5.67853 26.8777 5.66803L27.3372 5.63603L27.3982 6.50993L23.8934 6.75513ZM24.2322 0.981828C24.2157 0.747728 24.288 0.531428 24.4493 0.333028C24.6103 0.134528 24.8382 0.0251277 25.1324 0.0044277C25.4448 -0.0173723 25.707 0.0413277 25.9191 0.180528C26.1311 0.319428 26.2459 0.518128 26.264 0.776328C26.2799 1.00483 26.1949 1.21143 26.0086 1.39623C25.8224 1.58133 25.5911 1.68373 25.3147 1.70293C25.0202 1.72363 24.7702 1.66413 24.5644 1.52463C24.3583 1.38493 24.2477 1.20403 24.2322 0.981828ZM14.4549 4.10983L14.1431 3.24703L18.3248 1.73553C18.9274 1.51763 19.3628 1.38663 19.6318 1.34213C19.9005 1.29733 20.1965 1.32823 20.5196 1.43423C20.8431 1.54053 21.0789 1.79903 21.2274 2.20983C21.3638 2.58763 21.3598 2.91423 21.2147 3.18973C21.0695 3.46503 20.8725 3.71273 20.6239 3.93273L20.5103 4.02933L20.6619 4.01183C21.1948 3.94463 21.6356 3.99423 21.9848 4.16373C22.3338 4.33323 22.575 4.60223 22.7088 4.97193C22.7442 5.07053 22.7825 5.26103 22.8222 5.54223C22.8619 5.82373 22.7749 6.12303 22.5608 6.43883C22.3474 6.75603 21.9741 7.04263 21.4409 7.29743L21.0381 7.44283L16.2895 9.15953L15.9777 8.29663L16.5364 8.09483L16.635 8.05913L16.7254 8.02653C16.8896 7.96723 16.9264 7.81133 16.8351 7.55963L16.7008 7.16223L15.6021 4.12233C15.5505 3.98003 15.4995 3.89023 15.4487 3.85273C15.398 3.81533 15.3214 3.80883 15.2188 3.83353L15.1205 3.86923L15.0136 3.90773L14.4549 4.10983ZM18.0135 4.52343L18.8761 4.21133L18.9994 4.16683C19.2505 4.03903 19.4096 3.89333 19.477 3.72803C19.5448 3.56423 19.5315 3.35213 19.4379 3.09333C19.3464 2.83993 19.2103 2.68173 19.03 2.62003C18.8494 2.55673 18.5949 2.58543 18.2664 2.70413L17.461 2.99533L18.0135 4.52343ZM18.9608 7.14403L19.7497 6.85893L19.9467 6.78773C20.4329 6.55613 20.6551 6.30563 20.6137 6.03743C20.5729 5.77013 20.5372 5.59433 20.5074 5.51213C20.3124 4.97273 19.8399 4.83863 19.0895 5.10963L18.3253 5.38603L18.9608 7.14403ZM49.8517 29.5995L49.8471 26.3028L49.6666 26.3031C49.3233 26.3037 49.054 26.3958 48.8587 26.5798C48.6631 26.7638 48.5656 26.9971 48.5659 27.2802C48.5662 27.3766 48.5874 27.5317 48.6299 27.7451C48.6725 27.9588 48.8924 28.1258 49.2899 28.2457L49.4075 28.2726L49.4092 29.5369C48.7887 29.4354 48.37 29.1894 48.1526 28.7982C47.9352 28.407 47.8008 28.1286 47.7495 27.9631C47.6982 27.7976 47.6721 27.5946 47.6718 27.3537C47.6707 26.5829 47.8416 25.9383 48.1841 25.4201C48.5265 24.902 48.8936 24.6091 49.2848 24.5425C49.6759 24.4756 49.941 24.4422 50.0793 24.4419C50.778 24.4411 51.3472 24.6871 51.7875 25.1803C52.2277 25.6733 52.4485 26.3295 52.4496 27.1484C52.4505 27.8769 52.2438 28.4674 51.8288 28.9195C51.4141 29.3716 50.8724 29.5981 50.204 29.5993C50.1439 29.5993 50.085 29.5993 50.028 29.5995C49.9707 29.5995 49.9121 29.5995 49.8517 29.5995ZM50.5878 26.338L50.5898 27.8103C50.6202 27.8163 50.6652 27.8191 50.7253 27.8191C50.7916 27.8191 50.8804 27.8055 50.9918 27.778C51.1032 27.7508 51.2265 27.6859 51.362 27.5833C51.4972 27.4809 51.5647 27.3211 51.5644 27.1045C51.5641 26.8814 51.4992 26.719 51.3696 26.6169C51.2398 26.5146 51.1193 26.4426 51.0079 26.4006C50.8965 26.3587 50.7925 26.3377 50.6961 26.338H50.5878ZM50.2565 19.9759L51.1675 19.7463L51.3728 20.5607L51.7758 20.4592C52.2311 20.3444 52.6072 20.3521 52.9037 20.4822C53.2005 20.6123 53.4435 20.8739 53.6328 21.2671C53.8219 21.6603 53.9605 22.0322 54.0489 22.3825C54.1932 22.9546 54.2051 23.4331 54.0847 23.8171C53.9642 24.2015 53.7638 24.4291 53.4834 24.4997C53.4426 24.5099 53.4165 24.5165 53.4049 24.5196C53.2005 24.5712 53.0163 24.5553 52.853 24.4739C52.6892 24.3912 52.5778 24.2871 52.5185 24.1638C52.4593 24.0391 52.4216 23.9572 52.4046 23.9147C52.3878 23.8724 52.372 23.822 52.3572 23.7636C52.3045 23.5549 52.3056 23.3684 52.3603 23.2026C52.4145 23.0368 52.4842 22.9308 52.5681 22.8817C52.6517 22.8324 52.7288 22.7992 52.7989 22.7814C52.9216 22.7505 53.0407 22.761 53.156 22.8125C53.2714 22.8641 53.3564 22.9483 53.4106 23.0651L53.4279 22.9115C53.4276 22.7876 53.4179 22.6875 53.3987 22.6116C53.2912 22.1852 52.9573 22.0429 52.3969 22.1841L52.2742 22.215L51.8186 22.3298L52.1279 23.5561L51.2171 23.7857L50.9235 22.6209L48.6827 23.1856C48.5251 23.2256 48.4244 23.2882 48.3836 23.373C48.3431 23.4577 48.349 23.6051 48.4023 23.8154L48.4287 23.9203L48.539 24.3583L47.6894 24.5726L46.7534 20.8592L47.603 20.6449L47.7178 21.1004C47.7529 21.2405 47.8045 21.3283 47.8725 21.364C47.9406 21.3998 48.0565 21.3969 48.2198 21.3555L50.462 20.7906L50.2565 19.9759ZM47.9638 14.4535C47.9902 14.5629 47.98 14.6683 47.9332 14.7704C47.8864 14.8719 47.8105 14.9521 47.7053 15.0108C47.6265 15.0544 47.5304 15.0802 47.4176 15.0881C47.3048 15.0958 47.1874 15.0643 47.0658 14.9943C46.9442 14.9243 46.8421 14.8154 46.7602 14.668C46.7458 14.642 46.7129 14.5583 46.6624 14.4177C46.6117 14.2771 46.6148 14.1221 46.6721 13.9523C46.7293 13.7828 46.837 13.6541 46.9946 13.5662C47.0788 13.5194 47.2367 13.4903 47.468 13.4786C47.6993 13.467 47.9856 13.6042 48.3272 13.8897C48.6685 14.1751 49.0149 14.6335 49.3661 15.265C49.7437 15.9436 49.9109 16.4916 49.8673 16.9085C49.8236 17.3258 49.6045 17.6439 49.2096 17.8635L47.5919 18.7638L47.5128 18.8078L47.4181 18.8602C47.2795 18.958 47.2225 19.0603 47.2469 19.1658C47.29 19.3174 47.3773 19.3755 47.508 19.3376L47.5474 19.3154L47.6517 19.2987L47.849 19.189L48.0384 19.0836L48.359 19.6599L48.2169 19.7389C47.7223 20.0142 47.3365 20.1321 47.0601 20.093C46.7835 20.0542 46.5675 19.926 46.4121 19.7092C46.2571 19.4923 46.1613 19.3509 46.1247 19.2851C46.0881 19.2194 46.0612 19.1709 46.0436 19.1391C45.9146 18.9075 45.8358 18.6949 45.8072 18.5008C45.7783 18.3063 45.7899 18.1416 45.8421 18.0058C45.8939 17.8701 45.9634 17.7504 46.0504 17.647C45.761 17.622 45.4849 17.5188 45.2221 17.3377C44.9594 17.1566 44.736 16.9003 44.5515 16.5687C44.2881 16.0953 44.194 15.6877 44.2705 15.3452C44.3457 15.0037 44.5651 14.7318 44.9293 14.5291C45.441 14.2445 45.9625 14.3645 46.4963 14.8874L46.9907 15.46L47.182 15.6738C47.4785 15.9842 47.7107 16.1721 47.8779 16.2376C48.0466 16.3022 48.2252 16.2821 48.4145 16.1769C48.5565 16.0978 48.6447 15.9867 48.6762 15.8453C48.7076 15.7035 48.6841 15.5377 48.6056 15.3469L48.5378 15.1882L48.4896 15.1015L48.4327 14.9988C48.3564 14.8619 48.285 14.7554 48.2184 14.6788C48.1515 14.602 48.0667 14.5272 47.9638 14.4535ZM47.3685 16.7277L47.0448 16.5358L46.9825 16.4981L46.8402 16.3912L46.7313 16.307L46.6148 16.2271L46.5269 16.1625C46.2948 16.0295 46.1153 15.9983 45.9892 16.0686C45.9206 16.1069 45.8492 16.1795 45.7743 16.2863C45.6995 16.3935 45.7162 16.5443 45.8245 16.739C45.8364 16.7603 45.8528 16.7869 45.8747 16.8198C45.8962 16.8524 45.9419 16.9063 46.0113 16.9817C46.0805 17.0565 46.1681 17.1027 46.2741 17.1194C46.3798 17.1365 46.4736 17.1376 46.5553 17.1234C46.6366 17.109 46.7248 17.0755 46.8197 17.0228L46.9739 16.9471L47.0607 16.8989L47.3685 16.7277ZM5.80298 41.0229C5.61077 40.9611 5.45458 40.8845 5.33328 40.7933C5.21278 40.7009 5.10938 40.5855 5.02318 40.4474C4.88088 40.2193 4.82698 40.0101 4.86188 39.8179C4.89698 39.6263 5.00138 39.4757 5.17428 39.368C5.27598 39.3042 5.38287 39.2691 5.49627 39.2634C5.60908 39.2569 5.71428 39.2753 5.81148 39.3187C5.90928 39.3623 6.00058 39.4222 6.08498 39.5001C6.14598 39.5574 6.22898 39.6503 6.33278 39.7793C6.54398 40.0421 6.71488 40.2266 6.84588 40.3309C6.89458 40.3023 6.92578 40.2839 6.93848 40.276C7.08197 40.1864 7.16248 40.0897 7.17887 39.9868C7.20298 39.8476 7.15878 39.6889 7.04848 39.5123C6.94508 39.347 6.84018 39.2427 6.73278 39.1996C6.62558 39.1571 6.48668 39.1634 6.31548 39.2172L6.14848 38.8442C6.31458 38.7838 6.46628 38.7605 6.60068 38.7759C6.73588 38.7906 6.87078 38.851 7.00397 38.9559C7.13728 39.061 7.25997 39.2022 7.37138 39.3811C7.48217 39.5582 7.55028 39.715 7.57798 39.8516C7.60528 39.9885 7.60407 40.1025 7.57347 40.1946C7.54258 40.2862 7.48558 40.3718 7.40228 40.4534C7.34958 40.5022 7.24528 40.5756 7.08908 40.6731L6.62018 40.9659C6.29278 41.1703 6.09068 41.3066 6.01418 41.3758C5.93648 41.4447 5.87188 41.5266 5.81998 41.6201L5.59068 41.2528C5.64078 41.1711 5.71108 41.094 5.80298 41.0229ZM6.57028 40.503C6.43767 40.4078 6.27408 40.2439 6.07847 40.012C5.96738 39.8802 5.88008 39.7921 5.81688 39.749C5.75368 39.7051 5.68648 39.6821 5.61558 39.6818C5.54528 39.6804 5.47958 39.6983 5.41798 39.7365C5.32418 39.7952 5.26868 39.88 5.24988 39.9897C5.23208 40.0994 5.26548 40.2229 5.35108 40.3596C5.43558 40.4951 5.54018 40.5974 5.66548 40.6657C5.79048 40.734 5.92058 40.7612 6.05408 40.7465C6.15728 40.7349 6.28628 40.6805 6.44108 40.5838L6.57028 40.503ZM6.24918 42.1497L8.22858 40.7128L8.44767 41.0144L8.16648 41.2185C8.48968 41.2063 8.75097 41.3372 8.94998 41.6114C9.03677 41.7313 9.09457 41.8563 9.12428 41.9872C9.15407 42.119 9.15207 42.2341 9.11808 42.3345C9.08518 42.4351 9.02767 42.5295 8.94687 42.6191C8.89328 42.6766 8.78928 42.7619 8.63387 42.8745L7.41678 43.758L7.17298 43.4221L8.37738 42.5479C8.51347 42.449 8.60668 42.362 8.65578 42.2863C8.70417 42.2114 8.72468 42.1258 8.71667 42.0303C8.70907 41.9339 8.67307 41.8415 8.60787 41.752C8.50378 41.6088 8.36917 41.5192 8.20307 41.4804C8.03667 41.443 7.82748 41.5158 7.57378 41.7004L6.49267 42.485L6.24918 42.1497ZM9.00607 45.5005L9.22867 45.2862C8.94627 45.3432 8.70078 45.2632 8.49158 45.0467C8.35638 44.9061 8.27028 44.74 8.23428 44.5475C8.19768 44.3556 8.21778 44.1603 8.29437 43.961C8.37057 43.7626 8.49848 43.5769 8.67898 43.4028C8.85448 43.2336 9.04238 43.1092 9.24168 43.0292C9.44147 42.9502 9.63597 42.9317 9.82478 42.976C10.0141 43.0193 10.1794 43.1134 10.3191 43.2583C10.4212 43.364 10.4898 43.4802 10.5247 43.6061C10.5604 43.7325 10.5669 43.8558 10.5454 43.9774L11.4173 43.1361L11.7033 43.4326L9.27318 45.7771L9.00607 45.5005ZM8.97497 43.7096C8.74897 43.9273 8.62628 44.1376 8.60668 44.3403C8.58687 44.5427 8.63908 44.7088 8.76377 44.8383C8.88958 44.9684 9.05037 45.0277 9.24448 45.016C9.43867 45.0044 9.64587 44.893 9.86497 44.6818C10.106 44.4494 10.2378 44.2325 10.2608 44.0313C10.2843 43.8292 10.2301 43.6608 10.0986 43.5245C9.97108 43.3921 9.80947 43.3337 9.61557 43.349C9.42198 43.3646 9.20798 43.4848 8.97497 43.7096ZM10.8716 47.2112L12.8097 44.446L13.3607 44.8324L12.6427 47.2486C12.5755 47.4734 12.5242 47.6409 12.4876 47.7506C12.5897 47.6724 12.7422 47.5584 12.946 47.4105L14.9563 45.9506L15.4487 46.2959L13.5107 49.0611L13.1578 48.8136L14.78 46.4991L12.3544 48.2507L12.0242 48.0191L12.8743 45.1048L11.2242 47.4587L10.8716 47.2112ZM15.7532 49.9738C15.5553 50.0132 15.3813 50.022 15.2313 50.0008C15.0811 49.9784 14.9345 49.9279 14.7922 49.8488C14.5572 49.7184 14.4087 49.5614 14.346 49.3766C14.2837 49.1918 14.3021 49.0095 14.401 48.8315C14.4594 48.7263 14.5357 48.6438 14.6321 48.5837C14.7276 48.5236 14.8285 48.4888 14.9345 48.4794C15.0411 48.4703 15.1499 48.4783 15.2619 48.5055C15.343 48.5262 15.4606 48.567 15.6137 48.6297C15.9261 48.7569 16.1648 48.8354 16.33 48.8635C16.3589 48.8148 16.3771 48.7833 16.3844 48.7703C16.4664 48.6226 16.4899 48.499 16.4545 48.4012C16.408 48.2674 16.2923 48.1503 16.1103 48.0491C15.9397 47.9544 15.7974 47.9142 15.6826 47.9286C15.5681 47.9434 15.4496 48.0162 15.3263 48.1463L14.9991 47.9011C15.1154 47.7676 15.2367 47.6741 15.3617 47.6222C15.487 47.5692 15.6344 47.5567 15.8019 47.584C15.9692 47.6112 16.1449 47.6755 16.3292 47.7776C16.512 47.879 16.6475 47.9831 16.7382 48.0891C16.8281 48.1957 16.8822 48.2957 16.9003 48.3915C16.9179 48.4865 16.9094 48.5888 16.8762 48.7008C16.8536 48.7691 16.798 48.8839 16.7087 49.0446L16.4406 49.528C16.2532 49.8656 16.1424 50.083 16.1092 50.1802C16.0746 50.278 16.0579 50.3812 16.0579 50.4883L15.6789 50.278C15.6834 50.1825 15.7075 50.0807 15.7532 49.9738ZM16.1724 49.1473C16.0103 49.1283 15.7877 49.0642 15.5043 48.9565C15.3433 48.895 15.2239 48.8601 15.148 48.853C15.0711 48.8457 15.0014 48.8581 14.9393 48.8919C14.877 48.9247 14.8282 48.9724 14.7931 49.0356C14.7392 49.1325 14.7318 49.2337 14.7687 49.3386C14.8061 49.4432 14.8957 49.5348 15.0366 49.613C15.176 49.6904 15.3172 49.7295 15.4598 49.7284C15.6024 49.7275 15.7294 49.6884 15.8391 49.6104C15.9235 49.5506 16.01 49.4404 16.0984 49.2808L16.1724 49.1473ZM18.1275 51.3645L18.2533 51.0822C18.0129 51.2412 17.7556 51.2588 17.4806 51.1363C17.3023 51.057 17.1603 50.9351 17.0548 50.7701C16.9491 50.606 16.8944 50.4172 16.8907 50.2037C16.8873 49.9914 16.9363 49.7712 17.0384 49.5421C17.1376 49.3196 17.2652 49.1337 17.4202 48.9848C17.5758 48.8366 17.7493 48.747 17.9407 48.717C18.1328 48.6863 18.3211 48.7116 18.5048 48.7935C18.6391 48.8536 18.7463 48.9358 18.8259 49.0393C18.9061 49.143 18.9586 49.255 18.9841 49.3757L19.4773 48.2691L19.8538 48.4369L18.4787 51.521L18.1275 51.3645ZM17.4276 49.7156C17.2997 50.0022 17.2649 50.2431 17.3224 50.4384C17.38 50.6337 17.4905 50.7681 17.6549 50.8412C17.8202 50.9149 17.9911 50.9096 18.1671 50.8259C18.3429 50.7426 18.4931 50.5615 18.617 50.2837C18.7534 49.9778 18.7945 49.7275 18.7403 49.5322C18.6867 49.336 18.5734 49.2003 18.4002 49.1232C18.2321 49.048 18.0606 49.0543 17.8868 49.1413C17.713 49.2283 17.5594 49.42 17.4276 49.7156ZM21.0619 51.4345L21.4621 51.5964C21.3317 51.8212 21.1608 51.9765 20.9485 52.0627C20.7359 52.1483 20.4924 52.1545 20.2183 52.0808C19.8728 51.9881 19.6273 51.8081 19.4824 51.5414C19.3367 51.2744 19.3157 50.9487 19.4189 50.5646C19.5258 50.1666 19.7112 49.886 19.9742 49.7213C20.2381 49.5569 20.5327 49.5177 20.8592 49.6056C21.175 49.6904 21.4043 49.8675 21.5463 50.136C21.6892 50.4047 21.7079 50.7347 21.6036 51.1241C21.5971 51.1482 21.5866 51.184 21.5724 51.2304L19.811 50.7576C19.7554 51.0212 19.7758 51.2398 19.8711 51.413C19.966 51.5865 20.1114 51.6996 20.309 51.7526C20.4556 51.792 20.5913 51.7869 20.7161 51.7373C20.8405 51.6885 20.9556 51.5876 21.0619 51.4345ZM19.9212 50.4339L21.2402 50.7882C21.2759 50.5853 21.2651 50.422 21.209 50.301C21.1228 50.1125 20.9783 49.9908 20.7753 49.9364C20.5916 49.8871 20.4201 49.9069 20.2619 49.9962C20.1035 50.0858 19.9901 50.2318 19.9212 50.4339ZM25.7725 51.8121L26.2054 51.9717C26.0738 52.3263 25.8765 52.5871 25.6146 52.7538C25.3518 52.9199 25.0465 52.984 24.6959 52.9468C24.3342 52.9088 24.0479 52.8042 23.8364 52.6333C23.6255 52.4615 23.4753 52.2299 23.3866 51.9383C23.2981 51.646 23.2704 51.3396 23.3041 51.019C23.3409 50.6695 23.4396 50.3715 23.6009 50.1252C23.7622 49.8789 23.9728 49.7011 24.2344 49.592C24.4949 49.4826 24.7733 49.4443 25.0698 49.4755C25.406 49.5109 25.679 49.626 25.8901 49.8213C26.101 50.0166 26.2354 50.2735 26.2924 50.5935L25.8445 50.6508C25.7921 50.3976 25.6982 50.2083 25.5616 50.0807C25.4255 49.9534 25.2453 49.8783 25.0199 49.8545C24.7622 49.8273 24.5406 49.8664 24.354 49.9716C24.1672 50.0773 24.0278 50.2304 23.9362 50.4319C23.8438 50.6323 23.786 50.8438 23.7625 51.0649C23.7324 51.3509 23.7477 51.604 23.8078 51.8263C23.8693 52.0477 23.9813 52.2209 24.1463 52.345C24.311 52.4692 24.4952 52.5417 24.7002 52.5633C24.9488 52.5894 25.1667 52.5398 25.3547 52.4148C25.5426 52.2892 25.6818 52.0879 25.7725 51.8121ZM26.4684 51.8796C26.4369 51.4277 26.5393 51.0842 26.776 50.8495C26.9727 50.6544 27.2221 50.5456 27.524 50.5246C27.8596 50.5014 28.142 50.5921 28.3699 50.7976C28.5984 51.0025 28.7254 51.2988 28.7523 51.6863C28.7741 52.0006 28.7441 52.2509 28.6627 52.4371C28.5811 52.6242 28.4535 52.7733 28.2809 52.8853C28.1074 52.9976 27.9146 53.0605 27.7012 53.0752C27.3602 53.099 27.0764 53.0092 26.8502 52.8042C26.624 52.6001 26.497 52.292 26.4684 51.8796ZM26.8933 51.8501C26.9151 52.163 26.9996 52.3921 27.147 52.5378C27.2944 52.6843 27.4716 52.7501 27.6777 52.7356C27.8832 52.7215 28.0487 52.631 28.1743 52.4655C28.2993 52.3 28.3509 52.057 28.3288 51.737C28.3075 51.4348 28.2236 51.2106 28.0754 51.0649C27.9274 50.9192 27.7519 50.8531 27.5478 50.8676C27.3415 50.8818 27.1754 50.9714 27.0495 51.1355C26.9236 51.2993 26.8718 51.538 26.8933 51.8501ZM29.565 52.8796L29.3439 50.7675L28.9802 50.8058L28.9467 50.4852L29.3101 50.4469L29.2832 50.1881C29.2662 50.0249 29.2682 49.9013 29.2889 49.8194C29.3175 49.708 29.3779 49.6138 29.4711 49.537C29.5641 49.4599 29.7008 49.4126 29.8813 49.3936C29.9973 49.3817 30.1268 49.3814 30.2705 49.3947L30.2464 49.761C30.1594 49.7542 30.0775 49.755 30.0007 49.7629C29.8756 49.776 29.79 49.812 29.7441 49.8712C29.6974 49.9299 29.682 50.0328 29.6974 50.1796L29.7206 50.4041L30.1948 50.3545L30.2283 50.6751L29.7543 50.7247L29.9754 52.8368L29.565 52.8796ZM30.9267 52.7478L30.6319 50.6448L30.2699 50.6955L30.2252 50.3764L30.5874 50.3256L30.5511 50.068C30.5285 49.9052 30.5262 49.7817 30.5438 49.6989C30.5687 49.5869 30.626 49.4905 30.7164 49.4106C30.8068 49.3304 30.9415 49.2782 31.1215 49.253C31.2366 49.2368 31.3661 49.232 31.5101 49.2405L31.4988 49.6073C31.4117 49.6036 31.3298 49.607 31.2533 49.6178C31.1288 49.6354 31.0447 49.6742 31.0007 49.7352C30.9559 49.7953 30.9443 49.8984 30.9647 50.045L30.9959 50.2684L31.4679 50.2023L31.5127 50.5215L31.0407 50.5875L31.3355 52.6906L30.9267 52.7478ZM33.7041 51.3475L34.1324 51.2951C34.1273 51.555 34.0531 51.7736 33.9094 51.9519C33.7648 52.1296 33.555 52.2532 33.2795 52.3218C32.9325 52.408 32.6304 52.3697 32.3744 52.2067C32.1176 52.0437 31.9413 51.7693 31.8454 51.3832C31.7457 50.9833 31.7717 50.6479 31.9223 50.3764C32.0731 50.1048 32.312 49.9276 32.64 49.846C32.9575 49.7672 33.2438 49.8108 33.498 49.977C33.7532 50.1425 33.9298 50.422 34.0273 50.8135C34.0332 50.8378 34.0414 50.8738 34.0516 50.9215L32.2817 51.362C32.3611 51.6194 32.4847 51.8008 32.6519 51.9059C32.8194 52.0117 33.0014 52.04 33.1998 51.9907C33.347 51.9541 33.4632 51.8838 33.5482 51.7801C33.6335 51.6769 33.6854 51.5329 33.7041 51.3475ZM32.2213 51.0255L33.5465 50.6955C33.4793 50.5008 33.3909 50.3633 33.2832 50.2848C33.1165 50.1618 32.9308 50.1252 32.727 50.176C32.5425 50.2219 32.4022 50.3225 32.3069 50.4773C32.212 50.6323 32.1836 50.8152 32.2213 51.0255ZM36.2199 50.5059L36.6368 50.3942C36.668 50.6522 36.6249 50.8792 36.5076 51.0757C36.3891 51.2718 36.1983 51.4232 35.9353 51.5295C35.6036 51.6633 35.2992 51.6675 35.0228 51.5417C34.7459 51.4161 34.5333 51.1686 34.3842 50.7999C34.2299 50.4177 34.209 50.0818 34.3204 49.7921C34.4321 49.5022 34.6438 49.2935 34.9573 49.1671C35.2606 49.0446 35.5503 49.048 35.8253 49.177C36.1011 49.3057 36.3148 49.558 36.4656 49.9319C36.475 49.9551 36.4883 49.9897 36.505 50.0356L34.8133 50.7182C34.9278 50.962 35.0758 51.1244 35.2558 51.2049C35.4361 51.2866 35.6206 51.2894 35.81 51.2129C35.9509 51.1562 36.056 51.0703 36.126 50.9558C36.1961 50.8418 36.2272 50.6919 36.2199 50.5059ZM34.707 50.3931L35.9733 49.8823C35.8797 49.6986 35.7728 49.5747 35.6552 49.5121C35.4729 49.4134 35.2842 49.4032 35.0894 49.4817C34.9131 49.5529 34.7881 49.672 34.7155 49.8386C34.6427 50.0053 34.6404 50.1904 34.707 50.3931ZM38.8054 50.308L37.0674 47.4127L38.3507 46.6423C38.6089 46.4872 38.8209 46.396 38.9862 46.3673C39.1515 46.3387 39.3136 46.3659 39.4735 46.449C39.6331 46.5329 39.7603 46.6545 39.8559 46.8138C39.9792 47.0193 40.0166 47.2313 39.9678 47.4524C39.9196 47.673 39.7677 47.8861 39.5132 48.0914C39.6441 48.0789 39.7496 48.0806 39.8309 48.0967C40.0041 48.1322 40.1875 48.1974 40.3803 48.2906L41.3568 48.7765L40.8746 49.0656L40.13 48.6929C39.9143 48.5868 39.7416 48.5089 39.6138 48.4607C39.4862 48.4117 39.3828 48.3859 39.3037 48.3839C39.224 48.3813 39.1506 48.3904 39.0826 48.4111C39.0333 48.4287 38.9598 48.4664 38.8606 48.5259L38.4164 48.7926L39.188 50.0782L38.8054 50.308ZM38.2174 48.461L39.0412 47.9666C39.2158 47.8617 39.3422 47.7608 39.4188 47.6656C39.4962 47.5695 39.5361 47.4666 39.5395 47.3563C39.5432 47.2461 39.5168 47.1446 39.4607 47.0508C39.3785 46.9138 39.2617 46.8308 39.1089 46.8024C38.957 46.7735 38.7736 46.824 38.5585 46.9532L37.6426 47.5032L38.2174 48.461ZM40.9206 47.6302C40.6482 47.2682 40.547 46.9243 40.6175 46.5986C40.6765 46.3279 40.8265 46.1009 41.0682 45.9186C41.337 45.7165 41.623 45.6388 41.926 45.6873C42.2293 45.7343 42.4972 45.9138 42.7308 46.2239C42.9204 46.4759 43.0315 46.7021 43.0647 46.9025C43.0979 47.1038 43.0723 47.2985 42.9884 47.4864C42.904 47.6749 42.7767 47.8328 42.606 47.9615C42.3328 48.167 42.0459 48.2464 41.7446 48.1977C41.4436 48.1495 41.1694 47.9604 40.9206 47.6302ZM41.261 47.3739C41.4498 47.6242 41.6454 47.7705 41.8483 47.8124C42.0516 47.8552 42.2358 47.8138 42.4014 47.6894C42.5658 47.5655 42.6554 47.3997 42.6704 47.1922C42.6851 46.9856 42.5961 46.7534 42.4031 46.4971C42.2211 46.2554 42.0283 46.1131 41.8248 46.0717C41.6213 46.03 41.4382 46.0703 41.2749 46.1933C41.1096 46.3177 41.0189 46.4835 41.0028 46.6893C40.9866 46.8954 41.0728 47.1239 41.261 47.3739ZM44.9163 45.5132C44.8888 45.7134 44.8406 45.8806 44.7717 46.0155C44.7017 46.1505 44.6062 46.2724 44.4851 46.3812C44.2853 46.5609 44.0886 46.6502 43.893 46.6494C43.6982 46.648 43.5318 46.5714 43.3958 46.4198C43.3153 46.3305 43.262 46.2313 43.2368 46.121C43.211 46.011 43.211 45.9041 43.2365 45.8007C43.2625 45.6969 43.3056 45.5966 43.3677 45.4996C43.4136 45.4299 43.4905 45.3321 43.5996 45.2077C43.8218 44.9537 43.9738 44.7536 44.054 44.6064C44.0171 44.5634 43.9936 44.5359 43.9837 44.5248C43.8706 44.3989 43.7614 44.3363 43.6571 44.3383C43.5157 44.3386 43.3674 44.4097 43.2124 44.5492C43.0675 44.6796 42.9831 44.8009 42.9592 44.9143C42.936 45.0271 42.966 45.1629 43.0491 45.3222L42.7106 45.5515C42.6225 45.3982 42.5734 45.253 42.5649 45.1178C42.5559 44.982 42.5919 44.8386 42.6724 44.6892C42.7523 44.5398 42.8702 44.3947 43.027 44.2535C43.1826 44.1138 43.3249 44.0194 43.4547 43.9684C43.5848 43.9179 43.6971 43.8995 43.7932 43.9134C43.8887 43.9278 43.9828 43.9689 44.0778 44.037C44.1351 44.0806 44.2255 44.1708 44.3485 44.3074L44.7181 44.7184C44.9764 45.0053 45.1459 45.1807 45.2272 45.244C45.3083 45.3083 45.4004 45.3579 45.5016 45.3928L45.1796 45.6825C45.0906 45.647 45.0022 45.5912 44.9163 45.5132ZM44.2711 44.8477C44.2002 44.9951 44.0673 45.1844 43.8728 45.4174C43.7626 45.5495 43.6909 45.651 43.6594 45.7207C43.6274 45.7908 43.6163 45.8611 43.6282 45.9305C43.639 46.0002 43.6679 46.0617 43.7164 46.1156C43.7904 46.1981 43.8836 46.2381 43.995 46.2372C44.1059 46.2358 44.2218 46.1814 44.3414 46.0737C44.4602 45.9668 44.543 45.8457 44.5886 45.7108C44.6339 45.5756 44.6382 45.4427 44.6005 45.314C44.5713 45.2145 44.4951 45.0968 44.3732 44.9611L44.2711 44.8477ZM45.3259 44.541L45.5524 44.1937C45.6896 44.2867 45.8262 44.323 45.9623 44.3037C46.0972 44.2844 46.2282 44.2048 46.3551 44.0639C46.4824 43.9224 46.5479 43.7912 46.5522 43.6713C46.5561 43.5508 46.5193 43.4553 46.4422 43.3858C46.3722 43.3226 46.2905 43.3039 46.1956 43.3286C46.1301 43.3459 46.0008 43.4199 45.8078 43.5497C45.5473 43.7234 45.3568 43.8363 45.2363 43.8853C45.1164 43.9352 44.9985 43.9497 44.8845 43.9281C44.7703 43.9068 44.6685 43.8564 44.5798 43.7765C44.4987 43.7033 44.4406 43.6171 44.4055 43.5177C44.3692 43.4184 44.3579 43.3161 44.3695 43.2112C44.3777 43.1319 44.4063 43.0392 44.4559 42.9346C44.5061 42.8294 44.5739 42.7296 44.6592 42.6349C44.7876 42.4926 44.9211 42.3866 45.0594 42.3152C45.1978 42.244 45.3248 42.2146 45.4413 42.2265C45.5583 42.2387 45.6833 42.288 45.818 42.3744L45.5884 42.7126C45.4824 42.6423 45.3735 42.6162 45.2621 42.6344C45.1504 42.6522 45.0404 42.7214 44.9327 42.8413C44.8052 42.9828 44.7374 43.1049 44.73 43.207C44.7221 43.3099 44.7496 43.3898 44.812 43.4459C44.8522 43.4822 44.8996 43.5015 44.9543 43.5055C45.0104 43.5103 45.0722 43.4953 45.1431 43.4615C45.1822 43.4405 45.2899 43.3739 45.4665 43.26C45.7213 43.0947 45.9056 42.9856 46.0201 42.9334C46.1349 42.8801 46.2503 42.8614 46.3651 42.8759C46.4799 42.8906 46.5899 42.9451 46.695 43.0397C46.7976 43.1324 46.8668 43.2495 46.9039 43.3912C46.9405 43.533 46.9326 43.6826 46.8807 43.84C46.8285 43.9976 46.7378 44.1475 46.6094 44.2901C46.3962 44.5265 46.1851 44.6623 45.9756 44.6977C45.7658 44.7331 45.5493 44.681 45.3259 44.541ZM47.762 42.0547L48.099 42.2103C48.0539 42.3203 48.006 42.4141 47.9545 42.4904C47.87 42.6154 47.7852 42.6987 47.6991 42.741C47.6137 42.7829 47.529 42.796 47.4456 42.7804C47.3629 42.7653 47.2174 42.6882 47.0116 42.5491L45.8452 41.7616L45.6751 42.0139L45.4078 41.8336L45.5782 41.5813L45.0756 41.242L45.1008 40.761L45.8089 41.2392L46.0422 40.8939L46.3092 41.0742L46.0762 41.4194L47.2617 42.2197C47.36 42.2863 47.4264 42.3226 47.4624 42.3297C47.4986 42.3362 47.5341 42.3316 47.5695 42.3158C47.6044 42.2993 47.6392 42.2662 47.6735 42.2151C47.6993 42.1769 47.7288 42.1233 47.762 42.0547ZM48.6591 40.0089L48.9191 39.6642C49.1025 39.8482 49.2082 40.0537 49.2368 40.2808C49.2641 40.5084 49.2071 40.7451 49.0651 40.9908C48.8862 41.3004 48.6489 41.4912 48.3536 41.562C48.0579 41.6335 47.7382 41.5697 47.3938 41.3707C47.0369 41.1643 46.8138 40.9129 46.7228 40.6158C46.6324 40.3185 46.6709 40.024 46.8402 39.7311C47.0037 39.448 47.2342 39.2725 47.5304 39.2047C47.8269 39.1364 48.1503 39.2036 48.4996 39.4051C48.5214 39.4179 48.5528 39.4369 48.5942 39.4627L47.6818 41.0422C47.9219 41.1638 48.1384 41.2006 48.33 41.1536C48.5222 41.1065 48.6694 40.9954 48.7717 40.8185C48.8474 40.687 48.8777 40.5546 48.8621 40.4214C48.8474 40.2884 48.7796 40.1509 48.6591 40.0089ZM47.3977 40.8517L48.0809 39.6691C47.8941 39.582 47.7336 39.5503 47.6024 39.5732C47.398 39.6078 47.243 39.7161 47.1378 39.8978C47.0428 40.0625 47.0176 40.2331 47.063 40.4092C47.1083 40.5855 47.2203 40.7326 47.3977 40.8517ZM49.8803 39.5083L47.6642 38.4737L47.8218 38.1361L48.1574 38.2925C48.0409 38.1332 47.974 38.0048 47.9584 37.9082C47.9425 37.8124 47.9545 37.72 47.9953 37.6324C48.0545 37.5054 48.1551 37.3962 48.2966 37.3027L48.5854 37.5952C48.4879 37.6607 48.4179 37.7401 48.3751 37.8319C48.3366 37.9147 48.3272 37.9997 48.3456 38.0882C48.3649 38.1769 48.4117 38.2551 48.4862 38.3237C48.5999 38.428 48.7362 38.5171 48.8953 38.591L50.0558 39.133L49.8803 39.5083ZM51.5196 38.3152L51.1431 38.2055C51.2013 38.1313 51.2438 38.0635 51.2701 38.0014C51.3061 37.9167 51.3206 37.8427 51.3138 37.78C51.3073 37.7165 51.286 37.6587 51.2483 37.6043C51.2211 37.5638 51.1426 37.4852 51.0142 37.3673C50.9955 37.3509 50.9702 37.3265 50.9354 37.2936L48.317 37.189L48.4916 36.778L49.994 36.863C50.1853 36.8732 50.3823 36.8922 50.585 36.9217C50.4288 36.8032 50.2803 36.6785 50.1388 36.5467L49.0313 35.5081L49.1935 35.1268L51.1191 36.9557C51.3274 37.1527 51.4671 37.2967 51.5389 37.3869C51.6361 37.5085 51.6948 37.625 51.7163 37.7375C51.7373 37.8506 51.7228 37.9674 51.6712 38.089C51.6398 38.1627 51.589 38.2378 51.5196 38.3152Z" fill="#CAFD35"/>
</svg>
