<svg width="56" height="56" viewBox="0 0 56 56" fill="none" xmlns="http://www.w3.org/2000/svg">
<path fill-rule="evenodd" clip-rule="evenodd" d="M27.6343 1.97361C34.776 1.84424 41.2949 4.62311 46.0607 9.21937C50.8266 13.8156 53.8398 20.2303 53.9689 27.3727C54.0983 34.5143 51.3196 41.0334 46.7233 45.799C42.1269 50.565 35.7122 53.5781 28.57 53.7074C21.4284 53.8365 14.9093 51.0579 10.1436 46.4618C5.37744 41.8652 2.36445 35.4504 2.23533 28.3082C2.10615 21.1667 4.88464 14.6476 9.4809 9.88189C14.0774 5.11591 20.492 2.10292 27.6343 1.97361ZM45.7704 9.52095C41.0812 4.9985 34.6673 2.26456 27.6409 2.3917C20.6153 2.51891 14.3048 5.48316 9.78267 10.1721C5.26022 14.8613 2.52628 21.2755 2.65342 28.3017C2.76529 34.4771 5.06957 40.0996 8.80986 44.4411C8.85568 44.6315 8.93051 44.8121 9.03659 44.9799C9.16508 45.1824 9.33028 45.3538 9.52507 45.4938L9.54766 45.5102C9.69644 45.6157 9.85668 45.6985 10.0268 45.7579C10.161 45.8936 10.2966 46.0276 10.4339 46.16C15.123 50.6825 21.5371 53.4164 28.5633 53.2892C35.589 53.1621 41.8994 50.1978 46.4216 45.5086C50.944 40.8197 53.6781 34.4056 53.5508 27.3792C53.4238 20.3535 50.4593 14.0431 45.7704 9.52095ZM27.6677 3.80971C28.643 3.79208 29.6057 3.83338 30.5527 3.92935C30.538 3.96486 30.5246 4.00151 30.5129 4.03899L30.4218 4.33649C29.5193 4.24842 28.6026 4.21126 27.6742 4.22806C26.8058 4.24358 25.9495 4.30652 25.1071 4.4133L25.0708 4.30168C25.0468 4.19808 25.0104 4.10053 24.9636 4.00997C25.8505 3.89416 26.7526 3.82632 27.6677 3.80971ZM38.793 6.31024C38.8512 6.33932 38.9095 6.36815 38.9674 6.39774C38.9283 6.43904 38.8913 6.48358 38.8572 6.53106C38.8395 6.45635 38.8182 6.38278 38.793 6.31024ZM49.4039 16.7009C49.5334 16.9478 49.6585 17.1973 49.7796 17.4495C49.7073 17.4585 49.6347 17.4736 49.5628 17.4959L49.3665 17.5559C49.3077 17.4347 49.248 17.3139 49.1874 17.1939C49.259 17.0719 49.3194 16.9428 49.3687 16.8064C49.3813 16.7714 49.3931 16.7362 49.4039 16.7009ZM52.0599 25.9139C52.099 26.4071 52.1236 26.9046 52.1327 27.4059C52.2011 31.1838 51.3933 34.774 49.8971 37.9829C49.9077 37.8431 49.9037 37.7021 49.8855 37.5601C49.8682 37.4259 49.8397 37.2976 49.7994 37.1764C51.0887 34.1858 51.7774 30.8796 51.7146 27.4126C51.7094 27.1236 51.6987 26.8363 51.6833 26.5502C51.7141 26.5083 51.744 26.4657 51.7732 26.4224C51.8759 26.2702 51.9715 26.1004 52.0599 25.9139ZM46.9807 42.7144C46.4843 43.3436 45.9574 43.9479 45.4015 44.5243C43.6261 46.3653 41.5583 47.9245 39.2716 49.1268C39.4821 48.8872 39.665 48.6286 39.8169 48.3506C41.771 47.2319 43.5487 45.8422 45.0996 44.2338C45.5463 43.7709 45.974 43.2897 46.3818 42.7916L46.9807 42.7144ZM36.6276 50.3183C34.1087 51.274 31.3849 51.8195 28.5367 51.871C27.4972 51.89 26.4721 51.8424 25.4651 51.7323C25.6006 51.7346 25.736 51.7267 25.8708 51.7094L27.1983 51.5382C27.3597 51.5174 27.5207 51.4895 27.6794 51.4529C27.9617 51.4579 28.2454 51.4581 28.5301 51.453C30.5545 51.4165 32.5148 51.1255 34.3814 50.6119L34.4073 50.6087L34.4067 50.6051L34.4112 50.6038C34.5149 50.5898 34.6183 50.5733 34.7207 50.5539C34.7857 50.5524 34.8544 50.5509 34.9186 50.5427C35.228 50.5028 35.5231 50.4095 35.7924 50.2519C36.0666 50.3177 36.3473 50.3393 36.6276 50.3183ZM18.5563 49.9039C16.0694 48.8259 13.7982 47.3388 11.8293 45.5265C11.9455 45.45 12.0552 45.3613 12.1582 45.2604C14.0126 46.9584 16.1379 48.3632 18.4596 49.4037V49.4044C18.4814 49.5733 18.5134 49.7401 18.5563 49.9039ZM9.05377 42.4979C8.73248 42.0811 8.42473 41.6532 8.13073 41.2152C8.34576 41.3601 8.57752 41.478 8.82666 41.5632C8.85027 41.5713 8.87387 41.5791 8.89787 41.5865C8.99351 41.7199 9.09075 41.8525 9.18907 41.9839L9.05377 42.4979ZM6.5745 38.5385C5.03272 35.4421 4.13838 31.963 4.07149 28.275L4.07003 28.1471C4.09727 28.1544 4.12469 28.1605 4.15263 28.1659C4.24357 28.1836 4.30669 28.1949 4.48908 28.2294L4.48958 28.2685C4.54966 31.5878 5.29248 34.7352 6.58157 37.5788C6.54421 37.8963 6.54243 38.2167 6.5745 38.5385ZM5.48753 19.6843C5.56237 19.4772 5.63994 19.2714 5.72018 19.0668C5.76098 19.1017 5.80444 19.1345 5.85045 19.1646L6.07413 19.3107C6.04798 19.3782 6.02233 19.446 5.99694 19.5136C5.8171 19.5525 5.64732 19.6091 5.48753 19.6843ZM8.78428 13.5407C8.99529 13.256 9.21248 12.9763 9.43566 12.7014C9.4683 12.7553 9.50527 12.8078 9.54689 12.8577L9.61365 12.9382L9.69937 13.0414C9.5159 13.2694 9.33658 13.5008 9.16145 13.7355L9.14 13.7215C9.12231 13.7086 9.10405 13.696 9.08515 13.6837C8.98938 13.6215 8.88813 13.5741 8.78428 13.5407ZM27.7008 5.64607C28.5963 5.62984 29.4802 5.66738 30.3498 5.75482C30.4429 5.93975 30.5806 6.09992 30.7508 6.21987C29.7549 6.09903 28.739 6.04545 27.7073 6.06422C27.0232 6.07663 26.3469 6.12067 25.6798 6.19461C25.6751 6.17807 25.6701 6.16127 25.6648 6.14466L25.5499 5.78861C26.257 5.70741 26.9746 5.65924 27.7008 5.64607ZM50.2993 27.6846C50.3172 30.1426 49.9335 32.5119 49.2094 34.73C49.1495 34.5232 49.066 34.3246 48.9572 34.1358C49.5579 32.1452 49.881 30.0363 49.8815 27.8549C50.0259 27.8055 50.1651 27.7486 50.2993 27.6846ZM44.2542 43.066C44.1963 43.1275 44.1382 43.1887 44.0796 43.2494C42.95 44.4207 41.6922 45.4684 40.3282 46.37C40.331 46.2065 40.3252 46.0422 40.3115 45.8777C41.4925 45.0764 42.5901 44.1625 43.5893 43.1517L44.2542 43.066ZM18.5408 47.8785C17.7744 47.512 17.0321 47.1029 16.317 46.6539C16.453 46.6461 16.5888 46.6328 16.723 46.6157L16.9994 46.5799C17.5391 46.9003 18.0938 47.1981 18.662 47.472C18.6204 47.5892 18.584 47.7086 18.5527 47.8304C18.5488 47.8465 18.5448 47.8625 18.5408 47.8785ZM13.2023 44.2933C13.0926 44.194 12.9838 44.0933 12.8762 43.9917C12.8786 43.9831 12.881 43.9744 12.8835 43.9656C12.8926 43.9387 12.9008 43.9115 12.9082 43.8841L12.9348 43.7832L13.2023 44.2933ZM7.30944 35.6278C6.44698 33.3255 5.95487 30.8398 5.90778 28.2418L5.90619 28.1141C6.08437 27.9898 6.22908 27.8203 6.32339 27.6215C6.32142 27.8255 6.32218 28.0301 6.32575 28.2352C6.37017 30.6884 6.81931 33.0394 7.60757 35.2264L7.60598 35.2286C7.58015 35.2562 7.55597 35.2852 7.53293 35.3152C7.45447 35.4171 7.37976 35.5212 7.30944 35.6278ZM10.225 14.6807C10.4204 14.4159 10.6216 14.1556 10.8282 13.8998C11.0243 13.9289 11.2252 13.9112 11.4134 13.8479C11.031 14.3037 10.6668 14.7755 10.322 15.2618C10.3359 15.063 10.3024 14.8635 10.225 14.6807ZM27.734 7.48223C28.6565 7.46562 29.5653 7.51093 30.4574 7.6137L30.4241 7.72176C30.1202 7.69452 29.8227 7.78024 29.5832 7.95123C28.9758 7.90668 28.3612 7.88918 27.7405 7.90038C27.2405 7.90936 26.745 7.93697 26.2547 7.98209L26.1916 7.7831L26.1923 7.78546C26.1984 7.80461 26.1798 7.74594 26.1912 7.78183L26.1243 7.57444C26.655 7.52315 27.1918 7.49196 27.734 7.48223ZM48.4617 28.1071C48.4402 29.8166 48.207 31.4769 47.7871 33.0626C47.6602 33.0019 47.5293 32.9508 47.3946 32.9095C47.7975 31.373 48.0219 29.7656 48.0434 28.111C48.1731 28.1205 48.3035 28.1199 48.4348 28.1093L48.4617 28.1071ZM41.1573 43.4652C40.7583 43.7991 40.3465 44.118 39.9222 44.4209C39.8585 44.2954 39.7873 44.1746 39.7083 44.0594C39.9307 43.8997 40.1499 43.7358 40.3654 43.5675L41.1573 43.4652ZM8.75252 34.1957C8.13321 32.3085 7.78181 30.2981 7.74395 28.2085C7.74159 28.0825 7.74108 27.9568 7.74108 27.8313L7.77099 27.8369L7.82025 27.8462C7.82731 28.1691 7.95917 28.4713 8.17706 28.6952C8.2552 30.5356 8.58223 32.3097 9.12447 33.9857C9.04041 34.0279 8.95724 34.073 8.87515 34.121C8.83385 34.1454 8.79293 34.1702 8.75252 34.1957ZM27.7674 9.31839C28.1428 9.31171 28.5158 9.31642 28.8864 9.33176C28.8598 9.40621 28.8402 9.48397 28.8279 9.56518C28.8187 9.62633 28.8142 9.68729 28.814 9.74756C28.4695 9.73419 28.1228 9.73018 27.7739 9.73655C27.4391 9.74266 27.1068 9.75799 26.7769 9.78198C26.7751 9.66076 26.7556 9.53775 26.7168 9.41652L26.7013 9.36835C27.054 9.34181 27.4094 9.32488 27.7674 9.31839ZM46.625 27.5793C46.6506 29.3889 46.4158 31.1419 45.9547 32.8028L45.948 32.8036C45.7944 32.8235 45.6432 32.8519 45.4951 32.8891C45.9895 31.185 46.2397 29.379 46.206 27.5122C46.2044 27.417 46.2016 27.3219 46.1984 27.227C46.3364 27.3587 46.4785 27.4761 46.625 27.5793ZM10.4786 33.5623C10.0286 32.1746 9.73742 30.714 9.6272 29.2018L9.64559 29.2055V29.2044C9.70477 29.2156 9.76555 29.2226 9.8274 29.2249C9.9023 29.2279 9.97587 29.2242 10.0475 29.2145C10.1597 30.7086 10.453 32.1508 10.9049 33.5199C10.7916 33.5257 10.6782 33.5358 10.5648 33.5504C10.5362 33.5542 10.5073 33.5582 10.4786 33.5623ZM27.8006 11.1547C32.4073 11.0714 36.6125 12.8637 39.6866 15.8285C42.7609 18.7933 44.7046 22.9314 44.7878 27.5389C44.8258 29.6366 44.4746 31.6508 43.8011 33.5131C43.6824 33.4359 43.5565 33.3734 43.4237 33.326C44.07 31.5227 44.4064 29.574 44.3698 27.5456C44.2885 23.0546 42.3935 19.0208 39.3962 16.1302C36.3987 13.2393 32.2985 11.4915 27.8071 11.5728C23.3162 11.654 19.2826 13.549 16.3919 16.5465C13.5008 19.5439 11.7532 23.6441 11.8346 28.1356C11.8725 30.2364 12.3078 32.2372 13.0668 34.0678C12.8859 33.9539 12.6972 33.8571 12.5011 33.7777C11.8333 32.0237 11.4524 30.1265 11.4165 28.1421C11.3331 23.5352 13.1254 19.3302 16.0901 16.256C19.0551 13.1817 23.1931 11.238 27.8006 11.1547ZM27.6011 0.137447C35.2497 -0.00108933 42.2315 2.97493 47.3356 7.89746C52.4398 12.82 55.6667 19.6901 55.8052 27.3394C55.9436 34.9879 52.9678 41.97 48.0452 47.0738C43.1225 52.1781 36.2524 55.405 28.6031 55.5435C20.9545 55.6821 13.9727 52.706 8.86885 47.7835C3.76445 42.8609 0.537702 35.9909 0.399166 28.3414C0.26063 20.693 3.23646 13.7111 8.15905 8.60713C13.0818 3.50292 19.9518 0.275983 27.6011 0.137447ZM47.0453 8.19909C42.0178 3.35045 35.1409 0.419038 27.6076 0.555538C20.075 0.691911 13.3093 3.87017 8.46081 8.89737C3.61204 13.9249 0.680948 20.8018 0.81713 28.3349C0.953693 35.8677 4.13188 42.6334 9.15909 47.4817C14.1865 52.3305 21.0634 55.2617 28.5966 55.1254C36.1292 54.989 42.8951 51.8108 47.7434 46.7836C52.5922 41.7562 55.5235 34.8793 55.3871 27.3461C55.2507 19.8133 52.0723 13.0475 47.0453 8.19909Z" fill="white"/>
<path fill-rule="evenodd" clip-rule="evenodd" d="M11.1549 21.1271C10.9332 20.9821 10.7105 20.8371 10.4891 20.6924C10.5631 20.5086 10.6383 20.327 10.7171 20.1458C10.7346 20.1063 10.7523 20.0661 10.7702 20.0264C10.7767 20.0118 10.784 19.9967 10.7911 19.982C10.8281 19.9041 10.7815 19.8069 10.6493 19.6959C10.623 19.6749 10.5952 19.6546 10.5687 19.6332C10.4622 19.5643 10.3555 19.4952 10.2492 19.4252C9.85724 19.1696 9.46486 18.9133 9.07324 18.6571C8.68035 18.4002 8.28752 18.1441 7.89572 17.8874C7.78403 17.8141 7.70322 17.7775 7.65288 17.7772C7.60242 17.7767 7.55475 17.8068 7.5153 17.8701C7.50518 17.8867 7.49901 17.9053 7.49162 17.922C7.47845 17.9522 7.46458 17.9823 7.45033 18.011C7.36932 18.1906 7.29104 18.3708 7.21436 18.5523C6.9896 18.4054 6.76502 18.2584 6.54102 18.112C6.80435 17.5182 7.08111 16.9347 7.39496 16.3739C7.70792 15.8142 8.05411 15.2743 8.40328 14.7366C8.62518 14.8825 8.84632 15.0274 9.06872 15.1724C8.96086 15.3369 8.85357 15.5009 8.74787 15.6658C8.73215 15.6915 8.71612 15.7168 8.7004 15.7408C8.68939 15.7599 8.67482 15.7767 8.66578 15.7958C8.63511 15.8599 8.63492 15.9197 8.6584 15.9744C8.68162 16.0278 8.74622 16.0891 8.85172 16.1584C9.33714 16.4761 9.82383 16.7933 10.3094 17.1112C10.7944 17.4285 11.2809 17.7456 11.7666 18.0627C11.8724 17.8878 11.9777 17.7124 12.0904 17.5414C12.4681 16.9654 12.672 16.5466 12.6824 16.2704C12.6936 15.9953 12.5102 15.7341 12.1287 15.4848C12.0466 15.4311 11.9636 15.3764 11.881 15.3226C12.0935 15.044 12.3107 14.7685 12.5331 14.4968C12.854 14.7068 13.1754 14.9168 13.4958 15.1264C13.8175 15.3367 14.1394 15.5458 14.4601 15.7552C13.788 16.5697 13.1497 17.4076 12.5971 18.3015C12.0437 19.1968 11.5792 20.1478 11.1549 21.1271ZM5.19079 27.0846C4.92492 27.0326 4.65688 26.983 4.39062 26.9313C4.42111 26.2342 4.45897 25.5399 4.54412 24.8523C4.62945 24.1683 4.74979 23.4869 4.89927 22.8127C5.02686 22.23 5.16413 21.826 5.27683 21.5947C5.38851 21.3613 5.57611 21.1426 5.83606 20.9395C6.09958 20.7346 6.42107 20.6706 6.80308 20.7426C7.15359 20.81 7.38287 20.9644 7.49563 21.2033C7.60961 21.4432 7.67872 21.7103 7.70163 22.0069C7.70487 22.0521 7.70773 22.096 7.71155 22.1413C7.73389 22.0994 7.7561 22.0561 7.7799 22.0134C8.02592 21.5637 8.31801 21.2422 8.64523 21.0497C8.97658 20.8553 9.31462 20.7923 9.65774 20.8578C9.74989 20.8753 9.90809 20.9328 10.132 21.031C10.3542 21.1286 10.5111 21.3341 10.6075 21.6432C10.7051 21.9544 10.7074 22.3799 10.5954 22.9157C10.5667 23.0463 10.5238 23.1725 10.4909 23.3011C10.3133 24.0646 10.1542 24.8339 10.0538 25.6112C9.95429 26.3916 9.91082 27.1787 9.8785 27.9708C9.61282 27.9201 9.34548 27.8693 9.07884 27.8175C9.08533 27.6308 9.09183 27.4448 9.09851 27.2583C9.10124 27.2263 9.10156 27.193 9.10411 27.1598C9.105 27.1295 9.10754 27.0999 9.10882 27.0698C9.11785 26.9056 9.00725 26.8035 8.77275 26.7575C8.65114 26.7332 8.52922 26.7054 8.40907 26.6793C7.93848 26.5896 7.46872 26.5008 6.99991 26.4107C6.53129 26.3203 6.06083 26.231 5.59125 26.1417C5.45902 26.1166 5.36833 26.1163 5.32048 26.1396C5.27288 26.1637 5.23769 26.2229 5.22401 26.3199C5.22 26.3529 5.22019 26.3862 5.21783 26.4188C5.21713 26.455 5.21516 26.4902 5.21281 26.5254C5.20434 26.7121 5.19709 26.8977 5.19079 27.0846ZM6.86353 24.3635C6.91152 24.0844 6.96332 23.8048 7.01887 23.5239C7.02765 23.4844 7.03974 23.4456 7.04356 23.4047C7.07258 23.1451 7.03962 22.9503 6.95193 22.8199C6.86334 22.69 6.69992 22.6023 6.46053 22.5565C6.2273 22.512 6.04097 22.5472 5.9053 22.6609C5.76842 22.7759 5.66125 22.9924 5.59634 23.3109C5.54276 23.5703 5.49599 23.8322 5.45074 24.0936C5.68722 24.1389 5.92299 24.1833 6.15602 24.2295C6.39237 24.2753 6.62903 24.319 6.86353 24.3635ZM9.28611 24.8265C9.32868 24.5695 9.37431 24.314 9.42413 24.057C9.43731 23.9938 9.45442 23.9309 9.46378 23.8667C9.53238 23.3713 9.4564 23.0789 9.23685 22.9866C9.01788 22.896 8.86942 22.8429 8.79401 22.8282C8.29618 22.7326 7.95197 23.045 7.79632 23.7725C7.74312 24.0186 7.70302 24.2678 7.66083 24.5168C7.93231 24.568 8.20365 24.6189 8.47366 24.671C8.74424 24.7242 9.01463 24.774 9.28611 24.8265ZM49.1557 18.9345C49.4153 18.8552 49.6741 18.7754 49.9337 18.6963C50.1848 19.2661 50.4258 19.8396 50.6192 20.4292C50.8129 21.0177 50.9718 21.6176 51.1113 22.2208C51.2516 22.8242 51.3014 23.3778 51.2801 23.8733C51.2592 24.371 51.1665 24.812 51.0097 25.1939C50.8529 25.5773 50.6401 25.8946 50.3686 26.1435C50.0988 26.3948 49.7728 26.5799 49.3861 26.6982C49.1739 26.7642 48.8241 26.8165 48.3383 26.855C47.8535 26.8946 47.3904 26.6704 46.9404 26.19C46.7152 25.948 46.5138 25.63 46.3325 25.2383C46.1507 24.8453 45.9897 24.3784 45.8409 23.8375C45.6775 23.2425 45.4978 22.6514 45.3 22.068C45.0988 21.4845 44.8636 20.9116 44.6164 20.3421C44.8747 20.2624 45.1338 20.183 45.3917 20.1027C45.4733 20.2824 45.5527 20.462 45.6284 20.6434C45.6409 20.6726 45.6528 20.7025 45.6661 20.7326C45.6766 20.7608 45.6867 20.7907 45.6993 20.8172C45.7379 20.8906 45.7911 20.9366 45.8521 20.9585C45.9113 20.9786 46.0031 20.9722 46.1259 20.9341C46.1788 20.9163 46.2331 20.8986 46.2877 20.8833C46.7744 20.7333 47.2602 20.5856 47.7469 20.4366C48.2334 20.2887 48.7206 20.1413 49.2067 19.9909C49.3368 19.9517 49.4178 19.9126 49.4546 19.8736C49.4918 19.8334 49.4961 19.7759 49.464 19.6994C49.4613 19.6741 49.4602 19.6488 49.458 19.6254C49.445 19.594 49.4335 19.5632 49.4211 19.5342C49.3375 19.3328 49.2468 19.1335 49.1557 18.9345ZM46.4427 22.9194C46.5035 23.1282 46.5632 23.3367 46.6193 23.5465C46.7647 24.0961 46.981 24.465 47.2793 24.6514C47.5745 24.8381 48.0063 24.8442 48.5799 24.6681C48.6665 24.6414 48.754 24.6138 48.8425 24.588C48.9322 24.5599 49.0253 24.5382 49.1149 24.5116C49.7236 24.3285 50.1071 24.0817 50.2707 23.786C50.435 23.4882 50.455 23.0396 50.3167 22.4409C50.2647 22.2204 50.208 22.0018 50.1492 21.7859C49.5317 21.9741 48.9127 22.1636 48.2956 22.3512C47.6782 22.5416 47.0601 22.7297 46.4427 22.9194ZM43.9761 11.3749C44.1915 11.2077 44.4088 11.0404 44.6262 10.8731C44.8739 11.0929 45.1157 11.3195 45.3474 11.5528C45.5795 11.7858 45.8029 12.0283 46.0156 12.2766C46.2298 12.5241 46.4373 12.7787 46.6417 13.0357C46.8438 13.2911 47.0435 13.5507 47.2404 13.8123C47.5429 14.2098 47.7709 14.574 47.9343 14.896C48.0993 15.2191 48.1989 15.5022 48.2359 15.7413C48.3106 16.223 48.1728 16.6 47.8304 16.8651C47.8049 16.8832 47.7811 16.9027 47.7559 16.9218C47.7288 16.9438 47.591 17.0275 47.345 17.1722C47.0982 17.3172 46.7304 17.1925 46.236 16.7953C46.1649 16.7378 46.0983 16.6756 46.0296 16.6148C46.0442 16.6542 46.0628 16.6956 46.0745 16.7363C46.1662 17.0493 46.1678 17.3237 46.0855 17.5553C46.0038 17.7853 45.8171 18.0151 45.5243 18.2427C45.4035 18.3378 45.2801 18.4322 45.16 18.5258C45.1437 18.5391 45.1253 18.5517 45.11 18.5644C45.0633 18.6057 45.0306 18.6661 45.0037 18.7426C44.9792 18.8165 44.9895 18.8918 45.0368 18.9672C45.0685 19.0181 45.1163 19.0518 45.1777 19.0659C45.2408 19.0788 45.3061 19.0741 45.3717 19.0518C45.4375 19.0292 45.5245 18.974 45.6342 18.8893C45.6936 18.8429 45.7541 18.7956 45.8157 18.7475C45.9471 18.9675 46.0765 19.1887 46.2046 19.4136C46.0895 19.5018 45.9753 19.5897 45.862 19.6795C45.5712 19.9055 45.2763 19.9738 44.9749 19.8933C44.6726 19.8128 44.4 19.5662 44.1415 19.1631C43.7946 18.6233 43.6218 18.1764 43.6402 17.8071C43.6595 17.4415 43.8905 17.0838 44.3365 16.7365C44.3811 16.701 44.4267 16.6667 44.4705 16.6313C44.7362 16.4284 44.88 16.2345 44.9051 16.054C44.9271 15.8748 44.8394 15.654 44.6378 15.3916C44.5207 15.2395 44.4003 15.0876 44.2802 14.939C43.9196 15.2184 43.5589 15.498 43.1986 15.778C43.0932 15.8597 43.0305 15.926 43.0105 15.9749C42.9892 16.026 43.0002 16.0862 43.0455 16.1541C43.0588 16.1737 43.0759 16.1927 43.0906 16.2113C43.1113 16.2361 43.131 16.2628 43.1517 16.2877C43.2726 16.4404 43.3927 16.5945 43.5096 16.7508C43.2971 16.9157 43.0821 17.0821 42.869 17.2481C42.667 16.9883 42.4626 16.7293 42.255 16.4733C42.0469 16.2185 41.8336 15.9668 41.6145 15.7201C41.396 15.4722 41.1677 15.2339 40.9353 14.9982C40.7017 14.7627 40.4627 14.5304 40.221 14.3015C40.4338 14.1346 40.6494 13.9682 40.8633 13.8016C41.0104 13.9349 41.1554 14.0695 41.297 14.2061C41.321 14.2293 41.3446 14.2517 41.3684 14.2749C41.3884 14.2957 41.4106 14.3172 41.4327 14.3393C41.5407 14.4471 41.6879 14.4296 41.8756 14.2818C41.9377 14.2355 41.9987 14.1862 42.0597 14.1395C42.2593 13.9836 42.4587 13.8309 42.6569 13.6762C42.8559 13.5221 43.0543 13.3671 43.2533 13.2123C43.4517 13.0583 43.6517 12.904 43.8502 12.7512C44.0477 12.5954 44.2484 12.4408 44.4463 12.2869C44.6307 12.1433 44.6662 12.0116 44.5512 11.8971C44.5289 11.8762 44.5077 11.8551 44.488 11.8322C44.4644 11.8102 44.4392 11.7876 44.4155 11.7647C44.2726 11.6314 44.126 11.5013 43.9761 11.3749ZM46.0469 13.5664C45.8528 13.7174 45.658 13.868 45.4662 14.0175C45.2727 14.1678 45.0783 14.3185 44.8851 14.4687C45.1075 14.7508 45.3311 15.0355 45.5481 15.3232C45.6528 15.4612 45.792 15.551 45.9683 15.5887C46.1449 15.6255 46.3043 15.5891 46.4463 15.4789C46.6752 15.3021 46.8004 15.1156 46.8224 14.9189C46.8444 14.7243 46.7625 14.4968 46.5686 14.2427C46.3972 14.0156 46.2224 13.7912 46.0469 13.5664ZM39.4118 7.92791C39.5678 7.70601 39.724 7.48469 39.8804 7.26355C40.4887 7.5545 41.0639 7.89164 41.6006 8.28148C42.139 8.67106 42.6461 9.10417 43.1377 9.56057C42.9805 9.7812 42.8256 10.0027 42.6683 10.2237C42.5231 10.0824 42.3744 9.9455 42.224 9.81149C42.1831 9.77521 42.1419 9.7404 42.1003 9.7047C42.0502 9.66143 42.0043 9.6466 41.964 9.65691C41.9248 9.66773 41.8628 9.70833 41.7853 9.78406C41.7627 9.80678 41.744 9.83223 41.7238 9.85673C41.4126 10.2987 41.1 10.7432 40.7895 11.1849C40.4757 11.6265 40.1645 12.0689 39.8531 12.5102C39.7695 12.6308 39.7242 12.7164 39.7154 12.77C39.7081 12.8223 39.7366 12.8753 39.7992 12.928C39.8148 12.9388 39.8286 12.9498 39.8438 12.963C39.8676 12.9831 39.8954 13.0043 39.9194 13.0244C40.0783 13.162 40.2339 13.3027 40.3865 13.4501C40.2316 13.6685 40.0776 13.8875 39.9228 14.107C39.4277 13.6618 38.9106 13.2442 38.3695 12.867C37.8265 12.489 37.2592 12.145 36.6809 11.8195C36.8338 11.6007 36.9892 11.3823 37.1431 11.162C37.3184 11.2509 37.4906 11.3458 37.6602 11.4432C37.6887 11.4604 37.7169 11.4781 37.7455 11.4934C37.7684 11.5071 37.7899 11.5228 37.8141 11.5355C37.8891 11.5717 37.9579 11.5757 38.0195 11.5552C38.0796 11.5353 38.1481 11.4692 38.2246 11.365C38.2692 11.3022 38.3139 11.2364 38.359 11.173C38.6505 10.7585 38.9431 10.3433 39.2346 9.93036C39.5265 9.51634 39.818 9.10022 40.1107 8.68837C40.2475 8.49466 40.2551 8.36408 40.1394 8.2935C40.1209 8.28148 40.1012 8.27244 40.0828 8.26213C40.0549 8.2452 40.0245 8.2284 39.9982 8.21199C39.8083 8.10953 39.6134 8.01395 39.4118 7.92791ZM31.4746 5.19142C31.5546 4.93223 31.6339 4.6717 31.715 4.41309C32.4048 4.51949 33.0899 4.63473 33.764 4.79548C34.4347 4.95495 35.0982 5.15063 35.7519 5.37342C36.3174 5.56503 36.7031 5.74646 36.9212 5.8834C37.1403 6.01997 37.3368 6.23118 37.5098 6.5122C37.6845 6.79614 37.7132 7.12317 37.5987 7.49461C37.4935 7.83532 37.3144 8.04602 37.0642 8.13225C36.8135 8.21867 36.5402 8.2578 36.2431 8.24788C36.1978 8.2461 36.1531 8.24374 36.1081 8.24266C36.1473 8.26951 36.1883 8.29662 36.2274 8.32475C36.6477 8.61856 36.9352 8.94457 37.0899 9.29145C37.2466 9.64266 37.2711 9.98502 37.1683 10.3192C37.1407 10.4093 37.0655 10.559 36.9437 10.7713C36.8223 10.9816 36.601 11.1142 36.2828 11.1759C35.9626 11.2383 35.5397 11.1943 35.0197 11.0231C34.8934 10.9804 34.7724 10.9237 34.6477 10.8767C33.9089 10.6162 33.1619 10.3719 32.4001 10.1869C31.6364 10.0018 30.8586 9.87137 30.0742 9.7523C30.1541 9.49311 30.2348 9.23278 30.3153 8.97269C30.5001 9.00063 30.6849 9.02717 30.8692 9.05529C30.9015 9.06128 30.9336 9.06522 30.9661 9.07152C30.9958 9.07642 31.0252 9.08126 31.0552 9.08616C31.2172 9.11301 31.3311 9.01457 31.4033 8.78656C31.4405 8.66889 31.482 8.55091 31.5202 8.4342C31.6618 7.97659 31.8025 7.51892 31.9432 7.06367C32.0854 6.60689 32.2264 6.14966 32.3668 5.69288C32.4068 5.56427 32.4171 5.47448 32.399 5.42395C32.3801 5.37361 32.3253 5.33282 32.2298 5.30813C32.1981 5.29986 32.1653 5.29661 32.1326 5.29082C32.0971 5.2856 32.0625 5.28051 32.0271 5.27479C31.8433 5.2452 31.6593 5.21777 31.4746 5.19142ZM33.9937 7.15403C34.2655 7.2325 34.539 7.31548 34.8107 7.4017C34.8487 7.41418 34.8866 7.4304 34.9266 7.43957C35.1813 7.49659 35.3792 7.48577 35.517 7.41341C35.6564 7.33909 35.7618 7.18668 35.8336 6.95383C35.904 6.72652 35.8899 6.53746 35.7914 6.39046C35.6922 6.2411 35.4895 6.11122 35.1801 6.01144C34.9283 5.92903 34.6723 5.85381 34.4178 5.77949C34.3465 6.00909 34.2769 6.23875 34.2053 6.46695C34.1342 6.69585 34.0638 6.92602 33.9937 7.15403ZM33.2658 9.51004C33.5165 9.5815 33.7651 9.65488 34.0146 9.73321C34.0759 9.75307 34.1369 9.77757 34.1995 9.7931C34.6838 9.91649 34.9833 9.87353 35.0991 9.66557C35.2138 9.4585 35.2831 9.31614 35.3054 9.24309C35.4559 8.75837 35.1837 8.38228 34.478 8.1467C34.239 8.06677 33.9959 7.99931 33.7536 7.9288C33.6719 8.1934 33.5911 8.45769 33.5099 8.7205C33.4275 8.9837 33.3473 9.2469 33.2658 9.51004ZM17.7311 7.48558C17.6487 7.23288 17.5677 6.97795 17.486 6.7227C18.5005 6.22488 19.5227 5.75263 20.5846 5.39888C21.6449 5.04474 22.7424 4.8061 23.8476 4.58751C23.951 4.912 24.0557 5.23597 24.159 5.55924C24.2631 5.88264 24.3674 6.20553 24.4713 6.52842C24.14 6.58837 23.81 6.65309 23.4834 6.722C23.4555 6.63705 23.4284 6.55229 23.4012 6.46746C23.3027 6.16079 23.1158 5.94831 22.8373 5.83415C22.5626 5.72107 22.1886 5.72629 21.7223 5.85343C21.6367 5.87653 21.5519 5.9023 21.468 5.92795C21.1386 6.02824 20.8107 6.13502 20.4851 6.24779C20.5595 6.47993 20.6355 6.71278 20.7093 6.94441C20.7834 7.17745 20.8588 7.40947 20.9339 7.6411C21.0434 7.60356 21.153 7.56404 21.2634 7.52707C21.4802 7.45509 21.6267 7.35334 21.7036 7.21786C21.7795 7.08314 21.781 6.90203 21.7084 6.67561C21.7005 6.64876 21.6904 6.62152 21.6827 6.59499C21.9738 6.51092 22.2669 6.42921 22.5624 6.35221C22.6802 6.7227 22.7994 7.0916 22.9174 7.4612C23.0361 7.83157 23.1558 8.20028 23.2746 8.56988C22.9912 8.64439 22.7085 8.72337 22.4266 8.80495C22.4117 8.75404 22.3941 8.70262 22.3784 8.65286C22.3209 8.47302 22.2128 8.346 22.054 8.27047C21.8957 8.19398 21.7214 8.18653 21.531 8.25023C21.4095 8.28994 21.2894 8.33321 21.1696 8.3747C21.2539 8.63841 21.3392 8.90289 21.4234 9.1664C21.5075 9.43049 21.5937 9.6935 21.6785 9.9567C22.0386 9.83223 22.3995 9.70941 22.7642 9.60206C23.3442 9.43393 23.7199 9.25804 23.8844 9.05059C24.049 8.84319 24.0634 8.5268 23.9256 8.09706C23.9005 8.01987 23.8754 7.94325 23.8502 7.86568C24.1787 7.79708 24.5073 7.73255 24.8396 7.67299C24.9529 8.02782 25.0678 8.38228 25.1807 8.73673C25.2952 9.09176 25.4095 9.44545 25.5232 9.80009C24.4193 10.0196 23.3224 10.2657 22.2637 10.6243C21.2046 10.9838 20.1829 11.4584 19.1688 11.9584C19.0866 11.7047 19.0054 11.451 18.9245 11.1965C19.1017 11.1037 19.2797 11.0107 19.4599 10.9221C19.4891 10.9079 19.5187 10.894 19.5481 10.8794C19.5727 10.8671 19.5965 10.8547 19.6221 10.8429C19.765 10.7742 19.8018 10.6299 19.7291 10.4067C19.7087 10.3442 19.6894 10.2818 19.6684 10.217C19.5157 9.74295 19.3636 9.26873 19.2106 8.79394C19.0584 8.31826 18.9044 7.84366 18.7523 7.36836C18.7136 7.24713 18.672 7.17115 18.6278 7.1387C18.5833 7.10656 18.521 7.09956 18.4449 7.12877C18.4195 7.13819 18.3948 7.15257 18.3709 7.16447C18.3406 7.17949 18.3114 7.19317 18.2822 7.20761C18.0975 7.29817 17.9142 7.39248 17.7311 7.48558ZM11.014 12.6583C10.8463 12.4575 10.68 12.2573 10.5128 12.056C10.9433 11.5719 11.3824 11.098 11.8493 10.6564C12.3148 10.215 12.8056 9.8001 13.3003 9.39174C13.4661 9.59086 13.6323 9.79036 13.7996 9.98954C13.6483 10.1127 13.4971 10.2375 13.3484 10.3629C13.2491 10.4477 13.1975 10.5226 13.1927 10.5889C13.1882 10.6561 13.2292 10.7404 13.3152 10.8431C13.5548 11.1305 13.7956 11.4189 14.0354 11.7064C14.2744 11.9941 14.5154 12.2808 14.756 12.5683C14.8276 12.65 14.9007 12.7307 14.9712 12.8142C15.1765 13.0561 15.3937 13.1852 15.6291 13.2001C15.8659 13.2145 16.1206 13.1072 16.393 12.8822C16.4444 12.8398 16.4969 12.7931 16.5528 12.7424C16.6107 12.6908 16.748 12.544 16.9715 12.3095C17.1948 12.076 17.1656 11.7889 16.8755 11.4409C16.8266 11.3829 16.7774 11.3235 16.7281 11.2647C16.7141 11.2477 16.6998 11.2313 16.6854 11.2142C16.4311 10.9098 16.176 10.6038 15.9222 10.3001C15.6673 9.99476 15.413 9.69064 15.1582 9.38525C15.0767 9.28744 15.0127 9.22756 14.9663 9.20573C14.9205 9.18429 14.8666 9.18772 14.8078 9.21929C14.7955 9.22578 14.7854 9.23443 14.7747 9.2427C14.7499 9.26059 14.7257 9.27809 14.7019 9.29539C14.5451 9.41249 14.3882 9.5292 14.2336 9.64769C14.0671 9.44889 13.901 9.2492 13.7346 9.05008C14.1335 8.75048 14.5359 8.45425 14.952 8.17629C15.3695 7.89756 15.8011 7.63837 16.2388 7.3849C16.4054 7.58389 16.5707 7.7825 16.7363 7.97946C16.5624 8.07994 16.3877 8.18061 16.2171 8.28364C16.1908 8.2991 16.1657 8.31571 16.1399 8.33035C16.1229 8.3404 16.1054 8.34944 16.0909 8.36083C16.0354 8.4034 16.0131 8.45514 16.0185 8.50802C16.0241 8.5623 16.0648 8.63339 16.1415 8.72432C16.3876 9.01902 16.6336 9.31417 16.8793 9.60893C17.1253 9.90382 17.3723 10.1982 17.6189 10.4932C17.8162 10.7302 17.9582 10.9564 18.0462 11.1722C18.1352 11.3868 18.1669 11.5921 18.1476 11.7867C18.1088 12.1798 17.9239 12.5284 17.605 12.8469C17.2837 13.1663 17 13.4329 16.7469 13.6468C16.332 13.9963 15.9662 14.271 15.6436 14.464C15.322 14.6568 15.039 14.7646 14.7929 14.7826C14.5464 14.801 14.2969 14.7382 14.0433 14.5915C13.7897 14.4443 13.531 14.212 13.2675 13.8965C13.0347 13.6181 12.8011 13.3388 12.5677 13.0597C12.3356 12.7799 12.1016 12.5012 11.8685 12.2215C11.7317 12.0566 11.6095 12.0158 11.5081 12.1065C11.4895 12.1233 11.4744 12.1426 11.4574 12.1612C11.4356 12.1852 11.4136 12.2087 11.3907 12.2332C11.2639 12.3735 11.1389 12.5163 11.014 12.6583Z" fill="white"/>
<path fill-rule="evenodd" clip-rule="evenodd" d="M28.1927 32.6968C28.3987 32.68 28.5999 32.6587 28.7967 32.6324L28.2184 34.9953C27.8904 35.1682 27.618 35.3548 27.361 35.5795C27.3218 35.6136 27.285 35.6481 27.25 35.6831C27.264 35.6899 27.2776 35.6973 27.2913 35.7048C27.313 35.7161 27.3341 35.7277 27.355 35.7398C27.5107 35.5954 27.6844 35.4726 27.8576 35.3508C27.7187 35.502 27.5534 35.627 27.4057 35.7699C27.4782 35.8148 27.5457 35.8635 27.6083 35.9158L27.6339 35.8929C27.7764 35.7684 27.9222 35.6581 28.0812 35.5552L28.0643 35.6245C28.119 35.5826 28.1743 35.5427 28.2306 35.5043C28.3087 35.4515 28.3879 35.4019 28.4683 35.356C28.4933 35.2545 28.5187 35.1533 28.5441 35.0519C28.7314 34.3044 28.9152 33.5563 29.106 32.8096C29.2712 32.1636 29.4571 31.5187 29.6965 30.8956C29.6344 31.1489 29.5725 31.402 29.5105 31.6553C29.2163 32.8579 28.9264 34.0616 28.6379 35.2659C28.8928 35.1396 29.1596 35.048 29.4383 34.9911L29.4488 34.9479C29.4534 34.9464 29.458 34.9451 29.4627 34.9437C29.8731 34.8219 30.2975 34.6962 30.5939 34.4334C31.0187 34.0558 30.8966 33.5345 30.7985 33.1157C30.7461 32.8925 30.6971 32.681 30.7151 32.4982C30.7555 32.4713 30.793 32.4416 30.8284 32.4093C30.9813 32.4223 31.1356 32.3798 31.2709 32.2846C31.4201 32.1794 31.5297 32.022 31.5822 31.838C31.6903 31.7871 31.7963 31.7342 31.8999 31.68C32.2053 31.7225 32.5781 31.7571 33.0282 31.7864C33.1992 31.9538 33.5154 32.2217 33.4324 32.5312L32.8781 32.6414C32.3965 32.8088 31.8665 33.3335 32.7307 33.2278C34.0941 33.061 35.2399 33.1122 36.5802 33.1822C36.6769 33.1871 36.7527 33.1101 36.8074 32.9935C36.8805 33.0049 36.9522 33.0179 37.0212 33.0309C37.2505 33.0735 37.2869 33.1839 37.2691 32.8853C37.2453 32.4818 37.0698 32.2173 36.6897 32.2235C36.3964 32.2801 36.4005 32.6728 36.4266 32.8572C36.3946 32.842 36.0969 32.1345 36.701 32.0992C36.7553 32.1026 36.8074 32.108 36.8574 32.1156C36.5652 31.4743 35.0631 32.2069 34.6154 32.2958L34.202 32.378C33.955 32.2402 33.8697 31.9697 33.6611 31.7871C33.9682 31.2844 34.1345 30.5377 34.0937 29.9513C35.1232 28.7646 35.6878 27.3494 35.8891 26.0175C35.818 27.4532 35.3891 28.9249 34.422 30.1074C34.4558 30.1288 34.4895 30.149 34.524 30.1667C34.9664 30.3944 35.6185 30.378 36.4337 30.0505C36.4298 30.0404 36.4261 30.0322 36.4221 30.0222C36.0538 29.9548 35.8364 29.9438 35.6313 29.4652C35.8994 29.7053 36.3179 30.2518 37.9515 29.1199C37.4711 29.0266 36.775 29.0355 36.4065 28.2838C36.8722 28.7043 37.3773 28.8187 37.8835 28.7209C38.3981 28.6213 38.9034 28.303 39.3657 27.8844C38.7884 27.9061 38.2598 27.7663 37.8532 27.5675C37.461 27.3756 37.18 27.127 37.0698 26.908C37.1215 27.0393 37.5761 27.4073 38.271 27.491C38.9945 27.5783 39.9695 27.3545 40.9006 26.2622C40.6499 26.318 39.8948 26.2609 39.1701 26.1279C38.4789 26.001 37.8196 25.8049 37.62 25.5649C38.4497 25.9644 39.2982 26.0744 40.0827 25.9103C40.8914 25.7409 41.5958 25.29 42.1184 24.6135C42.113 24.6328 42.1069 24.6499 42.102 24.6676C42.1157 24.6467 42.1309 24.6247 42.1462 24.6025C40.3116 24.8289 39.5094 24.5561 38.6992 24.2766C38.3337 24.1502 37.0461 23.7397 35.7993 23.5332C35.3507 21.7571 34.1273 20.5101 33.1992 19.9267C32.9356 19.9061 32.2835 19.8643 32.0635 19.9649C30.085 20.853 28.1879 21.0541 27.4236 21.0099C27.1147 20.992 26.1634 20.7929 27.0087 20.7379C27.7127 20.6917 28.4514 20.592 29.1361 20.3937C29.3959 20.4819 29.7352 20.4583 30.0217 20.2911C30.4374 20.0481 30.5389 19.6898 30.4115 19.3498C30.1781 18.9485 29.6371 18.7692 29.2211 19.0119C29.0682 19.1014 28.9448 19.2329 28.8621 19.3832C28.8719 19.3345 28.8847 19.2856 28.9004 19.2373C29.1731 18.6961 29.8058 18.4542 30.2915 18.7816C30.5509 18.9562 30.7365 19.2499 30.8118 19.5682C31.0676 19.3603 31.2893 19.1178 31.4664 18.8346C31.437 18.5835 31.6554 18.1418 31.9127 17.8954C32.0011 17.7085 32.0723 17.5174 32.0896 17.3352C32.1326 16.8837 31.8661 16.6548 31.7482 16.5861C29.1039 15.3313 25.9723 17.0636 24.8803 19.3103C24.4494 20.1951 24.4542 20.9998 24.1972 21.8812C24.9777 23.2227 25.8084 24.3952 26.7134 25.2239C24.3196 23.2956 22.1377 19.3924 20.0894 15.9737C20.0701 16.0021 20.0507 16.0304 20.0315 16.056C20.0552 16.0449 20.0777 16.0323 20.1037 16.0203C18.7719 18.4169 21.8864 23.2862 24.0305 25.0121C22.194 24.1898 19.0673 18.9219 18.7423 18.2597C17.7096 20.5656 20.4522 24.6595 22.2472 25.5712C20.6102 25.0378 18.6682 22.1777 17.8023 21.0045C17.3558 23.226 18.7581 25.201 20.6317 26.4258C19.0379 25.6345 18.1052 24.2455 17.3771 23.4891C17.3883 26.3091 18.8143 26.8883 19.5409 27.278C18.4832 27.0301 18.2065 26.6827 17.6551 26.1018C17.6334 26.0973 17.6154 26.093 17.5934 26.0884C18.0029 27.4548 18.7477 28.5055 19.6603 29.1783C20.538 29.8254 21.5634 30.116 22.5908 30.0171C22.823 29.9972 23.0436 29.9717 23.2536 29.9408C23.0717 30.0099 22.8445 30.0631 22.5589 30.0955C21.5201 30.223 20.4475 29.9546 19.5281 29.3557C19.1191 29.0893 18.7385 28.7548 18.3994 28.3567C17.5415 28.3513 16.5524 28.2786 16.284 28.3376C15.4832 28.5137 20.2482 32.5256 24.8931 30.0673C24.628 30.3246 24.36 30.5488 24.0915 30.7434L24.0905 30.7435C24.033 30.7852 23.9757 30.8258 23.918 30.8648L23.914 30.8677L23.8893 30.8842L23.8862 30.8863L23.8497 30.9103L23.8348 30.9202H23.835C23.3167 31.2591 22.7965 31.4922 22.2844 31.6385V31.6378C22.2315 31.6527 22.1792 31.6664 22.1267 31.6796C22.1794 31.7025 22.2327 31.7253 22.2865 31.7476C22.428 32.0519 22.8329 32.391 23.2738 32.6609C23.0723 32.8797 22.9363 33.134 22.499 33.1826C21.7362 33.0648 19.7097 32.3413 19.3962 33.267C19.5192 33.2255 19.6532 33.192 19.7987 33.1676C20.5557 33.133 20.4735 33.8736 20.3856 34.1864C20.3717 33.8995 20.2579 33.4098 19.7528 33.3871C19.1655 33.5163 19.0665 33.9725 19.0964 34.5887C19.1184 35.0443 19.1561 34.8652 19.503 34.7175C19.5538 34.6959 19.6056 34.6739 19.6581 34.6522C19.7391 34.7526 19.8335 34.809 19.9388 34.7922C21.8372 34.4871 22.231 34.0899 24.1955 34.1284C25.4408 34.1527 24.6128 33.4638 23.9035 33.2912L23.7146 33.2773C23.6665 33.1524 23.6973 33.0338 23.7646 32.9257C24.1065 33.0863 24.4187 33.1815 24.5923 33.1606C25.3381 32.8366 26.068 31.8109 26.2886 31.023C26.255 31.5205 26.0043 32.1474 25.6407 32.6337C26.4665 32.7383 27.3256 32.7671 28.1927 32.6968ZM30.3184 34.122C30.5465 33.9198 30.4957 33.6438 30.3942 33.2109C30.3498 33.022 30.3054 32.8287 30.2977 32.636C30.2818 32.6371 30.2652 32.6367 30.2488 32.6369C30.2423 32.6371 30.2362 32.6373 30.2297 32.6373C30.2059 32.6371 30.181 32.6358 30.1555 32.6342C30.1482 32.6335 30.1407 32.6335 30.133 32.6328C30.1004 32.6299 30.067 32.6259 30.0321 32.6201C30.0278 32.6194 30.0233 32.6187 30.019 32.618L29.5637 34.4787C29.8566 34.3877 30.1364 34.2835 30.3184 34.122ZM29.3673 19.1591C29.276 19.2252 29.2502 19.3466 29.3095 19.4305C29.3691 19.5143 29.4914 19.5289 29.5828 19.4627C29.6741 19.3969 29.6999 19.2753 29.6403 19.1914C29.581 19.1076 29.4587 19.0931 29.3673 19.1591ZM27.366 16.5353C27.1723 16.4422 27.0332 16.2661 26.9257 16.0273C26.8232 15.7998 26.897 15.4567 26.7392 15.7086C26.6564 15.8405 26.5539 16.2053 26.6678 16.5385C26.6993 16.6308 26.5451 16.3942 26.2958 16.278C25.8502 16.0702 25.5755 16.0668 25.3511 16.1539C25.2528 16.1779 25.8295 16.6702 25.6552 16.9314C25.3531 16.7322 24.1342 17.1982 24.408 17.2678C24.5807 17.3116 25.1096 17.4098 25.2063 17.751C25.4596 18.6447 26.5056 16.8913 27.366 16.5353ZM33.5309 16.0313C33.21 16.3017 32.0417 17.8042 31.9866 18.4302C31.9664 18.6586 31.9421 19.0572 32.2924 19.3062C32.3994 19.3862 32.389 19.2628 32.8932 19.3493C33.9187 19.525 34.4621 20.198 34.7123 20.1536C34.2206 19.689 33.339 19.2185 33.0419 19.0695C32.829 18.9627 32.6198 18.5373 32.6349 18.2984C32.647 18.1097 33.3698 16.2243 34.1433 15.8722C34.1482 15.8348 33.8683 15.7863 33.5309 16.0313ZM28.7804 31.498C28.7732 31.6329 28.7847 31.7563 28.8122 31.8885C28.8066 31.7651 28.8136 31.6531 28.836 31.5321C28.8685 31.3908 28.9206 31.2523 28.9821 31.1215C29.0707 30.9335 29.1638 30.7483 29.2583 30.5635L29.9483 30.7427C29.9165 30.9822 29.8848 31.2222 29.8664 31.463C29.853 31.6347 29.8575 31.8051 29.8875 31.9743C29.9057 32.1109 29.9692 32.2402 30.024 32.3647C29.9924 32.248 29.9591 32.1309 29.9502 32.0095C29.938 31.8399 29.9643 31.6763 29.9954 31.5102C30.0475 31.2721 30.1164 31.038 30.1851 30.8042L30.1864 30.8046C30.2423 30.6137 30.2986 30.4297 30.3303 30.3258L29.1764 30.042C29.1522 30.1241 29.1162 30.246 29.0754 30.385C29.0038 30.605 28.9325 30.8254 28.8694 31.0482C28.8283 31.1931 28.7886 31.3469 28.7804 31.498ZM28.1983 26.8517C28.3165 26.8784 28.4337 26.9071 28.5495 26.9428C28.6978 26.9905 28.843 27.0446 28.9886 27.1003C29.0287 26.9343 29.0743 26.7696 29.1246 26.6058C28.9942 26.6021 28.8642 26.599 28.7334 26.6017C28.5818 26.6053 28.4314 26.6212 28.2809 26.6374C28.2528 26.7087 28.2252 26.7801 28.1983 26.8517ZM28.3888 26.3694C28.5109 26.3939 28.6325 26.4204 28.7525 26.4547C28.8807 26.4924 29.0072 26.5348 29.1335 26.5781C29.1825 26.4202 29.2348 26.263 29.2904 26.1067C29.0171 26.1116 28.7478 26.1279 28.475 26.1628C28.4462 26.2315 28.4173 26.3003 28.3888 26.3694ZM28.5908 25.8919C28.8324 25.9391 29.0683 25.9989 29.3041 26.0687C29.3593 25.9146 29.4163 25.7611 29.4746 25.6085C29.2081 25.6229 28.9446 25.6473 28.6794 25.6871C28.6498 25.7553 28.6204 25.8235 28.5908 25.8919ZM28.8894 25.2111C28.8894 25.2093 28.8892 25.2075 28.8892 25.2057C28.8589 25.2746 28.8288 25.3439 28.7985 25.4133C29.0321 25.4541 29.2619 25.5053 29.4914 25.5652C29.5494 25.4132 29.6083 25.2618 29.6665 25.1108C29.4058 25.1343 29.1482 25.166 28.8894 25.2111ZM29.1015 24.7253C29.0703 24.7948 29.0391 24.8646 29.0081 24.9348C29.2357 24.9696 29.4603 25.0132 29.6847 25.0639C29.7436 24.9125 29.8045 24.762 29.8687 24.6126C29.6118 24.6451 29.357 24.684 29.1019 24.7346C29.1017 24.7315 29.1015 24.7284 29.1015 24.7253ZM29.2235 24.4567C29.4466 24.4863 29.668 24.5231 29.8893 24.5655C29.9564 24.4117 30.0271 24.2594 30.1025 24.1096C29.8391 24.1522 29.5776 24.1997 29.3166 24.2576C29.2854 24.3235 29.2543 24.39 29.2235 24.4567ZM29.5608 23.7735C29.5238 23.8413 29.4877 23.9101 29.4524 23.9798C29.6764 24.0047 29.899 24.0359 30.1221 24.0715C30.2055 23.9086 30.2948 23.7486 30.3916 23.5932C30.1132 23.6481 29.8366 23.7063 29.5608 23.7735ZM33.6207 23.501C33.5405 23.4467 33.451 23.3923 33.3505 23.3977C33.1714 23.4076 33.0534 23.6114 33.0085 23.7653C33.1214 23.6863 33.2035 23.514 33.3435 23.4823C33.4214 23.4641 33.5091 23.504 33.5791 23.5348C33.6419 23.5628 33.7041 23.5923 33.7678 23.6185C33.7721 23.6002 33.635 23.5106 33.6207 23.501ZM33.2679 24.4595C33.094 24.2538 32.8891 24.0895 32.6585 23.9542C32.6585 23.954 32.6585 23.954 32.6587 23.9538C32.1149 23.7671 31.5349 23.735 30.9801 23.5904C30.9152 23.7597 30.8515 23.9297 30.7881 24.0996C30.816 24.0906 30.9258 24.0713 30.937 24.0696C31.0111 24.0595 31.086 24.054 31.1607 24.0491C31.3306 24.0379 31.5009 24.0389 31.6708 24.0478C31.9601 24.064 32.2592 24.1046 32.5305 24.2111C32.5509 24.219 32.5707 24.2282 32.5906 24.237C32.8043 24.32 33.0051 24.4315 33.1802 24.583C33.3886 24.7536 33.5751 24.9414 33.7559 25.1411C33.6077 24.9016 33.4501 24.6743 33.2679 24.4595ZM31.8964 27.5924C31.7314 27.4515 31.5631 27.3267 31.376 27.2194C31.3764 27.2179 31.3771 27.2166 31.3777 27.2152C31.1037 27.094 30.8161 27.0006 30.5323 26.9062C30.3859 26.8573 30.2389 26.8104 30.0922 26.7628C30.026 26.7415 29.96 26.7208 29.8942 26.6986C29.8893 26.6972 29.8245 26.6724 29.794 26.6578C29.7915 26.6636 29.7892 26.6695 29.7868 26.6753C29.7194 26.836 29.6506 26.9968 29.5854 27.1588C30.1615 27.1079 30.7602 27.2511 31.2831 27.4867C31.2862 27.488 31.2889 27.4894 31.2918 27.4908C31.3057 27.4955 31.3194 27.5004 31.3331 27.5051C31.4265 27.5374 31.518 27.5807 31.6051 27.627C31.954 27.8135 32.2571 28.0567 32.5588 28.31C32.3523 28.0583 32.1456 27.8038 31.8964 27.5924C31.8573 27.5589 31.9349 27.625 31.8964 27.5924ZM29.8886 26.6385C29.9593 26.6345 30.0309 26.63 30.1016 26.6338C30.2558 26.638 30.4091 26.6493 30.5618 26.6726C30.8497 26.717 31.1363 26.7922 31.4058 26.9037C31.4447 26.9201 31.483 26.9376 31.5209 26.956C31.5333 26.9594 31.5447 26.9621 31.5508 26.9643C31.6412 26.9977 31.7283 27.0384 31.8136 27.0837C32.1634 27.2645 32.4638 27.5239 32.7583 27.7818C32.5586 27.5253 32.3561 27.2689 32.1104 27.0541C32.1196 27.0622 32.1281 27.0696 32.11 27.054C32.1032 27.048 32.0999 27.0453 32.099 27.0444C32.1005 27.0456 32.105 27.0496 32.1097 27.0536C31.9504 26.9144 31.7877 26.7917 31.6068 26.6854C31.6078 26.6831 31.6089 26.6806 31.61 26.678C31.452 26.6071 31.2829 26.5557 31.1204 26.502C30.8454 26.4109 30.5668 26.3299 30.2894 26.2466C30.2169 26.2247 30.1436 26.2036 30.0717 26.1796C30.0632 26.1769 30.0231 26.1628 30.0047 26.1504C29.9376 26.3138 29.8698 26.4769 29.8014 26.6398C29.8303 26.6358 29.8754 26.6391 29.8886 26.6385ZM30.0138 26.1312C30.1602 26.1143 30.3088 26.1134 30.456 26.119C30.8098 26.1322 31.17 26.1995 31.5035 26.3183C31.5802 26.3458 31.6535 26.3764 31.7246 26.4102C31.7253 26.4089 31.7256 26.4076 31.7263 26.4062C31.7328 26.4093 31.7411 26.4125 31.7525 26.4168C31.8519 26.4545 31.9472 26.4989 32.0404 26.5496C32.3824 26.73 32.6748 26.9942 32.958 27.2537C32.7655 26.994 32.5677 26.7363 32.327 26.5187C32.3343 26.5252 32.3386 26.529 32.3236 26.5157C32.3066 26.5003 32.312 26.5052 32.32 26.5124C32.1659 26.3744 32.0083 26.2539 31.8327 26.1489C31.834 26.1463 31.8351 26.1431 31.8362 26.1403C31.6812 26.0707 31.5133 26.0225 31.3526 25.9741C31.0656 25.8874 30.7762 25.8094 30.4875 25.7296C30.4117 25.7084 30.3358 25.6879 30.2607 25.6644C30.2409 25.6581 30.2192 25.6491 30.2094 25.6402C30.145 25.8046 30.079 25.9682 30.0123 26.1316C30.0127 26.1314 30.0131 26.1314 30.0138 26.1312ZM30.24 25.6166C30.3907 25.5978 30.5446 25.5957 30.6961 25.6004C31.0452 25.6107 31.3952 25.6709 31.7265 25.7806C31.801 25.8053 31.873 25.8349 31.9426 25.8682C31.943 25.8668 31.9435 25.8656 31.944 25.8641C31.9442 25.8641 31.9442 25.8643 31.9444 25.8643C31.965 25.8712 31.985 25.8802 32.0051 25.8881C32.0942 25.9283 32.1813 25.9676 32.2669 26.0156C32.6018 26.1953 32.8846 26.4655 33.1573 26.7253C32.9705 26.4614 32.7773 26.2016 32.5401 25.9801C32.5472 25.9866 32.5518 25.9907 32.5372 25.9772C32.5199 25.9611 32.526 25.9669 32.5341 25.9745C32.3793 25.8322 32.2208 25.709 32.0422 25.6024C32.0434 25.5991 32.0445 25.5961 32.0458 25.5928C31.877 25.5159 31.6818 25.4703 31.5055 25.4221C31.1969 25.3378 30.8847 25.2676 30.5762 25.183C30.5363 25.1727 30.4966 25.1624 30.457 25.1509C30.4422 25.1465 30.4175 25.1424 30.4047 25.1314C30.3429 25.2952 30.2805 25.4586 30.2169 25.6215C30.2225 25.6195 30.2297 25.6179 30.24 25.6166ZM30.5347 25.0942C30.696 25.0796 30.8583 25.0765 31.02 25.0839C31.3533 25.0991 31.6883 25.1516 32.0049 25.2598C32.0534 25.2764 32.1003 25.2961 32.1465 25.3172C32.1472 25.3152 32.1479 25.3132 32.1488 25.311C32.172 25.3238 32.1964 25.3345 32.206 25.3387C32.3016 25.3789 32.3927 25.424 32.4825 25.4752C32.8126 25.6633 33.0901 25.9307 33.3568 26.1973C33.1761 25.9302 32.9876 25.6678 32.7549 25.4429C32.7609 25.4487 32.7637 25.4512 32.7508 25.4388C32.7349 25.4238 32.7389 25.4276 32.7457 25.4342C32.5886 25.286 32.4275 25.1597 32.2429 25.0504C32.2439 25.0482 32.2446 25.0461 32.2453 25.0439C32.1921 25.0246 32.1355 25.0119 32.0846 24.9892C31.9287 24.9404 31.7713 24.8998 31.6131 24.8612C31.2979 24.7845 30.9794 24.7221 30.6656 24.64C30.6523 24.6364 30.6012 24.6268 30.5971 24.6147C30.5351 24.7823 30.473 24.9497 30.4101 25.1169C30.4398 25.104 30.5249 25.0951 30.5347 25.0942ZM30.6166 24.6007C30.679 24.582 30.7505 24.5787 30.8147 24.5744C30.9766 24.5621 31.1381 24.5587 31.3006 24.5643C31.6167 24.5756 31.9466 24.6194 32.2459 24.727C32.2798 24.7392 32.3131 24.7528 32.3458 24.7672C32.3463 24.7659 32.3467 24.7647 32.3472 24.7632C32.3703 24.775 32.3948 24.7854 32.4167 24.7932C32.5083 24.8226 32.5969 24.8753 32.6797 24.9236C33.0132 25.1184 33.2913 25.391 33.5563 25.6693C33.3814 25.3983 33.1968 25.133 32.9681 24.9045C32.9741 24.9103 32.977 24.9129 32.9643 24.9006C32.8714 24.8105 32.7796 24.719 32.6739 24.6436C32.5994 24.5907 32.5234 24.544 32.445 24.4986C32.4456 24.4969 32.4463 24.4952 32.4468 24.4936C32.3873 24.4707 32.3236 24.4542 32.2641 24.4362C32.0911 24.3839 31.9134 24.3447 31.7365 24.309C31.5499 24.2715 31.363 24.234 31.1772 24.1945C31.0959 24.1772 31.0147 24.1595 30.9337 24.1414C30.9117 24.1366 30.8082 24.127 30.7854 24.1064C30.7232 24.2738 30.6613 24.4414 30.5993 24.609C30.6021 24.6063 30.6074 24.6036 30.6166 24.6007ZM32.6429 28.4875C32.8034 28.1554 32.9485 27.815 33.0838 27.4719C33.3576 26.7774 33.6166 26.0743 33.8351 25.3601C33.9139 25.1029 33.9859 24.8429 34.0412 24.5794C33.8298 25.1799 33.6032 25.7743 33.3778 26.3696C33.1108 27.0743 32.8516 27.7824 32.5646 28.4794C32.4553 28.7449 32.3436 29.0102 32.2033 29.2609C32.3773 29.0201 32.5141 28.7543 32.6429 28.4875ZM31.3753 30.4502C31.4215 30.473 31.4685 30.4934 31.5162 30.5127C31.1506 30.182 30.8181 29.6694 30.8141 29.1977C30.8111 28.821 30.9012 28.4458 31.0515 28.0255C31.1242 28.0513 31.1951 28.0798 31.2645 28.1112C31.2023 28.3255 31.1387 28.5391 31.0932 28.7575C31.0632 28.9011 31.0434 29.0571 31.0582 29.2038C31.0694 29.3145 31.0899 29.4183 31.1156 29.5263C31.1052 29.4186 31.0988 29.3151 31.1028 29.2067C31.1087 29.0635 31.148 28.9162 31.1962 28.782C31.2673 28.5831 31.3542 28.3906 31.4408 28.198C31.7693 28.373 32.0655 28.6022 32.3593 28.838C32.1885 28.6412 32.0209 28.4439 31.8313 28.2645C31.6237 28.0683 31.4006 27.8969 31.1523 27.7569C31.1527 27.756 31.153 27.7551 31.1534 27.7542C31.1387 27.7477 31.1242 27.7407 31.1093 27.7342C30.8329 27.6146 30.5506 27.5076 30.2668 27.407C30.0395 27.3265 29.8059 27.2576 29.5813 27.1692C29.535 27.2845 29.4903 27.4001 29.4502 27.5174C29.4644 27.418 29.4823 27.3198 29.5056 27.222C29.6748 26.5094 29.9501 25.8169 30.2149 25.1353C30.4546 24.5186 30.7147 23.8959 31.0793 23.3412C31.0499 23.418 31.0169 23.4936 30.9875 23.5705C30.9861 23.5747 30.9844 23.579 30.9828 23.5831C31.069 23.5665 31.1567 23.5535 31.244 23.5446C31.5912 23.5085 31.9502 23.5034 32.2962 23.5582C32.4517 23.5827 32.6304 23.6112 32.78 23.6773C32.8288 23.5723 32.8774 23.4758 32.9259 23.3901C33.1494 22.9942 33.4034 23.1659 33.7014 23.3067C33.5585 23.1684 33.3963 23.0355 33.2037 22.9468C33.1377 22.9173 33.0623 22.8921 32.9838 22.8695C32.7253 22.8634 32.5096 23 32.3838 23.2336C32.4359 23.0452 32.5464 22.8988 32.6946 22.8024C32.6162 22.7876 32.5364 22.7741 32.4547 22.7629C32.427 22.7591 32.3985 22.7564 32.3707 22.753C32.132 22.7757 31.9484 22.9611 31.8279 23.1733C31.88 23.0106 31.961 22.8603 32.0866 22.742C32.0923 22.7366 32.0985 22.7319 32.1044 22.7266C31.9825 22.7173 31.8582 22.7111 31.7319 22.7082C31.5263 22.7555 31.3564 22.9188 31.2523 23.1033C31.2969 22.9527 31.3767 22.8134 31.4855 22.7057C31.3677 22.7072 31.2483 22.7111 31.1283 22.7193C30.9414 22.7864 30.789 22.9689 30.6882 23.1303C30.7376 22.9922 30.8102 22.852 30.9077 22.7391C30.832 22.7478 30.7562 22.7586 30.6807 22.7718C30.6731 22.773 30.6656 22.775 30.6581 22.7763C30.4525 22.8593 30.2834 23.038 30.1689 23.2247C30.218 23.0901 30.2887 22.9601 30.3796 22.8488C30.3349 22.8652 30.2926 22.8843 30.2573 22.9062C30.1312 22.9868 30.0179 23.0973 29.9171 23.2224C29.8458 23.3108 29.7798 23.4058 29.7174 23.5048C29.9452 23.5258 30.1721 23.5519 30.3998 23.5806C30.4642 23.478 30.5316 23.3773 30.6031 23.279C30.5688 23.3536 30.5344 23.4287 30.5006 23.5038C30.1996 24.1759 29.9531 24.8682 29.6847 25.5537C29.5476 25.9036 29.4039 26.2509 29.2585 26.5978C29.1414 26.877 29.0196 27.1553 28.9211 27.442C28.934 27.3532 28.9489 27.2654 28.9691 27.1779C28.9744 27.1552 28.9807 27.1329 28.9861 27.1104C28.8326 27.1001 28.6801 27.0906 28.5266 27.0899C28.3856 27.0895 28.2454 27.0998 28.105 27.1117C27.9891 27.4533 27.8888 27.8042 27.8688 28.1525C27.8603 28.3287 27.876 28.5046 27.9328 28.6594C27.9658 28.7514 27.9978 28.8224 28.0391 28.9032C28.0807 28.9812 28.1253 29.0575 28.1769 29.1297C28.2995 29.3057 28.4493 29.4625 28.6146 29.6013C28.5701 29.5462 28.5268 29.4897 28.4857 29.4309C28.317 29.1906 28.1955 28.9092 28.1512 28.6183C28.1009 28.2889 28.1583 27.9672 28.2958 27.6662C28.2131 27.9573 28.1944 28.2494 28.264 28.5459C28.3252 28.8055 28.4612 29.0521 28.6291 29.2579C28.7559 29.4134 28.8992 29.5472 29.0516 29.6713C29.0012 29.6055 28.9534 29.5371 28.9078 29.466C28.5905 28.9715 28.523 28.3186 28.7566 27.7795C28.7238 27.9023 28.698 28.0271 28.6948 28.155C28.6794 28.7676 28.9711 29.3465 29.4387 29.7347C29.4858 29.7738 29.5341 29.811 29.5826 29.8474C29.5364 29.7861 29.4926 29.7222 29.4508 29.6559C29.1255 29.1407 29.0534 28.4357 29.2908 27.8742C29.2579 28.0015 29.2345 28.1308 29.2323 28.2631C29.2273 28.5634 29.2761 28.8835 29.4078 29.1558C29.4661 29.2767 29.5249 29.4029 29.6075 29.5094C29.6891 29.6151 29.7715 29.7112 29.8644 29.807C29.9394 29.8842 30.0235 29.9538 30.1121 30.0182C30.0807 29.9749 30.0507 29.9309 30.0228 29.8857C29.8337 29.5794 29.7291 29.2235 29.7035 28.8654C29.6818 28.5658 29.7062 28.2472 29.8249 27.9685C29.7399 28.2497 29.7482 28.5589 29.7998 28.8459C29.8593 29.1787 29.9919 29.5029 30.201 29.7697C30.3125 29.912 30.44 30.0305 30.5807 30.1314C30.5522 30.0884 30.5249 30.0448 30.4999 29.9996C30.3247 29.6827 30.2365 29.3295 30.219 28.9687C30.2048 28.6666 30.229 28.3404 30.359 28.0632C30.2964 28.2864 30.3002 28.5239 30.3226 28.7528C30.3501 29.0359 30.4205 29.3113 30.536 29.5714C30.6489 29.8252 30.8165 30.0601 31.0345 30.2336C31.1406 30.318 31.2541 30.3902 31.3753 30.4502ZM30.8461 32.2191C30.733 32.1506 30.6327 32.07 30.5748 31.9471C30.5149 31.8329 30.4985 31.6936 30.5246 31.5681C30.5533 31.431 30.6269 31.3044 30.7382 31.2185C30.8522 31.1307 30.9777 31.1 31.1182 31.0899C30.7888 30.931 30.4449 31.1803 30.3561 31.503C30.3265 31.674 30.3406 31.8432 30.4406 31.9904C30.5331 32.1266 30.6807 32.2151 30.8461 32.2191ZM30.4409 34.2362C30.7099 33.9828 30.6561 33.582 30.5356 33.2699C30.5949 33.5524 30.6567 33.9093 30.4429 34.1462C30.2495 34.382 29.9369 34.4951 29.6578 34.5916C29.9427 34.5456 30.229 34.4364 30.4409 34.2362Z" fill="white"/>
<path fill-rule="evenodd" clip-rule="evenodd" d="M23.5052 50.7435L22.1109 50.9233L21.7105 50.9749C21.1953 51.0413 20.7496 50.9141 20.3798 50.5927C20.008 50.2736 19.7847 49.8237 19.7103 49.2472C19.6109 48.4766 19.7908 47.7729 20.2495 47.1363C20.7084 46.4997 21.2967 46.1341 22.0146 46.0415C22.5024 45.9786 22.9171 46.0646 23.2562 46.2979C23.5975 46.5307 23.7952 46.8659 23.8517 47.303C23.8912 47.6091 23.8475 47.8701 23.7209 48.086C23.5941 48.3022 23.4103 48.4246 23.1737 48.4551C22.7959 48.5038 22.5828 48.3508 22.5372 47.9962C22.5303 47.9434 22.5246 47.8991 22.5197 47.8611C22.5139 47.8167 22.5083 47.7723 22.5031 47.7323C22.4657 47.4429 22.3038 47.318 22.0185 47.3547C21.7505 47.3892 21.5238 47.5624 21.3388 47.8759C21.1536 48.1874 21.0847 48.5184 21.1298 48.8689C21.1675 49.1602 21.2849 49.3554 21.4801 49.4548C21.6773 49.5518 21.9913 49.5735 22.4221 49.5179L23.5919 49.3671C23.7183 49.3509 23.8311 49.3473 23.9299 49.3565C24.2398 49.3206 24.485 49.3277 24.6647 49.3778C24.6802 49.302 24.7 49.2183 24.7244 49.1267L26.2236 43.4699L26.2694 43.2924C26.3951 42.8041 26.672 42.5363 27.0879 42.4827C27.2612 42.4603 27.4147 42.498 27.5515 42.5989C27.6872 42.699 27.7659 42.829 27.787 42.9916C27.8026 43.1139 27.7904 43.26 27.7482 43.4238L27.7024 43.6013L26.2651 49.0224L26.9132 48.9389C27.0398 48.9227 27.1523 48.919 27.251 48.9281C27.5604 48.8896 27.8072 48.8929 27.9908 48.9374C27.9671 48.7428 27.9904 48.5063 28.063 48.2325L28.6351 46.0616C28.7959 45.4591 29.0798 45.1306 29.4873 45.0781C29.6648 45.0552 29.8219 45.0927 29.9592 45.191C30.0983 45.2868 30.1773 45.4183 30.1986 45.583C30.2146 45.7076 30.2013 45.8532 30.1566 46.0221L30.1082 46.198L29.6693 47.8708L29.6275 48.0631C29.6033 48.1755 29.5946 48.2583 29.5973 48.3117C29.6125 48.4964 29.7449 48.5738 29.992 48.5421C30.5029 48.476 30.8182 48.2251 30.9342 47.7915L31.4609 45.783C31.6164 45.1747 31.9063 44.8434 32.3266 44.7891C32.4998 44.7669 32.6549 44.8048 32.7945 44.9049C32.934 45.0048 33.0131 45.1364 33.0339 45.2969C33.0505 45.4257 33.0232 45.631 32.9502 45.9129L32.3336 48.2401L33.0516 48.1475C33.1949 48.1289 33.3191 48.1239 33.4235 48.1322L34.1739 48.0355L35.6843 42.3458L35.7296 42.1639C35.8517 41.6733 36.1324 41.4079 36.5355 41.356C36.7213 41.332 36.8828 41.3692 37.0242 41.4667C37.1631 41.5627 37.2446 41.6938 37.2658 41.8585C37.2824 41.9873 37.2634 42.1324 37.2217 42.3L37.1766 42.4818L36.6975 44.2256C36.8746 44.1513 37.0361 44.1047 37.1817 44.0859C37.659 44.0245 38.0702 44.1516 38.4119 44.4704C38.7555 44.7887 38.9632 45.2321 39.0364 45.8002C39.1782 46.9004 38.8643 47.8124 38.0946 48.5363C37.8246 48.7879 37.53 48.9353 37.2091 48.9768L36.62 49.0527C36.2124 49.1052 35.8452 49.0044 35.5182 48.7482C35.385 49.0638 35.1314 49.2447 34.7618 49.2923C34.7024 49.2998 34.6455 49.3007 34.5906 49.2948C34.4712 49.3231 34.3415 49.3464 34.2012 49.3644L32.965 49.5239L32.1765 49.6256L31.8565 49.6668C31.5102 49.7115 31.2625 49.6059 31.1119 49.3527C30.9204 49.6502 30.6528 49.822 30.3107 49.8661L29.407 49.9826C29.0439 50.0295 28.7293 49.9541 28.4616 49.7589C28.4169 49.7265 28.3754 49.6918 28.337 49.6551C28.2861 49.7627 28.2002 49.86 28.0797 49.9463C27.8445 50.1148 27.4978 50.2289 27.0416 50.2877L26.8268 50.3152L25.8521 50.441L25.714 50.4589C25.4099 50.498 25.162 50.4569 24.9659 50.3342C24.929 50.3111 24.895 50.2858 24.8638 50.2583C24.8241 50.3007 24.7778 50.3409 24.7246 50.3789C24.4894 50.5474 24.1428 50.6614 23.6865 50.7202L23.5052 50.7435ZM33.6699 41.6637C34.2367 41.5907 34.547 41.7539 34.5982 42.1518C34.6332 42.4239 34.5603 42.6517 34.3799 42.8315C34.1983 43.0125 33.9277 43.1267 33.5691 43.1729C30.9022 43.5166 32.306 43.3357 29.6392 43.6795C29.0726 43.7526 28.7622 43.5894 28.7109 43.1916C28.6757 42.9196 28.7492 42.6912 28.9292 42.5119C29.1103 42.3313 29.382 42.2168 29.74 42.1706C32.4069 41.8266 31.0031 42.0076 33.6699 41.6637ZM43.0959 37.8866L43.6274 37.8181C43.7378 37.8038 43.8403 37.7948 43.935 37.7908C43.8774 37.6285 43.836 37.4481 43.8104 37.2497C43.7104 36.4747 43.8859 35.771 44.3389 35.1408C44.7918 34.5103 45.3821 34.1472 46.1056 34.0538C46.633 33.9858 47.0756 34.0691 47.4303 34.3022C47.7854 34.5372 47.993 34.879 48.051 35.3305C48.121 35.8726 47.9522 36.3028 47.5429 36.6218C47.3188 36.8016 46.9615 36.923 46.4772 36.9854L45.2693 37.1411C45.3086 37.4461 45.555 37.5695 46.0105 37.5107L47.8037 37.2796C48.3128 37.214 48.5893 37.3606 48.6353 37.7171C48.6667 37.9604 48.6007 38.1637 48.4389 38.3228C48.2773 38.482 48.0344 38.5823 47.713 38.6238L46.0044 38.8441C45.4571 38.9148 45.0083 38.8557 44.6557 38.6674C44.6084 38.7267 44.5489 38.782 44.4769 38.8336C44.2413 39.0023 43.8953 39.1161 43.4385 39.1749L42.7708 39.2611L42.7195 39.2676L42.7192 39.2648C42.5695 39.2671 42.4284 39.1943 42.2946 39.0458L42.2083 38.946L40.534 37.0267L40.0722 38.7918C39.9248 39.3557 39.64 39.6647 39.2217 39.7186C39.1652 39.726 39.1109 39.7271 39.0588 39.7224C38.9581 39.7468 38.8493 39.7668 38.7321 39.7818L36.049 40.1277L36.0483 40.1216C35.958 40.1375 35.8614 40.1519 35.759 40.1651C35.1015 40.2499 34.6503 40.2284 34.3994 40.1016C34.2603 40.0299 34.1352 39.9466 34.024 39.8516C33.9813 39.9896 33.8856 40.1122 33.7374 40.2183C33.502 40.3869 33.1558 40.5008 32.6993 40.5596L32.3583 40.6036L31.9801 40.6523L31.5854 40.7031C31.2392 40.7479 30.9848 40.6445 30.8265 40.3904C30.5582 40.6996 30.285 40.871 30.0025 40.9074L29.3141 40.9961C28.9613 41.0416 28.6489 40.9793 28.3772 40.8107C28.3384 40.8514 28.2935 40.89 28.2421 40.9268C28.0067 41.0955 27.6607 41.2093 27.204 41.2681L26.5441 41.3533L26.4847 41.3608L25.3589 41.506C24.9592 41.5577 24.6138 41.4617 24.3223 41.2166C24.307 41.2036 24.2918 41.1902 24.2772 41.1765C24.2337 41.2847 24.1583 41.3818 24.051 41.4673C23.8439 41.6322 23.5376 41.7409 23.1322 41.793L21.5317 41.9994L20.7587 42.0992L20.4492 42.139L20.4434 42.0943C20.2538 42.0582 20.1054 41.9558 19.9999 41.7864C19.7316 42.0954 19.4583 42.2668 19.1758 42.3032L18.4875 42.3919C18.0445 42.4491 17.6653 42.3368 17.3505 42.0566C17.0379 41.7765 16.8487 41.3818 16.7829 40.8706C16.6831 40.0976 16.862 39.3726 17.3172 38.6938C17.7726 38.0171 18.3372 37.6341 19.009 37.5475C19.5264 37.4807 19.9241 37.6076 20.2086 37.9292C20.3714 37.6002 20.6159 37.4156 20.9417 37.3738C21.1188 37.3508 21.2744 37.3873 21.4085 37.4852C21.5407 37.5836 21.6185 37.716 21.6398 37.8809C21.6544 37.9941 21.6388 38.1345 21.5952 38.2993L21.5503 38.4707L20.9566 40.7411L21.6224 40.6552L23.2809 40.4414C23.5073 40.4122 23.6967 40.41 23.8493 40.4349C23.8286 40.3545 23.8125 40.2699 23.8011 40.1815C23.7647 39.8992 23.7974 39.6164 23.8991 39.3328C24.0008 39.0494 24.2002 38.6927 24.4944 38.2609L23.8657 38.3419L23.7274 38.8773C23.6 39.3526 23.3881 39.6104 23.0913 39.6486C22.912 39.6717 22.7546 39.6376 22.6211 39.5438C22.4854 39.4502 22.408 39.3218 22.3873 39.161C22.3754 39.0683 22.3985 38.9062 22.4583 38.672L22.9228 36.8961C23.0334 36.4692 23.24 36.235 23.543 36.196C23.8398 36.1578 24.0391 36.2745 24.1457 36.5479L24.2173 36.7292C24.2545 36.8229 24.2974 36.8803 24.3499 36.8965C24.4004 36.9153 24.5195 36.9123 24.7092 36.888L26.1229 36.7056C26.6485 36.6378 26.9343 36.7897 26.9821 37.1606C27.0479 37.6718 26.747 37.9705 26.0812 38.0564L26.0232 38.1245C25.4697 38.8223 25.2137 39.3393 25.2571 39.6754C25.3005 40.0112 25.5033 40.1548 25.8661 40.1081L26.3157 40.05H26.3166L26.6287 40.0098L27.3928 39.9113C27.5014 39.8972 27.6026 39.8882 27.6961 39.8842C27.6571 39.7572 27.6282 39.6207 27.6093 39.4747C27.5097 38.7018 27.6887 37.9768 28.1438 37.2978C28.5992 36.621 29.1639 36.2382 29.8356 36.1515C30.353 36.0849 30.7507 36.2118 31.0352 36.5334C31.1981 36.2043 31.4425 36.0198 31.7681 35.9778C31.9454 35.9549 32.1009 35.9914 32.2351 36.0894C32.3672 36.1876 32.4451 36.3201 32.4664 36.485C32.481 36.5983 32.4655 36.7387 32.4218 36.9035L32.3769 37.0749L31.7832 39.345L31.811 39.3416L31.8119 39.3415L32.4491 39.2594L32.888 39.2027C33.1512 39.1688 33.3696 39.1643 33.5433 39.1896C33.4639 39.0027 33.4095 38.7945 33.3799 38.565C33.2814 37.8006 33.4722 37.1034 33.9504 36.4738C34.4308 35.8441 35.0459 35.4797 35.7983 35.3828C36.3815 35.3076 36.8857 35.4312 37.3083 35.7517C37.7333 36.0741 37.9815 36.5198 38.0551 37.0908C38.1107 37.5215 38.0667 37.9609 37.9256 38.4108C37.9096 38.4613 37.8926 38.5111 37.8748 38.5598L38.6775 38.4563L40.197 32.7275L40.2418 32.554C40.3644 32.0776 40.6348 31.8163 41.0409 31.7638C41.2099 31.7421 41.363 31.7794 41.4976 31.8768C41.6332 31.975 41.7108 32.1007 41.7311 32.2573C41.7467 32.3791 41.7318 32.5215 41.6881 32.6882L41.643 32.8596L40.7838 36.0726L42.0142 34.8893C42.2695 34.6427 42.4971 34.5066 42.699 34.4804C42.868 34.4586 43.0152 34.4941 43.1426 34.5888C43.2701 34.6835 43.343 34.8101 43.3639 34.973C43.3987 35.243 43.282 35.5075 43.0118 35.7685L42.8848 35.8876L42.0711 36.6631L43.0959 37.8866ZM45.6591 40.118L47.3944 39.8941C47.9612 39.8211 48.2715 39.9845 48.3227 40.3823C48.3579 40.6543 48.2845 40.8816 48.1044 41.0619C47.9224 41.2425 47.6522 41.3571 47.2936 41.4033L46.1339 41.5528V41.5529L39.2931 42.4349C38.7265 42.5079 38.416 42.3447 38.3648 41.9469C38.3297 41.6749 38.4031 41.4465 38.5831 41.267C38.7644 41.0867 39.0359 40.9719 39.3939 40.9257L45.6591 40.118ZM14.2106 40.1918L15.9314 43.4961C16.0803 43.7818 16.3436 43.8976 16.7146 43.8498L24.1369 42.8929C24.7036 42.8198 25.0139 42.983 25.0651 43.3808C25.1001 43.6529 25.0271 43.8808 24.8469 44.0607C24.6654 44.2415 24.3943 44.3558 24.036 44.402L16.5664 45.3651C16.0348 45.4336 15.65 45.4071 15.4146 45.2893C15.1776 45.1708 14.9418 44.8894 14.7042 44.4444L12.5454 40.3267L11.6909 43.5632C11.5275 44.1982 11.2224 44.5454 10.7751 44.6031C10.5896 44.627 10.4211 44.588 10.2736 44.4833C10.1243 44.3811 10.0396 44.2452 10.0184 44.0805C10.0014 43.9485 10.0167 43.7915 10.0625 43.6095L10.112 43.4252L11.4944 38.1731C11.6557 37.5551 11.7228 37.1337 11.6936 36.9069C11.6683 36.7112 11.5598 36.5512 11.3703 36.431C11.1811 36.3111 10.9717 36.2646 10.741 36.2944C10.331 36.3472 9.9837 36.5658 9.69854 36.9525C9.41498 37.3368 9.29986 37.7435 9.35472 38.1702C9.41479 38.6359 9.71006 38.9269 10.2402 39.0409C10.5635 39.1102 10.7422 39.2779 10.7771 39.548C10.8059 39.7724 10.7412 39.9695 10.5849 40.1384C10.4287 40.3072 10.2177 40.41 9.95595 40.4438C9.45106 40.5089 8.99072 40.3523 8.57708 39.9719C8.16147 39.5918 7.91666 39.1078 7.84055 38.5163C7.72709 37.6364 7.95796 36.8271 8.5305 36.0847C9.10539 35.3424 9.836 34.9149 10.7222 34.8007C11.3839 34.7154 11.9592 34.8381 12.452 35.1666C12.9448 35.4947 13.2292 35.9464 13.3039 36.5254C13.3567 36.9356 13.3113 37.4109 13.1691 37.9508L12.7133 39.6786L15.4541 35.9581C15.7501 35.5574 16.0404 35.3378 16.3207 35.3015C16.5144 35.2766 16.6835 35.3197 16.8274 35.429C16.9737 35.5399 17.058 35.6906 17.083 35.8843C17.1135 36.1213 16.9883 36.4329 16.7064 36.815L14.2106 40.1918ZM45.416 36.0034L46.0796 35.9179C46.5104 35.8623 46.7088 35.7424 46.6724 35.5585C46.633 35.3499 46.4813 35.2626 46.2154 35.2968C45.8444 35.3448 45.5794 35.58 45.416 36.0034ZM35.8176 36.6878C35.5208 36.726 35.2697 36.9071 35.0646 37.2332C34.8574 37.5596 34.7775 37.8989 34.8231 38.2533C34.8835 38.7213 35.1733 38.9206 35.6946 38.8535C35.9996 38.8142 36.2204 38.6892 36.3607 38.4783C36.5929 38.1341 36.6833 37.7621 36.6319 37.3622C36.6023 37.1335 36.5124 36.9566 36.3624 36.8334C36.2121 36.7081 36.0301 36.6603 35.8176 36.6878ZM29.5955 39.6524L29.746 39.6329C30.0779 39.5902 30.2808 39.4256 30.3553 39.1416L30.645 38.0419C30.6829 37.8967 30.6971 37.7794 30.6852 37.6869C30.6712 37.5776 30.6053 37.4896 30.4877 37.4232C30.3703 37.3566 30.235 37.3321 30.0867 37.3512C29.79 37.3895 29.5236 37.5978 29.2893 37.9759C29.0535 38.3562 28.9589 38.7286 29.0064 39.0956C29.0598 39.5097 29.2555 39.6962 29.5955 39.6524ZM18.7691 41.0482L18.9195 41.0288C19.2513 40.986 19.4542 40.8217 19.5287 40.5376L19.8186 39.4377C19.8564 39.2925 19.8705 39.1755 19.8586 39.0828C19.8445 38.9734 19.7787 38.8856 19.6613 38.8191C19.5437 38.7525 19.4086 38.7279 19.2601 38.747C18.9634 38.7855 18.6969 38.9936 18.4626 39.3717C18.2268 39.752 18.1323 40.1247 18.1797 40.4916C18.2331 40.9058 18.4289 41.0921 18.7691 41.0482ZM35.8577 47.4186C36.0968 47.6582 36.3568 47.7599 36.6333 47.7243C36.8319 47.6988 36.9915 47.6223 37.1144 47.4928C37.2848 47.3161 37.4203 47.069 37.5253 46.7506C37.6282 46.4326 37.6653 46.1552 37.6347 45.9165C37.6107 45.7307 37.5385 45.5877 37.4156 45.4833C37.2928 45.3809 37.1438 45.3402 36.9706 45.3623C36.5779 45.4131 36.3027 45.7426 36.1409 46.3518L35.8577 47.4186Z" fill="white"/>
</svg>
