<svg width="52" height="56" viewBox="0 0 52 56" fill="none" xmlns="http://www.w3.org/2000/svg">
<path fill-rule="evenodd" clip-rule="evenodd" d="M12.6948 11.3826C13.1594 12.1079 13.9356 12.202 14.6417 11.7499L16.2801 10.7005L13.8072 6.83887L12.0142 7.98717C11.2418 8.48187 11.0862 9.23497 11.5207 9.91337C11.7753 10.3108 12.1696 10.5015 12.6237 10.4208C12.4763 10.7252 12.5137 11.0994 12.6948 11.3826ZM14.2502 11.005C13.9633 11.1887 13.664 11.1223 13.4883 10.8355C13.3267 10.571 13.4035 10.3026 13.685 10.1223L14.4407 9.63807L15.0059 10.5208L14.2502 11.005ZM13.1325 9.52697C13.0058 9.60827 12.8882 9.66787 12.7521 9.66157C12.5832 9.65307 12.4306 9.54847 12.3374 9.39057C12.1877 9.12077 12.2472 8.84917 12.5287 8.66887L13.4443 8.08247L14.0095 8.96517L13.1325 9.52697ZM11.9615 13.7965L12.7127 13.163L9.75588 9.65767L7.54258 11.5246L8.10868 12.1955L9.57078 10.9622L11.9615 13.7965ZM5.65918 13.7767C5.05258 14.533 4.95798 15.5404 5.76018 16.1842L8.14608 18.099L8.75298 17.3427L6.38238 15.4403C5.99908 15.1328 6.05098 14.6705 6.33388 14.3181C6.61678 13.9655 7.06098 13.8096 7.44418 14.1171L9.81478 16.0195L10.43 15.253L8.04368 13.3385C7.24148 12.6947 6.26608 13.0207 5.65918 13.7767ZM6.57478 21.1425L7.83968 18.6327L3.74468 16.5688L2.45608 19.1254L3.25178 19.5262L4.09508 17.8532L5.03108 18.3249L4.26458 19.846L5.03078 20.2323L5.79728 18.7112L6.62808 19.1299L5.80828 20.7562L6.57478 21.1425ZM3.67948 26.0606C4.51398 26.2746 5.14618 25.8143 5.35418 25.0022L5.83748 23.1174L1.39538 21.9787L0.866681 24.0409C0.638781 24.9293 1.03848 25.5864 1.81918 25.7865C2.27608 25.9036 2.69478 25.7743 2.97168 25.4058C3.07148 25.729 3.35378 25.977 3.67948 26.0606ZM4.55998 24.7241C4.47518 25.054 4.21098 25.2094 3.88698 25.1195C3.58828 25.0362 3.46148 24.7873 3.54458 24.4639L3.76738 23.5945L4.78278 23.8547L4.55998 24.7241ZM2.73448 24.4049C2.69728 24.5509 2.65198 24.6745 2.54818 24.7629C2.41898 24.8718 2.23578 24.8993 2.05978 24.8474C1.76638 24.7519 1.62498 24.5126 1.70768 24.1889L1.97788 23.1356L2.99328 23.3958L2.73448 24.4049ZM1.08268 28.2481L4.11438 28.5452L4.05628 29.1385L4.81248 29.2125L5.02458 27.0479L4.26828 26.974L4.21018 27.5672L1.17848 27.2702L1.24168 26.6247L0.465881 26.5488L0.243681 28.8176L1.01948 28.8936L1.08268 28.2481ZM2.11338 32.8198C2.40788 33.3233 2.93878 33.5784 3.51798 33.5342C4.32468 33.4727 5.03898 32.8468 4.95938 31.8016C4.91628 31.148 4.86038 30.5017 4.81058 29.8486L0.238281 30.1969L0.312781 31.1766L1.82818 31.0612L1.89058 31.8779L0.446581 32.9338L0.526281 33.9789L0.664581 33.9684L2.11338 32.8198ZM2.63068 30.987L4.02848 30.8804L4.10328 31.8603C4.13508 32.2784 3.84958 32.5562 3.46548 32.5857C3.07488 32.622 2.73668 32.3782 2.70528 31.9666L2.63068 30.987ZM5.27688 33.9937L0.859881 35.227L1.31798 36.8674C1.71628 38.2935 3.01928 38.746 4.14668 38.4106C5.27288 38.0963 6.12778 37.0412 5.73488 35.6341L5.27688 33.9937ZM1.97418 35.9292L4.68748 35.1717L4.87938 35.8594C5.10338 36.6608 4.58658 37.2742 3.87768 37.4723C3.16898 37.6702 2.39368 37.431 2.16638 36.6171L1.97418 35.9292ZM7.61738 40.0933L7.09668 39.2675L3.21778 41.7133L3.73818 42.539L5.29528 41.5571C5.40378 41.7289 5.58548 42.0171 5.71848 42.1424L4.73738 44.1238L5.32788 45.0604L5.44978 44.9836L6.49748 42.6657C6.88608 42.7536 7.31888 42.6666 7.83568 42.5036C8.18178 42.4015 8.38108 42.5084 8.54888 42.8361L9.11408 42.4797C8.75328 41.5146 8.16338 41.4139 7.59758 41.5851C7.09328 41.7558 6.75058 41.8632 6.51048 41.728C6.33528 41.622 6.16608 41.3414 6.01578 41.103L7.61738 40.0933ZM8.49128 47.4614L8.17948 48.2423L8.87028 48.9864L8.96638 48.8974L10.8339 44.3036L10.5263 43.9722L5.79758 45.4836L5.70148 45.5726L6.39678 46.3218L7.19448 46.0642L8.49128 47.4614ZM9.55918 45.1741L8.88248 46.6691L8.01768 45.7376L9.55918 45.1741ZM12.9307 49.8549C13.5064 49.9479 14.0407 49.7004 14.3752 49.2254C14.8407 48.5637 14.812 47.6144 13.9548 47.0112C13.4231 46.6288 12.8887 46.2609 12.353 45.8839L9.71388 49.6338L10.5175 50.1993L11.392 48.9566L12.0619 49.4277L11.9587 51.2136L12.8156 51.8168L12.8955 51.7034L12.9307 49.8549ZM11.8453 48.2899L12.652 47.1436L13.4557 47.7091C13.7986 47.9503 13.8315 48.3475 13.6096 48.6627C13.3893 48.987 12.9862 49.093 12.6489 48.8554L11.8453 48.2899ZM16.7266 52.8659L16.7334 53.7069L17.6543 54.1344L17.7096 54.0153L17.7 49.0567L17.2898 48.8662L13.4846 52.0549L13.4296 52.1737L14.3565 52.6037L14.9971 52.0634L16.7266 52.8659ZM16.8493 50.3448L16.7886 51.9849L15.6358 51.4497L16.8493 50.3448ZM23.4067 53.1176C23.7604 51.6192 22.8471 50.5557 21.6804 50.2801C20.4944 50.0001 19.2032 50.5367 18.848 52.0413C18.4928 53.5459 19.3806 54.6038 20.5729 54.8853C21.9244 55.2045 23.0861 54.4757 23.4067 53.1176ZM19.8106 52.2686C20.0335 51.325 20.7713 50.9945 21.4726 51.16C22.1677 51.3241 22.681 51.9435 22.4568 52.8934C22.2263 53.8688 21.4868 54.1789 20.7917 54.0148C20.0777 53.8461 19.5805 53.244 19.8106 52.2686ZM25.3266 50.783L24.3509 50.7617L24.252 55.3465L25.2279 55.3675L25.2676 53.5272C25.4706 53.5315 25.8113 53.5388 25.989 53.4969L27.1011 55.4077L28.208 55.4315L28.2111 55.2875L26.855 53.1355C27.1427 52.8597 27.3089 52.4506 27.4577 51.9296C27.5634 51.5846 27.7624 51.4775 28.1283 51.518L28.1428 50.8499C27.1385 50.6186 26.7295 51.0554 26.5602 51.622C26.4244 52.1365 26.3252 52.4818 26.0803 52.6077C25.8949 52.6952 25.5675 52.6816 25.2858 52.6757L25.3266 50.783ZM31.3987 50.1889L28.6278 50.658L29.3935 55.1792L32.2162 54.7013L32.0674 53.8229L30.22 54.1358L30.0451 53.1023L31.7244 52.8177L31.5809 51.9718L29.9017 52.2562L29.7464 51.3389L31.5421 51.0347L31.3987 50.1889ZM36.0245 53.3926L35.4757 52.21L36.361 51.7992C37.3117 51.3579 37.5181 50.4173 37.1609 49.6477C36.7984 48.8662 35.948 48.3724 34.9794 48.822C34.3853 49.0978 33.7942 49.3648 33.2029 49.6466L35.133 53.8061L36.0245 53.3926ZM35.105 51.4576L34.4374 50.0196C34.7407 49.879 35.035 49.735 35.3408 49.6004C35.7329 49.4184 36.1215 49.633 36.3001 50.0182C36.4846 50.4153 36.3885 50.8621 36.0081 51.0384L35.105 51.4576ZM41.0047 49.6466L41.744 50.048L42.5641 49.4493L42.4867 49.3433L38.1437 46.95L37.7786 47.2164L38.7251 52.09L38.8022 52.1958L39.6277 51.5931L39.4652 50.7708L41.0047 49.6466ZM38.8586 48.318L40.264 49.1655L39.2376 49.915L38.8586 48.318ZM44.063 45.6305C44.2368 45.074 44.0681 44.5096 43.6455 44.1111C43.057 43.5561 42.1131 43.4492 41.3939 44.2117C40.9395 44.6837 40.4993 45.1602 40.05 45.6367L43.3858 48.7831L44.0602 48.0683L42.9544 47.0254L43.5162 46.4295L45.2692 46.7861L45.9883 46.0236L45.8874 45.9287L44.063 45.6305ZM42.3591 46.482L41.3395 45.5202L42.0136 44.8053C42.3013 44.5003 42.699 44.5241 42.9793 44.7886C43.269 45.0528 43.3167 45.4669 43.0335 45.7671L42.3591 46.482ZM44.0639 42.2788L47.1565 44.3713L47.6888 43.5844L44.5962 41.4922L45.2791 40.483L44.5735 40.0057L42.6721 42.8162L43.3773 43.2936L44.0639 42.2788ZM47.0913 38.9812L46.113 39.0079L44.9883 39.1184L44.548 40.0768L44.679 40.1372L47.7072 39.7905L49.374 40.5559L49.7842 39.663L48.1174 38.8973L46.4042 36.3804L46.2732 36.3203L45.8384 37.2671L46.466 38.1606L47.1049 38.9515L47.0913 38.9812ZM48.5148 31.9935C47.6647 31.8544 47.0757 32.3686 46.9402 33.196L46.6258 35.1162L51.1511 35.8574L51.4952 33.7564C51.6434 32.8513 51.1873 32.2322 50.3922 32.1021C49.9268 32.0259 49.5211 32.1917 49.2779 32.5831C49.1498 32.2702 48.8465 32.048 48.5148 31.9935ZM47.756 33.4026C47.8113 33.0665 48.0604 32.8884 48.3912 32.9491C48.6963 33.0058 48.8445 33.2425 48.7904 33.5722L48.6452 34.458L47.6112 34.2885L47.756 33.4026ZM49.6025 33.5591C49.6269 33.4106 49.6609 33.2833 49.7564 33.1861C49.8757 33.0665 50.0555 33.0228 50.2355 33.0588C50.5362 33.128 50.6984 33.3539 50.6442 33.6836L50.4685 34.7565L49.4341 34.5872L49.6025 33.5591ZM51.8691 29.1671C51.8583 28.1977 51.2919 27.3589 50.2635 27.3702L47.2044 27.4043L47.2152 28.3737L50.2547 28.34C50.746 28.3346 50.9991 28.7249 51.0042 29.1768C51.0093 29.6289 50.7647 30.0311 50.2735 30.0365L47.2341 30.0702L47.2449 31.053L50.3041 31.019C51.3325 31.0077 51.8798 30.1366 51.8691 29.1671ZM50.3449 26.3421C51.3217 26.1168 51.5485 25.0895 51.3421 24.1957C51.1199 23.3195 50.5836 22.4816 49.5305 22.7248C48.4834 22.9663 48.4601 23.8255 48.5951 24.7893C48.6515 25.2672 48.652 25.6774 48.256 25.7687C47.9113 25.848 47.6202 25.5186 47.5318 25.1357C47.4436 24.7527 47.51 24.3406 47.862 24.2056L47.6557 23.3119C46.6536 23.5432 46.5028 24.4925 46.6958 25.3284C46.9005 26.216 47.5026 26.9309 48.4919 26.7024C49.4174 26.4889 49.5033 25.6085 49.3865 24.7816C49.3196 24.3465 49.2377 23.7872 49.7485 23.6693C50.2145 23.5619 50.4163 23.9996 50.5076 24.3953C50.6077 24.8293 50.5385 25.3157 50.1343 25.4294L50.3449 26.3421Z" fill="#FEFEFE"/>
<path fill-rule="evenodd" clip-rule="evenodd" d="M19.6576 22.763C18.6896 22.3908 17.5622 22.5036 16.6257 22.9115L14.0087 20.2778C13.9744 20.2435 13.9189 20.2435 13.8843 20.2778C13.8554 20.3067 13.8508 20.3513 13.8712 20.3856C13.9872 20.5741 14.1578 20.8159 14.3509 21.09C15.0794 22.1235 16.1384 23.6258 15.7098 24.307C15.2645 25.0159 13.4475 24.7135 12.2062 24.5066C11.8762 24.4513 11.5851 24.4028 11.3651 24.3816C11.3172 24.377 11.2744 24.4119 11.2699 24.4604C11.2659 24.5012 11.2914 24.5386 11.3288 24.5516L14.4013 25.5996C16.2603 26.9852 14.6335 31.1204 17.1169 35.5438C18.8741 38.6738 22.0591 41.5725 27.7599 41.1967L25.5712 43.3482C25.0233 43.887 24.0405 44.4219 22.9738 44.4219H21.2799C20.4113 44.4219 19.9694 45.3823 20.8402 45.3823H28.0856C28.9566 45.3823 28.6026 44.4219 27.7338 44.4219H26.8003C26.4902 44.4219 26.1353 44.1413 26.5668 43.6883L29.5922 40.5118C39.6036 36.0189 35.3352 18.3143 31.1535 14.5581C37.3262 15.6817 40.8109 20.269 39.6693 27.8018C39.3028 30.2226 48.6781 18.5527 40.2374 10.3359C34.7186 4.96246 27.0705 6.44556 17.1526 1.20206C15.8365 0.506159 15.5938 1.68426 16.2067 2.14826C22.2147 6.70066 31.7377 14.6528 31.0875 23.0158C30.8967 25.4715 29.0323 27.0368 27.5433 26.8857C24.0309 26.5291 22.3236 23.7888 19.6576 22.763ZM18.257 23.8444C18.7729 23.8773 19.1811 24.3062 19.1811 24.83C19.1811 25.3757 18.7389 25.8179 18.1929 25.8179C17.6475 25.8179 17.2056 25.3757 17.2056 24.83C17.2056 24.3147 17.6002 23.8917 18.1036 23.8464L18.257 23.8444Z" fill="#FEFEFE"/>
</svg>
