<svg width="50" height="35" viewBox="0 0 50 35" fill="none" xmlns="http://www.w3.org/2000/svg">
<path fill-rule="evenodd" clip-rule="evenodd" d="M40.985 5.09395C41.1704 5.39522 48.4893 17.4595 48.8313 18.1526C49.5795 19.6688 50.0001 21.374 50 23.176C50 29.4586 44.8887 34.5699 38.6061 34.5699C32.3235 34.5699 27.2122 29.4586 27.2122 23.176V20.9526H22.7878V23.176C22.7878 29.4586 17.6766 34.5699 11.3939 34.5699C5.11133 34.5699 0 29.4586 0 23.176C0 21.4224 0.398438 19.7603 1.10898 18.2752C1.32097 17.8322 2.41208 16.0461 3.63511 14.0439L3.63514 14.0439L3.63518 14.0438C4.45169 12.7071 5.327 11.2742 6.03877 10.0805C6.27549 9.6835 6.78906 9.55361 7.18604 9.79023C7.58301 10.0269 7.71289 10.5405 7.47627 10.9375C7.06852 11.6212 6.66213 12.3031 6.27607 12.9508L6.27134 12.9587L6.26514 12.9691L6.23604 13.018C7.78555 12.228 9.53857 11.7819 11.3939 11.7819C15.5022 11.7819 19.1094 13.9678 21.1143 17.2374V8.99141V8.99092C21.1143 5.8125 18.5285 3.22666 15.35 3.22666C13.3347 3.22666 11.4991 4.25293 10.4399 5.97188C10.408 6.02373 10.132 6.48428 8.99883 8.38389C8.76211 8.78086 8.24844 8.91045 7.85156 8.67383C7.45479 8.43711 7.3249 7.92344 7.56162 7.52656C8.93877 5.21787 8.99609 5.12471 9.01494 5.09414C10.3812 2.87686 12.7494 1.55313 15.3499 1.55313C15.721 1.55313 16.0855 1.58125 16.4421 1.63398C17.0778 0.608008 18.1665 0.000488281 19.361 0.000488281C21.2506 0.000488281 22.7878 1.53779 22.7878 3.42725V9.41475H27.2122V3.42725C27.2122 1.5377 28.7495 0.000488281 30.639 0.000488281C31.8356 0.000488281 32.9264 0.610254 33.5565 1.63145L33.5574 1.63278L33.5581 1.63398C33.9147 1.58125 34.2791 1.55313 34.6501 1.55313C37.2506 1.55313 39.6188 2.87676 40.985 5.09395ZM18.1946 2.11973C19.3398 2.59561 20.3412 3.34932 21.1143 4.29688V3.42715C21.1143 2.46045 20.3278 1.67402 19.3611 1.67402C18.9222 1.67402 18.5114 1.83555 18.1946 2.11973ZM11.3939 32.8962C6.03408 32.8962 1.67354 28.5357 1.67354 23.1759C1.67354 17.816 6.03408 13.4555 11.3939 13.4555C16.7538 13.4555 21.1143 17.816 21.1143 23.1759C21.1143 28.5357 16.7537 32.8962 11.3939 32.8962ZM22.7877 11.0882V16.066H27.2121V11.0882H22.7877ZM27.2122 19.2791H22.7878V17.7396H27.2122V19.2791ZM30.6389 1.67412C29.6722 1.67412 28.8857 2.46055 28.8857 3.42725V4.29697C29.659 3.34922 30.6608 2.59531 31.8064 2.11943C31.4913 1.83672 31.0792 1.67412 30.6389 1.67412ZM28.8857 8.99141V8.99092C28.8857 5.8124 31.4716 3.22666 34.65 3.22666C36.6654 3.22666 38.5009 4.25303 39.5601 5.97188C39.6604 6.13486 41.7519 9.64219 43.764 13.018C42.2144 12.2279 40.4613 11.7818 38.606 11.7818C34.4977 11.7818 30.8905 13.9678 28.8856 17.2373V8.99141H28.8857ZM28.8858 23.1758C28.8858 28.5356 33.2463 32.8962 38.6062 32.8962C43.9659 32.8962 48.3266 28.5356 48.3266 23.1758C48.3266 17.8159 43.966 13.4554 38.6062 13.4554C33.2464 13.4554 28.8858 17.8159 28.8858 23.1758Z" fill="#D31797"/>
<path fill-rule="evenodd" clip-rule="evenodd" d="M45.9424 20.5389C45.7859 20.1041 45.3068 19.8782 44.8719 20.0346C44.4371 20.1909 44.2112 20.6702 44.3676 21.1051C44.6057 21.7675 44.7265 22.4642 44.7265 23.1757C44.7265 26.5504 41.9811 29.2959 38.6062 29.2959C35.2315 29.2959 32.486 26.5504 32.486 23.1757C32.486 19.801 35.2315 17.0555 38.6062 17.0555C40.2999 17.0555 41.9333 17.767 43.0878 19.0075C43.4026 19.3458 43.932 19.3648 44.2705 19.05C44.6088 18.7352 44.6278 18.2058 44.313 17.8673C42.8432 16.2878 40.7631 15.3818 38.6062 15.3818C34.3087 15.3818 30.8125 18.878 30.8125 23.1756C30.8125 27.4731 34.3087 30.9693 38.6062 30.9693C42.9038 30.9693 46.4 27.4731 46.4 23.1756C46.4001 22.2707 46.2461 21.3835 45.9424 20.5389Z" fill="#D31797"/>
<path fill-rule="evenodd" clip-rule="evenodd" d="M3.59961 23.1761C3.59961 18.8785 7.0958 15.3823 11.3934 15.3823C15.6908 15.3823 19.1871 18.8785 19.1871 23.1761C19.1871 27.4736 15.6909 30.9698 11.3934 30.9698C7.0958 30.9698 3.59961 27.4736 3.59961 23.1761ZM5.27314 23.176C5.27314 26.5508 8.01865 29.2962 11.3934 29.2962C14.768 29.2962 17.5136 26.5508 17.5136 23.176C17.5136 19.8012 14.7682 17.0558 11.3934 17.0558C8.01855 17.0558 5.27314 19.8013 5.27314 23.176Z" fill="#D31797"/>
</svg>
