<svg width="33" height="33" viewBox="0 0 33 33" fill="none" xmlns="http://www.w3.org/2000/svg">
<path fill-rule="evenodd" clip-rule="evenodd" d="M17.0239 0.188848C16.9042 0.0689648 16.7382 0 16.5691 0C16.3999 0 16.2339 0.0689004 16.1143 0.188848C15.9946 0.308795 15.9258 0.47502 15.9258 0.644531C15.9258 0.814043 15.9946 0.980332 16.1143 1.10015C16.2339 1.2201 16.3999 1.28906 16.5691 1.28906C16.7382 1.28906 16.9036 1.2201 17.0239 1.10015C17.1435 0.980332 17.2123 0.814043 17.2123 0.644531C17.2123 0.47502 17.1435 0.30873 17.0239 0.188848Z" fill="#D31797"/>
<path fill-rule="evenodd" clip-rule="evenodd" d="M31.6491 6.22888V4.41452C31.6491 3.4369 30.8553 2.64155 29.8796 2.64155H28.7627C28.4888 1.14121 27.1752 0 25.5998 0H19.3197C18.9645 0 18.6765 0.288621 18.6765 0.644531C18.6765 1.00044 18.9645 1.28906 19.3197 1.28906H25.5998C26.6639 1.28906 27.5296 2.15647 27.5296 3.22266V5.15625H21.3567V3.22266C21.3567 2.86675 21.0687 2.57812 20.7134 2.57812H12.2222C11.8669 2.57812 11.5789 2.86675 11.5789 3.22266V5.15625H5.41194V3.22266C5.41194 2.15647 6.27765 1.28906 7.34176 1.28906H13.7982C14.1535 1.28906 14.4415 1.00044 14.4415 0.644531C14.4415 0.288621 14.1535 0 13.7982 0H7.34176C5.76638 0 4.45275 1.14114 4.17878 2.64155H3.05607C2.08035 2.64155 1.28655 3.4369 1.28655 4.41452V6.22888C0.537842 6.49494 0 7.21134 0 8.05161V10.4602C0 11.5263 0.865719 12.3938 1.92982 12.3938C2.99393 12.3938 3.85965 11.5263 3.85965 10.4602V8.05161C3.85965 7.2114 3.32181 6.49494 2.5731 6.22888V4.41452C2.5731 4.14769 2.78975 3.93061 3.05607 3.93061H4.12545V25.3301C4.12545 26.6247 4.89172 27.7428 5.99333 28.2547V30.5508C5.99333 31.9013 7.08992 33 8.43777 33C9.78563 33 10.8822 31.9013 10.8822 30.5508V28.5527H22.0699V30.5508C22.0699 31.9013 23.1665 33 24.5144 33C25.8622 33 26.9588 31.9013 26.9588 30.5508V28.25C28.0548 27.7358 28.8162 26.6206 28.8162 25.3301V3.93061H29.8797C30.146 3.93061 30.3626 4.14769 30.3626 4.41452V6.22888C29.6139 6.49494 29.0761 7.21134 29.0761 8.05161V10.4602C29.0761 11.5263 29.9418 12.3938 31.0059 12.3938C32.07 12.3938 32.9357 11.5263 32.9357 10.4602V8.05161C32.9357 7.21134 32.3978 6.49501 31.6491 6.22888ZM2.5731 10.4602C2.5731 10.8156 2.28453 11.1048 1.92982 11.1048C1.57512 11.1048 1.28655 10.8156 1.28655 10.4602V8.05168C1.28655 7.69628 1.57512 7.40715 1.92982 7.40715C2.28453 7.40715 2.5731 7.69628 2.5731 8.05168V10.4602ZM19.0083 8.45309L21.0122 6.44531H17.1114V15.9692L26.6167 6.44531H22.8317L19.918 9.36465C19.7925 9.49047 19.6278 9.55344 19.4632 9.55344C19.2986 9.55344 19.134 9.49047 19.0083 9.36465C18.7571 9.1129 18.7571 8.70478 19.0083 8.45309ZM12.8655 3.86719H20.0702V5.15625H12.8655V3.86719ZM12.1668 15.1207C12.4182 14.8691 12.8254 14.8691 13.0766 15.1207C13.3279 15.3724 13.3278 15.7805 13.0766 16.0322L9.98781 19.127H15.8248V7.05581L5.76657 17.1337L7.75603 19.127H8.1683L12.1668 15.1207ZM5.41194 6.44531H14.6146L5.41194 15.666V6.44531ZM8.43771 31.7109C9.07616 31.7109 9.5956 31.1905 9.5956 30.5508V28.5527H7.34176H7.27981V30.5508C7.27981 31.1905 7.79926 31.7109 8.43771 31.7109ZM25.6722 30.5508C25.6722 31.1905 25.1528 31.7109 24.5143 31.7109C23.8759 31.7109 23.3564 31.1905 23.3564 30.5508V28.5527H25.5998H25.6722V30.5508ZM25.5998 27.2637C26.6639 27.2637 27.5296 26.3963 27.5296 25.3301V18.5956L25.9009 20.2274C25.7803 20.3482 25.6167 20.4162 25.4461 20.4162H7.48958C7.31899 20.4162 7.15534 20.3482 7.03473 20.2274L5.41194 18.6014V25.3301C5.41194 26.3963 6.27766 27.2637 7.34176 27.2637H25.5998ZM27.5296 16.7725L25.1796 19.127H17.1114V17.7922L27.5296 7.35371V16.7725ZM31.0058 11.1048C31.3605 11.1048 31.6491 10.8156 31.6491 10.4602V8.05168C31.6491 7.69628 31.3605 7.40715 31.0058 7.40715C30.6511 7.40715 30.3626 7.69628 30.3626 8.05168V10.4602C30.3626 10.8156 30.6511 11.1048 31.0058 11.1048Z" fill="#D31797"/>
<path fill-rule="evenodd" clip-rule="evenodd" d="M7.07812 23.8398C7.07812 22.7737 7.94384 21.9062 9.00795 21.9062C10.0721 21.9062 10.9378 22.7737 10.9378 23.8398C10.9378 24.906 10.0721 25.7734 9.00795 25.7734C7.94384 25.7734 7.07812 24.906 7.07812 23.8398ZM8.36467 23.8398C8.36467 24.1952 8.65325 24.4844 9.00795 24.4844C9.36265 24.4844 9.65122 24.1952 9.65122 23.8398C9.65122 23.4844 9.36265 23.1953 9.00795 23.1953C8.65325 23.1953 8.36467 23.4844 8.36467 23.8398Z" fill="#D31797"/>
<path fill-rule="evenodd" clip-rule="evenodd" d="M21.9961 23.8398C21.9961 22.7737 22.8618 21.9062 23.9259 21.9062C24.99 21.9062 25.8557 22.7737 25.8557 23.8398C25.8557 24.906 24.99 25.7734 23.9259 25.7734C22.8618 25.7734 21.9961 24.906 21.9961 23.8398ZM23.2826 23.8398C23.2826 24.1952 23.5712 24.4844 23.9259 24.4844C24.2806 24.4844 24.5692 24.1952 24.5692 23.8398C24.5692 23.4844 24.2806 23.1953 23.9259 23.1953C23.5712 23.1953 23.2826 23.4844 23.2826 23.8398Z" fill="#D31797"/>
<path fill-rule="evenodd" clip-rule="evenodd" d="M13.1276 21.9062H19.8177C20.173 21.9062 20.461 22.1948 20.461 22.5508V25.1289C20.461 25.4848 20.173 25.7734 19.8177 25.7734H13.1276C12.7724 25.7734 12.4844 25.4848 12.4844 25.1289V22.5508C12.4844 22.1949 12.7724 21.9062 13.1276 21.9062ZM13.7709 24.4844H19.1744V23.1953H13.7709V24.4844Z" fill="#D31797"/>
</svg>
