<svg width="30" height="30" viewBox="0 0 30 30" fill="none" xmlns="http://www.w3.org/2000/svg">
<rect width="30" height="30" fill="#F2F2F2"/>
<g clip-path="url(#clip0)">
<rect width="1920" height="1021" transform="translate(-975 -744)" fill="white"/>
<rect x="-827.5" y="-746.5" width="1772" height="1021" fill="#33135D"/>
<path fill-rule="evenodd" clip-rule="evenodd" d="M15.3967 0.17168C15.2879 0.0626953 15.137 0 14.9832 0C14.8294 0 14.6786 0.0626367 14.5698 0.17168C14.461 0.280723 14.3984 0.431836 14.3984 0.585938C14.3984 0.740039 14.461 0.891211 14.5698 1.00014C14.6786 1.10918 14.8294 1.17188 14.9832 1.17188C15.137 1.17188 15.2873 1.10918 15.3967 1.00014C15.5055 0.891211 15.568 0.740039 15.568 0.585938C15.568 0.431836 15.5055 0.280664 15.3967 0.17168Z" fill="white"/>
<path fill-rule="evenodd" clip-rule="evenodd" d="M28.7719 5.66262V4.0132C28.7719 3.12445 28.0503 2.40141 27.1633 2.40141H26.148C25.8989 1.03746 24.7047 0 23.2725 0H17.5634C17.2404 0 16.9786 0.262383 16.9786 0.585938C16.9786 0.909492 17.2404 1.17188 17.5634 1.17188H23.2725C24.2399 1.17188 25.0269 1.96043 25.0269 2.92969V4.6875H19.4152V2.92969C19.4152 2.60613 19.1534 2.34375 18.8304 2.34375H11.1111C10.7881 2.34375 10.5263 2.60613 10.5263 2.92969V4.6875H4.91994V2.92969C4.91994 1.96043 5.70696 1.17188 6.67433 1.17188H12.5439C12.8668 1.17188 13.1287 0.909492 13.1287 0.585938C13.1287 0.262383 12.8668 0 12.5439 0H6.67433C5.24216 0 4.04795 1.0374 3.79889 2.40141H2.77825C1.89123 2.40141 1.16959 3.12445 1.16959 4.0132V5.66262C0.488947 5.90449 0 6.55576 0 7.31965V9.50924C0 10.4785 0.787018 11.2671 1.75439 11.2671C2.72175 11.2671 3.50877 10.4785 3.50877 9.50924V7.31965C3.50877 6.55582 3.01982 5.90449 2.33918 5.66262V4.0132C2.33918 3.77063 2.53614 3.57328 2.77825 3.57328H3.75041V23.0273C3.75041 24.2043 4.44702 25.2207 5.44848 25.6861V27.7734C5.44848 29.0012 6.44538 30 7.6707 30C8.89602 30 9.89292 29.0012 9.89292 27.7734V25.957H20.0636V27.7734C20.0636 29.0012 21.0605 30 22.2858 30C23.5111 30 24.508 29.0012 24.508 27.7734V25.6818C25.5044 25.2144 26.1966 24.2006 26.1966 23.0273V3.57328H27.1633C27.4054 3.57328 27.6024 3.77063 27.6024 4.0132V5.66262C26.9218 5.90449 26.4328 6.55576 26.4328 7.31965V9.50924C26.4328 10.4785 27.2198 11.2671 28.1872 11.2671C29.1546 11.2671 29.9416 10.4785 29.9416 9.50924V7.31965C29.9415 6.55576 29.4526 5.90455 28.7719 5.66262ZM2.33918 9.5093C2.33918 9.83238 2.07684 10.0952 1.75439 10.0952C1.43193 10.0952 1.16959 9.83238 1.16959 9.5093V7.31971C1.16959 6.99662 1.43193 6.73377 1.75439 6.73377C2.07684 6.73377 2.33918 6.99662 2.33918 7.31971V9.5093ZM17.2803 7.68463L19.102 5.85938H15.5558V14.5174L24.197 5.85938H20.7561L18.1073 8.51332C17.9932 8.6277 17.8435 8.68494 17.6938 8.68494C17.5442 8.68494 17.3945 8.6277 17.2803 8.51332C17.0519 8.28445 17.0519 7.91344 17.2803 7.68463ZM11.6959 3.51562H18.2456V4.6875H11.6959V3.51562ZM11.0608 13.7461C11.2892 13.5173 11.6595 13.5174 11.8878 13.7461C12.1163 13.9749 12.1162 14.3459 11.8878 14.5747L9.07982 17.3882H14.3862V6.41437L5.24234 15.5761L7.05094 17.3882H7.42573L11.0608 13.7461ZM4.91994 5.85938H13.286L4.91994 14.2418V5.85938ZM7.67064 28.8281C8.25105 28.8281 8.72327 28.355 8.72327 27.7734V25.957H6.67433H6.61801V27.7734C6.61801 28.355 7.09023 28.8281 7.67064 28.8281ZM23.3384 27.7734C23.3384 28.355 22.8661 28.8281 22.2857 28.8281C21.7053 28.8281 21.2331 28.355 21.2331 27.7734V25.957H23.2725H23.3384V27.7734ZM23.2725 24.7852C24.2399 24.7852 25.0269 23.9966 25.0269 23.0273V16.9051L23.5463 18.3885C23.4367 18.4984 23.2879 18.5602 23.1328 18.5602H6.80871C6.65363 18.5602 6.50485 18.4984 6.3952 18.3885L4.91994 16.9104V23.0273C4.91994 23.9966 5.70696 24.7852 6.67433 24.7852H23.2725ZM25.0269 15.2477L22.8906 17.3882H15.5558V16.1747L25.0269 6.6852V15.2477ZM28.1871 10.0952C28.5096 10.0952 28.7719 9.83238 28.7719 9.5093V7.31971C28.7719 6.99662 28.5096 6.73377 28.1871 6.73377C27.8647 6.73377 27.6023 6.99662 27.6023 7.31971V9.5093C27.6023 9.83238 27.8647 10.0952 28.1871 10.0952Z" fill="white"/>
<path fill-rule="evenodd" clip-rule="evenodd" d="M6 20.958C6 19.9887 6.78702 19.2002 7.75439 19.2002C8.72175 19.2002 9.50877 19.9887 9.50877 20.958C9.50877 21.9273 8.72175 22.7158 7.75439 22.7158C6.78702 22.7158 6 21.9273 6 20.958ZM7.16959 20.958C7.16959 21.2811 7.43193 21.5439 7.75439 21.5439C8.07684 21.5439 8.33918 21.2811 8.33918 20.958C8.33918 20.6349 8.07684 20.3721 7.75439 20.3721C7.43193 20.3721 7.16959 20.6349 7.16959 20.958Z" fill="white"/>
<path fill-rule="evenodd" clip-rule="evenodd" d="M20.3984 20.958C20.3984 19.9887 21.1855 19.2002 22.1528 19.2002C23.1202 19.2002 23.9072 19.9887 23.9072 20.958C23.9072 21.9273 23.1202 22.7158 22.1528 22.7158C21.1855 22.7158 20.3984 21.9273 20.3984 20.958ZM21.568 20.958C21.568 21.2811 21.8304 21.5439 22.1528 21.5439C22.4753 21.5439 22.7376 21.2811 22.7376 20.958C22.7376 20.6349 22.4753 20.3721 22.1528 20.3721C21.8304 20.3721 21.568 20.6349 21.568 20.958Z" fill="white"/>
<path fill-rule="evenodd" clip-rule="evenodd" d="M11.3856 19.2002H17.4674C17.7904 19.2002 18.0522 19.4625 18.0522 19.7861V22.1299C18.0522 22.4534 17.7904 22.7158 17.4674 22.7158H11.3856C11.0626 22.7158 10.8008 22.4534 10.8008 22.1299V19.7861C10.8008 19.4626 11.0626 19.2002 11.3856 19.2002ZM11.9704 21.5439H16.8827V20.3721H11.9704V21.5439Z" fill="white"/>
</g>
<defs>
<clipPath id="clip0">
<rect width="1920" height="1021" fill="white" transform="translate(-975 -744)"/>
</clipPath>
</defs>
</svg>
