<svg width="33" height="33" viewBox="0 0 33 33" fill="none" xmlns="http://www.w3.org/2000/svg">
<g id="call-answer">
<path id="Path" fill-rule="evenodd" clip-rule="evenodd" d="M32.1748 26.0106L27.092 20.9272C26.0796 19.9188 24.403 19.9495 23.3553 20.9975L20.7946 23.5577C20.6328 23.4686 20.4653 23.3754 20.2893 23.2766C18.6722 22.3806 16.4589 21.1525 14.1299 18.8218C11.794 16.4862 10.5648 14.2695 9.66601 12.6514C9.57117 12.4799 9.4803 12.3147 9.39057 12.1577L11.1092 10.4416L11.9542 9.59561C13.0035 8.54604 13.0324 6.86994 12.0223 5.85867L6.93949 0.774684C5.92944 -0.235173 4.25212 -0.204537 3.20283 0.845033L1.77031 2.28578L1.80945 2.32464C1.32911 2.93756 0.927721 3.64445 0.629019 4.40676C0.353672 5.13239 0.182242 5.82482 0.103855 6.51867C-0.567302 12.0827 1.9753 17.1678 8.87561 24.0682C18.4139 33.6059 26.1006 32.8854 26.4322 32.8502C27.1544 32.7639 27.8465 32.5913 28.5499 32.3181C29.3056 32.0229 30.0121 31.6221 30.6246 31.1428L30.6559 31.1706L32.1071 29.7495C33.1543 28.7002 33.1844 27.0235 32.1748 26.0106Z" fill="#D31797"/>
</g>
</svg>
