<svg width="30" height="29" viewBox="0 0 30 29" fill="none" xmlns="http://www.w3.org/2000/svg">
<g id="clock (2)">
<path id="XMLID_389_" fill-rule="evenodd" clip-rule="evenodd" d="M29.9417 15.894C29.6723 13.1685 28.462 10.5992 26.5334 8.65904C24.8853 7.00115 22.868 5.93575 20.7454 5.46203V3.9644C21.6124 3.74743 22.2568 2.958 22.2568 2.01969C22.2568 0.914625 21.3631 0.015625 20.2646 0.015625H16.0458C14.9473 0.015625 14.0537 0.914625 14.0537 2.01969C14.0537 2.95795 14.6981 3.74737 15.565 3.9644V5.46621C13.4488 5.94194 11.4383 7.00586 9.79482 8.6591C9.43518 9.02089 9.10354 9.40043 8.79996 9.79487L8.79993 9.79487C8.78523 9.79375 8.77054 9.79263 8.75555 9.79263H4.5801C4.25654 9.79263 3.99416 10.0565 3.99416 10.3821C3.99416 10.7076 4.25654 10.9715 4.5801 10.9715H8.00268C7.57307 11.695 7.22666 12.4549 6.96299 13.237H0.585938C0.262383 13.237 0 13.5009 0 13.8265C0 14.152 0.262383 14.4159 0.585938 14.4159H6.63188C6.46301 15.1616 6.36609 15.9205 6.34107 16.6815H3.75C3.42645 16.6815 3.16406 16.9454 3.16406 17.2709C3.16406 17.5965 3.42645 17.8604 3.75 17.8604H6.35977C6.40922 18.6233 6.53115 19.3823 6.72563 20.1259H2.92969C2.60613 20.1259 2.34375 20.3898 2.34375 20.7154C2.34375 21.0409 2.60613 21.3048 2.92969 21.3048H7.09957C7.67438 22.8344 8.57268 24.2681 9.79482 25.4975C11.7253 27.4395 14.2821 28.6574 16.9941 28.9269C17.3812 28.9653 17.7686 28.9844 18.1554 28.9844C20.4418 28.9844 22.6992 28.3187 24.6146 27.064C24.8858 26.8863 24.9625 26.5212 24.7859 26.2484C24.6093 25.9756 24.2463 25.8984 23.9752 26.0761C19.7824 28.8226 14.1671 28.2288 10.6235 24.664C6.46553 20.4813 6.46553 13.6755 10.6235 9.49273C14.7813 5.31007 21.5467 5.31007 25.7047 9.49273C29.2437 13.0529 29.8373 18.6968 27.116 22.9125C26.9398 23.1855 27.0169 23.5506 27.2883 23.7278C27.5598 23.9051 27.9226 23.8275 28.0988 23.5545C29.5528 21.302 30.2072 18.5815 29.9417 15.894ZM15.2255 2.01975C15.2255 1.56471 15.5935 1.19455 16.0458 1.19455H20.2646C20.7169 1.19455 21.0849 1.56471 21.0849 2.01975C21.0849 2.47479 20.7169 2.84495 20.2646 2.84495H20.1595H16.1509H16.0458C15.5935 2.84495 15.2255 2.47473 15.2255 2.01975ZM16.7368 4.02381V5.26356C17.6786 5.14945 18.6316 5.14874 19.5735 5.26144V4.02381H16.7368Z" fill="white"/>
<path id="XMLID_391_" fill-rule="evenodd" clip-rule="evenodd" d="M26.1211 24.4912C25.9664 24.4912 25.8158 24.5543 25.7069 24.6639C25.5973 24.7735 25.5352 24.9256 25.5352 25.0806C25.5352 25.2357 25.5973 25.3877 25.7069 25.4974C25.8158 25.6076 25.9665 25.6701 26.1211 25.6701C26.2752 25.6701 26.4258 25.6076 26.5354 25.4974C26.6443 25.3877 26.707 25.2357 26.707 25.0806C26.707 24.9256 26.6444 24.7735 26.5354 24.6639C26.4258 24.5543 26.2751 24.4912 26.1211 24.4912Z" fill="white"/>
<path id="XMLID_394_" fill-rule="evenodd" clip-rule="evenodd" d="M9.07422 17.0784C9.07422 12.0364 13.1518 7.93457 18.1638 7.93457C23.1758 7.93457 27.2534 12.0364 27.2534 17.0784C27.2534 22.1203 23.1758 26.2221 18.1638 26.2221C13.1518 26.2221 9.07422 22.1203 9.07422 17.0784ZM10.2461 17.0784C10.2461 21.4702 13.7979 25.0433 18.1638 25.0433C22.5297 25.0433 26.0815 21.4702 26.0815 17.0784C26.0815 12.6865 22.5297 9.11343 18.1638 9.11343C13.7979 9.11343 10.2461 12.6865 10.2461 17.0784Z" fill="white"/>
<path id="XMLID_397_" fill-rule="evenodd" clip-rule="evenodd" d="M18.9702 15.4358L21.8723 12.5164C22.1012 12.2862 22.4721 12.2862 22.7009 12.5164C22.9298 12.7466 22.9298 13.1198 22.7009 13.35L22.6158 13.4356L19.7989 16.2693C19.9189 16.5135 19.9866 16.7881 19.9866 17.0784C19.9866 18.0883 19.1699 18.91 18.1659 18.91C17.1619 18.91 16.3452 18.0883 16.3452 17.0784C16.3452 16.7881 16.4129 16.5135 16.533 16.2693L15.2341 14.9628C15.0053 14.7326 15.0053 14.3594 15.2341 14.1292C15.463 13.899 15.8339 13.899 16.0628 14.1292L17.3616 15.4358C17.6043 15.3151 17.8773 15.2469 18.1659 15.2469C18.4545 15.2469 18.7275 15.3151 18.9702 15.4358ZM17.517 17.0785C17.517 17.4384 17.8081 17.7312 18.1659 17.7312C18.5237 17.7312 18.8148 17.4384 18.8148 17.0785C18.8148 16.7186 18.5237 16.4257 18.1659 16.4257C17.8081 16.4257 17.517 16.7186 17.517 17.0785Z" fill="white"/>
<path id="XMLID_398_" fill-rule="evenodd" clip-rule="evenodd" d="M24.4296 16.4961H23.8867C23.5632 16.4961 23.3008 16.76 23.3008 17.0855C23.3008 17.4111 23.5632 17.675 23.8867 17.675H24.4296C24.7531 17.675 25.0155 17.4111 25.0155 17.0855C25.0155 16.76 24.7531 16.4961 24.4296 16.4961Z" fill="white"/>
<path id="XMLID_399_" fill-rule="evenodd" clip-rule="evenodd" d="M12.4412 16.4814H11.8984C11.5749 16.4814 11.3125 16.7453 11.3125 17.0709C11.3125 17.3964 11.5749 17.6603 11.8984 17.6603H12.4412C12.7648 17.6603 13.0272 17.3964 13.0272 17.0709C13.0272 16.7453 12.7648 16.4814 12.4412 16.4814Z" fill="white"/>
<path id="XMLID_400_" fill-rule="evenodd" clip-rule="evenodd" d="M18.1719 11.9114C18.4954 11.9114 18.7578 11.6475 18.7578 11.322V10.776C18.7578 10.4504 18.4954 10.1865 18.1719 10.1865C17.8483 10.1865 17.5859 10.4504 17.5859 10.776V11.322C17.5859 11.6475 17.8483 11.9114 18.1719 11.9114Z" fill="white"/>
<path id="XMLID_424_" fill-rule="evenodd" clip-rule="evenodd" d="M18.1562 22.2451C17.8327 22.2451 17.5703 22.509 17.5703 22.8345V23.3806C17.5703 23.7061 17.8327 23.97 18.1562 23.97C18.4798 23.97 18.7422 23.7061 18.7422 23.3806V22.8345C18.7422 22.509 18.4798 22.2451 18.1562 22.2451Z" fill="white"/>
<path id="XMLID_425_" fill-rule="evenodd" clip-rule="evenodd" d="M0.585938 20.126C0.431836 20.126 0.280664 20.189 0.17168 20.2987C0.0626953 20.4083 0 20.5604 0 20.7154C0 20.871 0.0626367 21.0225 0.17168 21.1321C0.280723 21.2418 0.431836 21.3048 0.585938 21.3048C0.740039 21.3048 0.891211 21.2418 1.00014 21.1321C1.10912 21.0225 1.17188 20.8704 1.17188 20.7154C1.17188 20.5604 1.10918 20.4083 1.00014 20.2987C0.891211 20.189 0.740039 20.126 0.585938 20.126Z" fill="white"/>
</g>
</svg>
