<svg width="84" height="81" viewBox="0 0 84 81" fill="none" xmlns="http://www.w3.org/2000/svg">
<g id="clock (1)">
<path id="XMLID_389_" fill-rule="evenodd" clip-rule="evenodd" d="M83.838 44.3367C83.0838 36.7266 79.6947 29.5522 74.2947 24.1348C69.6799 19.5055 64.0314 16.5306 58.088 15.2079V11.0261C60.5155 10.4202 62.3199 8.21595 62.3199 5.59591C62.3199 2.51026 59.8176 0 56.7417 0H44.929C41.8531 0 39.3508 2.51026 39.3508 5.59591C39.3508 8.21578 41.1552 10.4201 43.5825 11.0261V15.2196C37.6573 16.5479 32.0276 19.5187 27.4259 24.135C26.4189 25.1452 25.4903 26.205 24.6403 27.3064C24.5991 27.3033 24.5579 27.3001 24.5159 27.3001H12.8245C11.9185 27.3001 11.1838 28.037 11.1838 28.946C11.1838 29.855 11.9185 30.5919 12.8245 30.5919H22.4078C21.2049 32.6121 20.235 34.7338 19.4967 36.9179H1.64065C0.734683 36.9179 0 37.6547 0 38.5637C0 39.4727 0.734683 40.2096 1.64065 40.2096H18.5695C18.0967 42.2918 17.8253 44.4108 17.7553 46.5358H10.5002C9.59419 46.5358 8.85951 47.2726 8.85951 48.1816C8.85951 49.0906 9.59419 49.8275 10.5002 49.8275H17.8076C17.9461 51.9579 18.2875 54.0771 18.832 56.1536H8.20325C7.29728 56.1536 6.5626 56.8905 6.5626 57.7995C6.5626 58.7085 7.29728 59.4454 8.20325 59.4454H19.8791C21.4886 63.7165 24.0039 67.7197 27.4259 71.1527C32.8312 76.5751 39.9903 79.9758 47.5843 80.7284C48.6681 80.8357 49.7527 80.8889 50.8359 80.8889C57.238 80.8889 63.5588 79.0302 68.9221 75.5265C69.6813 75.0305 69.8961 74.0109 69.4016 73.2492C68.9071 72.4874 67.8907 72.272 67.1314 72.7681C55.3914 80.4373 39.6686 78.7791 29.7461 68.8251C18.1037 57.1458 18.1037 38.1422 29.7461 26.4627C41.3883 14.7836 60.3318 14.7836 71.9743 26.4627C81.8837 36.4037 83.5457 52.1629 75.926 63.9344C75.4325 64.6968 75.6485 65.7162 76.4083 66.2111C77.1686 66.7062 78.1845 66.4895 78.6778 65.7271C82.749 59.4375 84.5816 51.841 83.838 44.3367ZM42.6321 5.59608C42.6321 4.32547 43.6624 3.29188 44.929 3.29188H56.7417C58.0083 3.29188 59.0386 4.32547 59.0386 5.59608C59.0386 6.86668 58.0083 7.90027 56.7417 7.90027H56.4474H45.2232H44.929C43.6624 7.90027 42.6321 6.86651 42.6321 5.59608ZM46.8638 11.192V14.6537C49.5009 14.3351 52.1692 14.3331 54.8067 14.6478V11.192H46.8638Z" fill="#CAFD35"/>
<path id="XMLID_391_" fill-rule="evenodd" clip-rule="evenodd" d="M73.1112 68.4443C72.7006 68.4443 72.3008 68.6108 72.0116 68.9001C71.7207 69.1894 71.5557 69.5908 71.5557 69.9999C71.5557 70.409 71.7207 70.8103 72.0116 71.0997C72.3008 71.3906 72.7007 71.5554 73.1112 71.5554C73.5203 71.5554 73.9201 71.3906 74.211 71.0997C74.5003 70.8103 74.6668 70.409 74.6668 69.9999C74.6668 69.5908 74.5005 69.1894 74.211 68.9001C73.9201 68.6108 73.5202 68.4443 73.1112 68.4443Z" fill="#CAFD35"/>
<path id="XMLID_394_" fill-rule="evenodd" clip-rule="evenodd" d="M25.4072 47.7033C25.4072 33.6935 36.805 22.2959 50.8146 22.2959C64.8243 22.2959 76.222 33.6935 76.222 47.7033C76.222 61.7131 64.8243 73.1107 50.8146 73.1107C36.805 73.1107 25.4072 61.7131 25.4072 47.7033ZM28.6829 47.7033C28.6829 59.9067 38.611 69.8351 50.8146 69.8351C63.0182 69.8351 72.9464 59.9067 72.9464 47.7033C72.9464 35.4999 63.0182 25.5715 50.8146 25.5715C38.611 25.5715 28.6829 35.4999 28.6829 47.7033Z" fill="#CAFD35"/>
<path id="XMLID_397_" fill-rule="evenodd" clip-rule="evenodd" d="M52.8962 43.2871L60.9887 35.2183C61.627 34.5822 62.6612 34.5822 63.2993 35.2183C63.9373 35.8545 63.9373 36.886 63.2993 37.5222L63.0619 37.7589L55.207 45.591C55.5416 46.2658 55.7306 47.0248 55.7306 47.8271C55.7306 50.6184 53.4532 52.8894 50.6536 52.8894C47.854 52.8894 45.5766 50.6184 45.5766 47.8271C45.5766 47.0248 45.7655 46.2658 46.1003 45.591L42.4785 41.9798C41.8405 41.3436 41.8405 40.312 42.4785 39.6759C43.1169 39.0397 44.1511 39.0397 44.7893 39.6759L48.411 43.2871C49.0877 42.9535 49.8488 42.765 50.6536 42.765C51.4583 42.765 52.2195 42.9535 52.8962 43.2871ZM48.8443 47.8273C48.8443 48.822 49.656 49.6313 50.6536 49.6313C51.6513 49.6313 52.4629 48.822 52.4629 47.8273C52.4629 46.8325 51.6513 46.0232 50.6536 46.0232C49.656 46.0232 48.8443 46.8325 48.8443 47.8273Z" fill="#CAFD35"/>
<path id="XMLID_398_" fill-rule="evenodd" clip-rule="evenodd" d="M68.4051 46.1484H66.9276C66.0471 46.1484 65.333 46.8449 65.333 47.704C65.333 48.5631 66.0471 49.2595 66.9276 49.2595H68.4051C69.2856 49.2595 69.9997 48.5631 69.9997 47.704C69.9997 46.8449 69.2856 46.1484 68.4051 46.1484Z" fill="#CAFD35"/>
<path id="XMLID_399_" fill-rule="evenodd" clip-rule="evenodd" d="M34.7019 46.1484H33.2246C32.344 46.1484 31.6299 46.8449 31.6299 47.704C31.6299 48.5631 32.344 49.2595 33.2246 49.2595H34.7019C35.5825 49.2595 36.2965 48.5631 36.2965 47.704C36.2965 46.8449 35.5825 46.1484 34.7019 46.1484Z" fill="#CAFD35"/>
<path id="XMLID_400_" fill-rule="evenodd" clip-rule="evenodd" d="M50.8143 33.1852C51.6733 33.1852 52.3699 32.4713 52.3699 31.5905V30.1132C52.3699 29.2325 51.6733 28.5186 50.8143 28.5186C49.9554 28.5186 49.2588 29.2325 49.2588 30.1132V31.5905C49.2588 32.4713 49.9554 33.1852 50.8143 33.1852Z" fill="#CAFD35"/>
<path id="XMLID_424_" fill-rule="evenodd" clip-rule="evenodd" d="M50.8143 62.2227C49.9554 62.2227 49.2588 62.9366 49.2588 63.8173V65.2946C49.2588 66.1754 49.9554 66.8893 50.8143 66.8893C51.6733 66.8893 52.3699 66.1754 52.3699 65.2946V63.8173C52.3699 62.9366 51.6733 62.2227 50.8143 62.2227Z" fill="#CAFD35"/>
<path id="XMLID_425_" fill-rule="evenodd" clip-rule="evenodd" d="M1.55556 56C1.14644 56 0.745111 56.1664 0.455778 56.4558C0.166444 56.7451 0 57.1464 0 57.5556C0 57.9662 0.166289 58.366 0.455778 58.6553C0.745267 58.9447 1.14644 59.1111 1.55556 59.1111C1.96467 59.1111 2.366 58.9447 2.65518 58.6553C2.94451 58.366 3.11111 57.9647 3.11111 57.5556C3.11111 57.1464 2.94467 56.7451 2.65518 56.4558C2.366 56.1664 1.96467 56 1.55556 56Z" fill="#CAFD35"/>
</g>
</svg>
