<svg width="57" height="81" viewBox="0 0 57 81" fill="none" xmlns="http://www.w3.org/2000/svg">
<g id="cocktail">
<path id="Path" fill-rule="evenodd" clip-rule="evenodd" d="M29.5833 55C28.7093 55 28 55.7088 28 56.582C28 57.4553 28.7093 58.1641 29.5833 58.1641C30.4573 58.1641 31.1667 57.4553 31.1667 56.582C31.1667 55.7088 30.4573 55 29.5833 55Z" fill="#CAFD35"/>
<path id="Path_2" fill-rule="evenodd" clip-rule="evenodd" d="M24.8866 53.2701C21.3585 51.3117 19.1667 47.5994 19.1667 43.582C19.1667 42.7083 18.4578 42 17.5833 42C16.7089 42 16 42.7083 16 43.582C16 48.7478 18.816 53.52 23.3489 56.0361C23.5924 56.1712 23.8562 56.2354 24.1163 56.2354C24.6727 56.2354 25.2125 55.9418 25.5019 55.4213C25.9265 54.6575 25.651 53.6944 24.8866 53.2701Z" fill="#CAFD35"/>
<path id="Shape" fill-rule="evenodd" clip-rule="evenodd" d="M55.4167 0H39.5833C38.8089 0 38.1482 0.559723 38.0214 1.32305L35.6139 15.8203H34.7747C34.447 11.7839 32.7299 8.0345 29.8552 5.14113C26.5908 1.85414 22.2161 0.0297422 17.533 0.00174023C17.5277 0.00155039 17.5224 0.00153141 17.5171 0.00151242L17.5064 0.00142383L17.5011 0.00118652L17.4957 0.000949219L17.4926 0.00111217L17.4898 0.00126563C17.4657 0.000632813 17.4417 0 17.4167 0C12.7457 0 8.35367 1.85715 5.05052 5.22861C1.84189 8.49962 0.0492417 12.8121 0.00174167 17.3729L0.0016625 17.3788L0.00158333 17.3846C0.00158333 17.3876 0.00134613 17.3906 0.00110879 17.3935L0.00110833 17.3935L0.00110788 17.3935C0.000870532 17.3964 0.000633333 17.3993 0.000633333 17.4023C0.000633333 17.4044 0.000794788 17.4065 0.000954659 17.4085L0.000955083 17.4085C0.0011117 17.4105 0.00126667 17.4124 0.00126667 17.4144C0.000633333 17.4633 0 17.5123 0 17.5605C0 22.2087 1.81165 26.5788 5.10134 29.8657C5.10134 29.8657 5.1015 29.8657 5.1015 29.8659C6.73123 31.4944 8.68443 32.7903 10.8051 33.662C10.5618 34.5187 10.352 35.3587 10.1762 36.2007C9.68683 38.5394 9.44031 40.8863 9.42257 43.3606C9.42083 43.4612 9.42083 43.5636 9.42083 43.6641C9.42083 49.1588 11.5621 54.3233 15.4497 58.2059C18.1909 60.9462 21.5709 62.8166 25.2542 63.6818V77.8359H14.1708C13.2964 77.8359 12.5875 78.5444 12.5875 79.418C12.5875 80.2916 13.2964 81 14.1708 81H45.8375C46.712 81 47.4208 80.2916 47.4208 79.418C47.4208 78.5444 46.712 77.8359 45.8375 77.8359H34.7542V63.6768C43.8214 61.5284 50.5875 53.3714 50.5875 43.6641V43.5438C50.5812 41.4044 50.3791 39.0032 50.0202 36.7294C50.0273 36.6688 50.0319 36.6074 50.0319 36.5448C50.0319 36.301 49.9751 36.0709 49.8766 35.8648C49.5925 34.2646 49.2388 32.7923 48.8219 31.4864L44.1796 16.9222C43.9704 16.266 43.3604 15.8203 42.671 15.8203H38.824L40.9257 3.16406H55.4167C56.2911 3.16406 57 2.45579 57 1.58203C57 0.708275 56.2911 0 55.4167 0ZM31.5951 15.8203H21.4564L28.6647 8.5667C30.317 10.6561 31.3294 13.1557 31.5951 15.8203ZM26.4369 6.31784C24.3308 4.61858 21.796 3.56542 19.0792 3.26057V13.7216L26.4369 6.31784ZM18.5147 18.9844H35.0884L32.4349 34.9629H13.7296C13.8722 34.4351 14.0279 33.9018 14.2022 33.3548L14.2077 33.3371L14.2107 33.3271L18.5147 18.9844ZM15.9125 13.8202V3.24554C13.179 3.53663 10.6129 4.61937 8.4702 6.38397L15.9125 13.8202ZM6.25717 8.6477L13.4357 15.8203H3.27497C3.59084 13.1995 4.61732 10.7304 6.25717 8.6477ZM13.8127 18.9844H3.23681C3.50756 21.7264 4.56095 24.2994 6.28425 26.4463L13.5247 19.2106C13.6133 19.122 13.7106 19.0475 13.8127 18.9844ZM8.52324 28.6838L13.915 23.2954L11.7189 30.6133C10.5779 30.1144 9.50047 29.4638 8.52324 28.6838ZM31.5875 77.8359V64.2305H28.4208V77.8359H31.5875ZM47.421 43.5486V43.6641H47.4208C47.4208 53.2597 39.6077 61.0664 30.0042 61.0664C25.3511 61.0664 20.9776 59.2562 17.6888 55.9686C14.3991 52.6832 12.5875 48.3133 12.5875 43.6641C12.5875 43.5812 12.5875 43.4967 12.5891 43.3986C12.6022 41.5763 12.7512 39.8405 13.0378 38.127H33.7736L33.7793 38.1271L33.7845 38.127H47.0255C47.276 39.9659 47.4159 41.8504 47.421 43.5486ZM45.8047 32.4473L41.5134 18.9844H38.2986L35.6451 34.9629H46.4705C46.2716 34.0583 46.0473 33.207 45.8047 32.4473Z" fill="#CAFD35"/>
</g>
</svg>
