<svg width="59" height="62" viewBox="0 0 59 62" fill="none" xmlns="http://www.w3.org/2000/svg">
<g id="discount">
<path id="Shape" fill-rule="evenodd" clip-rule="evenodd" d="M56.1554 30.197C55.908 30.7073 55.908 31.2927 56.1554 31.8031L58.4487 36.5336C59.7255 39.1674 58.7138 42.307 56.1455 43.6809L51.5327 46.1488C51.0352 46.4151 50.694 46.8886 50.5966 47.4481L49.6944 52.6341C49.192 55.5217 46.5443 57.4622 43.6647 57.0514L38.4944 56.314C37.9365 56.235 37.3846 56.4155 36.9796 56.8103L33.2265 60.4712C32.1819 61.4903 30.8406 61.9999 29.5 62C28.159 62.0001 26.8186 61.4906 25.7735 60.4712L22.0205 56.8103C21.6155 56.4155 21.0633 56.2342 20.5058 56.314L15.3354 57.0514C15.0773 57.0883 14.8206 57.1062 14.5675 57.1062C11.9984 57.1064 9.76296 55.2629 9.30564 52.6342L8.40351 47.448C8.30611 46.8886 7.96493 46.4149 7.46726 46.1488L2.85449 43.6809C0.286182 42.3069 -0.725481 39.1676 0.551347 36.5337L2.84464 31.8033C3.09203 31.293 3.09203 30.7077 2.84464 30.1973L0.551468 25.4669C-0.725361 22.833 0.286302 19.6935 2.85461 18.3196L7.46738 15.8517C7.96493 15.5854 8.30611 15.1118 8.40351 14.5524L9.30564 9.36636C9.80799 6.47879 12.456 4.53816 15.3353 4.94903L20.5056 5.68648C21.0636 5.76568 21.6154 5.58513 22.0204 5.19012L25.7735 1.5289C27.8631 -0.509693 31.1369 -0.509572 33.2266 1.5289L36.9796 5.18976C37.3845 5.58464 37.9363 5.76556 38.4944 5.68612L43.6647 4.94867C46.543 4.53804 49.192 6.47843 49.6944 9.36599L50.5965 14.5523C50.6939 15.1116 51.0351 15.5853 51.5327 15.8515L56.1455 18.3193C58.7138 19.6934 59.7255 22.8327 58.4487 25.4666L56.1554 30.197ZM49.8705 42.9898L54.4833 40.522C55.3523 40.0571 55.6946 38.9949 55.2625 38.1035L52.9692 33.3732C52.238 31.865 52.238 30.1348 52.9692 28.6266L55.2625 23.8962C55.6944 23.0051 55.3522 21.943 54.4832 21.4781L49.8704 19.0103C48.3996 18.2235 47.3911 16.8238 47.1033 15.1702L46.2012 9.98393C46.0313 9.00696 45.1348 8.35051 44.1612 8.48941L38.9908 9.22686C37.3423 9.46214 35.7104 8.9274 34.5136 7.76007L30.7606 4.0992C30.0535 3.4097 28.9459 3.4097 28.239 4.0992L24.4859 7.76007C23.2892 8.92728 21.657 9.46214 20.0087 9.22686L14.8383 8.48941C13.864 8.35064 12.9684 9.00696 12.7983 9.98393L11.8962 15.1701C11.6085 16.8237 10.5999 18.2233 9.12923 19.0103L4.51646 21.4781C3.64746 21.943 3.3052 23.0051 3.73717 23.8962L6.03047 28.6267C6.7616 30.135 6.7616 31.865 6.03047 33.3733L3.73717 38.1038C3.3052 38.9949 3.64746 40.057 4.51646 40.5218L9.12923 42.9897C10.6 43.7764 11.6085 45.1762 11.8963 46.8298L12.7985 52.0161C12.9686 52.993 13.8651 53.6494 14.8386 53.5106L20.0089 52.7731C20.2642 52.7367 20.5192 52.7188 20.7721 52.7188C22.1525 52.7188 23.4747 53.2534 24.4861 54.2399L28.2391 57.9008C28.9463 58.5903 30.0539 58.5903 30.7607 57.9008L34.5139 54.24C35.7106 53.0728 37.3422 52.5377 38.9911 52.7732L44.1614 53.5107C45.1357 53.6493 46.0315 52.9931 46.2015 52.0162L47.1036 46.83C47.3912 45.1764 48.3999 43.7768 49.8705 42.9898Z" fill="#CAFD35"/>
<path id="Path" fill-rule="evenodd" clip-rule="evenodd" d="M42.3304 18.1292C41.6447 17.4413 40.5327 17.4413 39.847 18.1292L16.6686 41.379C15.9829 42.0669 15.9829 43.1822 16.6686 43.87C17.0115 44.214 17.4609 44.386 17.9103 44.386C18.3596 44.386 18.8091 44.2141 19.1519 43.87L42.3303 20.6203C43.0163 19.9324 43.0163 18.8172 42.3304 18.1292Z" fill="#CAFD35"/>
<path id="Shape_2" fill-rule="evenodd" clip-rule="evenodd" d="M16.1543 21.4891C16.1543 17.7985 18.9901 14.7959 22.4757 14.7959C25.9613 14.7959 28.7972 17.7985 28.7972 21.4891C28.7972 25.1797 25.9613 28.1823 22.4757 28.1823C18.9901 28.1823 16.1543 25.1797 16.1543 21.4891ZM19.6024 21.489C19.6024 23.1666 20.8914 24.5314 22.4757 24.5314C24.0601 24.5314 25.349 23.1666 25.3491 21.489C25.3491 19.8114 24.0601 18.4467 22.4757 18.4467C20.8914 18.4467 19.6024 19.8114 19.6024 21.489Z" fill="#CAFD35"/>
<path id="Shape_3" fill-rule="evenodd" clip-rule="evenodd" d="M30.2031 40.5115C30.2031 36.821 33.0389 33.8184 36.5246 33.8184C40.0102 33.8184 42.846 36.821 42.846 40.5115C42.846 44.2021 40.0102 47.2047 36.5246 47.2047C33.0389 47.2047 30.2031 44.2021 30.2031 40.5115ZM33.6511 40.5115C33.6511 42.1891 34.9402 43.5538 36.5246 43.5538C38.1089 43.5538 39.3979 42.1891 39.3979 40.5115C39.3979 38.834 38.1089 37.4693 36.5246 37.4693C34.9401 37.4693 33.6511 38.834 33.6511 40.5115Z" fill="#CAFD35"/>
</g>
</svg>
