<svg width="59" height="62" viewBox="0 0 59 62" fill="none" xmlns="http://www.w3.org/2000/svg">
<g id="discount">
<path id="Shape" fill-rule="evenodd" clip-rule="evenodd" d="M56.1554 30.1043C55.908 30.613 55.908 31.1965 56.1554 31.7054L58.4487 36.4213C59.7255 39.0471 58.7138 42.177 56.1455 43.5467L51.5327 46.007C51.0352 46.2725 50.694 46.7446 50.5966 47.3023L49.6944 52.4724C49.192 55.3511 46.5443 57.2857 43.6647 56.8762L38.4944 56.141C37.9365 56.0623 37.3846 56.2421 36.9796 56.6358L33.2265 60.2854C32.1819 61.3014 30.8406 61.8094 29.5 61.8095C28.159 61.8096 26.8186 61.3017 25.7735 60.2854L22.0205 56.6358C21.6155 56.2421 21.0633 56.0614 20.5058 56.141L15.3354 56.8762C15.0773 56.9129 14.8206 56.9307 14.5675 56.9307C11.9984 56.931 9.76296 55.0931 9.30564 52.4725L8.40351 47.3022C8.30611 46.7446 7.96493 46.2723 7.46726 46.007L2.85449 43.5467C0.286182 42.1769 -0.725481 39.0472 0.551347 36.4214L2.84464 31.7056C3.09203 31.1969 3.09203 30.6133 2.84464 30.1045L0.551468 25.3887C-0.725361 22.7629 0.286302 19.633 2.85461 18.2633L7.46738 15.803C7.96493 15.5375 8.30611 15.0654 8.40351 14.5077L9.30564 9.33758C9.80799 6.45889 12.456 4.52422 15.3353 4.93383L20.5056 5.66901C21.0636 5.74796 21.6154 5.56797 22.0204 5.17418L25.7735 1.5242C27.8631 -0.508127 31.1369 -0.508006 33.2266 1.5242L36.9796 5.17382C37.3845 5.56749 37.9363 5.74784 38.4944 5.66865L43.6647 4.93346C46.543 4.5241 49.192 6.45852 49.6944 9.33722L50.5965 14.5076C50.6939 15.0652 51.0351 15.5374 51.5327 15.8028L56.1455 18.263C58.7138 19.6329 59.7255 22.7625 58.4487 25.3883L56.1554 30.1043ZM49.8705 42.8578L54.4833 40.3975C55.3523 39.934 55.6946 38.8751 55.2625 37.9865L52.9692 33.2706C52.238 31.7671 52.238 30.0422 52.9692 28.5386L55.2625 23.8228C55.6944 22.9344 55.3522 21.8756 54.4832 21.4122L49.8704 18.9519C48.3996 18.1676 47.3911 16.7721 47.1033 15.1236L46.2012 9.95326C46.0313 8.97928 45.1348 8.32486 44.1612 8.46333L38.9908 9.19851C37.3423 9.43307 35.7104 8.89997 34.5136 7.73623L30.7606 4.08661C30.0535 3.39923 28.9459 3.39923 28.239 4.08661L24.4859 7.73623C23.2892 8.89985 21.657 9.43307 20.0087 9.19851L14.8383 8.46333C13.864 8.32498 12.9684 8.97928 12.7983 9.95326L11.8962 15.1235C11.6085 16.772 10.5999 18.1673 9.12923 18.9519L4.51646 21.4122C3.64746 21.8756 3.3052 22.9344 3.73717 23.8228L6.03047 28.5388C6.7616 30.0424 6.7616 31.7671 6.03047 33.2708L3.73717 37.9867C3.3052 38.8751 3.64746 39.9339 4.51646 40.3974L9.12923 42.8576C10.6 43.642 11.6085 45.0374 11.8963 46.6859L12.7985 51.8563C12.9686 52.8302 13.8651 53.4845 14.8386 53.3462L20.0089 52.611C20.2642 52.5747 20.5192 52.5568 20.7721 52.5568C22.1525 52.5568 23.4747 53.0898 24.4861 54.0733L28.2391 57.7229C28.9463 58.4103 30.0539 58.4103 30.7607 57.7229L34.5139 54.0734C35.7106 52.9098 37.3422 52.3763 38.9911 52.6111L44.1614 53.3463C45.1357 53.4845 46.0315 52.8303 46.2015 51.8564L47.1036 46.6862C47.3912 45.0376 48.3999 43.6423 49.8705 42.8578Z" fill="#CAFD35"/>
</g>
</svg>
