<svg width="83" height="82" viewBox="0 0 83 82" fill="none" xmlns="http://www.w3.org/2000/svg">
<g id="dj">
<path id="Path" fill-rule="evenodd" clip-rule="evenodd" d="M55.9615 5.71115C55.8915 5.63619 55.8206 5.56156 55.7491 5.48789C55.1354 4.85255 54.1231 4.83573 53.4879 5.44913C52.8529 6.06285 52.8354 7.07536 53.4491 7.71054C53.5079 7.77108 53.5662 7.83209 53.6237 7.89391C53.9387 8.23104 54.3652 8.40161 54.7928 8.40161C55.1838 8.40161 55.5759 8.25891 55.884 7.97127C56.5296 7.3686 56.5643 6.35674 55.9615 5.71115Z" fill="#CAFD35"/>
<path id="Shape" fill-rule="evenodd" clip-rule="evenodd" d="M70.3659 70.0461H80.281C81.1643 70.0461 81.8802 70.762 81.8799 71.6453V80.281C81.8799 81.1641 81.164 81.8802 80.2807 81.8802H1.59916C0.715898 81.8802 0 81.1641 0 80.281V71.6453C0 70.7622 0.715898 70.0461 1.59916 70.0461H11.5143V66.9541C11.5143 59.0458 16.5089 51.9198 23.9426 49.2219L30.2026 46.95C31.9635 46.3109 33.2145 44.7478 33.4885 42.931C30.4303 41.2463 28.0828 38.4255 27.0204 35.0401H21.2655C16.6724 35.0401 12.9357 31.3033 12.9357 26.7101C12.9357 22.1323 16.6476 18.4063 21.2196 18.3813V17.9082C21.2196 8.0336 29.253 0 39.1278 0H42.7519C45.4653 0 48.073 0.592098 50.5019 1.75964C51.298 2.14241 51.6331 3.09774 51.2505 3.89388C50.868 4.69002 49.9125 5.02538 49.1164 4.64245C47.1231 3.68455 44.982 3.19864 42.7519 3.19864H39.1278C31.017 3.19864 24.4181 9.79724 24.4181 17.9084V31.8416H26.4288C26.4101 31.5492 26.3971 31.255 26.3971 30.9579V18.8382C26.3971 11.3057 32.5252 5.17769 40.0576 5.17769H41.8224C49.3549 5.17769 55.4829 11.3057 55.4829 18.8382V30.9577C55.4829 31.2548 55.4701 31.549 55.4512 31.8415H57.462V17.9082C57.462 15.7421 57.0027 13.6565 56.0965 11.7095C55.7238 10.9086 56.0709 9.95739 56.8716 9.58471C57.6723 9.21251 58.6236 9.55925 58.9964 10.3599C60.1007 12.7327 60.6606 15.2725 60.6606 17.9082V18.3813C65.2326 18.4064 68.9445 22.1325 68.9445 26.7101C68.9445 31.3033 65.2078 35.0401 60.6147 35.0401H54.8598C53.7974 38.4255 51.4497 41.2465 48.3917 42.931C48.6657 44.7478 49.9165 46.3109 51.6776 46.95L57.9376 49.2219C65.3715 51.9199 70.3659 59.0458 70.3659 66.9541V70.0461ZM65.7459 26.7101C65.7459 23.8961 63.4688 21.6038 60.6605 21.5788V31.8415C63.4688 31.8166 65.7459 29.5243 65.7459 26.7101ZM21.2197 31.8415C18.4114 31.8166 16.1343 29.5243 16.1343 26.7101C16.1343 23.896 18.4114 21.6036 21.2197 21.5788V31.8415ZM40.0576 8.37617C34.2888 8.37617 29.5956 13.0694 29.5954 18.8382H29.5956V23.2681H31.5492C37.8518 23.2681 43.7771 20.8136 48.2339 16.3571C48.8584 15.7328 49.8709 15.7329 50.4955 16.3571C51.1201 16.9817 51.12 17.9944 50.4955 18.6188C49.3957 19.7186 48.217 20.7108 46.9722 21.5905C48.5381 22.6118 50.3663 23.1613 52.2798 23.1613H52.2845V18.8382C52.2845 13.0696 47.5912 8.37617 41.8224 8.37617H40.0576ZM29.5956 30.9579V26.4666H31.5492C35.9721 26.4666 40.2308 25.4009 44.034 23.3932C46.3494 25.3135 49.234 26.3598 52.2801 26.3598H52.2848V30.9579C52.2848 36.7266 47.5916 41.4199 41.8227 41.4199H40.058C34.2888 41.4201 29.5956 36.7267 29.5956 30.9579ZM40.0576 44.6186C38.8289 44.6186 37.6385 44.4526 36.5046 44.1471C36.026 46.0886 34.854 47.8004 33.2219 48.9498C37.6721 52.6823 44.2079 52.6823 48.6582 48.9498C47.026 47.8006 45.8542 46.0886 45.3755 44.1471C44.2417 44.4528 43.0514 44.6186 41.8224 44.6186H40.0576ZM14.7129 66.9541C14.7129 60.3868 18.8606 54.469 25.034 52.2287L30.0847 50.3957C30.1142 50.4306 30.1441 50.4651 30.1771 50.4979C33.1445 53.4653 37.0424 54.949 40.9404 54.949C44.8383 54.949 48.7364 53.4653 51.7037 50.4979C51.7366 50.4651 51.7667 50.4306 51.7961 50.3957L56.8468 52.2287C63.0202 54.4691 67.1679 60.3868 67.1679 66.9541V70.0461H61.2233C61.3445 69.6404 61.4105 69.2114 61.4105 68.7668C61.4105 66.2978 59.4016 64.289 56.9327 64.289H46.5377C45.6545 64.289 44.9386 65.005 44.9386 65.8881C44.9386 66.7712 45.6545 67.4873 46.5377 67.4873H56.9327C57.6382 67.4873 58.212 68.0613 58.212 68.7666C58.212 69.4719 57.638 70.0459 56.9327 70.0459H24.9483C24.2429 70.0459 23.669 69.4719 23.669 68.7666C23.669 68.0613 24.243 67.4873 24.9483 67.4873H33.5841C34.4674 67.4873 35.1833 66.7712 35.1833 65.8881C35.1833 65.005 34.4674 64.289 33.5841 64.289H24.9483C22.4794 64.289 20.4705 66.2978 20.4705 68.7668C20.4705 69.2114 20.5365 69.6404 20.6578 70.0461H14.7129V66.9541ZM3.19864 78.6819H78.6817H78.6819V73.2446H3.19864V78.6819Z" fill="#CAFD35"/>
<path id="Path_2" fill-rule="evenodd" clip-rule="evenodd" d="M41.73 64.4686C41.4326 64.1712 41.0201 64 40.5993 64C40.1788 64 39.7662 64.1709 39.4686 64.4686C39.1712 64.7662 39 65.1788 39 65.5993C39 66.0199 39.171 66.4325 39.4686 66.7299C39.766 67.0274 40.1788 67.1986 40.5993 67.1986C41.0199 67.1986 41.4325 67.0276 41.73 66.7299C42.0274 66.4326 42.1986 66.0199 42.1986 65.5993C42.1986 65.1788 42.0276 64.7662 41.73 64.4686Z" fill="#CAFD35"/>
<path id="Shape_2" fill-rule="evenodd" clip-rule="evenodd" d="M17.6453 36.3303C17.2509 36.0276 16.7384 35.9263 16.2581 36.0541L6.21234 38.7428C5.51294 38.93 5.02654 39.5636 5.02654 40.2876V46.0139C3.73825 45.805 2.33159 46.2254 1.29746 47.2594C-0.35663 48.914 -0.440392 51.5218 1.11072 53.0731C1.85353 53.8159 2.83881 54.1838 3.84555 54.1838C4.94102 54.1838 6.06211 53.7481 6.92423 52.8862C7.73751 52.0729 8.17041 51.0292 8.21669 49.9938C8.21701 49.9903 8.21713 49.9868 8.21725 49.9833C8.21737 49.9799 8.21749 49.9764 8.21782 49.9729L8.2186 49.9576C8.21878 49.9545 8.21896 49.9513 8.21911 49.9482C8.21931 49.9443 8.21947 49.9404 8.21958 49.9366L8.22088 49.9178L8.22089 49.9177C8.22296 49.8884 8.22502 49.8591 8.22502 49.8291V41.5154L15.0722 39.6826V43.4991C13.784 43.2903 12.3777 43.7108 11.3437 44.7451C10.5646 45.5243 10.1046 46.5405 10.0486 47.6065C9.9901 48.7197 10.394 49.7955 11.1568 50.5583C11.8996 51.3013 12.8848 51.6691 13.8917 51.6691C14.9871 51.6691 16.1082 51.2335 16.9704 50.3716C17.7566 49.5854 18.1872 48.5837 18.257 47.5826C18.2652 47.5176 18.2707 47.4514 18.2707 47.3842V37.5991C18.2707 37.102 18.0396 36.633 17.6453 36.3303ZM5.02638 49.7788C5.03551 50.0577 4.90931 50.3773 4.66235 50.6243C4.26212 51.0245 3.67114 51.1104 3.37213 50.8113C3.07328 50.5123 3.1588 49.9212 3.55903 49.521C3.79782 49.2822 4.10436 49.1553 4.37647 49.1553C4.56033 49.1553 4.72865 49.2133 4.84925 49.3337C4.96056 49.4451 5.01821 49.597 5.02638 49.7642V49.7788ZM14.7088 48.1097C14.9522 47.8661 15.0775 47.5523 15.0722 47.2762V47.2455C15.0631 47.0799 15.006 46.9295 14.8957 46.8191C14.7749 46.6985 14.6066 46.6407 14.4227 46.6407C14.151 46.6407 13.8444 46.7676 13.6056 47.0064C13.3894 47.2227 13.257 47.5025 13.2427 47.7743C13.2349 47.9242 13.2587 48.1367 13.4186 48.2964C13.7177 48.5957 14.3086 48.5099 14.7088 48.1097Z" fill="#CAFD35"/>
<path id="Path_3" fill-rule="evenodd" clip-rule="evenodd" d="M12.2695 9.9659C11.9673 9.56663 11.4953 9.33185 10.9943 9.33185H8.84052L9.94528 6.11975C10.2324 5.2847 9.78833 4.37469 8.95311 4.08753C8.11758 3.79989 7.20789 4.24448 6.92073 5.0797L5.08694 10.411C4.91893 10.8996 4.99725 11.4393 5.29738 11.8601C5.59768 12.2805 6.08247 12.5303 6.59929 12.5303H8.88136L7.8767 16.0906C7.63679 16.9405 8.13151 17.8241 8.98146 18.064C9.12672 18.1052 9.27278 18.1246 9.4166 18.1246C10.1146 18.1244 10.756 17.664 10.9549 16.9593L12.5334 11.3653C12.6694 10.8833 12.5717 10.3652 12.2695 9.9659Z" fill="#CAFD35"/>
<path id="Path_4" fill-rule="evenodd" clip-rule="evenodd" d="M77.2691 41.9661C76.9669 41.5668 76.495 41.332 75.994 41.332H73.8404L74.9451 38.1198C75.2323 37.2845 74.788 36.3747 73.953 36.0875C73.1174 35.7999 72.2077 36.2445 71.9206 37.0797L70.0869 42.4111C69.9189 42.8999 69.9973 43.4397 70.2974 43.8602C70.5975 44.2808 71.0825 44.5305 71.5991 44.5305H73.881L72.8765 48.0906C72.6366 48.9405 73.1313 49.8241 73.9813 50.064C74.1266 50.1052 74.2726 50.1246 74.4164 50.1246C75.1144 50.1244 75.7558 49.664 75.9547 48.9593L77.5332 43.3655C77.6692 42.8833 77.5714 42.3655 77.2691 41.9661Z" fill="#CAFD35"/>
<path id="Shape_3" fill-rule="evenodd" clip-rule="evenodd" d="M78.1961 1.3193C76.5509 0.527332 74.9274 0.0761714 74.8592 0.0574332C74.3779 -0.0751762 73.8626 0.0247613 73.4654 0.327136C73.1258 0.585949 72.9076 0.967761 72.8512 1.38497C72.8404 1.41107 72.8353 1.47706 72.8353 1.59926V6.70472V11.0172C71.3417 10.6671 69.6527 11.1122 68.4321 12.3326C66.611 14.1539 66.5136 17.0199 68.215 18.7212C69.0279 19.534 70.1061 19.9363 71.2096 19.9363C72.4159 19.9363 73.6524 19.4551 74.6036 18.5041C75.5831 17.5246 76.0633 16.2428 76.0338 15.0024V8.96068C76.2633 9.05613 76.4992 9.15959 76.7354 9.27154C78.5217 10.1188 78.9525 10.7892 78.9714 10.9252C78.9724 11.8075 79.6879 12.5222 80.5705 12.5222C81.4538 12.5222 82.1697 11.8062 82.1697 10.9231V5.81761C82.1697 4.10218 80.8327 2.58886 78.1961 1.3193ZM72.342 16.2422C71.7777 16.8066 70.9235 16.9064 70.4767 16.4594C70.03 16.0127 70.1295 15.1584 70.6939 14.594C71.0201 14.2678 71.4429 14.0971 71.8281 14.0971C72.1093 14.0971 72.3707 14.1882 72.5591 14.3767C72.7261 14.5439 72.8167 14.7678 72.8352 15.0125V15.0625C72.8352 15.0735 72.8359 15.0843 72.8367 15.0951C72.8372 15.1028 72.8378 15.1106 72.838 15.1184C72.8353 15.5007 72.6654 15.9188 72.342 16.2422ZM78.1962 6.42477C78.4683 6.55561 78.7268 6.6895 78.9712 6.82564H78.9714V5.81745C78.9547 5.68709 78.5265 5.01539 76.7354 4.16592C76.4994 4.05397 76.2631 3.95019 76.0338 3.85474V5.53766C76.6406 5.75019 77.4161 6.04904 78.1962 6.42477Z" fill="#CAFD35"/>
<path id="Path_5" fill-rule="evenodd" clip-rule="evenodd" d="M48.059 29.7634C47.5972 29.0105 46.6124 28.7745 45.8597 29.236L45.7572 29.2993C45.0064 29.7644 44.7748 30.7502 45.24 31.5011C45.5427 31.9896 46.0656 32.2582 46.6011 32.2582C46.8884 32.2582 47.1795 32.1808 47.4417 32.0183L47.5316 31.9629C48.2845 31.5011 48.5207 30.5165 48.059 29.7634Z" fill="#CAFD35"/>
<path id="Path_6" fill-rule="evenodd" clip-rule="evenodd" d="M37.0578 29.7619C36.5955 29.0095 35.6102 28.7746 34.8581 29.237L34.7572 29.2993C34.0064 29.7643 33.7748 30.7501 34.24 31.5011C34.5427 31.9897 35.0656 32.2581 35.6011 32.2581C35.8884 32.2581 36.1795 32.1808 36.4417 32.0182L36.5328 31.9619C37.2853 31.4993 37.5204 30.5144 37.0578 29.7619Z" fill="#CAFD35"/>
</g>
</svg>
