<svg width="28" height="22" viewBox="0 0 28 22" fill="none" xmlns="http://www.w3.org/2000/svg">
<g id="black-back-closed-envelope-shape">
<path id="Path" fill-rule="evenodd" clip-rule="evenodd" d="M25.4905 21.9917C26.1197 21.9917 26.6648 21.7839 27.1283 21.3737L19.1984 13.4435C19.0081 13.5798 18.8237 13.7123 18.6495 13.8382C18.0561 14.2755 17.5744 14.6166 17.2046 14.8611C16.8348 15.1062 16.3428 15.3559 15.7286 15.6109C15.114 15.8662 14.5415 15.9935 14.0104 15.9935H13.9948H13.9793C13.4481 15.9935 12.8755 15.8663 12.261 15.6109C11.6465 15.3559 11.1545 15.1062 10.785 14.8611C10.4152 14.6166 9.93384 14.2755 9.34009 13.8382C9.17463 13.7169 8.99114 13.5838 8.79275 13.4414L0.861328 21.3737C1.32473 21.7839 1.87024 21.9917 2.49935 21.9917H25.4905Z" fill="#D31797"/>
<path id="Path_2" fill-rule="evenodd" clip-rule="evenodd" d="M1.57771 8.45084C0.984319 8.05523 0.458113 7.60215 0 7.0918V19.157L6.98938 12.1676C5.59111 11.1914 3.7895 9.95389 1.57771 8.45084Z" fill="#D31797"/>
<path id="Path_3" fill-rule="evenodd" clip-rule="evenodd" d="M26.4276 8.45084C24.3002 9.89078 22.492 11.1304 21.0029 12.1704L27.9895 19.1573V7.0918C27.5416 7.59188 27.021 8.04466 26.4276 8.45084Z" fill="#D31797"/>
<path id="Path_4" fill-rule="evenodd" clip-rule="evenodd" d="M25.49 0H2.49891C1.69682 0 1.08016 0.270853 0.648167 0.812C0.215818 1.3534 0 2.03048 0 2.84248C0 3.49837 0.286403 4.20905 0.858955 4.9747C1.43151 5.74005 2.04075 6.34121 2.68637 6.77849C3.04031 7.02856 4.10767 7.77058 5.88844 9.00431C6.84973 9.67047 7.68572 10.2511 8.40412 10.7522C9.01646 11.1788 9.54454 11.5483 9.98055 11.8549C10.0306 11.89 10.1093 11.9463 10.2138 12.021C10.3264 12.1019 10.4688 12.2045 10.6445 12.3314C10.9829 12.5761 11.264 12.7739 11.4879 12.9251C11.7115 13.0763 11.9824 13.2451 12.3002 13.4326C12.6178 13.6199 12.9173 13.7607 13.1984 13.8544C13.4796 13.948 13.7399 13.9949 13.9793 13.9949H13.9949H14.0104C14.2498 13.9949 14.5101 13.948 14.7914 13.8544C15.0724 13.7607 15.3717 13.6202 15.6895 13.4326C16.007 13.2451 16.2776 13.0759 16.5019 12.9251C16.7258 12.7739 17.0069 12.5762 17.3453 12.3314C17.5207 12.2045 17.6631 12.1018 17.7757 12.0213C17.8802 11.9463 17.9589 11.8903 18.0092 11.8549C18.3489 11.6186 18.8782 11.2506 19.5898 10.7565C20.8847 9.85676 22.7918 8.53253 25.319 6.77849C26.0791 6.24761 26.7141 5.60696 27.2244 4.85747C27.7339 4.10797 27.9893 3.32179 27.9893 2.49917C27.9893 1.81187 27.7416 1.22377 27.2475 0.733946C26.7527 0.244733 26.1668 0 25.49 0Z" fill="#D31797"/>
</g>
</svg>
