<svg width="35" height="35" viewBox="0 0 35 35" fill="none" xmlns="http://www.w3.org/2000/svg">
<g id="icon (2)">
<path id="Path" fill-rule="evenodd" clip-rule="evenodd" d="M23.0207 16.6339L15.8318 11.4081C15.568 11.2169 15.2178 11.1881 14.9286 11.3367C14.6371 11.4842 14.4551 11.7837 14.4551 12.1074V22.5556C14.4551 22.8828 14.6371 23.1812 14.9286 23.3286C15.0519 23.3908 15.1866 23.4219 15.3226 23.4219C15.5 23.4219 15.6797 23.3655 15.8318 23.2537L23.0207 18.0325C23.2477 17.8655 23.3802 17.6074 23.3802 17.3332C23.3813 17.0544 23.2454 16.7975 23.0207 16.6339Z" fill="#1C0B3F"/>
<path id="Shape" fill-rule="evenodd" clip-rule="evenodd" d="M0 17.313C0 7.7508 7.74885 0.00195312 17.3111 0.00195312C26.871 0.00195312 34.6221 7.7508 34.621 17.313C34.621 26.8706 26.871 34.6183 17.3111 34.6183C7.74885 34.6183 0 26.8718 0 17.313ZM2.89171 17.313C2.89171 25.2773 9.34793 31.7301 17.3111 31.7301C25.273 31.7301 31.7293 25.2773 31.7281 17.313C31.7281 9.35103 25.273 2.89135 17.3111 2.89135C9.34793 2.89135 2.89171 9.35218 2.89171 17.313Z" fill="#1C0B3F"/>
</g>
</svg>
