<svg width="76" height="84" viewBox="0 0 76 84" fill="none" xmlns="http://www.w3.org/2000/svg">
<g id="femenine">
<g id="Shape">
<path fill-rule="evenodd" clip-rule="evenodd" d="M55.826 1C60.9595 1.01442 65.7626 3.07232 69.35 6.79506C72.9632 10.5444 74.9327 15.6869 74.7543 20.9042C74.493 28.5286 66.6087 43.5702 63.5216 49.1846C66.5926 52.4885 72.776 60.1332 72.776 68.1279V70.0382L51.0891 80.0908C46.8928 82.0361 42.3876 83.0087 37.8827 83.0087C33.3778 83.0087 28.8728 82.0361 24.6763 80.0908L2.98947 70.0382V68.1279C2.98947 60.1332 9.1728 52.4885 12.2438 49.1846C9.15678 43.5703 1.27242 28.5286 1.01117 20.9042C0.83258 15.6869 2.80207 10.5444 6.41526 6.79506C10.0027 3.07232 14.8058 1.01442 19.9395 1H19.9923C25.5479 1 31.2935 3.42454 35.3726 7.49278C36.327 8.44453 37.1658 9.46131 37.8824 10.5279C38.599 9.46131 39.4378 8.44453 40.3921 7.49278C44.4716 3.4247 50.2178 1 55.7729 1H55.826ZM57.2182 48.2014C60.3593 42.6992 68.5591 27.0328 68.776 20.6995C68.9014 17.038 67.5755 13.5741 65.0426 10.946C62.5885 8.39936 59.3094 6.99144 55.8091 6.98183H55.7715C51.7657 6.98183 47.5982 8.75446 44.6158 11.7286C43.0057 13.3341 41.8813 15.1761 41.3093 17.0926C43.2203 15.9936 45.2428 15.1236 46.855 15.1236C51.2528 15.1236 54.8306 18.7014 54.8306 23.0993C54.8306 27.4971 51.2527 31.0749 46.855 31.0749C44.1999 31.0749 40.4328 28.7151 37.8824 26.8608C35.332 28.7154 31.5648 31.0749 28.9098 31.0749C24.5119 31.0749 20.9342 27.4971 20.9342 23.0993C20.9342 18.7014 24.5121 15.1236 28.9098 15.1236C30.5218 15.1236 32.5443 15.994 34.4555 17.0926C33.883 15.176 32.7589 13.334 31.1489 11.7286C28.1668 8.75462 23.9991 6.98183 19.9935 6.98183H19.956C16.4557 6.9916 13.1766 8.39936 10.7225 10.946C8.18981 13.5741 6.8639 17.0381 6.98932 20.6997C7.20635 27.039 15.4059 42.7012 18.5471 48.2013L19.7261 50.2657L17.9809 51.88C17.9599 51.8992 15.6169 54.0891 13.3269 57.2868C11.017 60.5114 9.59005 63.5853 9.13227 66.2923L27.1921 74.664C33.986 77.8133 41.7794 77.8133 48.5735 74.664L66.6332 66.2925C65.6165 60.2932 60.0569 53.9819 57.7847 51.88L56.0396 50.2659L57.2182 48.2014ZM32.7772 23.0989C31.0622 24.2153 29.5287 25.0236 28.8871 25.0928C27.7982 25.0804 26.9161 24.1907 26.9161 23.0989C26.9161 22.0072 27.7982 21.1174 28.8871 21.1051C29.5287 21.1744 31.0622 21.9825 32.7772 23.0989ZM46.8782 21.1051C46.2365 21.1743 44.703 21.9825 42.9881 23.0989C44.7029 24.2155 46.2365 25.0237 46.8782 25.0928C47.9671 25.0804 48.8491 24.1907 48.8491 23.0989C48.8491 22.0072 47.9671 21.1174 46.8782 21.1051Z" fill="#CAFD35"/>
<path d="M69.35 6.79506L68.882 7.2461L68.882 7.24611L69.35 6.79506ZM55.826 1L55.8278 0.35H55.826V1ZM74.7543 20.9042L75.4039 20.9265V20.9265L74.7543 20.9042ZM63.5216 49.1846L62.9521 48.8714L62.7257 49.283L63.0455 49.6271L63.5216 49.1846ZM72.776 70.0382L73.0493 70.6279L73.426 70.4533V70.0382H72.776ZM51.0891 80.0908L50.8158 79.5011L50.8158 79.5011L51.0891 80.0908ZM24.6763 80.0908L24.9496 79.5011H24.9496L24.6763 80.0908ZM2.98947 70.0382H2.33947V70.4533L2.71611 70.6279L2.98947 70.0382ZM12.2438 49.1846L12.7199 49.6271L13.0397 49.283L12.8134 48.8714L12.2438 49.1846ZM1.01117 20.9042L0.361553 20.9265L0.361554 20.9265L1.01117 20.9042ZM6.41526 6.79506L6.88329 7.24611L6.8833 7.2461L6.41526 6.79506ZM19.9395 1V0.349997L19.9377 0.350003L19.9395 1ZM35.3726 7.49278L34.9136 7.95301L34.9136 7.95302L35.3726 7.49278ZM37.8824 10.5279L37.3429 10.8904L37.8824 11.6934L38.4219 10.8904L37.8824 10.5279ZM40.3921 7.49278L39.9332 7.03252L39.9331 7.03254L40.3921 7.49278ZM68.776 20.6995L68.1263 20.6773V20.6773L68.776 20.6995ZM57.2182 48.2014L56.6537 47.8792V47.8792L57.2182 48.2014ZM65.0426 10.946L64.5746 11.397L64.5746 11.397L65.0426 10.946ZM55.8091 6.98183L55.8109 6.33183H55.8091V6.98183ZM44.6158 11.7286L44.1568 11.2683V11.2683L44.6158 11.7286ZM41.3093 17.0926L40.6864 16.9067L40.2203 18.4687L41.6333 17.6561L41.3093 17.0926ZM37.8824 26.8608L38.2646 26.335L37.8824 26.0571L37.5001 26.3351L37.8824 26.8608ZM34.4555 17.0926L34.1315 17.6561L35.5448 18.4685L35.0783 16.9066L34.4555 17.0926ZM31.1489 11.7286L30.6899 12.1888L30.6899 12.1888L31.1489 11.7286ZM19.956 6.98183V6.33182L19.9542 6.33183L19.956 6.98183ZM10.7225 10.946L10.2544 10.4949L10.2544 10.4949L10.7225 10.946ZM6.98932 20.6997L7.63894 20.6775L7.63893 20.6774L6.98932 20.6997ZM18.5471 48.2013L19.1115 47.8789L19.1115 47.8789L18.5471 48.2013ZM19.7261 50.2657L20.1675 50.7429L20.5468 50.3921L20.2906 49.9434L19.7261 50.2657ZM17.9809 51.88L18.42 52.3593L18.4222 52.3571L17.9809 51.88ZM13.3269 57.2868L13.8553 57.6653L13.8554 57.6652L13.3269 57.2868ZM9.13227 66.2923L8.49137 66.184L8.40862 66.6733L8.85891 66.8821L9.13227 66.2923ZM27.1921 74.664L27.4655 74.0742L27.1921 74.664ZM48.5735 74.664L48.8468 75.2537L48.5735 74.664ZM66.6332 66.2925L66.9065 66.8822L67.357 66.6734L67.274 66.1839L66.6332 66.2925ZM57.7847 51.88L58.2261 51.4028L58.2261 51.4028L57.7847 51.88ZM56.0396 50.2659L55.4751 49.9436L55.219 50.3923L55.5983 50.7431L56.0396 50.2659ZM28.8871 25.0928L28.8797 25.7427L28.9183 25.7432L28.9568 25.739L28.8871 25.0928ZM32.7772 23.0989L33.1318 23.6437L33.9686 23.0989L33.1318 22.5542L32.7772 23.0989ZM28.8871 21.1051L28.9569 20.4589L28.9184 20.4547L28.8797 20.4551L28.8871 21.1051ZM42.9881 23.0989L42.6335 22.5542L41.7967 23.0989L42.6334 23.6436L42.9881 23.0989ZM46.8782 21.1051L46.8856 20.4551L46.8469 20.4547L46.8085 20.4588L46.8782 21.1051ZM46.8782 25.0928L46.8087 25.739L46.847 25.7432L46.8856 25.7427L46.8782 25.0928ZM69.8181 6.34403C66.1095 2.4956 61.1386 0.364916 55.8278 0.350003L55.8241 1.65C60.7804 1.66392 65.4157 3.64904 68.882 7.2461L69.8181 6.34403ZM75.4039 20.9265C75.5883 15.5339 73.5537 10.2204 69.8181 6.34402L68.882 7.24611C72.3727 10.8684 74.2771 15.84 74.1046 20.882L75.4039 20.9265ZM64.0912 49.4977C65.6388 46.6831 68.3918 41.5005 70.7923 36.0606C73.1782 30.6536 75.2684 24.8801 75.4039 20.9265L74.1046 20.882C73.9789 24.5528 71.9962 30.1122 69.6029 35.5357C67.2242 40.9263 64.4915 46.0716 62.9521 48.8714L64.0912 49.4977ZM73.426 68.1279C73.426 63.9701 71.8213 59.9444 69.8625 56.5708C67.9001 53.1909 65.5522 50.4144 63.9977 48.742L63.0455 49.6271C64.5621 51.2587 66.8414 53.9565 68.7383 57.2236C70.639 60.497 72.126 64.2911 72.126 68.1279H73.426ZM73.426 70.0382V68.1279H72.126V70.0382H73.426ZM51.3625 80.6805L73.0493 70.6279L72.5026 69.4484L50.8158 79.5011L51.3625 80.6805ZM37.8827 83.6587C42.4813 83.6587 47.0798 82.6658 51.3625 80.6805L50.8158 79.5011C46.7057 81.4064 42.2939 82.3587 37.8827 82.3587V83.6587ZM24.4029 80.6805C28.6858 82.6658 33.2841 83.6587 37.8827 83.6587V82.3587C33.4715 82.3587 29.0599 81.4064 24.9496 79.5011L24.4029 80.6805ZM2.71611 70.6279L24.4029 80.6805L24.9496 79.5011L3.26283 69.4484L2.71611 70.6279ZM2.33947 68.1279V70.0382H3.63947V68.1279H2.33947ZM11.7677 48.742C10.2133 50.4144 7.86536 53.1909 5.90289 56.5708C3.94413 59.9444 2.33947 63.9701 2.33947 68.1279H3.63947C3.63947 64.2911 5.12648 60.497 7.02713 57.2236C8.92407 53.9565 11.2033 51.2587 12.7199 49.6271L11.7677 48.742ZM0.361554 20.9265C0.49702 24.8801 2.58718 30.6537 4.97314 36.0606C7.37367 41.5006 10.1266 46.6832 11.6742 49.4978L12.8134 48.8714C11.274 46.0717 8.54121 40.9263 6.16249 35.5358C3.76921 30.1122 1.78657 24.5528 1.66079 20.882L0.361554 20.9265ZM5.94722 6.34402C2.21157 10.2204 0.17696 15.5339 0.361553 20.9265L1.66079 20.882C1.4882 15.84 3.39256 10.8684 6.88329 7.24611L5.94722 6.34402ZM19.9377 0.350003C14.6266 0.364916 9.65573 2.49559 5.94721 6.34403L6.8833 7.2461C10.3496 3.64905 14.9849 1.66392 19.9413 1.65L19.9377 0.350003ZM19.9923 0.35H19.9395V1.65H19.9923V0.35ZM35.8316 7.03255C31.6356 2.84772 25.7269 0.35 19.9923 0.35V1.65C25.369 1.65 30.9514 4.00136 34.9136 7.95301L35.8316 7.03255ZM38.4219 10.1654C37.681 9.06263 36.815 8.01326 35.8316 7.03254L34.9136 7.95302C35.8389 8.8758 36.6506 9.85999 37.3429 10.8904L38.4219 10.1654ZM39.9331 7.03254C38.9498 8.01326 38.0838 9.06263 37.3429 10.1654L38.4219 10.8904C39.1142 9.85999 39.9259 8.8758 40.8511 7.95302L39.9331 7.03254ZM55.7729 0.35C50.0389 0.35 44.1295 2.84788 39.9332 7.03252L40.8511 7.95304C44.8137 4.00152 50.3968 1.65 55.7729 1.65V0.35ZM55.826 0.35H55.7729V1.65H55.826V0.35ZM68.1263 20.6773C68.0756 22.1581 67.5506 24.2478 66.7062 26.6818C65.8671 29.1004 64.7328 31.8039 63.5026 34.4916C61.0425 39.8668 58.2166 45.1415 56.6537 47.8792L57.7827 48.5237C59.3609 45.7591 62.2055 40.4495 64.6847 35.0326C65.9243 32.3243 67.0768 29.5798 67.9344 27.1078C68.7866 24.6512 69.3678 22.4076 69.4256 20.7218L68.1263 20.6773ZM64.5746 11.397C66.9848 13.8979 68.2458 17.1908 68.1263 20.6773L69.4256 20.7218C69.557 16.8851 68.1661 13.2502 65.5107 10.4949L64.5746 11.397ZM55.8073 7.63182C59.1296 7.64095 62.2411 8.97558 64.5746 11.397L65.5107 10.4949C62.9359 7.82314 59.4892 6.34193 55.8109 6.33183L55.8073 7.63182ZM55.7715 7.63183H55.8091V6.33183H55.7715V7.63183ZM45.0747 12.1888C47.9422 9.32935 51.9473 7.63183 55.7715 7.63183V6.33183C51.5841 6.33183 47.2542 8.17957 44.1568 11.2683L45.0747 12.1888ZM41.9322 17.2785C42.47 15.4764 43.5329 13.7263 45.0747 12.1888L44.1568 11.2683C42.4785 12.9419 41.2926 14.8758 40.6864 16.9067L41.9322 17.2785ZM46.855 14.4736C45.0575 14.4736 42.9049 15.4252 40.9853 16.5291L41.6333 17.6561C43.5358 16.5621 45.4282 15.7736 46.855 15.7736V14.4736ZM55.4806 23.0993C55.4806 18.3424 51.6118 14.4736 46.855 14.4736V15.7736C50.8939 15.7736 54.1806 19.0604 54.1806 23.0993H55.4806ZM46.855 31.7249C51.6117 31.7249 55.4806 27.8561 55.4806 23.0993H54.1806C54.1806 27.1381 50.8937 30.4249 46.855 30.4249V31.7249ZM37.5002 27.3865C38.7891 28.3236 40.3981 29.398 42.0314 30.2408C43.645 31.0735 45.3658 31.7249 46.855 31.7249V30.4249C45.6891 30.4249 44.1989 29.8964 42.6275 29.0856C41.0759 28.2849 39.5262 27.2522 38.2646 26.335L37.5002 27.3865ZM28.9098 31.7249C30.399 31.7249 32.1198 31.0736 33.7334 30.241C35.3667 29.3982 36.9757 28.3238 38.2647 27.3865L37.5001 26.3351C36.2386 27.2524 34.6889 28.285 33.1373 29.0857C31.566 29.8965 30.0757 30.4249 28.9098 30.4249V31.7249ZM20.2842 23.0993C20.2842 27.8561 24.153 31.7249 28.9098 31.7249V30.4249C24.8709 30.4249 21.5842 27.1381 21.5842 23.0993H20.2842ZM28.9098 14.4736C24.1531 14.4736 20.2842 18.3424 20.2842 23.0993H21.5842C21.5842 19.0604 24.8711 15.7736 28.9098 15.7736V14.4736ZM34.7794 16.5291C32.8598 15.4256 30.7072 14.4736 28.9098 14.4736V15.7736C30.3364 15.7736 32.2288 16.5623 34.1315 17.6561L34.7794 16.5291ZM30.6899 12.1888C32.2317 13.7261 33.2943 15.4762 33.8327 17.2786L35.0783 16.9066C34.4717 14.8757 33.2862 12.9418 31.6078 11.2683L30.6899 12.1888ZM19.9935 7.63183C23.8175 7.63183 27.8227 9.32951 30.6899 12.1888L31.6079 11.2683C28.5108 8.17974 24.1806 6.33183 19.9935 6.33183V7.63183ZM19.956 7.63183H19.9935V6.33183H19.956V7.63183ZM11.1905 11.397C13.524 8.9756 16.6355 7.6411 19.9578 7.63182L19.9542 6.33183C16.2759 6.3421 12.8293 7.82312 10.2544 10.4949L11.1905 11.397ZM7.63893 20.6774C7.51952 17.191 8.78045 13.8979 11.1905 11.397L10.2544 10.4949C7.59917 13.2503 6.20828 16.8853 6.3397 20.7219L7.63893 20.6774ZM19.1115 47.8789C17.5486 45.1424 14.7228 39.8693 12.2627 34.4947C11.0326 31.8073 9.89821 29.1038 9.05916 26.6848C8.21481 24.2504 7.68968 22.1598 7.63894 20.6775L6.3397 20.7219C6.39746 22.4093 6.97868 24.6536 7.83095 27.1108C8.68852 29.5832 9.84107 32.3277 11.0806 35.0358C13.5599 40.4521 16.4044 45.7601 17.9827 48.5236L19.1115 47.8789ZM20.2906 49.9434L19.1115 47.8789L17.9827 48.5236L19.1617 50.5881L20.2906 49.9434ZM18.4222 52.3571L20.1675 50.7429L19.2848 49.7886L17.5395 51.4028L18.4222 52.3571ZM13.8554 57.6652C14.981 56.0934 16.1211 54.7674 16.9829 53.8318C17.8454 52.8954 18.4234 52.3561 18.42 52.3593L17.5418 51.4007C17.5009 51.4381 15.1234 53.6618 12.7984 56.9083L13.8554 57.6652ZM9.77317 66.4007C10.2089 63.8238 11.5799 60.8419 13.8553 57.6653L12.7985 56.9083C10.4542 60.1809 8.97116 63.3467 8.49137 66.184L9.77317 66.4007ZM27.4655 74.0742L9.40564 65.7026L8.85891 66.8821L26.9188 75.2537L27.4655 74.0742ZM48.3001 74.0742C41.6794 77.1432 34.086 77.1432 27.4655 74.0742L26.9188 75.2537C33.886 78.4834 41.8794 78.4834 48.8468 75.2537L48.3001 74.0742ZM66.3598 65.7028L48.3001 74.0742L48.8468 75.2537L66.9065 66.8822L66.3598 65.7028ZM57.3433 52.3571C58.4461 53.3773 60.3729 55.4453 62.1461 57.9958C63.9251 60.5546 65.5073 63.5393 65.9923 66.4011L67.274 66.1839C66.7424 63.0464 65.0365 59.8758 63.2135 57.2537C61.3847 54.6233 59.3955 52.4846 58.2261 51.4028L57.3433 52.3571ZM55.5983 50.7431L57.3434 52.3572L58.2261 51.4028L56.481 49.7887L55.5983 50.7431ZM56.6537 47.8792L55.4751 49.9436L56.6041 50.5882L57.7827 48.5237L56.6537 47.8792ZM28.9568 25.739C29.2049 25.7123 29.4857 25.6231 29.7631 25.5136C30.0507 25.4001 30.377 25.2474 30.728 25.066C31.4307 24.703 32.2621 24.2098 33.1318 23.6437L32.4226 22.5542C31.5773 23.1044 30.7845 23.5736 30.1313 23.9111C29.8044 24.08 29.5197 24.2121 29.2858 24.3044C29.0416 24.4008 28.8901 24.4387 28.8174 24.4465L28.9568 25.739ZM26.2661 23.0989C26.2661 24.5472 27.4352 25.7264 28.8797 25.7427L28.8944 24.4428C28.1613 24.4345 27.5661 23.8342 27.5661 23.0989H26.2661ZM28.8797 20.4551C27.4352 20.4715 26.2661 21.6507 26.2661 23.0989H27.5661C27.5661 22.3637 28.1613 21.7634 28.8944 21.7551L28.8797 20.4551ZM33.1318 22.5542C32.2621 21.988 31.4306 21.4949 30.728 21.1319C30.3769 20.9505 30.0507 20.7978 29.7631 20.6843C29.4857 20.5748 29.205 20.4857 28.9569 20.4589L28.8172 21.7513C28.89 21.7592 29.0416 21.7971 29.2858 21.8935C29.5197 21.9859 29.8044 22.118 30.1313 22.2869C30.7845 22.6243 31.5773 23.0935 32.4226 23.6437L33.1318 22.5542ZM43.3427 23.6437C44.1879 23.0934 44.9807 22.6243 45.634 22.2868C45.9609 22.1179 46.2455 21.9858 46.4795 21.8934C46.7237 21.797 46.8752 21.7592 46.9479 21.7513L46.8085 20.4588C46.5604 20.4856 46.2796 20.5747 46.0022 20.6842C45.7146 20.7978 45.3883 20.9505 45.0373 21.1318C44.3346 21.4949 43.5032 21.988 42.6335 22.5542L43.3427 23.6437ZM46.9477 24.4465C46.8751 24.4387 46.7236 24.4009 46.4794 24.3045C46.2455 24.2122 45.9608 24.0801 45.6339 23.9112C44.9807 23.5737 44.1879 23.1045 43.3427 22.5542L42.6334 23.6436C43.5031 24.2099 44.3345 24.7031 45.0372 25.0662C45.3883 25.2475 45.7146 25.4002 46.0022 25.5137C46.2796 25.6232 46.5605 25.7123 46.8087 25.739L46.9477 24.4465ZM48.1991 23.0989C48.1991 23.8342 47.604 24.4345 46.8708 24.4428L46.8856 25.7427C48.3301 25.7264 49.4991 24.5472 49.4991 23.0989H48.1991ZM46.8708 21.7551C47.604 21.7634 48.1991 22.3637 48.1991 23.0989H49.4991C49.4991 21.6507 48.3301 20.4715 46.8856 20.4551L46.8708 21.7551Z" fill="#220B47"/>
</g>
<path id="Oval" fill-rule="evenodd" clip-rule="evenodd" d="M37.9909 42.9818C39.6427 42.9818 40.9818 41.6427 40.9818 39.9909C40.9818 38.3391 39.6427 37 37.9909 37C36.3391 37 35 38.3391 35 39.9909C35 41.6427 36.3391 42.9818 37.9909 42.9818Z" fill="#CAFD35" stroke="#220B47" stroke-width="1.3"/>
<path id="Oval_2" fill-rule="evenodd" clip-rule="evenodd" d="M37.9909 54.9818C39.6427 54.9818 40.9818 53.6427 40.9818 51.9909C40.9818 50.3391 39.6427 49 37.9909 49C36.3391 49 35 50.3391 35 51.9909C35 53.6427 36.3391 54.9818 37.9909 54.9818Z" fill="#CAFD35" stroke="#220B47" stroke-width="1.3"/>
<path id="Oval_3" fill-rule="evenodd" clip-rule="evenodd" d="M37.9909 66.9818C39.6427 66.9818 40.9818 65.6427 40.9818 63.9909C40.9818 62.3391 39.6427 61 37.9909 61C36.3391 61 35 62.3391 35 63.9909C35 65.6427 36.3391 66.9818 37.9909 66.9818Z" fill="#CAFD35" stroke="#220B47" stroke-width="1.3"/>
</g>
</svg>
