<svg width="35" height="33" viewBox="0 0 35 33" fill="none" xmlns="http://www.w3.org/2000/svg">
<g id="fireworks">
<path id="Shape" fill-rule="evenodd" clip-rule="evenodd" d="M20.9265 12.7721C21.0013 12.7985 21.0787 12.8115 21.1556 12.8115C21.298 12.8115 21.4392 12.767 21.5575 12.6813C21.7399 12.5492 21.8454 12.3356 21.8392 12.1108L21.7391 8.48384L23.9576 5.60769C24.0951 5.42951 24.1357 5.19514 24.066 4.98127C23.9963 4.7674 23.8254 4.60174 23.6091 4.53809L20.1196 3.51216L18.0629 0.518821C17.9353 0.333452 17.7243 0.222656 17.4989 0.222656C17.2736 0.222656 17.0626 0.333452 16.935 0.518821L14.8783 3.51216L11.3888 4.53809C11.1725 4.60174 11.0016 4.7674 10.9319 4.98127C10.8622 5.19514 10.9028 5.42978 11.0403 5.60769L13.2588 8.48358L13.1587 12.1108C13.1525 12.3356 13.258 12.5489 13.4404 12.6813C13.6228 12.8134 13.8588 12.8475 14.0711 12.7721L17.4989 11.5563L20.9265 12.7721ZM14.4906 7.84437L12.7322 5.56481L15.4981 4.75142C15.649 4.70721 15.7798 4.61239 15.8687 4.48295L17.4989 2.11044L19.1292 4.48295C19.2181 4.61239 19.3489 4.70721 19.4998 4.75142L22.2657 5.56481L20.5073 7.84437C20.4114 7.96848 20.3612 8.12189 20.3658 8.27876L20.4448 11.1539L17.7281 10.1903C17.5799 10.1378 17.418 10.1378 17.2698 10.1903L14.5528 11.1539L14.6321 8.27876C14.6364 8.12189 14.5865 7.96848 14.4906 7.84437Z" fill="#CAFD35"/>
<path id="Shape_2" fill-rule="evenodd" clip-rule="evenodd" d="M27.062 6.40385C27.1803 6.48961 27.3215 6.53409 27.4639 6.53409C27.5408 6.53409 27.6182 6.52104 27.693 6.49467L29.1371 5.98251L30.5814 6.49467C30.7937 6.56978 31.0298 6.53596 31.2121 6.40385C31.3945 6.27175 31.5 6.05842 31.4936 5.83363L31.4514 4.3054L32.3863 3.09357C32.5238 2.91539 32.5641 2.68102 32.4947 2.46715C32.4247 2.25328 32.2538 2.08762 32.0375 2.02397L30.5675 1.59171L29.701 0.330611C29.5734 0.144975 29.3624 0.0341797 29.1371 0.0341797C28.9117 0.0341797 28.7007 0.144975 28.5731 0.330611L27.7066 1.59171L26.2363 2.02397C26.02 2.08762 25.8491 2.25328 25.7794 2.46715C25.71 2.68102 25.7503 2.91539 25.8879 3.09357L26.8225 4.3054L26.7805 5.83363C26.7741 6.05842 26.8796 6.27175 27.062 6.40385ZM29.3659 4.61648C29.2919 4.59011 29.2145 4.57706 29.1371 4.57706C29.0594 4.57706 28.9822 4.59011 28.9077 4.61648L28.1742 4.87642L28.1955 4.10032C28.2001 3.94345 28.1499 3.79004 28.0543 3.66593L27.5795 3.05043L28.3261 2.83097C28.477 2.78649 28.6078 2.69194 28.6967 2.5625L29.1368 1.92196L29.5769 2.5625C29.6658 2.69194 29.7969 2.78675 29.9475 2.83097L30.6941 3.05043L30.2196 3.66593C30.1237 3.79004 30.0735 3.94345 30.0781 4.10032L30.0994 4.87642L29.3659 4.61648Z" fill="#CAFD35"/>
<path id="Shape_3" fill-rule="evenodd" clip-rule="evenodd" d="M7.30763 6.49467C7.3824 6.52104 7.45984 6.53409 7.53674 6.53409C7.67934 6.53409 7.82033 6.48961 7.93862 6.40385C8.121 6.27175 8.22621 6.05815 8.22007 5.83336L8.17788 4.30513L9.11275 3.09357C9.25 2.91539 9.29059 2.68102 9.2209 2.46715C9.1512 2.25328 8.9803 2.08736 8.76401 2.02397L7.29402 1.59144L6.42751 0.330344C6.29987 0.144975 6.08891 0.0341797 5.86354 0.0341797C5.63817 0.0341797 5.42722 0.144975 5.29958 0.330344L4.43307 1.59144L2.96307 2.0237C2.74678 2.08736 2.57588 2.25302 2.50619 2.46715C2.43649 2.68102 2.47682 2.91539 2.61434 3.09357L3.5492 4.3054L3.50701 5.83363C3.50087 6.05842 3.60608 6.27175 3.78846 6.40385C3.97111 6.53596 4.2069 6.57005 4.41945 6.49467L5.86354 5.98251L7.30763 6.49467ZM6.09265 4.61648C6.01869 4.59011 5.94098 4.57706 5.86354 4.57706C5.7861 4.57706 5.70867 4.59011 5.6347 4.61648L4.90117 4.87642L4.92253 4.10032C4.9268 3.94345 4.87687 3.79004 4.78101 3.66593L4.30623 3.05043L5.05284 2.83097C5.20371 2.78649 5.33456 2.69194 5.42348 2.5625L5.86354 1.92196L6.30361 2.5625C6.39253 2.69194 6.52337 2.78675 6.67424 2.83097L7.42085 3.05043L6.94608 3.66593C6.85048 3.79004 6.80028 3.94345 6.80482 4.10032L6.82618 4.87642L6.09265 4.61648Z" fill="#CAFD35"/>
<path id="Path" fill-rule="evenodd" clip-rule="evenodd" d="M17.5 28.2275C17.4557 28.2275 17.4105 28.2227 17.3668 28.2139C17.323 28.2057 17.28 28.1921 17.2388 28.175C17.1972 28.158 17.1574 28.1367 17.1206 28.1122C17.0829 28.0877 17.0482 28.0592 17.0167 28.0277C16.9852 27.9963 16.9566 27.9617 16.932 27.9241C16.9072 27.8874 16.8861 27.8477 16.869 27.8062C16.8519 27.7651 16.8383 27.7223 16.83 27.6786C16.8212 27.6349 16.8164 27.5899 16.8164 27.5457C16.8164 27.5015 16.8212 27.4565 16.83 27.4128C16.8383 27.3691 16.8519 27.3262 16.869 27.2847C16.8861 27.2437 16.9072 27.204 16.932 27.1672C16.9566 27.1297 16.9852 27.095 17.0167 27.0636C17.0482 27.0322 17.0829 27.0037 17.1206 26.9792C17.1574 26.9544 17.1972 26.9334 17.2388 26.9163C17.28 26.8993 17.323 26.8862 17.3668 26.8774C17.4549 26.8599 17.5451 26.8599 17.6332 26.8774C17.677 26.8862 17.72 26.8993 17.7612 26.9163C17.8028 26.9334 17.8423 26.9544 17.8792 26.9792C17.9168 27.0037 17.9518 27.0322 17.9833 27.0636C18.0148 27.095 18.0434 27.1297 18.068 27.1672C18.0925 27.204 18.1139 27.2437 18.131 27.2847C18.1481 27.3262 18.1617 27.3691 18.1697 27.4128C18.1788 27.4565 18.1836 27.5015 18.1836 27.5457C18.1836 27.5899 18.1788 27.6352 18.1697 27.6786C18.1609 27.7223 18.1481 27.7651 18.131 27.8062C18.1139 27.8477 18.0925 27.8874 18.068 27.9241C18.0434 27.9617 18.0148 27.9963 17.9833 28.0277C17.9518 28.0592 17.9168 28.0877 17.8792 28.1122C17.8423 28.1367 17.8028 28.158 17.7612 28.175C17.72 28.1921 17.677 28.2057 17.6332 28.2139C17.5895 28.2227 17.5443 28.2275 17.5 28.2275Z" fill="#CAFD35"/>
<path id="Path_2" fill-rule="evenodd" clip-rule="evenodd" d="M17.5 25.9772C17.1224 25.9772 16.8164 25.672 16.8164 25.2954V14.0451C16.8164 13.6688 17.1224 13.3633 17.5 13.3633C17.8776 13.3633 18.1836 13.6688 18.1836 14.0451V25.2954C18.1836 25.6717 17.8776 25.9772 17.5 25.9772Z" fill="#CAFD35"/>
<path id="Shape_4" fill-rule="evenodd" clip-rule="evenodd" d="M28.995 21.624C29.0308 21.6299 29.0663 21.6325 29.1021 21.6325C29.2882 21.6325 29.4681 21.5566 29.5982 21.4192L31.5654 19.3463L34.4028 18.9774C34.6263 18.9484 34.8213 18.8112 34.9235 18.611C35.0261 18.4107 35.0226 18.1728 34.915 17.9752L33.5462 15.4687L34.0715 12.6632C34.1126 12.4421 34.0421 12.2149 33.8827 12.0559C33.7233 11.8969 33.4955 11.8263 33.2738 11.8679L30.461 12.3915L27.948 11.0265C27.7498 10.9189 27.5116 10.9155 27.3106 11.0177C27.1098 11.1197 26.9722 11.3142 26.9431 11.5371L26.5733 14.3674L24.495 16.3293C24.3313 16.4837 24.2544 16.7091 24.2897 16.9312C24.3249 17.1533 24.4678 17.3437 24.6715 17.4401L27.2558 18.6656L28.4844 21.2434C28.5813 21.4466 28.7723 21.5888 28.995 21.624ZM28.0625 17.5382L26.1591 16.6358L27.6897 15.1909C27.804 15.0833 27.8775 14.9395 27.8978 14.784L28.1699 12.6999L30.0206 13.7051C30.1587 13.7802 30.3184 13.8052 30.473 13.7767L32.5443 13.3908L32.1577 15.457C32.1288 15.6112 32.1542 15.7705 32.2292 15.9082L33.2373 17.7539L31.1478 18.0255C30.9918 18.0458 30.8476 18.119 30.7395 18.233L29.2911 19.7594L28.3864 17.8612C28.3189 17.7195 28.2043 17.6055 28.0625 17.5382Z" fill="#CAFD35"/>
<path id="Path_3" fill-rule="evenodd" clip-rule="evenodd" d="M18.708 32.9907C18.6843 32.9907 18.6608 32.9897 18.6367 32.9873C18.2613 32.9484 17.9884 32.6133 18.0271 32.2389C18.4752 27.9157 20.562 24.6315 22.2339 22.6377C24.0393 20.4842 25.7466 19.3397 25.8182 19.292C26.1325 19.0835 26.5568 19.1682 26.7661 19.4819C26.9752 19.7951 26.8901 20.2186 26.5758 20.4272C26.5109 20.4703 24.9626 21.5085 23.2825 23.5124C21.7332 25.3605 19.7994 28.3988 19.3871 32.3792C19.3508 32.7297 19.0538 32.9907 18.708 32.9907Z" fill="#CAFD35"/>
<path id="Shape_5" fill-rule="evenodd" clip-rule="evenodd" d="M5.39982 21.4194C5.53013 21.5565 5.71011 21.6324 5.89623 21.6324C5.93174 21.6324 5.96752 21.6298 6.00331 21.6239C6.22601 21.5887 6.41693 21.4463 6.51386 21.2433L7.7422 18.6657L10.3268 17.4403C10.5302 17.3436 10.6731 17.1532 10.7084 16.9311C10.7436 16.7089 10.667 16.4839 10.5033 16.3292L8.42472 14.3673L8.05489 11.537C8.02578 11.3141 7.88826 11.1196 7.68746 11.0176C7.48665 10.9156 7.24819 10.9188 7.05006 11.0264L4.53705 12.3917L1.72417 11.8678C1.50254 11.8262 1.27476 11.8968 1.11534 12.0558C0.955927 12.2148 0.885165 12.442 0.926821 12.6631L1.4518 15.4689L0.0832773 17.9754C-0.0246024 18.1727 -0.0278067 18.4106 0.0744653 18.6108C0.176737 18.8114 0.371668 18.9486 0.595171 18.9776L3.43289 19.3465L5.39982 21.4194ZM3.85052 18.0254L1.76102 17.7538L2.76879 15.9081C2.84409 15.7706 2.86946 15.6111 2.84035 15.4569L2.45369 13.3909L4.5253 13.7766C4.67964 13.8054 4.83959 13.7801 4.97765 13.7052L6.82816 12.6998L7.10053 14.7839C7.12082 14.9394 7.19425 15.0832 7.30854 15.1908L8.83888 16.6357L6.93577 17.5381C6.79371 17.6054 6.67942 17.7194 6.61186 17.8611L5.70717 19.7593L4.25854 18.2329C4.15066 18.1189 4.00646 18.0457 3.85052 18.0254Z" fill="#CAFD35"/>
<path id="Path_4" fill-rule="evenodd" clip-rule="evenodd" d="M16.294 32.9909C15.9479 32.9909 15.6512 32.7298 15.6149 32.3791C15.2023 28.3987 13.2688 25.3606 11.7195 23.5125C10.0401 21.5097 8.4911 20.4704 8.42595 20.4273C8.11165 20.2185 8.02647 19.795 8.23582 19.4818C8.44517 19.1683 8.86948 19.0834 9.18377 19.2922C9.25561 19.3398 10.9638 20.4856 12.7681 22.6379C14.44 24.6317 16.5268 27.9158 16.9749 32.239C17.0136 32.6135 16.7407 32.9485 16.365 32.9871C16.3412 32.9898 16.3174 32.9909 16.294 32.9909Z" fill="#CAFD35"/>
<path id="Path_5" fill-rule="evenodd" clip-rule="evenodd" d="M22.8708 32.8639C22.7755 32.8639 22.6786 32.8439 22.5862 32.8018C22.2431 32.6447 22.0924 32.2401 22.25 31.8976C23.2935 29.6282 25.033 28.2278 26.3083 27.4525C27.6597 26.6308 28.7578 26.3259 28.8785 26.2937C29.2435 26.1967 29.6179 26.413 29.7151 26.7768C29.8123 27.1406 29.5954 27.5143 29.2307 27.6112C29.2208 27.6139 28.2272 27.8829 27.0197 28.6169C25.9072 29.2931 24.3921 30.51 23.4925 32.4663C23.3777 32.7163 23.1299 32.8639 22.8708 32.8639Z" fill="#CAFD35"/>
<path id="Path_6" fill-rule="evenodd" clip-rule="evenodd" d="M12.7777 32.8639C12.5187 32.8639 12.2709 32.7163 12.1558 32.4663C11.2564 30.51 9.74132 29.2931 8.62861 28.6169C7.42137 27.8829 6.42749 27.6139 6.41761 27.6112C6.05285 27.514 5.83602 27.1406 5.93349 26.7768C6.03069 26.413 6.40533 26.1967 6.77009 26.2937C6.89105 26.3259 7.98934 26.6314 9.34024 27.4525C10.6156 28.2278 12.355 29.6282 13.3985 31.8976C13.5561 32.2401 13.4055 32.6447 13.0621 32.8018C12.9697 32.8439 12.873 32.8639 12.7777 32.8639Z" fill="#CAFD35"/>
<path id="Path_7" fill-rule="evenodd" clip-rule="evenodd" d="M31.8438 24.2037C31.4664 24.2037 31.1602 23.8984 31.1602 23.5218V22.9543C31.1602 22.5777 31.4664 22.2725 31.8438 22.2725C32.2213 22.2725 32.5273 22.5777 32.5273 22.9543V23.5218C32.5273 23.8984 32.2213 24.2037 31.8438 24.2037Z" fill="#CAFD35"/>
<path id="Path_8" fill-rule="evenodd" clip-rule="evenodd" d="M31.8438 27.282C31.4664 27.282 31.1602 26.9766 31.1602 26.6002V26.0324C31.1602 25.6561 31.4664 25.3506 31.8438 25.3506C32.2213 25.3506 32.5273 25.6561 32.5273 26.0324V26.6002C32.5273 26.9766 32.2213 27.282 31.8438 27.282Z" fill="#CAFD35"/>
<path id="Path_9" fill-rule="evenodd" clip-rule="evenodd" d="M33.6745 25.4593H33.1055C32.7282 25.4593 32.4219 25.1539 32.4219 24.7775C32.4219 24.4009 32.7282 24.0957 33.1055 24.0957H33.6745C34.0521 24.0957 34.3581 24.4009 34.3581 24.7775C34.3581 25.1539 34.0521 25.4593 33.6745 25.4593Z" fill="#CAFD35"/>
<path id="Path_10" fill-rule="evenodd" clip-rule="evenodd" d="M30.5847 25.4593H30.0156C29.638 25.4593 29.332 25.1539 29.332 24.7775C29.332 24.4009 29.638 24.0957 30.0156 24.0957H30.5847C30.9622 24.0957 31.2683 24.4009 31.2683 24.7775C31.2683 25.1539 30.9622 25.4593 30.5847 25.4593Z" fill="#CAFD35"/>
<path id="Path_11" fill-rule="evenodd" clip-rule="evenodd" d="M3.15625 24.2037C2.77867 24.2037 2.47266 23.8984 2.47266 23.5218V22.9543C2.47266 22.5777 2.77867 22.2725 3.15625 22.2725C3.53383 22.2725 3.83984 22.5777 3.83984 22.9543V23.5218C3.83984 23.8984 3.53383 24.2037 3.15625 24.2037Z" fill="#CAFD35"/>
<path id="Path_12" fill-rule="evenodd" clip-rule="evenodd" d="M3.15625 27.282C2.77867 27.282 2.47266 26.9766 2.47266 26.6002V26.0324C2.47266 25.6561 2.77867 25.3506 3.15625 25.3506C3.53383 25.3506 3.83984 25.6561 3.83984 26.0324V26.6002C3.83984 26.9766 3.53383 27.282 3.15625 27.282Z" fill="#CAFD35"/>
<path id="Path_13" fill-rule="evenodd" clip-rule="evenodd" d="M4.9831 25.4593H4.41406C4.03648 25.4593 3.73047 25.1539 3.73047 24.7775C3.73047 24.4009 4.03648 24.0957 4.41406 24.0957H4.9831C5.36068 24.0957 5.66669 24.4009 5.66669 24.7775C5.66669 25.1539 5.36068 25.4593 4.9831 25.4593Z" fill="#CAFD35"/>
<path id="Path_14" fill-rule="evenodd" clip-rule="evenodd" d="M1.89743 25.4593H1.32812C0.950813 25.4593 0.644531 25.1539 0.644531 24.7775C0.644531 24.4009 0.950813 24.0957 1.32812 24.0957H1.89743C2.27501 24.0957 2.58102 24.4009 2.58102 24.7775C2.58102 25.1539 2.27501 25.4593 1.89743 25.4593Z" fill="#CAFD35"/>
</g>
</svg>
