<svg xmlns="http://www.w3.org/2000/svg" width="50" height="46.939" viewBox="0 0 50 46.939">
  <g id="fireworks_1_" data-name="fireworks (1)" transform="translate(0)">
    <path id="Shape" d="M4.21,17.857a.981.981,0,0,1-.575-.185.964.964,0,0,1-.4-.809l.143-5.145L.2,7.638A.957.957,0,0,1,.048,6.75.972.972,0,0,1,.7,6.122L5.692,4.666,8.632.42a.985.985,0,0,1,1.614,0l2.94,4.246,4.991,1.455a.972.972,0,0,1,.653.628.957.957,0,0,1-.155.888L15.5,11.718l.143,5.145a.962.962,0,0,1-.4.809.987.987,0,0,1-.9.129l-4.9-1.724L4.537,17.8A.979.979,0,0,1,4.21,17.857Zm5.229-3.774a.987.987,0,0,1,.328.056l3.884,1.367-.113-4.079a.954.954,0,0,1,.2-.616l2.515-3.234L12.3,6.424a.978.978,0,0,1-.53-.381L9.439,2.677,7.107,6.043a.978.978,0,0,1-.53.381L2.623,7.578l2.515,3.234a.959.959,0,0,1,.2.616l-.113,4.079,3.885-1.367A.987.987,0,0,1,9.439,14.083Z" transform="translate(15.306 0.51)" fill="#fff"/>
    <path id="Shape-2" data-name="Shape" d="M2.455,9.184A.984.984,0,0,1,1.881,9a.959.959,0,0,1-.4-.806l.059-2.159L.2,4.323a.956.956,0,0,1-.155-.886A.972.972,0,0,1,.7,2.812L2.8,2.2,4.041.419a.985.985,0,0,1,1.612,0L6.891,2.2l2.1.611a.973.973,0,0,1,.653.625.956.956,0,0,1-.155.886L8.155,6.035l.06,2.159a.959.959,0,0,1-.4.806.991.991,0,0,1-.9.128L4.846,8.4l-2.064.724A.981.981,0,0,1,2.455,9.184ZM4.846,6.419a.974.974,0,0,1,.328.056l1.049.367-.031-1.1a.957.957,0,0,1,.2-.614l.678-.869-1.066-.31a.981.981,0,0,1-.53-.38l-.629-.9-.629.9a.981.981,0,0,1-.529.38l-1.067.31.679.869a.957.957,0,0,1,.2.614l-.031,1.1,1.048-.367A.981.981,0,0,1,4.846,6.419Z" transform="translate(36.735)" fill="#fff"/>
    <path id="Shape-3" data-name="Shape" d="M2.455,9.184A.983.983,0,0,1,1.881,9a.959.959,0,0,1-.4-.806l.06-2.159L.2,4.323a.956.956,0,0,1-.155-.886A.972.972,0,0,1,.7,2.811L2.8,2.2,4.041.418a.985.985,0,0,1,1.612,0L6.891,2.2l2.1.611a.969.969,0,0,1,.653.625.956.956,0,0,1-.155.886L8.155,6.034l.06,2.159a.959.959,0,0,1-.4.806.99.99,0,0,1-.9.128L4.847,8.4l-2.065.724A.984.984,0,0,1,2.455,9.184ZM4.847,6.419a.964.964,0,0,1,.327.056l1.049.367-.03-1.1a.951.951,0,0,1,.2-.614l.679-.869-1.067-.31a.986.986,0,0,1-.53-.38l-.628-.9-.629.9a.986.986,0,0,1-.53.38l-1.067.31.679.869a.957.957,0,0,1,.2.614l-.031,1.1L4.52,6.475A.974.974,0,0,1,4.847,6.419Z" transform="translate(3.571)" fill="#fff"/>
    <path id="Path" d="M1.02,2.041a1.014,1.014,0,0,1-.2-.02.969.969,0,0,1-.191-.058,1.011,1.011,0,0,1-.177-.094.986.986,0,0,1-.281-.281A.986.986,0,0,1,.079,1.41.969.969,0,0,1,.02,1.219a.984.984,0,0,1,0-.4A.993.993,0,0,1,.079.629,1.007,1.007,0,0,1,.173.454.986.986,0,0,1,.454.172.985.985,0,0,1,.631.078,1.025,1.025,0,0,1,.822.02a1.012,1.012,0,0,1,.4,0A1.025,1.025,0,0,1,1.41.078a.982.982,0,0,1,.176.094.981.981,0,0,1,.282.281,1.034,1.034,0,0,1,.094.176A.965.965,0,0,1,2.02.821a.965.965,0,0,1,0,.4,1.025,1.025,0,0,1-.058.191,1.012,1.012,0,0,1-.094.177.981.981,0,0,1-.282.281,1.008,1.008,0,0,1-.176.094.969.969,0,0,1-.191.058A1.014,1.014,0,0,1,1.02,2.041Z" transform="translate(23.98 38.265)" fill="#fff"/>
    <path id="Path-2" data-name="Path" d="M1.02,17.857A.994.994,0,0,1,0,16.892V.965A.994.994,0,0,1,1.02,0a.994.994,0,0,1,1.02.965V16.892A.994.994,0,0,1,1.02,17.857Z" transform="translate(23.98 18.878)" fill="#fff"/>
    <path id="Shape-4" data-name="Shape" d="M6.885,15.306a.877.877,0,0,1-.153-.013A.977.977,0,0,1,6,14.749L4.248,11.057.557,9.3A.976.976,0,0,1,.305,7.712L3.273,4.9,3.8.85A.977.977,0,0,1,5.237.119L8.826,2.074l4.017-.75a.976.976,0,0,1,1.139,1.139l-.75,4.018,1.955,3.589a.977.977,0,0,1-.732,1.435l-4.053.528L7.594,15A.98.98,0,0,1,6.885,15.306ZM5.554,2.515,5.165,5.5a.976.976,0,0,1-.3.582L2.682,8.151,5.4,9.444a.982.982,0,0,1,.463.463l1.291,2.718,2.069-2.186a.976.976,0,0,1,.583-.3l2.984-.389L11.352,7.109a.98.98,0,0,1-.1-.646L11.8,3.5l-2.958.553a.983.983,0,0,1-.646-.1Z" transform="translate(34.694 15.306)" fill="#fff"/>
    <path id="Path-3" data-name="Path" d="M.986,19.9a1.027,1.027,0,0,1-.1,0,.983.983,0,0,1-.878-1.078A25.885,25.885,0,0,1,6.063,4.984,26.979,26.979,0,0,1,11.225.165.983.983,0,1,1,12.316,1.8,24.811,24.811,0,0,0,7.573,6.244a23.933,23.933,0,0,0-5.61,12.773.984.984,0,0,1-.978.881Z" transform="translate(25.51 27.041)" fill="#fff"/>
    <path id="Shape-5" data-name="Shape" d="M8.421,15.306A.983.983,0,0,1,7.712,15L4.9,12.033.85,11.5a.977.977,0,0,1-.731-1.436L2.074,6.48l-.75-4.018A.975.975,0,0,1,2.462,1.324l4.018.75L10.069.119A.977.977,0,0,1,11.5.85L12.032,4.9,15,7.712A.977.977,0,0,1,14.749,9.3l-3.692,1.755L9.3,14.749a.977.977,0,0,1-.729.544A.877.877,0,0,1,8.421,15.306ZM3.5,3.5l.552,2.958a.974.974,0,0,1-.1.646L2.516,9.752l2.984.389a.976.976,0,0,1,.582.3l2.069,2.186L9.444,9.905a.982.982,0,0,1,.463-.463l2.718-1.292L10.438,6.082a.976.976,0,0,1-.3-.583L9.752,2.515,7.109,3.955a.983.983,0,0,1-.468.119.968.968,0,0,1-.178-.017L3.5,3.5Z" transform="translate(0 15.306)" fill="#fff"/>
    <path id="Path-4" data-name="Path" d="M11.769,19.9a.983.983,0,0,1-.978-.881A23.935,23.935,0,0,0,5.182,6.244,24.815,24.815,0,0,0,.439,1.8.983.983,0,1,1,1.53.165a26.99,26.99,0,0,1,5.162,4.82A25.885,25.885,0,0,1,12.75,18.815a.983.983,0,0,1-.878,1.078A.918.918,0,0,1,11.769,19.9Z" transform="translate(11.735 27.041)" fill="#fff"/>
    <path id="Path-5" data-name="Path" d="M.97,9.184a.988.988,0,0,1-.4-.086A.942.942,0,0,1,.089,7.838,14.5,14.5,0,0,1,5.847,1.646,15.208,15.208,0,0,1,9.494.032a.972.972,0,0,1,1.187.673.948.948,0,0,1-.687,1.162,13.587,13.587,0,0,0-3.137,1.4,12.6,12.6,0,0,0-5,5.362.971.971,0,0,1-.882.554Z" transform="translate(31.633 37.245)" fill="#fff"/>
    <path id="Path-6" data-name="Path" d="M9.745,9.184a.972.972,0,0,1-.882-.554,12.59,12.59,0,0,0-5-5.362A13.579,13.579,0,0,0,.72,1.867.948.948,0,0,1,.033.705.972.972,0,0,1,1.22.032,15.222,15.222,0,0,1,4.867,1.646a14.5,14.5,0,0,1,5.759,6.191A.941.941,0,0,1,10.148,9.1.986.986,0,0,1,9.745,9.184Z" transform="translate(8.673 37.245)" fill="#fff"/>
    <path id="Path-7" data-name="Path" d="M1.02,2.551A.966.966,0,0,1,0,1.65V.9A.966.966,0,0,1,1.02,0a.966.966,0,0,1,1.02.9v.75a.966.966,0,0,1-1.02.9Z" transform="translate(44.388 31.633)" fill="#fff"/>
    <path id="Path-8" data-name="Path" d="M1.02,2.551A.967.967,0,0,1,0,1.65V.9A.967.967,0,0,1,1.02,0a.966.966,0,0,1,1.02.9v.75A.966.966,0,0,1,1.02,2.551Z" transform="translate(44.388 36.224)" fill="#fff"/>
    <path id="Path-9" data-name="Path" d="M1.65,2.041H.9A.967.967,0,0,1,0,1.02.966.966,0,0,1,.9,0h.75a.966.966,0,0,1,.9,1.02.966.966,0,0,1-.9,1.02Z" transform="translate(46.429 34.184)" fill="#fff"/>
    <path id="Path-10" data-name="Path" d="M1.65,2.041H.9A.966.966,0,0,1,0,1.02.966.966,0,0,1,.9,0h.75a.966.966,0,0,1,.9,1.02.966.966,0,0,1-.9,1.02Z" transform="translate(41.837 34.184)" fill="#fff"/>
    <path id="Path-11" data-name="Path" d="M1.02,2.551A.966.966,0,0,1,0,1.65V.9A.966.966,0,0,1,1.02,0a.966.966,0,0,1,1.02.9v.75a.966.966,0,0,1-1.02.9Z" transform="translate(3.571 31.633)" fill="#fff"/>
    <path id="Path-12" data-name="Path" d="M1.02,2.551A.966.966,0,0,1,0,1.65V.9A.966.966,0,0,1,1.02,0a.966.966,0,0,1,1.02.9v.75A.966.966,0,0,1,1.02,2.551Z" transform="translate(3.571 36.224)" fill="#fff"/>
    <path id="Path-13" data-name="Path" d="M1.65,2.041H.9A.966.966,0,0,1,0,1.02.966.966,0,0,1,.9,0h.75a.966.966,0,0,1,.9,1.02A.966.966,0,0,1,1.65,2.041Z" transform="translate(5.612 34.184)" fill="#fff"/>
    <path id="Path-14" data-name="Path" d="M1.65,2.041H.9A.967.967,0,0,1,0,1.02.966.966,0,0,1,.9,0h.75a.966.966,0,0,1,.9,1.02A.966.966,0,0,1,1.65,2.041Z" transform="translate(1.02 34.184)" fill="#fff"/>
  </g>
</svg>
