<svg width="91" height="83" viewBox="0 0 91 83" fill="none" xmlns="http://www.w3.org/2000/svg">
<g id="food">
<path id="Path" fill-rule="evenodd" clip-rule="evenodd" d="M28.0417 27.0534C28.3375 27.3492 28.7255 27.4977 29.1143 27.4977C29.5024 27.4977 29.8905 27.3492 30.1863 27.0534C30.7792 26.4605 30.7792 25.5017 30.1863 24.9088C28.6471 23.3682 28.6471 20.8626 30.1863 19.322C31.5061 18.0021 32.2337 16.2491 32.2337 14.3836C32.2337 12.5181 31.5075 10.7643 30.1863 9.4452C29.5934 8.8516 28.6346 8.8516 28.0417 9.4452C27.4488 10.0381 27.4488 10.9969 28.0417 11.5891C28.788 12.3355 29.2011 13.3276 29.2011 14.3829C29.2011 15.4389 28.7894 16.4303 28.0417 17.1766C25.3194 19.8989 25.3194 24.3312 28.0417 27.0534Z" fill="#CAFD35"/>
<path id="Path_2" fill-rule="evenodd" clip-rule="evenodd" d="M61.0417 27.0534C61.3375 27.3492 61.7255 27.4977 62.1136 27.4977C62.5024 27.4977 62.8905 27.3492 63.1863 27.0534C63.7792 26.4605 63.7792 25.5017 63.1863 24.9088C61.6471 23.3682 61.6471 20.8626 63.1863 19.322C64.5054 18.0021 65.2337 16.2491 65.2337 14.3836C65.2337 12.5181 64.5075 10.7643 63.1863 9.4452C62.5934 8.8516 61.6346 8.8516 61.0417 9.4452C60.4488 10.0381 60.4488 10.9969 61.0417 11.5891C61.788 12.3355 62.2004 13.3276 62.2004 14.3829C62.2004 15.4389 61.7894 16.4303 61.0417 17.1766C58.3194 19.8989 58.3194 24.3312 61.0417 27.0534Z" fill="#CAFD35"/>
<path id="Path_3" fill-rule="evenodd" clip-rule="evenodd" d="M44.0416 18.0534C44.3374 18.3492 44.7262 18.4977 45.1143 18.4977C45.5024 18.4977 45.8905 18.3492 46.1862 18.0534C46.7798 17.4605 46.7798 16.5017 46.1862 15.9088C44.647 14.3682 44.647 11.8626 46.1862 10.3213C47.506 9.00214 48.2336 7.2484 48.2336 5.38289C48.2336 3.51806 47.5074 1.76433 46.1862 0.445204C45.5933 -0.148401 44.6345 -0.148401 44.0423 0.445204C43.4487 1.03811 43.4487 1.99621 44.0423 2.58912C44.7879 3.33547 45.201 4.32759 45.201 5.38289C45.201 6.43818 44.79 7.4303 44.0423 8.17665C41.3194 10.8989 41.3194 15.3312 44.0416 18.0534Z" fill="#CAFD35"/>
<path id="Path_4" fill-rule="evenodd" clip-rule="evenodd" d="M38.516 38.8095C38.6264 38.8095 38.7388 38.7977 38.8513 38.7734C41.032 38.2818 43.287 38.0326 45.5566 38.0326H45.5761C46.4133 38.0326 47.0923 37.355 47.0923 36.5177C47.0923 35.679 46.4147 35 45.5761 35C45.5698 35 45.5622 35 45.5545 35C43.0628 35 40.5828 35.2742 38.1841 35.8144C37.3663 35.9977 36.8539 36.8093 37.0372 37.6264C37.1982 38.3318 37.8224 38.8095 38.516 38.8095Z" fill="#CAFD35"/>
<path id="Path_5" fill-rule="evenodd" clip-rule="evenodd" d="M15.2444 64.6056C15.3374 64.6237 15.4283 64.6313 15.5172 64.6313C16.2365 64.6313 16.8752 64.1183 17.0085 63.3872C18.5845 54.7455 23.7923 47.0558 30.9405 42.8214C31.6605 42.3958 31.8993 41.4641 31.473 40.7434C31.0454 40.0234 30.1157 39.7853 29.3951 40.2116C21.5019 44.8868 15.7574 53.3473 14.0252 62.8415C13.8739 63.667 14.4196 64.455 15.2444 64.6056Z" fill="#CAFD35"/>
<path id="Shape" fill-rule="evenodd" clip-rule="evenodd" d="M53.0176 30.3112C69.0338 33.4174 81.6148 46.2406 84.3627 62.3797C87.5328 64.1737 91 66.8141 91 69.7765C91 77.4885 67.4731 82.6678 45.5 82.6678C23.5262 82.6678 0 77.4885 0 69.7765C0 66.8141 3.46721 64.1737 6.63657 62.3797C9.38521 46.2406 21.9655 33.4174 37.9817 30.3112C37.9757 30.2572 37.9691 30.2031 37.9625 30.149L37.9624 30.1486C37.9395 29.9599 37.9164 29.7707 37.9164 29.5836C37.9164 25.4019 41.3184 22 45.5 22C49.6816 22 53.0829 25.4019 53.0829 29.5836C53.0829 29.7663 53.0605 29.951 53.0382 30.1352V30.1353V30.1353C53.0311 30.194 53.024 30.2527 53.0176 30.3112ZM40.9497 29.5843C40.9497 29.6697 40.9532 29.7571 40.9594 29.8453C40.9988 29.8403 41.0383 29.8376 41.0782 29.835C41.1101 29.8328 41.1422 29.8307 41.1747 29.8273C41.6968 29.771 42.2216 29.7287 42.7493 29.6919C42.8301 29.6864 42.9108 29.6797 42.9915 29.6729C43.1042 29.6636 43.2168 29.6542 43.3297 29.6481C44.049 29.6086 44.7724 29.5856 45.5021 29.5856C46.2311 29.5856 46.9545 29.6086 47.6738 29.6481C47.7867 29.6542 47.8993 29.6636 48.012 29.6729C48.0927 29.6797 48.1734 29.6864 48.2542 29.6919C48.7818 29.7287 49.3074 29.7696 49.8288 29.8273C49.8641 29.8311 49.8998 29.8338 49.9359 29.8364C49.9708 29.839 50.0061 29.8415 50.0413 29.8453C50.0475 29.7571 50.0503 29.671 50.0503 29.5843C50.0503 27.0758 48.0084 25.034 45.5 25.034C42.9916 25.034 40.9497 27.0758 40.9497 29.5843ZM40.0381 33.0279C40.8525 32.9064 41.6718 32.8182 42.4938 32.7515C42.6625 32.7377 42.8305 32.7259 42.9985 32.7141C44.6641 32.6016 46.3373 32.6016 48.0022 32.7141C48.1709 32.7259 48.3389 32.7377 48.5076 32.7515C49.3296 32.8182 50.1489 32.9064 50.9626 33.0279C66.7636 35.4162 79.2591 47.9999 81.5266 63.8405C81.596 64.3272 81.6523 64.8152 81.7023 65.304C81.7059 65.3407 81.7099 65.3774 81.714 65.4141C81.7183 65.4526 81.7227 65.4911 81.7272 65.5296C81.738 65.6219 81.7487 65.7143 81.7571 65.8074C81.8161 66.4787 81.8599 67.1508 81.8814 67.8228C58.0546 73.3451 32.9475 73.3451 9.12069 67.8228C9.1436 67.1508 9.18595 66.4787 9.24496 65.8074C9.25413 65.7061 9.26554 65.6057 9.27696 65.5052C9.28457 65.4382 9.29218 65.3712 9.29912 65.304C9.34911 64.8139 9.40534 64.3251 9.47546 63.8405C11.7423 47.9999 24.2378 35.4148 40.0381 33.0279ZM3.03329 69.7765C3.03329 73.1597 19.5709 79.6345 45.5 79.6345C71.4291 79.6345 87.9667 73.1597 87.966 69.7765C87.966 69.1954 87.2474 67.9159 84.8355 66.2461C84.8388 66.2909 84.8396 66.3354 84.8404 66.3799C84.8411 66.421 84.8419 66.4621 84.8446 66.5037C84.8966 67.3362 84.9327 68.1721 84.9327 69.0184V70.2132L83.7698 70.4937C71.2514 73.4985 58.3746 75.0016 45.4993 75.0016C32.6247 75.0016 19.7486 73.4971 7.22948 70.4937L6.06657 70.2132V69.0184C6.06657 68.1721 6.10268 67.3348 6.15405 66.5037C6.15717 66.4604 6.15804 66.4175 6.15891 66.3748C6.15978 66.332 6.16065 66.2892 6.16377 66.2461C3.75186 67.9159 3.03329 69.1954 3.03329 69.7765Z" fill="#CAFD35"/>
</g>
</svg>
