<svg xmlns="http://www.w3.org/2000/svg" width="49.56" height="49.56" viewBox="0 0 49.56 49.56">
  <path id="Shape" d="M24.78,49.56h0a24.712,24.712,0,1,1,9.333-1.813A24.763,24.763,0,0,1,24.78,49.56Zm0-46.738A21.958,21.958,0,0,0,9.247,40.315,21.968,21.968,0,0,0,40.315,9.247,21.822,21.822,0,0,0,24.78,2.822ZM15.793,36.553A1.4,1.4,0,0,1,14.5,34.614a11.487,11.487,0,0,1,10.777-6.871A11.567,11.567,0,0,1,35.989,34.58a1.4,1.4,0,1,1-2.573,1.112,8.769,8.769,0,0,0-8.14-5.145,8.693,8.693,0,0,0-8.187,5.142A1.4,1.4,0,0,1,15.793,36.553ZM31.57,20.969a2.9,2.9,0,1,1,2.9-2.9A2.9,2.9,0,0,1,31.57,20.969Zm-13.14,0a2.9,2.9,0,1,1,2.9-2.9A2.9,2.9,0,0,1,18.43,20.969Z" transform="translate(0 0)" fill="#fff"/>
</svg>
