<svg width="15" height="15" viewBox="0 0 15 15" fill="none" xmlns="http://www.w3.org/2000/svg">
<g id="information">
<path id="Path" fill-rule="evenodd" clip-rule="evenodd" d="M12.0703 3.98438C12.0703 4.14608 12.2016 4.27734 12.3633 4.27734C12.525 4.27734 12.6562 4.14608 12.6562 3.98438C12.6562 3.82267 12.525 3.69141 12.3633 3.69141C12.2016 3.69141 12.0703 3.82267 12.0703 3.98438Z" fill="white"/>
<path id="Path_2" fill-rule="evenodd" clip-rule="evenodd" d="M13.2421 7.4999C13.2421 7.87515 13.2044 8.24972 13.1303 8.61318C13.0979 8.77168 13.2002 8.9264 13.3587 8.95879C13.3785 8.96291 13.3982 8.96486 13.4177 8.96486C13.5539 8.96486 13.6761 8.86907 13.7044 8.73037C13.7865 8.32834 13.828 7.9144 13.828 7.4999C13.828 6.57739 13.628 5.68967 13.2333 4.86135C13.1637 4.71532 12.989 4.6533 12.8428 4.72288C12.6967 4.79246 12.6348 4.96732 12.7043 5.11346C13.0612 5.86236 13.2421 6.66528 13.2421 7.4999Z" fill="white"/>
<path id="Shape" fill-rule="evenodd" clip-rule="evenodd" d="M8.67188 10.1367H8.96484C9.12666 10.1367 9.25781 10.2679 9.25781 10.4297V11.6016C9.25781 11.7634 9.12666 11.8945 8.96484 11.8945H6.03516C5.87334 11.8945 5.74219 11.7634 5.74219 11.6016V10.4297C5.74219 10.2679 5.87334 10.1367 6.03516 10.1367H6.32812V7.79297H6.03516C5.87334 7.79297 5.74219 7.66182 5.74219 7.5V6.32812C5.74219 6.16631 5.87334 6.03516 6.03516 6.03516H8.37891C8.54073 6.03516 8.67188 6.16631 8.67188 6.32812V10.1367ZM6.32812 11.3086H8.67188V10.7227H8.37891C8.2172 10.7227 8.08594 10.5915 8.08594 10.4297V6.62109H6.32812V7.20703H6.62109C6.78291 7.20703 6.91406 7.33818 6.91406 7.5V10.4297C6.91406 10.5915 6.78291 10.7227 6.62109 10.7227H6.32812V11.3086Z" fill="white"/>
<path id="Shape_2" fill-rule="evenodd" clip-rule="evenodd" d="M8.67188 4.27734C8.67188 4.92348 8.14613 5.44922 7.5 5.44922C6.85387 5.44922 6.32812 4.92348 6.32812 4.27734C6.32812 3.63121 6.85387 3.10547 7.5 3.10547C8.14613 3.10547 8.67188 3.63121 8.67188 4.27734ZM8.08594 4.27734C8.08594 3.95428 7.82307 3.69141 7.5 3.69141C7.17693 3.69141 6.91406 3.95428 6.91406 4.27734C6.91406 4.60041 7.17693 4.86328 7.5 4.86328C7.82307 4.86328 8.08594 4.60041 8.08594 4.27734Z" fill="white"/>
<path id="Shape_3" fill-rule="evenodd" clip-rule="evenodd" d="M1.27758e-05 7.5C1.27758e-05 3.45119 3.45773 0 7.50001 0C11.5485 0 15 3.45669 15 7.5C15 11.5483 11.5433 15 7.50001 15C6.11699 15 4.6462 14.6038 3.53383 13.9355L0.385679 14.9849C0.280965 15.0199 0.164693 14.993 0.0858435 14.9142C0.007337 14.8358 -0.0200144 14.7196 0.0150045 14.6144L1.06454 11.4663C0.396322 10.3538 1.27758e-05 8.88302 1.27758e-05 7.5ZM3.72781 13.3668C4.76316 14.0226 6.1733 14.4141 7.50001 14.4141C11.2478 14.4141 14.4141 11.2478 14.4141 7.5C14.4141 3.75217 11.2478 0.585938 7.50001 0.585938C3.75219 0.585938 0.58595 3.75217 0.58595 7.5C0.58595 8.82671 0.977453 10.237 1.6332 11.2722C1.68035 11.3466 1.69156 11.4381 1.66364 11.5217L0.756238 14.2438L3.47833 13.3364C3.56302 13.3081 3.65445 13.3204 3.72781 13.3668Z" fill="white"/>
</g>
</svg>
