<svg width="100" height="82" viewBox="0 0 100 82" fill="none" xmlns="http://www.w3.org/2000/svg">
<g id="kamera">
<path id="Shape" fill-rule="evenodd" clip-rule="evenodd" d="M84.0619 16.4616H93.2113C96.9547 16.4616 100 19.5203 100 23.2802V69.4605C100 73.2203 96.9547 76.279 93.2113 76.279H76.7188C71.1771 79.8847 64.5758 81.9812 57.4955 81.9812C50.4152 81.9812 43.8141 79.8847 38.2723 76.279H13.7314H6.78867C3.04531 76.279 0 73.2203 0 69.4605V23.2802C0 19.5203 3.04531 16.4616 6.78848 16.4616H7.08086V12.391C7.08086 10.0972 8.93906 8.2308 11.223 8.2308H24.616C26.9 8.2308 28.7582 10.0972 28.7582 12.391V16.4616H30.9293L33.0312 6.92135C33.9291 2.84607 37.4584 0 41.6139 0H73.3775C77.533 0 81.0623 2.84626 81.96 6.92155L84.0619 16.4616ZM41.6137 3.92325C39.3049 3.92325 37.3439 5.50479 36.8449 7.76901L34.9297 16.4616H38.2723C43.8141 12.856 50.4152 10.7595 57.4955 10.7595C64.5758 10.7595 71.177 12.856 76.7188 16.4616H80.0611L78.1459 7.76901C77.6471 5.50459 75.6861 3.92325 73.3773 3.92325H41.6137ZM10.9871 12.391C10.9871 12.2604 11.093 12.1542 11.223 12.1542H24.6158C24.7459 12.1542 24.8518 12.2606 24.8518 12.391V16.4616H10.9871V12.391ZM15.6846 51.0477V72.3554H33.2801C26.3678 65.8531 22.0406 56.6102 22.0406 46.3702C22.0406 36.1302 26.3678 26.8874 33.2801 20.385H32.4973H26.8049H9.03418H6.78867C5.19941 20.385 3.90625 21.6837 3.90625 23.2802V69.4605C3.90625 71.0567 5.19941 72.3556 6.78867 72.3556H11.7783V51.0477C11.7783 49.9643 12.6527 49.086 13.7314 49.086C14.8102 49.086 15.6846 49.9643 15.6846 51.0477ZM75.5287 72.3556C73.2006 73.9905 70.6438 75.3176 67.9166 76.279C64.6525 77.4298 61.1459 78.0577 57.4955 78.0577C53.8451 78.0577 50.3383 77.4296 47.0744 76.279C44.3473 75.3176 41.7906 73.9905 39.4623 72.3556C31.298 66.6225 25.9469 57.113 25.9469 46.3704C25.9469 35.6278 31.298 26.1184 39.4623 20.3852C41.7904 18.7503 44.3473 17.4232 47.0744 16.4618C50.3385 15.311 53.8451 14.6831 57.4955 14.6831C61.1459 14.6831 64.6527 15.3112 67.9166 16.4618C70.6438 17.4232 73.2004 18.7503 75.5287 20.3852C83.693 26.1184 89.0441 35.6278 89.0441 46.3704C89.0441 57.113 83.693 66.6225 75.5287 72.3556ZM93.2113 72.3554C94.8008 72.3554 96.0938 71.0567 96.0938 69.4603V23.2802C96.0938 21.6837 94.8008 20.385 93.2113 20.385H82.4938H81.7109C88.6232 26.8874 92.9504 36.1302 92.9504 46.3702C92.9504 56.6102 88.6232 65.8531 81.7109 72.3554H93.2113Z" fill="#CAFD35"/>
<path id="Path" fill-rule="evenodd" clip-rule="evenodd" d="M57.6424 21C43.5031 21 32 32.5538 32 46.7555C32 60.957 43.5031 72.5107 57.6424 72.5107C59.7025 72.5107 61.7531 72.2643 63.7371 71.7784C64.7852 71.5216 65.4273 70.4603 65.1719 69.4079C64.9164 68.3552 63.8596 67.7098 62.8117 67.9668C61.1303 68.3787 59.391 68.5875 57.6424 68.5875C45.657 68.5875 35.9062 58.7938 35.9062 46.7557C35.9062 34.7175 45.657 24.9236 57.6424 24.9236C69.6277 24.9236 79.3785 34.7173 79.3785 46.7557C79.3785 51.1432 78.0887 55.3737 75.6479 58.9897C75.0426 59.8864 75.2758 61.1064 76.1686 61.7144C77.0607 62.3221 78.2758 62.0883 78.8812 61.1914C81.7621 56.9233 83.2848 51.9315 83.2848 46.7558C83.2848 32.5538 71.7816 21 57.6424 21Z" fill="#CAFD35"/>
<path id="Shape_2" fill-rule="evenodd" clip-rule="evenodd" d="M6 34.3045C6 30.2769 9.2623 27 13.2725 27C17.2824 27 20.5449 30.2769 20.5449 34.3045C20.5449 38.3321 17.2824 41.6089 13.2725 41.6089C9.2625 41.6089 6 38.3321 6 34.3045ZM9.90625 34.3047C9.90625 36.1689 11.4164 37.6857 13.2725 37.6857C15.1287 37.6857 16.6387 36.1689 16.6387 34.3047C16.6387 32.4404 15.1285 30.9236 13.2725 30.9236C11.4164 30.9236 9.90625 32.4404 9.90625 34.3047Z" fill="#CAFD35"/>
<path id="Path_2" fill-rule="evenodd" clip-rule="evenodd" d="M72.8689 65.5782C72.8434 65.4546 72.8063 65.331 72.7574 65.2114C72.7086 65.0937 72.648 64.9799 72.5777 64.8739C72.5076 64.7661 72.4254 64.666 72.3355 64.5758C72.2457 64.4855 72.1443 64.4031 72.0387 64.3306C71.9313 64.2599 71.818 64.1991 71.7008 64.1501C71.5836 64.101 71.4607 64.0638 71.3357 64.0383C71.0838 63.9872 70.824 63.9872 70.5721 64.0383C70.4469 64.0638 70.3238 64.101 70.2068 64.1501C70.0895 64.1991 69.9764 64.2599 69.8689 64.3306C69.7635 64.4031 69.6639 64.4855 69.5721 64.5758C69.4822 64.666 69.4002 64.7661 69.3299 64.8739C69.2596 64.9799 69.199 65.0937 69.1502 65.2114C69.1014 65.331 69.0643 65.4546 69.0389 65.5782C69.0135 65.7057 69 65.8352 69 65.9627C69 66.0902 69.0135 66.2197 69.0389 66.3452C69.0643 66.4708 69.1014 66.5944 69.1502 66.7121C69.199 66.8317 69.2596 66.9455 69.3299 67.0515C69.4002 67.1594 69.4822 67.2594 69.5721 67.3496C69.6639 67.4399 69.7633 67.5223 69.8689 67.5929C69.9766 67.6635 70.0896 67.7243 70.2068 67.7734C70.324 67.8224 70.4469 67.8597 70.5721 67.8852C70.6988 67.9107 70.826 67.9244 70.9529 67.9244C71.0816 67.9244 71.2088 67.9107 71.3357 67.8852C71.4607 67.8597 71.5838 67.8224 71.7008 67.7734C71.8182 67.7243 71.9314 67.6635 72.0387 67.5929C72.1441 67.5223 72.2457 67.4399 72.3355 67.3496C72.6988 66.9848 72.9061 66.4786 72.9061 65.9627C72.9061 65.8352 72.8941 65.7057 72.8689 65.5782Z" fill="#CAFD35"/>
</g>
</svg>
