<svg width="56" height="56" viewBox="0 0 56 56" fill="none" xmlns="http://www.w3.org/2000/svg">
<path fill-rule="evenodd" clip-rule="evenodd" d="M9.1137 10.2922C9.26751 10.4491 9.47884 10.5367 9.69873 10.5343C9.81011 10.5367 9.92108 10.5171 10.0247 10.476C10.2254 10.3868 10.3862 10.2262 10.4759 10.0254C10.5167 9.92187 10.5367 9.81146 10.5343 9.69982C10.5363 9.48062 10.449 9.26956 10.2919 9.11596C10.2156 9.03814 10.1247 8.9758 10.0247 8.9322C9.87008 8.87476 9.70322 8.85724 9.54003 8.88209C9.48985 8.89879 9.43151 8.9155 9.38133 8.9322C9.33115 8.94891 9.28097 8.98232 9.23895 9.00758C9.15042 9.07359 9.07168 9.15263 9.00518 9.24104C8.9803 9.2826 8.955 9.33272 8.93012 9.38283C8.90482 9.43295 8.89666 9.49121 8.87994 9.54133C8.873 9.59389 8.87015 9.64685 8.87137 9.69982C8.86892 9.81146 8.88891 9.92187 8.93012 10.0254C8.97336 10.1256 9.03578 10.216 9.1137 10.2922Z" fill="#CAFD35"/>
<path fill-rule="evenodd" clip-rule="evenodd" d="M7.45673 10.7694C7.21229 11.0043 7.13921 11.3676 7.27361 11.6796C7.3138 11.7812 7.37633 11.8725 7.45673 11.9467C7.61102 12.1078 7.82419 12.1984 8.0471 12.1975C8.15551 12.1955 8.2627 12.1727 8.36299 12.1307C8.4641 12.0903 8.55505 12.0275 8.62895 11.9467C8.7065 11.8705 8.76862 11.7795 8.81207 11.6796C8.93347 11.3664 8.86201 11.0108 8.62895 10.7694C8.30047 10.4558 7.78521 10.4558 7.45673 10.7694Z" fill="#CAFD35"/>
<path fill-rule="evenodd" clip-rule="evenodd" d="M6.96503 12.4457C6.81154 12.2876 6.59998 12.1982 6.37907 12.1982C6.15776 12.1982 5.9462 12.2876 5.7927 12.4457C5.71027 12.5209 5.64774 12.6147 5.60956 12.719C5.56693 12.8185 5.54459 12.9256 5.54297 13.0336C5.54541 13.2547 5.63515 13.4658 5.7927 13.6214C5.94945 13.7718 6.15736 13.8576 6.37461 13.8616C6.5951 13.86 6.80667 13.7743 6.96503 13.6214C7.12015 13.465 7.20705 13.2535 7.20624 13.0336C7.20787 12.926 7.18837 12.8193 7.14817 12.719C7.10716 12.6163 7.04462 12.5233 6.96503 12.4457Z" fill="#CAFD35"/>
<path fill-rule="evenodd" clip-rule="evenodd" d="M9.70273 13.8616C9.81399 13.8604 9.92404 13.8382 10.0272 13.7957C10.1263 13.7553 10.2168 13.6962 10.2932 13.6214C10.4483 13.465 10.5348 13.2535 10.5344 13.0336C10.536 12.926 10.5161 12.8193 10.4763 12.719C10.4349 12.6163 10.3728 12.5233 10.2932 12.4457C10.1393 12.2876 9.9277 12.1982 9.70679 12.1982C9.48589 12.1982 9.27432 12.2876 9.12042 12.4457C9.04083 12.5233 8.9787 12.6163 8.93769 12.719C8.89505 12.8185 8.87231 12.9256 8.87109 13.0336C8.87434 13.4896 9.24468 13.8588 9.70273 13.8616Z" fill="#CAFD35"/>
<path fill-rule="evenodd" clip-rule="evenodd" d="M8.6291 14.6476C8.29897 14.3388 7.78691 14.3388 7.45678 14.6476C7.37435 14.7234 7.31181 14.8179 7.27364 14.923C7.231 15.0232 7.20826 15.1312 7.20705 15.24C7.20502 15.5789 7.40764 15.8853 7.71991 16.0156C8.03177 16.1456 8.39114 16.0731 8.6291 15.8323C8.78422 15.6747 8.87112 15.4616 8.87031 15.24C8.87193 15.1316 8.85203 15.0236 8.81224 14.923C8.77122 14.8195 8.70869 14.7254 8.6291 14.6476Z" fill="#CAFD35"/>
<path fill-rule="evenodd" clip-rule="evenodd" d="M11.9216 8.31659C12.0296 8.31823 12.1372 8.29825 12.2375 8.25788C12.3374 8.21466 12.4275 8.15228 12.5039 8.0744C12.5839 8.00019 12.6464 7.90886 12.6866 7.80692C12.7284 7.70662 12.7512 7.59898 12.7532 7.4897C12.754 7.26626 12.6639 7.0522 12.5039 6.89686C12.43 6.81653 12.339 6.75374 12.2375 6.71297C11.926 6.58942 11.5707 6.66118 11.3312 6.89686C11.1732 7.05302 11.0863 7.26749 11.09 7.4897C11.09 7.71029 11.1781 7.92191 11.334 8.07725C11.4903 8.2326 11.7019 8.31863 11.9216 8.31659Z" fill="#CAFD35"/>
<path fill-rule="evenodd" clip-rule="evenodd" d="M13.8244 6.04047C13.9247 6.08046 14.0323 6.10045 14.1403 6.09882C14.3612 6.09923 14.5736 6.01232 14.7308 5.85645C14.8838 5.69691 14.9703 5.48473 14.972 5.26317C14.9675 5.04447 14.8814 4.83556 14.7308 4.67806C14.4904 4.44385 14.1363 4.37204 13.8244 4.49444C13.7193 4.53239 13.6255 4.59564 13.5499 4.67806C13.4724 4.75477 13.4102 4.84535 13.3668 4.94573C13.327 5.04651 13.3071 5.15464 13.3087 5.26317C13.3047 5.48555 13.392 5.70018 13.5499 5.85645C13.6275 5.93642 13.7209 5.99885 13.8244 6.04047Z" fill="#CAFD35"/>
<path fill-rule="evenodd" clip-rule="evenodd" d="M6.96451 4.67321C6.72379 4.44005 6.36861 4.37169 6.05849 4.49824C5.84985 4.57393 5.68504 4.73872 5.60954 4.94828C5.56692 5.04838 5.54459 5.1558 5.54297 5.26485C5.54459 5.4858 5.63105 5.6974 5.78409 5.8565C5.86689 5.92974 5.95904 5.99159 6.05849 6.04001C6.15916 6.07989 6.26632 6.09983 6.3743 6.0982C6.43031 6.10105 6.48633 6.09535 6.54072 6.08152C6.59146 6.07134 6.6418 6.05751 6.69051 6.04001C6.74206 6.01519 6.79199 5.98752 6.83989 5.9566C6.88373 5.92567 6.92513 5.8923 6.96451 5.8565C7.00063 5.81703 7.03392 5.77512 7.06436 5.73158C7.09521 5.68315 7.12322 5.6331 7.14758 5.58143C7.16544 5.5326 7.17924 5.48255 7.18898 5.43128C7.20278 5.37716 7.20846 5.32101 7.20562 5.26485C7.20725 5.15662 7.18776 5.04879 7.14758 4.94828C7.09927 4.84859 7.03798 4.75622 6.96451 4.67321Z" fill="#CAFD35"/>
<path fill-rule="evenodd" clip-rule="evenodd" d="M8.62857 3.01372L8.50395 2.91384C8.41262 2.85457 8.31114 2.81234 8.20479 2.7892C8.04282 2.7555 7.87437 2.77296 7.72255 2.83914C7.6231 2.87933 7.53299 2.93861 7.45667 3.01372C7.3008 3.17126 7.2115 3.38279 7.20703 3.60407C7.20865 3.65969 7.21393 3.71532 7.22367 3.77054L7.2736 3.91995C7.29512 3.97151 7.32028 4.02145 7.34829 4.06977C7.38198 4.11321 7.41811 4.15503 7.45667 4.19442C7.53299 4.26953 7.6231 4.32881 7.72255 4.369C7.82119 4.4157 7.92917 4.43843 8.03836 4.43559C8.09397 4.43437 8.14958 4.42869 8.20479 4.41894C8.31114 4.3958 8.41262 4.35357 8.50395 4.2943C8.54738 4.26344 8.58919 4.23015 8.62857 4.19442C8.66672 4.15706 8.70042 4.11524 8.72842 4.06977C8.75927 4.02186 8.78688 3.97151 8.81164 3.91995C8.82909 3.87123 8.8433 3.82129 8.85304 3.77054C8.86684 3.71613 8.87253 3.6601 8.86969 3.60407C8.87131 3.49607 8.85142 3.38848 8.81164 3.28819C8.76618 3.18709 8.70448 3.09452 8.62857 3.01372Z" fill="#CAFD35"/>
<path fill-rule="evenodd" clip-rule="evenodd" d="M4.75007 6.9029C4.71028 6.86475 4.66886 6.82862 4.62501 6.79494C4.5771 6.76653 4.52715 6.74177 4.47559 6.71985L4.32576 6.67034C4.16375 6.63624 3.99524 6.6537 3.84339 6.71985C3.74066 6.76206 3.64727 6.82416 3.56931 6.9029C3.41827 7.05956 3.33219 7.26736 3.32812 7.4849C3.32934 7.54051 3.33503 7.59611 3.34477 7.6509C3.36792 7.75764 3.41014 7.8587 3.46943 7.95043L3.56931 8.07503C3.64971 8.15093 3.74228 8.21262 3.84339 8.25767C3.94408 8.29785 4.05128 8.31774 4.15969 8.31611C4.21532 8.31855 4.27135 8.31327 4.32576 8.29947C4.37692 8.28933 4.42686 8.27553 4.47559 8.25767C4.52715 8.23332 4.5771 8.20572 4.62501 8.17447C4.67089 8.14646 4.71271 8.11318 4.75007 8.07503C4.7858 8.03526 4.81909 7.99386 4.84955 7.95043C4.90923 7.8587 4.95146 7.75764 4.97461 7.6509C4.98395 7.59611 4.98963 7.54051 4.99125 7.4849C4.9941 7.37573 4.97136 7.26736 4.92466 7.16874C4.88406 7.06971 4.82478 6.9792 4.75007 6.9029Z" fill="#CAFD35"/>
<path fill-rule="evenodd" clip-rule="evenodd" d="M8.62857 6.90267C8.58919 6.86451 8.54738 6.82838 8.50395 6.79469C8.45849 6.76627 8.4114 6.74151 8.36269 6.71959C8.31276 6.70335 8.25471 6.68671 8.20479 6.67007C8.04282 6.63638 7.87437 6.65383 7.72255 6.71959C7.52243 6.8089 7.3625 6.96883 7.2736 7.16855C7.23098 7.26881 7.20825 7.37598 7.20703 7.48477C7.20865 7.54038 7.21393 7.59599 7.22367 7.65079C7.24032 7.70072 7.25696 7.75877 7.2736 7.8087C7.29512 7.85782 7.32028 7.90491 7.34829 7.95037C7.38198 7.9938 7.41811 8.03521 7.45667 8.07499C7.53258 8.15252 7.62269 8.21463 7.72255 8.25766C7.82281 8.29785 7.93038 8.31774 8.03836 8.31611C8.09438 8.31855 8.15039 8.31327 8.20479 8.29947C8.25837 8.28932 8.31114 8.27552 8.36269 8.25766C8.4114 8.2333 8.45889 8.20529 8.50395 8.17444C8.59447 8.11721 8.67119 8.04089 8.72842 7.95037C8.75927 7.90491 8.78688 7.85782 8.81164 7.8087C8.82909 7.75715 8.8433 7.70438 8.85304 7.65079C8.86684 7.5964 8.87253 7.54038 8.86969 7.48477C8.87131 7.37639 8.85142 7.26922 8.81164 7.16855C8.7682 7.0691 8.7061 6.97858 8.62857 6.90267Z" fill="#CAFD35"/>
<path fill-rule="evenodd" clip-rule="evenodd" d="M8.9301 5.59115C8.95498 5.64068 8.98026 5.68249 9.00514 5.73243C9.03899 5.77586 9.07529 5.81768 9.11363 5.85706C9.14952 5.89725 9.19194 5.93094 9.23884 5.95693C9.28329 5.9894 9.33101 6.01741 9.38117 6.04015C9.43297 6.0576 9.48599 6.07141 9.53983 6.08156C9.59162 6.09536 9.64505 6.10104 9.69848 6.0982C9.92075 6.10023 10.1345 6.01335 10.2915 5.85706C10.4501 5.70157 10.5374 5.48804 10.5337 5.26678C10.5366 5.2136 10.5309 5.16042 10.517 5.10886C10.5081 5.05487 10.4942 5.00209 10.4754 4.95094C10.4297 4.84986 10.3678 4.75689 10.2915 4.67651C10.2148 4.60141 10.1239 4.54214 10.0243 4.50195C9.87181 4.43618 9.70256 4.41872 9.53983 4.45201C9.48477 4.46094 9.43134 4.47759 9.38117 4.50195C9.32979 4.51818 9.28166 4.54376 9.23884 4.57664C9.19724 4.60993 9.14707 4.64322 9.11363 4.67651C8.95783 4.83362 8.87096 5.04594 8.87137 5.26678C8.87015 5.3224 8.873 5.37802 8.87993 5.43282C8.89666 5.48276 8.91338 5.54122 8.9301 5.59115Z" fill="#CAFD35"/>
<path fill-rule="evenodd" clip-rule="evenodd" d="M11.3311 4.19405C11.3669 4.23423 11.4091 4.26791 11.4558 4.29389C11.5013 4.32473 11.5484 4.35233 11.5971 4.37708C11.6487 4.39453 11.7015 4.40874 11.7555 4.41848C11.8095 4.43227 11.8655 4.43796 11.9216 4.43512C12.1404 4.43714 12.3508 4.3503 12.5039 4.19405C12.5859 4.11857 12.6488 4.02482 12.6866 3.91971C12.7293 3.81987 12.752 3.71273 12.7532 3.60397C12.7508 3.38238 12.661 3.17013 12.5039 3.01389C12.4271 2.93881 12.337 2.87956 12.2375 2.83938C12.086 2.77282 11.9175 2.75537 11.7555 2.78946C11.6487 2.81259 11.5472 2.8548 11.4558 2.91405C11.4144 2.94733 11.3644 2.98061 11.3311 3.01389C11.176 3.17094 11.0895 3.3832 11.0899 3.60397C11.0883 3.71192 11.1082 3.81947 11.148 3.91971C11.1894 4.02319 11.2516 4.11654 11.3311 4.19405Z" fill="#CAFD35"/>
<path fill-rule="evenodd" clip-rule="evenodd" d="M7.14758 9.38394C7.12484 9.3339 7.09684 9.2867 7.06436 9.24235C7.03838 9.19516 7.00469 9.15284 6.96451 9.11744C6.92513 9.07879 6.88373 9.04258 6.83989 9.00922C6.78996 8.98399 6.74856 8.95917 6.69863 8.93395C6.6487 8.90913 6.59065 8.90058 6.54072 8.8839C6.26591 8.8363 5.98502 8.92296 5.78409 9.11744C5.7508 9.15081 5.71751 9.20085 5.68464 9.24235C5.65135 9.28467 5.62618 9.33268 5.60954 9.38394C5.58559 9.43399 5.56895 9.48729 5.55961 9.54221C5.55028 9.5947 5.54459 9.64759 5.54297 9.70048C5.54337 9.81237 5.56611 9.92263 5.60954 10.0256C5.64973 10.1253 5.7094 10.2156 5.78409 10.2921C5.86486 10.3682 5.95741 10.4304 6.05849 10.4756C6.10964 10.4943 6.16281 10.5081 6.21639 10.5171C6.26794 10.5309 6.32112 10.5366 6.3743 10.5337C6.59593 10.5378 6.80944 10.4503 6.96451 10.2921C7.12119 10.1354 7.20806 9.92223 7.20562 9.70048C7.20846 9.64718 7.20278 9.59388 7.18898 9.54221C7.17924 9.48851 7.16544 9.43561 7.14758 9.38394Z" fill="#CAFD35"/>
<path fill-rule="evenodd" clip-rule="evenodd" d="M4.93246 11.0424C4.9081 10.9938 4.88009 10.9463 4.84924 10.9013C4.82366 10.8542 4.78997 10.812 4.74978 10.7767C4.67184 10.6972 4.57847 10.6347 4.47535 10.5937C4.16358 10.4704 3.80837 10.5422 3.56926 10.7767C3.53597 10.8096 3.50269 10.8595 3.4694 10.9013C3.41013 10.9925 3.36791 11.094 3.34477 11.2003C3.33503 11.255 3.32934 11.3106 3.32812 11.3666C3.33218 11.5837 3.41825 11.7914 3.56926 11.948C3.72556 12.1054 3.93746 12.1951 4.15952 12.1975C4.26791 12.1959 4.37549 12.1736 4.47535 12.131C4.58009 12.0929 4.67427 12.0304 4.74978 11.948C4.90567 11.7951 4.99295 11.5849 4.99092 11.3666C4.99335 11.3106 4.98808 11.2546 4.97427 11.2003C4.96412 11.1467 4.95032 11.094 4.93246 11.0424Z" fill="#CAFD35"/>
<path fill-rule="evenodd" clip-rule="evenodd" d="M11.9219 12.1975C12.0307 12.1959 12.1378 12.1736 12.2377 12.1309C12.4378 12.0416 12.5977 11.8815 12.6866 11.6817C12.7293 11.5818 12.752 11.4741 12.7532 11.3657C12.754 11.1427 12.6639 10.9294 12.504 10.7751C12.3075 10.5801 12.027 10.496 11.7559 10.5504C11.7019 10.5602 11.6491 10.574 11.5976 10.5919C11.548 10.6166 11.5062 10.6418 11.4563 10.6666C11.3682 10.7328 11.2899 10.8112 11.2237 10.8998C11.1985 10.9497 11.1738 10.9912 11.1486 11.0411C11.1311 11.0927 11.1173 11.1455 11.1072 11.1991C11.0934 11.2536 11.0877 11.3096 11.0906 11.3657C11.0885 11.5842 11.1754 11.7946 11.3317 11.9477C11.4863 12.1082 11.6994 12.1984 11.9219 12.1975Z" fill="#CAFD35"/>
<path fill-rule="evenodd" clip-rule="evenodd" d="M13.55 10.292C13.6275 10.372 13.7209 10.4348 13.8245 10.476C13.9248 10.5164 14.0324 10.536 14.1404 10.5344C14.3613 10.5352 14.5736 10.4483 14.7308 10.292C14.8059 10.2153 14.8652 10.1247 14.9054 10.0247C14.948 9.9215 14.9707 9.81092 14.972 9.69871C14.9703 9.48001 14.8838 9.26987 14.7308 9.114C14.4904 8.87938 14.1363 8.80757 13.8245 8.92998C13.7209 8.97119 13.6275 9.03403 13.55 9.114C13.3937 9.26783 13.3068 9.47919 13.3088 9.69871C13.3064 9.81051 13.3263 9.92109 13.3669 10.0247C13.4103 10.1251 13.4724 10.2157 13.55 10.292Z" fill="#CAFD35"/>
<path fill-rule="evenodd" clip-rule="evenodd" d="M15.4856 8.25784C15.5865 8.29823 15.6939 8.31823 15.8025 8.31659C16.1373 8.31496 16.4388 8.11259 16.5678 7.80292C16.6967 7.49284 16.6284 7.13584 16.394 6.89594C16.1532 6.66175 15.7985 6.58994 15.4856 6.71193C15.3807 6.75028 15.2863 6.81352 15.211 6.89594C14.888 7.22193 14.888 7.74825 15.211 8.07424C15.2887 8.15421 15.3823 8.21663 15.4856 8.25784Z" fill="#CAFD35"/>
<path fill-rule="evenodd" clip-rule="evenodd" d="M55.4709 53.6869L51.2128 51.5783C49.6244 50.7993 48.6201 49.1815 48.6269 47.4124V46.6761C48.6247 44.3392 47.3735 42.182 45.3463 41.0208L40.3226 38.1518C40.7088 37.1286 40.4619 35.9742 39.6904 35.1989L39.0129 34.5212C39.8765 33.458 39.837 31.9241 38.9203 30.9068L23.2278 13.5419L24.5747 12.1946C24.749 12.0202 24.847 11.7837 24.847 11.5368C24.847 11.2903 24.749 11.0538 24.5747 10.8795L21.9462 8.25019C21.772 8.07587 21.5355 7.97782 21.2891 7.97782C21.1094 7.98281 20.9347 8.04137 20.7881 8.14578C19.7489 3.1428 15.1771 -0.324919 10.0808 0.0241686C4.98443 0.372802 0.927319 4.43066 0.578789 9.52896C0.230259 14.6268 3.69695 19.1999 8.69845 20.2394C8.59407 20.3861 8.53553 20.5604 8.53009 20.7406C8.53009 20.9871 8.62811 21.2236 8.80238 21.3979L11.4309 24.0267C11.6051 24.2015 11.8416 24.2996 12.0885 24.2996C12.3353 24.2996 12.5718 24.2015 12.746 24.0267L14.0916 22.6799L31.4559 38.3793C32.4693 39.3049 34.0091 39.3448 35.0688 38.4723L35.7472 39.151C36.6303 40.0407 38.0022 40.2232 39.0873 39.5954L44.4251 42.6441C45.8709 43.4717 46.7645 45.0092 46.7681 46.6761V47.4124C46.759 49.8905 48.1672 52.1557 50.3927 53.2443L54.6513 55.3529C54.7793 55.4151 54.92 55.4469 55.062 55.4455C55.4972 55.4496 55.8766 55.1518 55.9756 54.7283C56.075 54.3047 55.8671 53.8689 55.4759 53.6792L55.4709 53.6869ZM4.85917 4.30537C7.19133 1.97207 10.6771 1.22804 13.7585 2.40559C16.8399 3.58268 18.942 6.46163 19.1253 9.75639L18.6606 10.2212C18.9733 9.90756 19.0214 9.41729 18.7754 9.04869C18.5299 8.68053 18.0588 8.53663 17.6495 8.70459C17.5365 8.75543 17.433 8.82443 17.3427 8.90932C17.1721 9.08273 17.0754 9.31651 17.0732 9.55983C17.0745 9.62248 17.0809 9.68467 17.0918 9.74595C17.1022 9.80723 17.1208 9.8667 17.1476 9.92254C17.1662 9.97974 17.1943 10.0333 17.2315 10.0805C17.2638 10.1304 17.3014 10.1772 17.3427 10.2199C17.5188 10.3942 17.7552 10.4941 18.0026 10.4991C18.2483 10.4954 18.4824 10.3964 18.6564 10.2232L16.6933 12.1873C16.864 12.0134 16.9602 11.7801 16.962 11.5363C16.9597 11.4119 16.9343 11.2894 16.8875 11.1741C16.8426 11.0629 16.7759 10.9621 16.6924 10.8763C16.4237 10.6157 16.028 10.5358 15.679 10.672C15.5638 10.7179 15.4594 10.7878 15.3727 10.8763C15.2888 10.9621 15.2225 11.0629 15.1771 11.1741C15.1304 11.2894 15.1054 11.4119 15.1031 11.5363C15.105 11.7801 15.2016 12.0134 15.3727 12.1873C15.4567 12.279 15.562 12.3494 15.679 12.392C15.7911 12.4397 15.9109 12.4647 16.0326 12.466C16.2783 12.4629 16.5127 12.3643 16.6871 12.1908L14.7387 14.1397C14.8953 13.9668 14.9847 13.743 14.9897 13.5092C14.9883 13.388 14.9629 13.2677 14.9153 13.156C14.8726 13.0412 14.8059 12.9368 14.7201 12.8491C14.6275 12.7674 14.5245 12.6984 14.4133 12.6449C14.1869 12.5518 13.9332 12.5518 13.7072 12.6449C13.4753 12.7402 13.2911 12.9241 13.1958 13.156C13.1091 13.3834 13.1091 13.6349 13.1958 13.8628C13.2498 13.9736 13.3183 14.0771 13.4004 14.1692C13.4876 14.2555 13.5919 14.3218 13.7072 14.3644C13.8189 14.4121 13.9387 14.4375 14.0603 14.4389C14.2935 14.4339 14.5173 14.3449 14.6902 14.1878L12.7424 16.1367C12.9153 15.9627 13.0143 15.7277 13.0174 15.4821C13.0161 15.3609 12.9906 15.2406 12.943 15.1289C12.9003 15.0118 12.8304 14.9064 12.7388 14.822C12.3734 14.4675 11.793 14.4675 11.4282 14.822C11.3392 14.9087 11.2698 15.0136 11.2235 15.1289C11.179 15.241 11.1568 15.3613 11.1586 15.4821C11.1577 15.729 11.2548 15.9664 11.4282 16.1421C11.5135 16.2261 11.6147 16.2924 11.7254 16.3373C11.8407 16.3845 11.9637 16.4095 12.088 16.4117C12.3317 16.4104 12.565 16.3141 12.7388 16.143L10.7754 18.107C10.9484 17.933 11.047 17.6984 11.0506 17.4531C11.046 17.2052 10.9462 16.9692 10.7719 16.7931C10.7293 16.7513 10.6825 16.7141 10.6326 16.6814C10.585 16.6446 10.5314 16.6165 10.4747 16.5979C10.4184 16.5706 10.359 16.552 10.2977 16.542C9.995 16.4853 9.68323 16.5788 9.46132 16.7931C9.37645 16.8829 9.30747 16.9869 9.2571 17.0999C9.20945 17.2116 9.18403 17.3314 9.18267 17.4531C9.18086 17.8299 9.4064 18.1703 9.75403 18.3156C10.1021 18.4604 10.5028 18.3814 10.7692 18.115L10.3045 18.5798C7.00981 18.396 4.13125 16.2924 2.95497 13.2087C1.77868 10.125 2.52429 6.63776 4.85917 4.30537ZM10.7737 20.7406L12.0889 22.0552L21.2891 12.851L22.6034 11.5372L21.2891 10.2221L10.7737 20.7406ZM32.7026 36.9997L15.4077 21.3634L21.9136 14.8556L37.5439 32.157C37.8756 32.5247 37.8615 33.088 37.5112 33.438L33.9796 36.9711C33.6288 37.3179 33.0683 37.3306 32.7026 36.9997ZM36.4043 37.179L37.0615 37.8363C37.4245 38.1995 38.0131 38.1995 38.3762 37.8359C38.7388 37.4727 38.7388 36.884 38.3757 36.5208L37.7195 35.8635L36.4043 37.179Z" fill="#CAFD35"/>
<path fill-rule="evenodd" clip-rule="evenodd" d="M55.6078 3.50685C55.3625 3.32817 55.0468 3.27944 54.7596 3.37551L43.4487 7.17747C43.0635 7.30696 42.8039 7.67035 42.8039 8.07969V16.2118C42.2332 15.8697 41.5824 15.6873 40.9187 15.6836C38.8366 15.6836 37.1484 17.3855 37.1484 19.4856C37.1484 21.5852 38.8366 23.2875 40.9187 23.2875C43.0009 23.2875 44.689 21.5852 44.689 19.4856V8.76472L54.1148 5.5958V12.4098C53.5441 12.0678 52.8933 11.8854 52.2296 11.8817C50.1475 11.8817 48.4593 13.5835 48.4593 15.6836C48.4593 17.7832 50.1475 19.4856 52.2296 19.4856C54.3118 19.4856 55.9999 17.7832 55.9999 15.6836V4.27773C55.9999 3.97189 55.8536 3.68507 55.6078 3.50685ZM40.9187 21.3866C39.8777 21.3866 39.0336 20.5354 39.0336 19.4856C39.0336 18.4353 39.8777 17.5846 40.9187 17.5846C41.9598 17.5846 42.8039 18.4353 42.8039 19.4856C42.8039 20.5354 41.9598 21.3866 40.9187 21.3866ZM50.3445 15.6836C50.3445 16.7334 51.1886 17.5846 52.2296 17.5846C53.2707 17.5846 54.1148 16.7334 54.1148 15.6836C54.1148 14.6333 53.2707 13.7826 52.2296 13.7826C51.1886 13.7826 50.3445 14.6333 50.3445 15.6836Z" fill="#CAFD35"/>
<path fill-rule="evenodd" clip-rule="evenodd" d="M6.27111 37.619L19.326 33.8584C19.6074 33.7776 19.9102 33.834 20.1438 34.0117C20.3773 34.1893 20.5149 34.4671 20.5149 34.7623V47.9247C20.5149 50.0015 18.8447 51.6853 16.7849 51.6853C14.725 51.6853 13.0549 50.0015 13.0549 47.9247C13.0549 45.8474 14.725 44.164 16.7849 44.164C17.4414 44.1676 18.0853 44.3481 18.6499 44.6864V39.7918L7.45995 42.9943V51.6853C7.45995 53.7622 5.78984 55.446 3.72997 55.446C1.67011 55.446 0 53.7622 0 51.6853C0 49.6081 1.67011 47.9247 3.72997 47.9247C4.38654 47.9283 5.03036 48.1087 5.59496 48.4471V38.5229C5.59496 38.1034 5.87088 37.7347 6.27111 37.619ZM1.86499 51.6853C1.86499 52.7238 2.70004 53.5657 3.72997 53.5657C4.7599 53.5657 5.59496 52.7238 5.59496 51.6853C5.59496 50.6465 4.7599 49.805 3.72997 49.805C2.70004 49.805 1.86499 50.6465 1.86499 51.6853ZM7.45995 41.0396V39.2317L18.6499 36.0086V37.8385L7.45995 41.0396ZM14.9199 47.9247C14.9199 48.9631 15.7549 49.805 16.7849 49.805C17.8148 49.805 18.6499 48.9631 18.6499 47.9247C18.6499 46.8858 17.8148 46.0443 16.7849 46.0443C15.7549 46.0443 14.9199 46.8858 14.9199 47.9247Z" fill="#CAFD35"/>
</svg>
