<svg width="21" height="22" viewBox="0 0 21 22" fill="none" xmlns="http://www.w3.org/2000/svg">
<g id="like">
<path id="Shape" fill-rule="evenodd" clip-rule="evenodd" d="M20.3508 14.6504C20.7924 14.0871 21.0042 13.4833 20.9772 12.8614C20.9501 12.1764 20.6437 11.6401 20.3913 11.3112C20.6843 10.5811 20.7969 9.43197 19.819 8.5397C19.1025 7.88627 17.8858 7.59335 16.2003 7.67446C15.0179 7.72842 14.0283 7.94835 13.9835 7.9583L13.9832 7.95837H13.9787C13.7534 7.99893 13.5145 8.0485 13.2712 8.10258C13.2531 7.81416 13.3027 7.09764 13.8345 5.48433C14.4654 3.56459 14.4293 2.09549 13.7173 1.11309C12.9692 0.081116 11.775 0 11.4235 0C11.0855 0 10.7746 0.1397 10.5538 0.396567C10.0536 0.977897 10.1122 2.05043 10.1752 2.54614C9.58039 4.14142 7.91301 8.05301 6.50249 9.13906C6.47546 9.15708 6.45292 9.17961 6.43039 9.20215C6.0158 9.63927 5.7364 10.1124 5.54713 10.527C5.28125 10.3828 4.97932 10.3017 4.65486 10.3017H1.90593C0.869447 10.3017 0.03125 11.1444 0.03125 12.1764V19.4994C0.03125 20.5358 0.873954 21.374 1.90593 21.374H4.65486C5.05593 21.374 5.42996 21.2479 5.7364 21.0315L6.79541 21.1577C6.95764 21.1803 9.84177 21.5453 12.8025 21.4867C13.3388 21.5273 13.8435 21.5498 14.3122 21.5498C15.1188 21.5498 15.8218 21.4867 16.4076 21.3605C17.7866 21.0676 18.7285 20.4818 19.2061 19.621C19.5712 18.9631 19.5712 18.3097 19.5126 17.8951C20.4094 17.0839 20.5671 16.1871 20.5355 15.5562C20.5175 15.1912 20.4364 14.8803 20.3508 14.6504ZM1.90593 20.1573C1.54091 20.1573 1.24799 19.8599 1.24799 19.4994V12.1719C1.24799 11.8069 1.54541 11.5139 1.90593 11.5139H4.65486C5.01988 11.5139 5.3128 11.8114 5.3128 12.1719V19.4949C5.3128 19.8599 5.01537 20.1528 4.65486 20.1528H1.90593V20.1573ZM19.116 14.8577C18.9718 14.6234 19.0079 14.3215 19.1971 14.1232C19.5892 13.7176 19.7785 13.3075 19.7604 12.9064C19.7383 12.317 19.2803 11.8758 19.2608 11.857L19.2602 11.8564C19.0349 11.6536 18.9853 11.3247 19.1521 11.0723C19.2106 10.9777 19.7289 10.0944 18.9988 9.42747C18.1381 8.64335 15.6596 8.82811 14.2761 9.13004C14.2671 9.13229 14.257 9.13455 14.2468 9.1368C14.2367 9.13905 14.2265 9.14131 14.2175 9.14356C13.9697 9.18412 13.7083 9.2382 13.4334 9.30129C13.145 9.40494 12.7484 9.39142 12.451 9.12554C11.8516 8.59378 11.9147 7.38605 12.6718 5.09227C13.1675 3.58712 13.1855 2.4515 12.7259 1.81609C12.3383 1.27983 11.6939 1.21223 11.4551 1.20773C11.3469 1.39249 11.3199 2.00987 11.3965 2.51459C11.4145 2.61824 11.4055 2.72189 11.3694 2.81652C11.2838 3.05086 9.3055 8.46309 7.28211 10.0674C6.75035 10.6397 6.52503 11.3112 6.44391 11.6131C6.49799 11.7888 6.52953 11.9781 6.52953 12.1719V19.4994C6.52953 19.6346 6.51601 19.7697 6.48898 19.8959L6.94413 19.95H6.94863C6.98018 19.9545 9.90936 20.333 12.807 20.27H12.8701C14.231 20.3781 15.3396 20.3466 16.1553 20.1708C17.1737 19.9545 17.8452 19.567 18.1471 19.0262C18.447 18.4907 18.2867 17.9267 18.2701 17.8684C18.2693 17.8654 18.2688 17.8637 18.2688 17.8635C18.1787 17.6112 18.2643 17.3318 18.4761 17.1695C19.0709 16.7234 19.3549 16.2006 19.3233 15.6103C19.303 15.2197 19.1504 14.9246 19.1209 14.8677C19.1178 14.8615 19.116 14.8582 19.116 14.8577Z" fill="#F734C0"/>
</g>
</svg>
