<svg width="56" height="56" viewBox="0 0 56 56" fill="none" xmlns="http://www.w3.org/2000/svg">
<path fill-rule="evenodd" clip-rule="evenodd" d="M8.42269 42.6743C6.93429 40.6467 5.75509 38.3772 4.95629 35.9358C4.18519 33.5799 3.76799 31.0636 3.76799 28.4506C3.76799 23.3446 5.35909 18.6096 8.07239 14.715C10.8631 10.7091 14.8415 7.59164 19.4971 5.87324L19.5762 6.08894C14.9654 7.79094 11.025 10.8784 8.26089 14.846C5.57389 18.7031 3.99809 23.3927 3.99809 28.4506C3.99809 31.0398 4.41119 33.532 5.17449 35.8649C5.96569 38.2826 7.13359 40.5304 8.60809 42.5385L8.42269 42.6743ZM23.4671 4.78674C24.1791 4.65634 24.9028 4.55684 25.6359 4.49054C26.361 4.42474 27.0923 4.39104 27.8279 4.39104C34.4714 4.39104 40.4868 7.08424 44.8406 11.4379C49.1943 15.7916 51.8875 21.8068 51.8875 28.4506C51.8875 31.167 51.4368 33.7789 50.606 36.2153C49.7451 38.7409 48.4749 41.0781 46.8761 43.1474L46.6944 43.0074C48.2781 40.9579 49.5356 38.6431 50.3885 36.1416C51.2112 33.7296 51.6576 31.1424 51.6576 28.4506C51.6576 21.8703 48.9902 15.9127 44.6779 11.6006C40.3658 7.28834 34.4082 4.62124 27.8279 4.62124C27.0926 4.62124 26.3683 4.65434 25.6565 4.71874C24.9309 4.78444 24.2143 4.88284 23.5084 5.01214L23.4671 4.78674ZM12.4502 42.1564C10.7959 40.3017 9.47159 38.1457 8.57069 35.7813C7.70299 33.5039 7.22739 31.0324 7.22739 28.4506C7.22739 23.8389 8.74329 19.5816 11.3033 16.1488C13.9265 12.6316 17.6473 9.98014 21.9582 8.70084L22.0228 8.92074C17.7609 10.1856 14.0821 12.8076 11.4876 16.2863C8.95619 19.6805 7.45759 23.8905 7.45759 28.4506C7.45759 31.0043 7.92749 33.4478 8.78559 35.6996C9.67619 38.0377 10.9858 40.1696 12.6217 42.0036L12.4502 42.1564ZM44.7292 16.6732C45.9152 18.372 46.852 20.2571 47.4859 22.2756C48.0979 24.2253 48.4281 26.2997 48.4281 28.4506C48.4281 31.1061 47.9252 33.6445 47.0096 35.9755C46.0586 38.3962 44.6626 40.5937 42.9227 42.4668L42.7546 42.3106C44.4749 40.4584 45.8557 38.2857 46.7956 35.8921C47.7007 33.5875 48.1982 31.0772 48.1982 28.4506C48.1982 26.3226 47.8717 24.2712 47.2665 22.3439C46.6394 20.3472 45.7134 18.4829 44.5415 16.8042L44.7292 16.6732ZM21.3932 44.3413C18.2077 43.0502 15.498 40.8289 13.6016 38.0147C11.7614 35.2829 10.6868 31.9922 10.6868 28.4506C10.6868 24.1845 12.2461 20.282 14.8254 17.2821C17.4417 14.2394 21.1078 12.125 25.2614 11.5014L25.2954 11.7285C21.1976 12.3439 17.5806 14.4296 14.9997 17.4312C12.455 20.3906 10.917 24.2409 10.917 28.4506C10.917 31.9449 11.9768 35.1914 13.7921 37.8863C15.6633 40.6631 18.3366 42.8546 21.4794 44.1285L21.3932 44.3413ZM44.404 24.0756C44.5894 24.7797 44.7314 25.5029 44.8267 26.2418C44.9202 26.9672 44.9687 27.7045 44.9687 28.4506C44.9687 31.4644 44.1903 34.2971 42.8234 36.7584C41.4067 39.3098 39.3572 41.4619 36.8877 43.0028L36.7664 42.8078C39.2033 41.2873 41.2256 39.1641 42.623 36.647C43.9709 34.22 44.7388 31.4253 44.7388 28.4506C44.7388 27.7096 44.6912 26.982 44.5996 26.2708C44.5058 25.5442 44.3655 24.8308 44.1821 24.134L44.404 24.0756ZM23.1788 41.321C20.5083 40.3561 18.2238 38.5839 16.6211 36.3C15.0618 34.0779 14.1465 31.3711 14.1465 28.4506C14.1465 24.6726 15.6777 21.2523 18.1535 18.7765C20.6293 16.3007 24.0496 14.7692 27.8279 14.7692C27.9163 14.7692 28.017 14.7709 28.1281 14.7734C28.2307 14.7757 28.3302 14.7794 28.4263 14.7834L28.4166 15.0124C28.3163 15.0081 28.2179 15.0047 28.1233 15.0025C28.0362 15.0005 27.9381 14.9994 27.8279 14.9994C24.1134 14.9994 20.7503 16.5048 18.3162 18.9392C15.8821 21.3731 14.3764 24.7364 14.3764 28.4506C14.3764 31.3227 15.2761 33.9838 16.8088 36.1679C18.3851 38.4144 20.631 40.1568 23.2562 41.1053L23.1788 41.321ZM41.5059 28.6898C41.4571 31.5248 40.5464 34.1497 39.0244 36.3128C37.4611 38.5354 35.2521 40.2714 32.6709 41.249L32.5898 41.0342C35.1277 40.0732 37.2996 38.3662 38.8368 36.1807C40.3332 34.0538 41.229 31.4729 41.2769 28.6862L41.5059 28.6898ZM7.12649 46.5799C4.96479 44.1137 3.23619 41.2581 2.06099 38.1323C0.928194 35.1205 0.308594 31.8576 0.308594 28.4506C0.308594 20.8518 3.38899 13.9715 8.36889 8.99164C13.3488 4.01204 20.2288 0.931641 27.8279 0.931641C35.427 0.931641 42.307 4.01204 47.2869 8.99164C52.2665 13.9715 55.3469 20.8515 55.3469 28.4506C55.3469 31.9925 54.6774 35.3782 53.4579 38.4881C52.1919 41.717 50.333 44.6492 48.0154 47.1499L47.8473 46.9934C50.1453 44.5143 51.9887 41.6068 53.2442 38.4045C54.4529 35.3212 55.117 31.9636 55.117 28.4506C55.117 20.915 52.0624 14.0926 47.1242 9.15434C42.1859 4.21614 35.3635 1.16184 27.8279 1.16184C20.292 1.16184 13.4696 4.21614 8.53129 9.15434C3.59309 14.0926 0.538694 20.915 0.538694 28.4506C0.538694 31.8301 1.15299 35.0658 2.27579 38.0513C3.44169 41.1518 5.15549 43.9839 7.29879 46.4291L7.12649 46.5799Z" fill="#FEFEFE"/>
<path fill-rule="evenodd" clip-rule="evenodd" d="M25.8781 47.4753C25.9523 47.4291 26.036 47.3996 26.1009 47.3903C26.1102 47.3903 26.1193 47.3903 26.1286 47.3903C26.138 47.3903 26.138 47.3809 26.138 47.3809C26.4257 47.3625 26.6295 47.5774 26.6295 47.828C26.6295 48.3288 26.2213 48.6367 25.3956 48.5624C25.4327 48.1063 25.5719 47.661 25.8781 47.4753ZM45.6557 49.3159C45.6435 48.1528 45.629 46.9934 45.629 45.8327C45.629 44.9553 45.0879 44.4142 44.3319 44.4142C43.8092 44.4142 43.3035 44.7782 43.2029 45.0769C43.1323 45.2853 43.6754 45.2079 43.7051 45.8859C43.7051 46.4132 43.7051 46.8698 43.7051 47.3974C43.416 46.9067 42.9588 46.5651 42.3148 46.5651C41.0828 46.5651 40.4391 47.8064 40.4391 49.006C40.4391 50.1796 41.0922 51.3968 42.2683 51.3968C43.0214 51.3968 43.4344 50.931 43.7426 50.3329C43.8732 50.9954 44.3679 51.3968 45.0116 51.3968C45.5343 51.3968 46.0383 51.0328 46.1316 50.7343C46.2249 50.4823 45.6707 50.7995 45.6557 49.3159ZM15.4959 45.9596C15.3632 45.0914 14.9086 45.2918 14.9811 45.0769C15.0401 44.902 15.2377 44.705 15.4962 44.5715C15.5001 44.531 15.5424 44.531 15.5424 44.531L15.5806 44.5313C15.7436 44.4595 15.9259 44.4142 16.1102 44.4142C16.7341 44.4142 17.2114 44.7827 17.3594 45.4043C17.409 45.558 17.4345 45.7346 17.4351 45.9372L17.4444 49.3371C17.4484 50.8123 18.0766 50.4973 17.9918 50.7474C17.8912 51.0447 17.3146 51.4061 16.795 51.4061C16.0435 51.4061 15.4959 50.8681 15.4959 49.9959V45.9596ZM43.7613 48.849C43.7613 49.3156 43.6771 50.1884 43.0614 50.1884C42.6039 50.1884 42.3519 49.6631 42.3519 49.006C42.3519 48.3495 42.6039 47.7475 43.0614 47.7475C43.6442 47.7475 43.7613 48.4944 43.7613 48.849ZM41.4267 44.4428C40.0621 44.5639 39.6043 46.342 39.4744 46.9401C39.3809 46.6635 38.9948 46.3015 38.3695 46.3015C37.8471 46.3015 37.3431 46.6655 37.2405 46.9642C37.1563 47.216 37.7909 46.8988 37.7909 48.3841C37.7909 49.0296 37.7898 51.1541 37.7898 51.1541C37.7898 51.2009 37.8272 51.2009 37.8272 51.2009H39.7029C39.7029 51.2009 39.7403 51.2009 39.7403 51.1541C39.7403 51.1541 39.6292 50.1345 39.6666 49.078C39.725 47.4402 40.1981 46.3293 40.5122 45.8675C40.6517 45.6623 40.8841 45.5795 40.8841 45.9123C40.8841 46.1005 40.8509 46.164 40.9028 46.2499C40.9343 46.3018 41.1455 46.435 41.3694 46.435C42.0041 46.435 42.5319 46.0787 42.548 45.3046C42.5602 44.7308 42.0109 44.3912 41.4267 44.4428ZM28.2813 49.7609C28.2441 49.7331 28.1977 49.7425 28.1605 49.7703C27.0286 50.4027 25.7947 50.31 25.4699 49.3805C26.6854 49.5846 28.3833 49.4083 28.3833 47.9487C28.3833 47.2882 27.7246 46.331 26.2029 46.331C24.607 46.331 23.5588 47.5031 23.5588 48.8592C23.5588 50.2618 24.6813 51.3971 26.0822 51.3971C27.4368 51.3971 28.207 50.2989 28.3091 49.9094C28.3368 49.8258 28.3184 49.7887 28.2813 49.7609ZM23.0205 49.3371C23.0205 48.6971 23.0947 46.5816 23.0947 46.5816C23.0947 46.5444 23.0576 46.5351 23.0576 46.5351H21.1927C21.1927 46.5351 21.1555 46.5444 21.1555 46.5909C21.1555 46.5909 21.1555 48.0845 21.1555 49.1424C21.1187 50.1816 20.2836 50.4784 20.2836 49.569C20.2836 48.9289 20.2836 48.0845 20.2836 47.7693C20.2836 46.8971 19.662 46.3588 18.9102 46.3588C18.3906 46.3588 17.8897 46.7207 17.7877 47.0175C17.7041 47.2681 18.4093 46.9526 18.4093 48.4281C18.4093 49.1237 18.4093 49.4857 18.4093 49.8751C18.4093 50.8032 18.9938 51.4061 19.6804 51.4061C20.1722 51.4061 20.7938 51.1278 21.1833 50.3392C21.3134 51.0073 21.8052 51.4061 22.4453 51.4061C22.9649 51.4061 23.4658 51.0444 23.5678 50.7474C23.6514 50.4971 23.0205 50.8123 23.0205 49.3371ZM12.3415 50.2927C11.7476 50.2927 11.5623 49.8289 11.5435 49.3743C11.5435 49.133 11.5435 48.4927 11.5435 48.1775C12.4064 48.0105 13.1488 48.4558 13.1488 49.3C13.1488 49.9032 12.8517 50.2927 12.3415 50.2927ZM12.7403 46.1827C12.7403 46.6743 12.4158 47.1567 11.5435 47.1567C11.5435 46.6836 11.5435 45.8114 11.5435 45.4032C11.9982 45.2918 12.7403 45.3476 12.7403 46.1827ZM33.1586 47.3653C33.5132 47.2256 33.9333 46.647 33.9333 46.003C33.9333 44.6778 32.4868 44.3232 31.3016 44.3232C29.7989 44.3232 28.8006 44.6126 28.8006 44.6126C28.7912 44.6126 28.7538 44.622 28.7538 44.6685C28.7538 44.6591 28.7538 47.8319 28.7538 48.6905C28.7538 49.8664 29.3791 51.4061 31.4697 51.4061C32.972 51.4061 34.3999 50.753 34.3999 49.1104C34.3999 48.4572 33.9985 47.7106 33.1682 47.4215C33.1308 47.4121 33.1308 47.3841 33.1586 47.3653ZM36.94 51.1448C36.94 51.1448 36.94 49.1835 36.94 48.4558C36.94 47.5785 36.3989 47.0374 35.6429 47.0374C35.1201 47.0374 34.6144 47.4011 34.5135 47.6998C34.4288 47.951 35.064 47.6349 35.064 49.1189C35.064 49.7626 34.9895 51.1541 34.9895 51.1541C34.9895 51.1915 35.0362 51.2009 35.0362 51.2009H36.9026C36.9026 51.2009 36.94 51.1915 36.94 51.1448ZM36.8748 45.9171C36.8748 45.4412 36.3799 45.0494 35.7826 45.0494C35.1856 45.0494 34.7003 45.4412 34.7003 45.9171C34.7003 46.4027 35.1856 46.7851 35.7826 46.7851C36.3799 46.7851 36.8748 46.4027 36.8748 45.9171ZM32.0015 46.1524C32.0015 46.647 31.6749 47.1323 30.7976 47.1323C30.7976 46.6561 30.7976 45.7791 30.7976 45.3683C31.2548 45.2564 32.0015 45.3122 32.0015 46.1524ZM31.6004 50.2864C31.0028 50.2864 30.8163 49.8199 30.7976 49.3624C30.7976 49.12 30.7976 48.476 30.7976 48.1588C31.6656 47.9907 32.4122 48.4388 32.4122 49.2878C32.4122 49.8944 32.1134 50.2864 31.6004 50.2864ZM13.8909 47.3889C14.2435 47.2497 14.6611 46.6743 14.6611 46.0342C14.6611 44.7167 13.2231 44.364 12.0447 44.364C10.5509 44.364 9.55822 44.6517 9.55822 44.6517C9.54882 44.6517 9.51172 44.6611 9.51172 44.7073C9.51172 44.6979 9.51172 47.8526 9.51172 48.7064C9.51172 49.8751 10.1333 51.4061 12.2117 51.4061C13.7052 51.4061 15.1248 50.7567 15.1248 49.1237C15.1248 48.4743 14.726 47.7321 13.9003 47.4444C13.8631 47.4351 13.8631 47.4073 13.8909 47.3889Z" fill="#FEFEFE"/>
<path fill-rule="evenodd" clip-rule="evenodd" d="M15.7844 54.4498V55.3373H15.457V53.4401H15.7844V54.2834H15.7926L16.4193 53.4401H16.7745L16.0809 54.3525L16.7745 55.3373H16.389L15.7926 54.4469L15.7844 54.4498ZM18.5068 55.3373C18.483 55.254 18.4603 55.1712 18.439 55.089C18.4175 55.0068 18.3951 54.924 18.371 54.8407H17.8522L17.7275 55.3373H17.3862L17.9245 53.4401H18.299C18.3894 53.7581 18.4801 54.0745 18.5705 54.3888C18.6613 54.7029 18.7528 55.0193 18.8452 55.3373H18.5068ZM18.102 53.7729C18.0889 53.8358 18.0759 53.8973 18.0631 53.9574C18.0501 54.0175 18.0362 54.0779 18.0215 54.1391C18.0031 54.2131 17.9849 54.2862 17.9673 54.3582C17.9498 54.4302 17.9328 54.5033 17.916 54.5773H18.3072L18.1989 54.1391C18.1842 54.0779 18.17 54.0169 18.1561 53.956C18.1422 53.895 18.1289 53.8338 18.1159 53.7729H18.102ZM20.4474 55.3373L20.1424 54.5467H19.9037V55.3373H19.5819V53.4429H20.1064C20.1837 53.4429 20.2597 53.4508 20.3337 53.4664C20.4074 53.482 20.4729 53.5098 20.529 53.5498C20.5854 53.5895 20.6308 53.643 20.6651 53.7105C20.6994 53.778 20.7164 53.8636 20.7164 53.967C20.7164 54.1224 20.6812 54.2454 20.6109 54.3358C20.5406 54.4265 20.4465 54.4875 20.328 54.5189L20.5055 54.6522L20.7884 55.3373H20.4474ZM20.3893 53.9755C20.3893 53.92 20.3802 53.8746 20.3629 53.8395C20.3453 53.8043 20.3215 53.7765 20.292 53.7561C20.2625 53.736 20.2285 53.7221 20.1908 53.7147C20.1528 53.7074 20.1146 53.7037 20.0757 53.7037H19.9037V54.2862H20.0868C20.1866 54.2862 20.262 54.2616 20.3127 54.2125C20.3637 54.1635 20.3893 54.0844 20.3893 53.9755ZM22.543 55.3373C22.5192 55.254 22.4965 55.1712 22.4753 55.089C22.454 55.0068 22.4313 54.924 22.4072 54.8407H21.8885L21.7638 55.3373H21.4225L21.9608 53.4401H22.3352C22.4257 53.7581 22.5164 54.0745 22.6068 54.3888C22.6975 54.7029 22.7891 55.0193 22.8815 55.3373H22.543ZM22.1382 53.7729C22.1252 53.8358 22.1122 53.8973 22.0994 53.9574C22.0864 54.0175 22.0725 54.0779 22.0577 54.1391C22.0393 54.2131 22.0212 54.2862 22.0036 54.3582C21.986 54.4302 21.969 54.5033 21.9523 54.5773H22.3435L22.2352 54.1391C22.2204 54.0779 22.2063 54.0169 22.1924 53.956C22.1785 53.895 22.1649 53.8338 22.1521 53.7729H22.1382ZM24.2617 55.3761C24.1341 55.3761 24.027 55.352 23.9399 55.3039C23.8532 55.2559 23.7832 55.1879 23.7307 55.1C23.6777 55.0122 23.6403 54.9079 23.6182 54.7868C23.5961 54.6655 23.585 54.5311 23.585 54.3832C23.585 54.2352 23.5969 54.1005 23.621 53.9795C23.6451 53.8585 23.684 53.755 23.7375 53.6688C23.7911 53.5829 23.8608 53.5163 23.947 53.4693C24.0329 53.4219 24.1378 53.3984 24.2617 53.3984C24.3855 53.3984 24.4904 53.4216 24.5766 53.4679C24.6625 53.5141 24.7319 53.5801 24.7847 53.666C24.8371 53.7522 24.8756 53.8556 24.8997 53.9767C24.9236 54.098 24.9357 54.2332 24.9357 54.3832C24.9357 54.5311 24.9247 54.6655 24.9023 54.7868C24.8802 54.9079 24.8433 55.0122 24.7915 55.1C24.7396 55.1879 24.6704 55.2559 24.5834 55.3039C24.4967 55.352 24.3892 55.3761 24.2617 55.3761ZM24.2617 53.6677C24.1914 53.6677 24.135 53.685 24.0924 53.7201C24.0499 53.7553 24.017 53.8049 23.9941 53.8687C23.9708 53.9325 23.9558 54.0079 23.9482 54.0946C23.9408 54.1816 23.9371 54.2777 23.9371 54.3832C23.9371 54.494 23.9413 54.5941 23.9496 54.6825C23.9581 54.7715 23.9737 54.8472 23.9969 54.9101C24.0199 54.973 24.0528 55.0215 24.0953 55.0555C24.1378 55.0898 24.1933 55.1068 24.2617 55.1068C24.3283 55.1068 24.3827 55.0898 24.4255 55.0555C24.4677 55.0215 24.5006 54.9725 24.5239 54.9087C24.5468 54.8449 24.5627 54.7687 24.5709 54.6799C24.5794 54.5912 24.5834 54.4923 24.5834 54.3832C24.5834 54.2794 24.5797 54.1839 24.5723 54.096C24.565 54.0081 24.5497 53.9325 24.5267 53.8687C24.5035 53.8049 24.4706 53.7553 24.4281 53.7201C24.3855 53.685 24.3303 53.6677 24.2617 53.6677ZM26.0719 54.4498V55.3373H25.7445V53.4401H26.0719V54.2834H26.0801L26.7071 53.4401H27.062L26.3687 54.3525L27.062 55.3373H26.6765L26.0801 54.4469L26.0719 54.4498ZM27.7959 53.4372H28.8444V53.7062H28.1205V54.2111H28.7585V54.4801H28.1205V55.0683H28.8444V55.3373H27.7959V53.4372ZM31.2397 55.3373L30.9347 54.5467H30.696V55.3373H30.3743V53.4429H30.8987C30.9764 53.4429 31.0521 53.4508 31.126 53.4664C31.2 53.482 31.2652 53.5098 31.3216 53.5498C31.378 53.5895 31.4234 53.643 31.4574 53.7105C31.4917 53.778 31.5087 53.8636 31.5087 53.967C31.5087 54.1224 31.4736 54.2454 31.4033 54.3358C31.3333 54.4265 31.2389 54.4875 31.1204 54.5189L31.2981 54.6522L31.581 55.3373H31.2397ZM31.1816 53.9755C31.1816 53.92 31.1728 53.8746 31.1552 53.8395C31.1377 53.8043 31.1141 53.7765 31.0844 53.7561C31.0549 53.736 31.0212 53.7221 30.9832 53.7147C30.9452 53.7074 30.9069 53.7037 30.8681 53.7037H30.696V54.2862H30.8791C30.9789 54.2862 31.0543 54.2616 31.1053 54.2125C31.1561 54.1635 31.1816 54.0844 31.1816 53.9755ZM32.9666 55.3761C32.839 55.3761 32.7319 55.352 32.6448 55.3039C32.5581 55.2559 32.4881 55.1879 32.4356 55.1C32.3829 55.0122 32.3455 54.9079 32.3231 54.7868C32.301 54.6655 32.2899 54.5311 32.2899 54.3832C32.2899 54.2352 32.3019 54.1005 32.3259 53.9795C32.35 53.8585 32.3889 53.755 32.4425 53.6688C32.496 53.5829 32.5658 53.5163 32.6519 53.4693C32.7378 53.4219 32.8427 53.3984 32.9666 53.3984C33.0905 53.3984 33.1953 53.4216 33.2815 53.4679C33.3674 53.5141 33.4368 53.5801 33.4896 53.666C33.542 53.7522 33.5806 53.8556 33.6047 53.9767C33.6288 54.098 33.6407 54.2332 33.6407 54.3832C33.6407 54.5311 33.6296 54.6655 33.6075 54.7868C33.5851 54.9079 33.5482 55.0122 33.4964 55.1C33.4445 55.1879 33.3753 55.2559 33.2883 55.3039C33.2016 55.352 33.0941 55.3761 32.9666 55.3761ZM32.9666 53.6677C32.8963 53.6677 32.8399 53.685 32.7973 53.7201C32.7548 53.7553 32.7219 53.8049 32.699 53.8687C32.6757 53.9325 32.6607 54.0079 32.6533 54.0946C32.646 54.1816 32.642 54.2777 32.642 54.3832C32.642 54.494 32.6463 54.5941 32.6545 54.6825C32.663 54.7715 32.6786 54.8472 32.7018 54.9101C32.7248 54.973 32.7577 55.0215 32.8002 55.0555C32.8427 55.0898 32.8983 55.1068 32.9666 55.1068C33.0332 55.1068 33.0879 55.0898 33.1304 55.0555C33.1729 55.0215 33.2055 54.9725 33.2288 54.9087C33.2517 54.8449 33.2676 54.7687 33.2758 54.6799C33.2843 54.5912 33.2883 54.4923 33.2883 54.3832C33.2883 54.2794 33.2846 54.1839 33.2773 54.096C33.2699 54.0081 33.2546 53.9325 33.2316 53.8687C33.2084 53.8049 33.1755 53.7553 33.133 53.7201C33.0905 53.685 33.0352 53.6677 32.9666 53.6677ZM35.0792 55.3761C34.9517 55.3761 34.8442 55.352 34.7575 55.3039C34.6705 55.2559 34.6008 55.1879 34.548 55.1C34.4953 55.0122 34.4579 54.9079 34.4358 54.7868C34.4134 54.6655 34.4023 54.5311 34.4023 54.3832C34.4023 54.2352 34.4145 54.1005 34.4383 53.9795C34.4624 53.8585 34.5013 53.755 34.5548 53.6688C34.6087 53.5829 34.6784 53.5163 34.7643 53.4693C34.8502 53.4219 34.9554 53.3984 35.0792 53.3984C35.2031 53.3984 35.308 53.4216 35.3939 53.4679C35.4798 53.5141 35.5492 53.5801 35.6019 53.666C35.6547 53.7522 35.6929 53.8556 35.717 53.9767C35.7411 54.098 35.753 54.2332 35.753 54.3832C35.753 54.5311 35.742 54.6655 35.7199 54.7868C35.6978 54.9079 35.6606 55.0122 35.6088 55.1C35.5572 55.1879 35.4877 55.2559 35.401 55.3039C35.3139 55.352 35.2068 55.3761 35.0792 55.3761ZM35.0792 53.6677C35.0089 53.6677 34.9525 53.685 34.91 53.7201C34.8675 53.7553 34.8346 53.8049 34.8114 53.8687C34.7884 53.9325 34.7731 54.0079 34.7657 54.0946C34.7584 54.1816 34.7547 54.2777 34.7547 54.3832C34.7547 54.494 34.7589 54.5941 34.7671 54.6825C34.7754 54.7715 34.7912 54.8472 34.8142 54.9101C34.8374 54.973 34.87 55.0215 34.9128 55.0555C34.9554 55.0898 35.0106 55.1068 35.0792 55.1068C35.1456 55.1068 35.2003 55.0898 35.2428 55.0555C35.2853 55.0215 35.3182 54.9725 35.3412 54.9087C35.3644 54.8449 35.38 54.7687 35.3885 54.6799C35.3967 54.5912 35.401 54.4923 35.401 54.3832C35.401 54.2794 35.3973 54.1839 35.3896 54.096C35.3823 54.0081 35.367 53.9325 35.344 53.8687C35.3208 53.8049 35.2882 53.7553 35.2456 53.7201C35.2031 53.685 35.1476 53.6677 35.0792 53.6677ZM37.3733 54.4747L37.4788 54.2222L37.7792 53.4401H38.1679V55.3373H37.8572V53.9531H37.8433L37.7628 54.1584L37.4745 54.8906H37.2611L36.9668 54.153L36.8892 53.9503H36.8781V55.3373H36.5674V53.4401H36.9595L37.265 54.225L37.3648 54.4747H37.3733ZM39.5177 55.3733C39.4769 55.3733 39.4335 55.371 39.3873 55.3662C39.3411 55.3617 39.2958 55.3557 39.2516 55.3478C39.2071 55.3404 39.1645 55.3311 39.1237 55.32C39.0832 55.309 39.048 55.2956 39.0183 55.2809L39.1044 55.0323C39.1433 55.047 39.1824 55.0589 39.2224 55.0683C39.262 55.0774 39.3 55.0847 39.336 55.0904C39.372 55.0958 39.4049 55.0995 39.4344 55.1015C39.4639 55.1034 39.4871 55.1043 39.5038 55.1043C39.611 55.1043 39.696 55.083 39.759 55.0405C39.8219 54.998 39.8533 54.9226 39.8533 54.8135C39.8533 54.7579 39.8463 54.7131 39.8324 54.6791C39.8185 54.6451 39.7984 54.6162 39.7714 54.5921C39.7445 54.568 39.7108 54.5481 39.6702 54.5325C39.6294 54.5167 39.5824 54.4997 39.5288 54.4812C39.4474 54.4535 39.3737 54.426 39.3082 54.3993C39.2425 54.373 39.1866 54.3398 39.1404 54.2998C39.0942 54.2601 39.0582 54.2108 39.0324 54.1516C39.0064 54.0929 38.9933 54.0169 38.9933 53.9245C38.9933 53.8264 39.012 53.7448 39.0489 53.6782C39.086 53.6116 39.1348 53.5574 39.196 53.5163C39.2569 53.4747 39.3258 53.4452 39.4026 53.4276C39.4792 53.41 39.5583 53.4012 39.6396 53.4012C39.6748 53.4012 39.7122 53.4035 39.7519 53.4083C39.7918 53.4129 39.8321 53.4194 39.8726 53.4276C39.9134 53.4358 39.9523 53.4457 39.9891 53.4568C40.0263 53.4679 40.0586 53.4809 40.0861 53.4956L40.0112 53.7312C39.9633 53.7111 39.9146 53.6966 39.8658 53.6884C39.8168 53.6799 39.7714 53.6745 39.7298 53.6717C39.6881 53.6688 39.6535 53.668 39.6257 53.6688C39.5979 53.67 39.5815 53.6702 39.5758 53.6702C39.5554 53.6702 39.5316 53.6736 39.5038 53.6799C39.4761 53.6864 39.4497 53.698 39.4248 53.7147C39.3998 53.7312 39.378 53.7544 39.3596 53.7839C39.3411 53.8137 39.3318 53.8505 39.3318 53.895C39.3318 53.9412 39.3374 53.9795 39.3485 54.0101C39.3596 54.0407 39.3771 54.0665 39.4012 54.0878C39.425 54.109 39.4562 54.128 39.4939 54.1445C39.5319 54.1612 39.5778 54.1779 39.6314 54.1947C39.7221 54.2241 39.8023 54.2547 39.8726 54.2862C39.9429 54.3174 40.0022 54.3562 40.0501 54.4024C40.0983 54.4486 40.1348 54.5042 40.1598 54.5688C40.1847 54.6337 40.1972 54.714 40.1972 54.8103C40.1972 54.9118 40.1796 54.9983 40.1445 55.0694C40.1093 55.1409 40.0611 55.199 40.0002 55.2443C39.9392 55.2897 39.8675 55.3226 39.7853 55.3427C39.7031 55.3631 39.6138 55.3733 39.5177 55.3733Z" fill="#FEFEFE"/>
<path fill-rule="evenodd" clip-rule="evenodd" d="M23.9914 23.2619C23.217 22.964 22.3014 23.0408 21.5154 23.3832L19.3778 21.232C19.35 21.2042 19.3046 21.2039 19.2766 21.232C19.2527 21.2555 19.2491 21.2924 19.2658 21.3202C19.3602 21.4741 19.4996 21.6717 19.6572 21.8953C20.2525 22.7398 21.1174 23.9669 20.7676 24.523C20.4033 25.1022 18.9197 24.8547 17.9057 24.6857C17.6361 24.6407 17.3986 24.6013 17.2189 24.5837C17.1798 24.58 17.1446 24.6089 17.1409 24.6483C17.1378 24.6818 17.1588 24.7124 17.1894 24.7229L19.6986 25.5789C21.2169 26.7108 19.8883 30.088 21.9165 33.7008C23.3516 36.2573 25.953 38.6248 30.6092 38.3178L28.8217 40.075C28.3741 40.5153 27.5716 40.9521 26.7002 40.9521H25.3166C24.6074 40.9521 24.2463 41.7364 24.9575 41.7364H30.8756C31.5869 41.7364 31.2977 40.9521 30.5882 40.9521H29.8254C29.5723 40.9521 29.2826 40.7228 29.6349 40.3528L32.1059 37.7586C40.2824 34.0888 36.7964 19.6282 33.3812 16.5605C38.4226 17.4781 41.2686 21.2252 40.3366 27.3775C40.0369 29.3547 47.6944 19.8232 40.8006 13.1119C36.2929 8.72333 30.0462 9.93453 21.9457 5.65193C20.8708 5.08363 20.6726 6.04573 21.1732 6.42503C26.08 10.1429 33.8583 16.6379 33.327 23.4685C33.1714 25.4741 31.6484 26.7528 30.4326 26.6292C27.5636 26.3378 26.1693 24.0998 23.9914 23.2619ZM22.3947 23.953C22.0656 23.953 21.7985 24.22 21.7985 24.5494C21.7985 24.8785 22.0656 25.1455 22.3947 25.1455C22.7241 25.1455 22.9911 24.8785 22.9911 24.5494C22.9911 24.22 22.7241 23.953 22.3947 23.953Z" fill="#FEFEFE"/>
<path fill-rule="evenodd" clip-rule="evenodd" d="M33.3814 16.5604C38.4228 17.478 41.2688 21.2251 40.3368 27.3774C40.3277 27.437 40.3263 27.4854 40.3311 27.5243L40.3779 27.389C42.6969 20.538 39.8849 14.8874 35.4858 11.9791C31.2735 9.19459 25.6057 8.96469 21.5935 5.50899C20.8333 5.30829 20.7335 6.09149 21.1734 6.42489C24.3258 8.81359 28.664 12.3487 31.2217 16.3827L33.3814 16.5604Z" fill="#FEFEFE"/>
<path fill-rule="evenodd" clip-rule="evenodd" d="M23.9914 23.2616C23.217 22.9637 22.3014 23.0405 21.5154 23.3829L19.3778 21.232C19.35 21.2039 19.3046 21.2036 19.2766 21.2317C19.2525 21.2555 19.2491 21.2921 19.2658 21.3199C19.3605 21.4738 19.4996 21.6714 19.6572 21.895C20.2525 22.7395 21.1174 23.9666 20.7676 24.5227C20.4033 25.1019 18.9197 24.8544 17.9057 24.6854C17.6361 24.6404 17.3986 24.601 17.2189 24.5834C17.1798 24.5797 17.1446 24.6086 17.1409 24.648C17.1378 24.6815 17.1588 24.7121 17.1894 24.7226L19.6986 25.5786C21.2169 26.7105 19.8883 30.0877 21.9165 33.7005C23.3516 36.257 25.953 38.6245 30.6092 38.3175L28.8217 40.0747C28.3741 40.515 27.5716 40.9518 26.7002 40.9518H25.3169C24.6074 40.9518 24.2463 41.7361 24.9575 41.7361H30.8756C31.5869 41.7361 31.2977 40.9518 30.5882 40.9518H29.8254C29.5723 40.9518 29.2823 40.7225 29.6349 40.3525L32.1059 37.7583C40.2317 34.1115 36.8395 19.8099 33.4452 16.6209C32.7114 16.4636 31.9488 16.3612 31.1767 16.3125C32.6263 18.5773 33.5189 21.001 33.327 23.4682C33.1714 25.4738 31.6487 26.7525 30.4326 26.6289C27.5636 26.3375 26.1693 24.0995 23.9914 23.2616ZM40.4806 26.067C40.4522 26.4908 40.4046 26.9276 40.3366 27.3772C40.3142 27.5249 40.3368 27.6071 40.3938 27.6323C40.4468 27.0904 40.476 26.5662 40.4806 26.067ZM22.3947 23.9527C22.0656 23.9527 21.7985 24.2197 21.7985 24.5491C21.7985 24.8782 22.0656 25.1452 22.3947 25.1452C22.7241 25.1452 22.9911 24.8782 22.9911 24.5491C22.9911 24.2197 22.7241 23.9527 22.3947 23.9527Z" fill="#FEFEFE"/>
<path fill-rule="evenodd" clip-rule="evenodd" d="M23.9914 23.2618C23.217 22.9639 22.3014 23.0407 21.5154 23.3831L19.3778 21.2322C19.35 21.2041 19.3046 21.2038 19.2766 21.2319C19.2525 21.2557 19.2491 21.2923 19.2658 21.3201C19.3605 21.474 19.4996 21.6716 19.6572 21.8952C20.2525 22.7397 21.1174 23.9668 20.7676 24.5229C20.4033 25.1021 18.9197 24.8546 17.9057 24.6856C17.6361 24.6406 17.3986 24.6012 17.2189 24.5836C17.1798 24.5799 17.1446 24.6088 17.1409 24.6482C17.1378 24.6817 17.1588 24.7123 17.1894 24.7228L19.6986 25.5788C20.2369 25.9799 20.4172 26.6634 20.5161 27.5393C20.5317 27.6223 20.5462 27.7062 20.5541 27.7961C21.3073 36.6612 29.8991 36.4642 32.5971 28.4943C33.4101 26.093 33.5918 23.8392 33.2964 21.7991C33.3582 22.3524 33.3707 22.9095 33.327 23.4684C33.1714 25.474 31.6487 26.7527 30.4326 26.6291C27.5636 26.3377 26.1693 24.0997 23.9914 23.2618ZM22.3947 23.9529C22.0656 23.9529 21.7985 24.2199 21.7985 24.5493C21.7985 24.8784 22.0656 25.1454 22.3947 25.1454C22.7241 25.1454 22.9911 24.8784 22.9911 24.5493C22.9911 24.2199 22.7241 23.9529 22.3947 23.9529Z" fill="#FEFEFE"/>
<path fill-rule="evenodd" clip-rule="evenodd" d="M26.2228 37.6794C27.4312 38.1766 28.8777 38.432 30.608 38.3177L28.8205 40.0749C28.3729 40.5152 27.5704 40.952 26.699 40.952H25.3157C24.6062 40.952 24.2451 41.7363 24.9563 41.7363H30.8744C31.5857 41.7363 31.2965 40.952 30.587 40.952H29.8242C29.5711 40.952 29.2811 40.7227 29.6337 40.3527L32.1047 37.7585C40.2305 34.1117 36.8383 19.8101 33.444 16.6211C41.2566 33.4277 18.974 27.8199 26.2228 37.6794Z" fill="#FEFEFE"/>
<path fill-rule="evenodd" clip-rule="evenodd" d="M30.608 38.317L28.8205 40.0742C28.3729 40.5145 27.5704 40.9513 26.699 40.9513H25.3157C24.6062 40.9513 24.2451 41.7356 24.9563 41.7356H30.8744C31.5857 41.7356 31.2965 40.9513 30.587 40.9513H29.8242C29.5711 40.9513 29.2811 40.722 29.6337 40.352L32.1047 37.7578L30.608 38.317Z" fill="#FEFEFE"/>
<path fill-rule="evenodd" clip-rule="evenodd" d="M40.3297 27.5241C40.4836 28.7829 47.486 19.6208 40.7997 13.1116C36.2915 8.72299 30.045 9.93419 21.9445 5.65159C21.8141 5.58279 21.697 5.53659 21.5918 5.50879C25.6043 8.96479 31.2721 9.19439 35.4844 11.9789C39.8835 14.8872 42.6955 20.5378 40.3765 27.3888L40.3297 27.5241Z" fill="#FEFEFE"/>
<path fill-rule="evenodd" clip-rule="evenodd" d="M24.6289 36.801C26.0032 37.7761 27.7952 38.4034 30.1273 38.3396C31.0024 38.1472 31.8148 37.8742 32.5713 37.5281C34.0093 36.767 35.0516 35.6482 35.7728 34.3125C32.1164 37.0652 28.3984 37.7892 24.6289 36.801Z" fill="#FEFEFE"/>
<path fill-rule="evenodd" clip-rule="evenodd" d="M23.9914 23.2618C23.217 22.9639 22.3014 23.0407 21.5154 23.3831L19.3778 21.2322C19.35 21.2041 19.3046 21.2038 19.2766 21.2319C19.2525 21.2557 19.2491 21.2923 19.2658 21.3201C19.3605 21.474 19.4996 21.6716 19.6572 21.8952C20.2525 22.7397 21.1174 23.9668 20.7676 24.5229C20.4033 25.1021 18.9197 24.8546 17.9057 24.6856C17.6361 24.6406 17.3986 24.6012 17.2189 24.5836C17.1798 24.5799 17.1446 24.6088 17.1409 24.6482C17.1378 24.6817 17.1588 24.7123 17.1894 24.7228L19.6986 25.5788C20.2369 25.9799 20.4172 26.6634 20.5161 27.5393C20.5317 27.6223 20.5462 27.7062 20.5541 27.7961C21.0839 34.0335 25.5995 34.1383 29.0249 32.4959C32.596 30.7838 34.9822 27.1719 30.4326 26.6291C27.5693 26.2872 26.1693 24.0997 23.9914 23.2618ZM22.3947 23.9529C22.0656 23.9529 21.7985 24.2199 21.7985 24.5493C21.7985 24.8784 22.0656 25.1454 22.3947 25.1454C22.7241 25.1454 22.9911 24.8784 22.9911 24.5493C22.9911 24.2199 22.7241 23.9529 22.3947 23.9529Z" fill="#FEFEFE"/>
<path fill-rule="evenodd" clip-rule="evenodd" d="M19.6976 25.5783C20.2359 25.9794 20.4162 26.6629 20.5151 27.5388C21.338 32.373 23.877 30.8754 23.5394 29.4768C22.8044 26.431 19.5301 25.1957 19.6976 25.5783Z" fill="#FEFEFE"/>
<path fill-rule="evenodd" clip-rule="evenodd" d="M25.0622 25.7624C24.9771 24.19 21.3633 22.2117 21.3633 24.7422C21.3633 26.4181 25.0996 26.4529 25.0622 25.7624ZM22.3934 23.9525C22.0643 23.9525 21.7972 24.2195 21.7972 24.5489C21.7972 24.878 22.0643 25.145 22.3934 25.145C22.7228 25.145 22.9898 24.878 22.9898 24.5489C22.9898 24.2195 22.7228 23.9525 22.3934 23.9525Z" fill="#FEFEFE"/>
</svg>
