<svg width="23" height="32" viewBox="0 0 23 32" fill="none" xmlns="http://www.w3.org/2000/svg">
<g id="maps-and-flags (1)">
<path id="Shape" fill-rule="evenodd" clip-rule="evenodd" d="M0.0458984 11.4537C0.0458984 5.13814 5.18403 0 11.4997 0C17.8153 0 22.9534 5.13814 22.9535 11.4537C22.9535 19.2916 12.7035 30.798 12.2671 31.284C11.8579 31.7397 11.1422 31.7405 10.7323 31.284C10.2959 30.798 0.0458984 19.2916 0.0458984 11.4537ZM5.73706 11.4537C5.73706 14.6313 8.32213 17.2164 11.4997 17.2164C14.6772 17.2164 17.2623 14.6314 17.2623 11.4538C17.2623 8.27623 14.6772 5.6911 11.4997 5.6911C8.32219 5.6911 5.73706 8.27617 5.73706 11.4537Z" fill="#D31797"/>
</g>
</svg>
