<svg width="20" height="24" viewBox="0 0 20 24" fill="none" xmlns="http://www.w3.org/2000/svg">
<path fill-rule="evenodd" clip-rule="evenodd" d="M17.3025 0.122111C17.9104 -0.101788 18.5905 -0.0143571 19.1219 0.356193C19.6532 0.726744 19.9704 1.33463 19.9705 1.98239C19.9705 1.98239 19.9553 14.7216 19.9349 14.8649C19.8056 15.7701 19.3374 16.6656 18.6167 17.3863C17.896 18.1071 17.0005 18.5752 16.0953 18.7045C15.9253 18.7289 15.7583 18.7409 15.5955 18.7409C14.8364 18.7409 14.1648 18.4799 13.6692 17.9843C13.0672 17.3823 12.8114 16.5206 12.9489 15.5581C13.0782 14.6529 13.5464 13.7574 14.2671 13.0367C14.9878 12.316 15.8833 11.8478 16.7885 11.7185C17.5909 11.6039 18.3226 11.7636 18.8928 12.1683V5.08408L7.08925 9.43229C7.08925 9.43229 7.08838 19.1789 7.08801 19.1872C7.0848 19.3258 7.07406 19.4667 7.05361 19.6102C6.92429 20.5154 6.45608 21.4109 5.73539 22.1316C5.01466 22.8523 4.1192 23.3205 3.21397 23.4498C3.04402 23.4741 2.877 23.4861 2.71416 23.4861C1.95507 23.4861 1.28351 23.2252 0.787871 22.7296C0.185853 22.1276 -0.0699269 21.2659 0.0675501 20.3034C0.196862 19.3983 0.665027 18.5028 1.38576 17.7821C2.10645 17.0613 3.00191 16.5932 3.90714 16.4639C4.70948 16.3492 5.44117 16.5089 6.0114 16.9136V5.66399C6.0114 4.83716 6.53273 4.0895 7.30865 3.80367L17.3025 0.122111ZM5.98663 19.4578C6.00278 19.3447 6.01085 19.2344 6.0114 19.1273H6.01145V19.1103C6.01021 18.6393 5.85879 18.2339 5.57117 17.9463C5.28241 17.6575 4.87484 17.5058 4.40145 17.5058C4.29081 17.5058 4.17672 17.514 4.05957 17.5308C3.3837 17.6274 2.70475 17.9873 2.14783 18.5442C1.5909 19.1011 1.23104 19.78 1.13448 20.4559C1.04608 21.0745 1.19365 21.6113 1.54989 21.9676C1.90617 22.3238 2.44315 22.4713 3.0615 22.383C3.73737 22.2865 4.41631 21.9266 4.97324 21.3696C5.53021 20.8127 5.89007 20.1338 5.98663 19.4578ZM18.8927 3.93569L7.08916 8.28395V5.66408C7.08916 5.2867 7.32709 4.94555 7.68122 4.81509L17.6751 1.13344C17.9566 1.02977 18.2592 1.06862 18.5054 1.24032C18.7515 1.41188 18.8927 1.68248 18.8927 1.98248V3.93569ZM18.8679 14.7126C18.8841 14.5992 18.8922 14.4885 18.8927 14.3812H18.8928V14.366C18.8917 13.8946 18.7403 13.4889 18.4525 13.2011C18.1637 12.9122 17.7562 12.7606 17.2828 12.7606C17.1722 12.7606 17.0581 12.7689 16.9409 12.7856C16.265 12.8822 15.5861 13.242 15.0292 13.7989C14.4722 14.3559 14.1123 15.0348 14.0158 15.7107C13.9274 16.3292 14.075 16.8661 14.4312 17.2223C14.7875 17.5785 15.3242 17.7261 15.9428 17.6378C16.6187 17.5411 17.2976 17.1813 17.8546 16.6243C18.4114 16.0673 18.7714 15.3885 18.8679 14.7126Z" fill="#CAFD35"/>
</svg>
