<svg width="56" height="56" viewBox="0 0 56 56" fill="none" xmlns="http://www.w3.org/2000/svg">
<g id="phone-call">
<path id="Shape" fill-rule="evenodd" clip-rule="evenodd" d="M40.5852 32.7531C42.064 32.7531 43.4593 33.3943 44.6161 34.5934L51.1634 41.1353C52.3679 42.3226 53 43.7354 53 45.2077C53 46.668 52.3799 48.0927 51.1992 49.3156C50.6864 49.8499 50.1616 50.3604 49.6488 50.8472C49.5932 50.9009 49.5377 50.9542 49.4825 51.0074C48.792 51.6721 48.136 52.3036 47.5618 52.9962C47.5558 53.0081 47.5469 53.017 47.5379 53.0259C47.529 53.0348 47.5201 53.0437 47.5141 53.0556C45.7014 55.0146 43.3877 56 40.6329 56C40.3943 56 40.132 55.9881 39.8815 55.9763C35.7909 55.7151 32.1297 54.1835 29.3867 52.8893C22.2074 49.4344 15.9224 44.5309 10.6989 38.3215C6.39364 33.1687 3.50758 28.3602 1.57559 23.1718C0.788478 21.0585 -0.237148 17.8291 0.0490732 14.3622C0.239887 12.2133 1.11048 10.3611 2.63699 8.8414L6.69179 4.76904L6.71564 4.7453C7.90823 3.60551 9.31549 3 10.7704 3C12.2254 3 13.6088 3.60551 14.7656 4.7453C15.5408 5.45766 16.2921 6.21752 17.0077 6.95363C17.3655 7.33356 17.7471 7.71349 18.1168 8.08154L21.3726 11.3228C23.877 13.8161 23.877 17.0455 21.3726 19.5388C21.2056 19.705 21.0386 19.8742 20.8717 20.0433C20.7047 20.2125 20.5377 20.3817 20.3708 20.5479C20.2857 20.6338 20.2003 20.7201 20.1147 20.8066C19.3127 21.6167 18.4876 22.4504 17.604 23.2549C18.3315 24.8578 19.3332 26.4368 20.824 28.3127C23.9008 32.0764 27.1089 34.9852 30.639 37.2173C30.9848 37.431 31.3903 37.6328 31.8196 37.8465L31.8196 37.8465C31.9207 37.8989 32.0232 37.9512 32.1266 38.0041C32.3281 38.107 32.533 38.2116 32.7379 38.3215L36.5065 34.5815C37.711 33.3824 39.1183 32.7531 40.5852 32.7531ZM47.7026 48.2803C48.1137 47.8823 48.5037 47.5049 48.8856 47.0954C50.102 45.8369 50.102 44.5903 48.8736 43.3793L42.3025 36.8374L42.2786 36.8136C41.9089 36.4099 41.3007 35.9469 40.5613 35.9469C39.81 35.9469 39.166 36.4337 38.7605 36.8374L34.6818 40.8979C34.4791 41.0997 33.859 41.7171 32.8691 41.7171C32.4756 41.7171 32.0939 41.6221 31.6884 41.4203C31.6646 41.4084 31.6407 41.3935 31.6169 41.3787C31.593 41.3639 31.5692 41.349 31.5453 41.3371C31.1995 41.1234 30.794 40.9216 30.3647 40.7079L30.3646 40.7079C29.8876 40.4704 29.3867 40.2211 28.8978 39.9124C25.0696 37.5022 21.5991 34.356 18.3076 30.3192L18.2957 30.3073C16.4829 28.0159 15.2904 26.0925 14.4436 24.0504L14.4078 23.9435C14.1932 23.2668 14.0024 22.2695 15.028 21.2484C15.0357 21.2331 15.0484 21.2227 15.0628 21.2109C15.0707 21.2044 15.0792 21.1975 15.0876 21.1891C16.1252 20.263 17.0792 19.3132 18.081 18.2921C18.3111 18.0709 18.536 17.8444 18.7626 17.6162C18.8765 17.5015 18.9909 17.3863 19.1066 17.2711C20.3708 16.0125 20.3708 14.849 19.1066 13.5905L15.8509 10.3492C15.6616 10.1549 15.4722 9.96344 15.2844 9.77347C15.0935 9.5805 14.9042 9.38904 14.7179 9.19758C13.9904 8.4496 13.2987 7.7491 12.5713 7.07236L12.5355 7.03674C12.1538 6.65681 11.5456 6.20565 10.7943 6.20565C10.1861 6.20565 9.56593 6.50246 8.98156 7.04861L4.91483 11.0972C3.92499 12.0827 3.38832 13.2343 3.26906 14.6234C3.09017 16.7961 3.49565 19.0995 4.60476 22.0558C6.40557 26.8999 9.12467 31.4115 13.1914 36.2912C18.1168 42.1445 24.044 46.763 30.794 50.0161C33.2627 51.1915 36.5542 52.5688 40.0962 52.7944C40.2751 52.8062 40.4659 52.8062 40.6448 52.8062C42.5052 52.8062 43.9244 52.2007 45.1289 50.9185C45.8683 50.0517 46.6554 49.28 47.4306 48.5439C47.5224 48.4547 47.613 48.367 47.7026 48.2803Z" fill="#CAFD35"/>
<path id="Path" fill-rule="evenodd" clip-rule="evenodd" d="M30.323 13.1886C33.4422 13.7125 36.2756 15.1889 38.5376 17.4511C40.7997 19.7133 42.264 22.547 42.7998 25.6665C42.9307 26.4523 43.6093 27 44.3832 27C44.4784 27 44.5618 26.9881 44.657 26.9762C45.538 26.8333 46.1214 25.9999 45.9785 25.1188C45.3356 21.3445 43.5498 17.9035 40.8235 15.177C38.0971 12.4504 34.6565 10.6645 30.8825 10.0215C30.0015 9.87864 29.18 10.4621 29.0253 11.3312C28.8705 12.2004 29.442 13.0457 30.323 13.1886Z" fill="#CAFD35"/>
<path id="Path_2" fill-rule="evenodd" clip-rule="evenodd" d="M55.9762 24.1942C54.9463 18.1516 52.0997 12.6531 47.7256 8.2774C43.3515 3.90173 37.8549 1.05407 31.8145 0.0238248C30.9698 -0.126661 30.1713 0.452131 30.0209 1.29717C29.882 2.15378 30.4491 2.95251 31.3054 3.103C36.6978 4.01749 41.6157 6.57575 45.527 10.4768C49.4382 14.3894 51.984 19.3092 52.8981 24.7035C53.0254 25.4675 53.685 26 54.4372 26C54.5297 26 54.6107 25.9884 54.7033 25.9768C55.548 25.8495 56.1266 25.0392 55.9762 24.1942Z" fill="#CAFD35"/>
</g>
</svg>
