<svg width="82" height="82" viewBox="0 0 82 82" fill="none" xmlns="http://www.w3.org/2000/svg">
<g id="pole">
<path id="Shape" fill-rule="evenodd" clip-rule="evenodd" d="M65.9271 1.36667V2.7224C74.4683 3.45169 81.0279 10.5671 81.0264 19.1009C81.0247 28.1779 73.6314 35.535 64.513 35.5333C55.9092 35.5349 48.7467 28.9585 48.0544 20.4216C47.3208 11.3748 54.0934 3.44878 63.1813 2.7183V1.36667C63.1813 0.611925 63.796 0 64.5542 0C65.3124 0 65.9271 0.611925 65.9271 1.36667ZM64.2165 5.39833C63.4544 5.41422 62.695 5.49246 61.9457 5.63203C61.2509 7.60191 60.7065 9.62116 60.3175 11.6727C61.6409 11.5456 62.9726 11.4732 64.3098 11.4636C65.7994 11.4609 67.2835 11.5374 68.7593 11.6741C68.373 9.62338 67.8306 7.60482 67.1366 5.63613C66.3908 5.49503 65.6345 5.41542 64.8755 5.39833C64.6647 5.48665 64.4272 5.48665 64.2165 5.39833ZM50.997 16.508C52.983 15.8159 55.0189 15.2749 57.0871 14.8898C56.9498 16.2292 56.8784 17.5767 56.8688 18.9311C56.8578 20.3989 56.9278 21.8667 57.0624 23.3126C55.0026 22.9287 52.975 22.3901 50.997 21.7013C50.6577 19.9866 50.6577 18.2226 50.997 16.508ZM57.4207 26.1512C55.6056 25.8531 53.8109 25.4424 52.0473 24.9212C53.4134 27.7888 55.7319 30.0991 58.611 31.462C58.1042 29.718 57.7066 27.9442 57.4207 26.1512ZM57.4646 12.0526C55.6384 12.3494 53.8327 12.7602 52.0582 13.2826C53.4335 10.3771 55.7853 8.0413 58.7071 6.6789C58.1808 8.44258 57.7658 10.2374 57.4646 12.0526ZM64.5075 32.8014C65.4296 32.802 66.3496 32.7105 67.2533 32.528C67.9227 30.5746 68.4431 28.5734 68.8101 26.542C67.4194 26.6732 66.0218 26.7443 64.616 26.7443H64.3098C62.9548 26.7347 61.6053 26.665 60.2639 26.5284C60.6322 28.5637 61.1531 30.5687 61.8222 32.5267C62.706 32.7067 63.6055 32.7988 64.5075 32.8014ZM69.2083 23.7622C67.5886 23.9452 65.959 24.0277 64.3291 24.0096C62.8366 23.9906 61.3461 23.8912 59.8644 23.7117C59.6892 22.1306 59.6053 20.5408 59.6132 18.9502C59.6335 17.4609 59.7338 15.9736 59.9139 14.4949C61.3792 14.3187 62.8532 14.2207 64.3291 14.201C65.9415 14.1836 67.5534 14.2636 69.1561 14.4402C69.3413 15.9369 69.4439 17.4424 69.4636 18.9502C69.4717 20.5577 69.3864 22.1644 69.2083 23.7622ZM76.9239 13.2198L76.9348 13.2157C75.5608 10.3595 73.2397 8.06214 70.3629 6.71033C70.8851 8.45984 71.2976 10.2399 71.5985 12.0403C73.3961 12.3251 75.1745 12.7191 76.9239 13.2198ZM70.4754 31.4333H70.4713C70.9714 29.7072 71.3649 27.9524 71.6493 26.1785C73.4271 25.8942 75.186 25.5018 76.9156 25.0032C75.5601 27.8091 73.2902 30.0756 70.4754 31.4333ZM72.2066 18.9297C72.2151 20.4067 72.1492 21.8832 72.0089 23.3536C74.0449 22.9819 76.0502 22.4601 78.0084 21.7929C78.19 20.904 78.282 19.9993 78.283 19.0923C78.2813 18.1932 78.1907 17.2965 78.0126 16.415C76.0452 15.7425 74.0302 15.217 71.9842 14.8434C72.1188 16.1964 72.197 17.563 72.2066 18.9297Z" fill="#CAFD35"/>
<path id="Shape_2" fill-rule="evenodd" clip-rule="evenodd" d="M77.2923 46.2766C77.7068 46.4122 78.0316 46.7356 78.1679 47.1482C78.4047 47.8652 78.0127 48.6375 77.2923 48.8732L71.7665 50.7087L69.9227 56.2095C69.7864 56.6221 69.4616 56.9455 69.0471 57.0811C68.3269 57.3169 67.551 56.9265 67.3142 56.2095L65.4704 50.7087L59.9446 48.8732C59.5302 48.7376 59.2053 48.4142 59.069 48.0017C58.8322 47.2847 59.2243 46.5123 59.9446 46.2766L65.4704 44.4411L67.3142 38.9403C67.4505 38.5278 67.7753 38.2044 68.1898 38.0687C68.91 37.833 69.6859 38.2233 69.9227 38.9403L71.7665 44.4411L77.2923 46.2766ZM69.379 49.1903C69.5137 48.7815 69.836 48.4607 70.2467 48.3266L72.5174 47.5722L70.2467 46.8178C69.8359 46.6837 69.5137 46.3629 69.379 45.954L68.6212 43.6936L67.8634 45.954C67.7287 46.363 67.4064 46.6837 66.9957 46.8178L64.725 47.5722L66.9957 48.3266C67.4064 48.4607 67.7287 48.7815 67.8634 49.1903L68.6212 51.4508L69.379 49.1903Z" fill="#CAFD35"/>
<path id="Shape_3" fill-rule="evenodd" clip-rule="evenodd" d="M5.49153 1.36667C5.49153 0.611925 6.10623 0 6.86441 0C7.62258 0 8.23729 0.611925 8.23729 1.36667V80.6333C8.23729 81.3881 7.62258 82 6.86441 82C6.10623 82 5.49153 81.3881 5.49153 80.6333V73.5526C5.05135 73.712 4.58697 73.7956 4.11864 73.8C1.84395 73.8 0 71.9644 0 69.7V58.533C0.00411864 55.287 2.29769 52.4901 5.49153 51.8363V1.36667ZM5.08927 70.6662C5.34669 70.41 5.49153 70.0625 5.49153 69.7V54.6667C3.84767 55.2478 2.74851 56.7951 2.74576 58.5316V69.7C2.74576 70.0622 2.89043 70.4096 3.14767 70.6659C3.68378 71.1997 4.55299 71.1999 5.08927 70.6662Z" fill="#CAFD35"/>
<path id="Shape_4" fill-rule="evenodd" clip-rule="evenodd" d="M41.2034 5.2316C43.4781 5.2316 45.322 7.0672 45.322 9.3316V23.9372C45.3373 31.5596 42.3528 38.8847 37.0079 44.3429C37.0516 44.5931 37.0774 44.8461 37.0847 45.1C37.0753 47.7486 35.16 50.0094 32.5391 50.4655L28.8475 59.04V66.9667C28.8483 67.2569 28.7565 67.5398 28.5851 67.7745C28.1392 68.3851 27.2807 68.5202 26.6673 68.0764L24.1522 66.2546L20.0514 79.0849L20.0374 79.1212C20.0249 79.1537 20.0118 79.188 19.9979 79.2216C19.2421 80.9104 17.5593 81.9988 15.7021 82C14.9208 81.9947 14.1533 81.7929 13.4712 81.4137C13.2234 81.7762 12.8132 81.995 12.3729 82C11.6147 82 11 81.3881 11 80.6333V1.36667C11 0.611925 11.6147 0 12.3729 0C13.1311 0 13.7458 0.611925 13.7458 1.36667V32.8H19.3497C17.0118 28.8073 17.4661 23.7795 20.4823 20.2663C18.1117 19.596 16.48 17.4354 16.4915 14.9821C16.5058 11.9629 18.9759 9.52686 22.0088 9.54104C25.0417 9.55522 27.4888 12.0142 27.4746 15.0333C27.4675 15.5421 27.3881 16.0474 27.2384 16.5339C30.9243 15.9543 34.6491 17.314 37.0847 20.1283V9.3316C37.0847 7.0672 38.9287 5.2316 41.2034 5.2316ZM36.7251 24.943C35.6671 21.4972 32.4734 19.1424 28.8538 19.1397C24.3046 19.1362 20.6138 22.8045 20.6102 27.3333C20.6121 28.031 20.7044 28.7255 20.8847 29.3997L29.3238 22.196C29.7436 21.8366 30.3391 21.7633 30.834 22.0102L36.7251 24.943ZM37.0422 28.1574C36.5742 32.6621 32.5264 35.9363 28.0012 35.4705C25.6104 35.2243 23.4467 33.9509 22.0778 31.9841L30.4263 24.8597L37.0422 28.1574ZM21.9831 12.3C20.4665 12.3 19.2373 13.5237 19.2373 15.0333C19.2373 16.543 20.4665 17.7667 21.9831 17.7667C23.4996 17.7667 24.7288 16.543 24.7288 15.0333C24.7288 13.5237 23.4996 12.3 21.9831 12.3ZM13.7458 41H18.6277C17.4064 43.0292 17.6707 45.6161 19.2771 47.3591L17.1299 50.5667H13.7458V41ZM16.2801 60.5515L13.7458 58.7161V68.2267L16.2801 60.5515ZM17.4608 78.1733C17.1327 78.8425 16.4502 79.2668 15.7021 79.2667C14.6103 79.2559 13.7341 78.366 13.7449 77.2792C13.7451 77.2652 13.7454 77.2512 13.7458 77.2372C13.7449 76.9649 13.8026 76.6956 13.9146 76.4472C13.9338 76.4049 13.9489 76.3625 13.9641 76.3188L18.5714 62.3692L21.7524 64.7445L17.4608 78.1733ZM13.7458 55.3377L26.1017 64.2825V59.4705L17.4251 53.3H13.7458V55.3377ZM26.8842 56.6688L19.7453 51.5903L21.5629 48.8761C23.3882 49.5447 25.4346 49.1626 26.8925 47.8812C27.5271 48.9465 28.5063 49.7656 29.6698 50.2045L26.8842 56.6688ZM23.3559 41C21.8394 41 20.6102 42.2237 20.6102 43.7333C20.6102 45.243 21.8394 46.4667 23.3559 46.4667C24.8725 46.4667 26.1017 45.243 26.1017 43.7333C26.1017 42.2237 24.8725 41 23.3559 41ZM31.5932 47.8333C30.0767 47.8333 28.8475 46.6097 28.8475 45.1C28.8475 43.5903 30.0767 42.3667 31.5932 42.3667C33.1097 42.3667 34.339 43.5903 34.339 45.1C34.339 46.6097 33.1097 47.8333 31.5932 47.8333ZM35.7901 41.6164C40.1682 36.7601 42.5857 30.4623 42.5763 23.9372V9.3316C42.5763 8.57686 41.9616 7.96493 41.2034 7.96493C40.4452 7.96493 39.8305 8.57686 39.8305 9.3316V25.9667H39.7358C39.7958 26.4199 39.8274 26.8762 39.8305 27.3333C39.835 30.0009 38.858 32.5777 37.0842 34.5772C33.0756 39.0959 26.1461 39.5238 21.6069 35.5333H13.7458V38.2667H23.3559C25.2898 38.2723 27.0771 39.2932 28.0581 40.9522C28.102 40.9141 28.1466 40.8768 28.1919 40.8401C30.5056 38.9657 33.9074 39.3134 35.7901 41.6164Z" fill="#CAFD35"/>
<path id="Oval" fill-rule="evenodd" clip-rule="evenodd" d="M75.7458 62.4667C77.2622 62.4667 78.4915 61.2429 78.4915 59.7333C78.4915 58.2238 77.2622 57 75.7458 57C74.2293 57 73 58.2238 73 59.7333C73 61.2429 74.2293 62.4667 75.7458 62.4667Z" fill="#CAFD35"/>
<path id="Oval_2" fill-rule="evenodd" clip-rule="evenodd" d="M42.7458 61.4667C44.2622 61.4667 45.4915 60.2429 45.4915 58.7333C45.4915 57.2238 44.2622 56 42.7458 56C41.2293 56 40 57.2238 40 58.7333C40 60.2429 41.2293 61.4667 42.7458 61.4667Z" fill="#CAFD35"/>
<path id="Oval_3" fill-rule="evenodd" clip-rule="evenodd" d="M61.7458 67.4667C63.2622 67.4667 64.4915 66.2429 64.4915 64.7333C64.4915 63.2238 63.2622 62 61.7458 62C60.2293 62 59 63.2238 59 64.7333C59 66.2429 60.2293 67.4667 61.7458 67.4667Z" fill="#CAFD35"/>
<path id="Path" fill-rule="evenodd" clip-rule="evenodd" d="M50.3729 44C49.6147 44 49 44.6119 49 45.3667V46.7333C49 47.4881 49.6147 48.1 50.3729 48.1C51.1311 48.1 51.7458 47.4881 51.7458 46.7333V45.3667C51.7458 44.6119 51.1311 44 50.3729 44Z" fill="#CAFD35"/>
<path id="Path_2" fill-rule="evenodd" clip-rule="evenodd" d="M50.3729 37C49.6147 37 49 37.6119 49 38.3667V39.7333C49 40.4881 49.6147 41.1 50.3729 41.1C51.1311 41.1 51.7458 40.4881 51.7458 39.7333V38.3667C51.7458 37.6119 51.1311 37 50.3729 37Z" fill="#CAFD35"/>
<path id="Path_3" fill-rule="evenodd" clip-rule="evenodd" d="M54.7458 41H53.3729C52.6147 41 52 41.6119 52 42.3667C52 43.1214 52.6147 43.7333 53.3729 43.7333H54.7458C55.5039 43.7333 56.1186 43.1214 56.1186 42.3667C56.1186 41.6119 55.5039 41 54.7458 41Z" fill="#CAFD35"/>
<path id="Path_4" fill-rule="evenodd" clip-rule="evenodd" d="M47.7458 41H46.3729C45.6147 41 45 41.6119 45 42.3667C45 43.1214 45.6147 43.7333 46.3729 43.7333H47.7458C48.5039 43.7333 49.1186 43.1214 49.1186 42.3667C49.1186 41.6119 48.5039 41 47.7458 41Z" fill="#CAFD35"/>
</g>
</svg>
