<svg width="80" height="80" viewBox="0 0 80 80" fill="none" xmlns="http://www.w3.org/2000/svg">
<g id="room-key">
<path id="Shape" fill-rule="evenodd" clip-rule="evenodd" d="M79.3873 30.3972L77.3489 28.359V11.9147C77.3489 5.34487 72.0041 0 65.4342 0C62.7311 0 60.2366 0.906199 58.2352 2.42885C49.4138 -1.90222 38.4318 -0.40499 31.105 6.92164C23.2586 14.7682 22.0992 26.8064 27.6234 35.8938L18.689 44.8282H14.9148C14.0536 44.8282 13.3553 45.5264 13.3553 46.3877V49.2487H10.4942C9.63306 49.2487 8.93474 49.9468 8.93474 50.8081V53.6691H6.07392C5.21279 53.6691 4.51446 54.3673 4.51446 55.2285V58.0895H1.65365C1.24008 58.0895 0.843509 58.2539 0.550955 58.5463L0.456764 58.6405C0.164366 58.9326 0 59.3293 0 59.7428V69.8615C0 70.7228 0.698324 71.421 1.55945 71.421H11.8667C12.2802 71.421 12.6768 71.2566 12.9694 70.9642L30.1715 53.762C30.7805 53.1531 30.7805 52.1656 30.1715 51.5565C29.5624 50.9475 28.5753 50.9475 27.966 51.5565L11.2206 68.3022H3.11891V61.208H6.07407C6.9352 61.208 7.63353 60.5098 7.63353 59.6485V56.7875H10.4945C11.3556 56.7875 12.054 56.0894 12.054 55.2281V52.3671H14.9151C15.7762 52.3671 16.4745 51.6689 16.4745 50.8076V47.9467H19.3355C19.7491 47.9467 20.1457 47.7823 20.4382 47.4899L29.4464 38.4819C29.9618 39.1178 30.5146 39.7333 31.106 40.3247C35.3252 44.5439 40.86 46.969 46.7852 47.2198V73.2919C46.7852 76.9032 49.7234 79.8414 53.3347 79.8414H73.2953C76.9067 79.8414 79.8448 76.9032 79.8448 73.2919V31.4997C79.8441 31.0863 79.6797 30.6897 79.3873 30.3972ZM65.4341 3.11875C70.2841 3.11875 74.23 7.06448 74.23 11.9145V25.2399L71.4258 22.4357C71.4177 22.4276 71.4093 22.4203 71.4008 22.4129L71.3886 22.4021L71.3832 22.3972C71.093 16.7637 68.802 11.2148 64.5087 6.92117C63.4832 5.89583 62.3858 4.98526 61.2332 4.18823C62.4823 3.50674 63.9136 3.11875 65.4341 3.11875ZM56.638 12.9017V16.3442C56.638 17.2053 55.9398 17.9038 55.0787 17.9038C54.2175 17.9038 53.5192 17.2056 53.5192 16.3443V12.9087C53.1186 13.0908 52.742 13.3422 52.4129 13.6713C50.9389 15.1451 50.9389 17.5434 52.4129 19.0174C53.8869 20.4915 56.2852 20.4914 57.7589 19.0174C58.4731 18.3033 58.8664 17.3539 58.8664 16.3442C58.8664 15.3344 58.473 14.3852 57.7589 13.6711C57.426 13.338 57.0441 13.0843 56.638 12.9017ZM47.8066 44.1145C42.5575 44.114 37.3065 42.1156 33.3103 38.1195C25.3173 30.1263 25.3173 17.1202 33.3104 9.12686C37.1825 5.25474 42.3309 3.12218 47.8069 3.12218C50.6359 3.12218 53.3767 3.69279 55.9 4.77676C54.8524 6.17248 54.1046 7.80507 53.7506 9.57801C52.4515 9.83236 51.2119 10.4613 50.2076 11.4656C47.5177 14.1556 47.5177 18.5324 50.2076 21.2225C51.5527 22.5675 53.3191 23.2399 55.086 23.2399C56.8524 23.2399 58.6194 22.5673 59.9643 21.2225C61.2674 19.9194 61.9852 18.1867 61.9852 16.344C61.9852 14.5012 61.2674 12.7687 59.9643 11.4656C59.0897 10.591 58.0366 10.0028 56.9215 9.697C57.2566 8.41138 57.8768 7.24039 58.7091 6.25341C59.9958 7.06448 61.2012 8.02511 62.303 9.12702C66.1751 12.9991 68.3077 18.1474 68.3077 23.6234C68.3077 29.0994 66.1751 34.2476 62.303 38.1198C58.306 42.1168 53.0572 44.1149 47.8066 44.1145ZM73.2945 76.7231C75.1861 76.7231 76.7251 75.1841 76.7251 73.2923V32.1457L71.2221 26.6428C70.5821 31.649 68.3454 36.4883 64.5087 40.325C60.5452 44.2883 55.4211 46.6681 49.9032 47.1503V73.2923C49.9032 75.1841 51.4422 76.7231 53.334 76.7231H73.2945Z" fill="#CAFD35"/>
<path id="Path" fill-rule="evenodd" clip-rule="evenodd" d="M39.4009 15.6621C40.0102 15.0531 40.0102 14.0657 39.4011 13.4567C38.792 12.8478 37.8048 12.8478 37.1956 13.4567C31.6015 19.051 31.6015 28.1533 37.1956 33.7474C37.5001 34.052 37.8992 34.2042 38.2982 34.2042C38.6973 34.2042 39.0964 34.0518 39.4009 33.7474C40.0099 33.1384 40.0099 32.151 39.4009 31.542C35.0229 27.1639 35.0229 20.0401 39.4009 15.6621Z" fill="#CAFD35"/>
<path id="Path_2" fill-rule="evenodd" clip-rule="evenodd" d="M44.9978 35.064C44.9933 35.0628 44.9755 35.0578 44.971 35.0566C44.1422 34.8275 43.2862 35.3151 43.0568 36.1446C42.8271 36.9734 43.3152 37.8327 44.1437 38.0638C44.2861 38.1042 44.4293 38.1234 44.5702 38.1234C45.2489 38.1234 45.8732 37.6769 46.0689 36.992C46.3056 36.1638 45.8261 35.3006 44.9978 35.064Z" fill="#CAFD35"/>
<path id="Path_3" fill-rule="evenodd" clip-rule="evenodd" d="M69.8145 68H56.5595C55.6983 68 55 68.6982 55 69.5595C55 70.4207 55.6983 71.1189 56.5595 71.1189H69.8145C70.6756 71.1189 71.374 70.4207 71.374 69.5595C71.374 68.6982 70.6756 68 69.8145 68Z" fill="#CAFD35"/>
<path id="Path_4" fill-rule="evenodd" clip-rule="evenodd" d="M34.6618 47.4569C34.3719 47.1669 33.9696 47 33.5595 47C33.1493 47 32.747 47.1669 32.4569 47.4569C32.1669 47.747 32 48.1493 32 48.5595C32 48.9696 32.1667 49.3719 32.4569 49.662C32.7471 49.952 33.1493 50.1189 33.5595 50.1189C33.9712 50.1189 34.3719 49.952 34.6618 49.662C34.9535 49.3719 35.1189 48.9696 35.1189 48.5595C35.1189 48.1493 34.9535 47.747 34.6618 47.4569Z" fill="#CAFD35"/>
</g>
</svg>
