<svg width="26" height="26" viewBox="0 0 26 26" fill="none" xmlns="http://www.w3.org/2000/svg">
<path fill-rule="evenodd" clip-rule="evenodd" d="M15.8337 18.1977C16.1137 18.3593 16.3938 18.5241 16.6666 18.6881C17.1236 18.9628 17.3141 19.5424 17.1097 20.0363L16.5131 21.4767C16.3085 21.9706 15.7639 22.2459 15.2464 22.1168C14.9385 22.0401 14.6239 21.9587 14.3108 21.8747C13.9608 22.3178 13.5594 22.7192 13.117 23.0689C13.2015 23.384 13.2829 23.6984 13.3591 24.0042C13.4881 24.5217 13.2128 25.0663 12.719 25.2708L11.2787 25.8674C10.7847 26.072 10.2051 25.8816 9.93034 25.4244C9.76613 25.1511 9.60137 24.8712 9.44025 24.5919C8.88011 24.6574 8.31252 24.6573 7.75172 24.5916C7.58862 24.8742 7.42385 25.1541 7.26142 25.4244C7.06087 25.7576 6.69839 25.9492 6.32526 25.9492C6.1867 25.9492 6.04666 25.9227 5.91286 25.8673L4.47252 25.2707C3.97868 25.0661 3.70347 24.5216 3.83246 24.004C3.90904 23.6966 3.99048 23.3821 4.07462 23.0684C3.6315 22.7184 3.23015 22.3172 2.88039 21.8747C2.56692 21.9588 2.25249 22.0402 1.94515 22.1167C1.42728 22.2458 0.883003 21.9704 0.678449 21.4766L0.0818176 20.0363C-0.122736 19.5424 0.0677786 18.9628 0.524831 18.688C0.796944 18.5245 1.07681 18.3598 1.35749 18.1978C1.29186 17.6376 1.29201 17.0702 1.35779 16.5093C1.07737 16.3475 0.79735 16.1827 0.524933 16.0189C0.0678799 15.7443 -0.122635 15.1646 0.0818683 14.6707L0.678348 13.2305C0.882952 12.7367 1.42738 12.4612 1.94505 12.5903C2.25223 12.6668 2.56677 12.7482 2.8808 12.8325C3.23071 12.3894 3.63201 11.9879 4.07452 11.6383C3.99064 11.3258 3.90924 11.0113 3.83246 10.7029C3.70347 10.1854 3.97878 9.64084 4.47252 9.43629L5.91281 8.83971C6.40671 8.6351 6.98631 8.82557 7.26121 9.28272C7.42426 9.55397 7.58903 9.83389 7.75131 10.1152C8.3115 10.0496 8.87894 10.0497 9.43984 10.1156C9.60162 9.83511 9.76649 9.55509 9.93014 9.28272C10.2049 8.82546 10.7847 8.63505 11.2785 8.83971L12.7188 9.43629C13.2127 9.64089 13.4879 10.1854 13.3589 10.7029C13.2823 11.0107 13.2008 11.3253 13.1167 11.6386C13.5599 11.9885 13.9612 12.3898 14.311 12.8324C14.6242 12.7483 14.9386 12.6669 15.2463 12.5903C15.7641 12.4613 16.3084 12.7366 16.513 13.2304L17.1096 14.6707L17.1096 14.6708C17.3142 15.1648 17.1236 15.7444 16.6665 16.0191C16.395 16.1823 16.1151 16.347 15.834 16.5092C15.8997 17.0691 15.8995 17.6367 15.8337 18.1977ZM14.5668 20.7407C14.8666 20.8214 15.1682 20.8998 15.464 20.9739L16.0122 19.6499C15.7499 19.4927 15.4813 19.3349 15.2129 19.1804C14.8319 18.9611 14.6207 18.5388 14.6748 18.1044C14.7369 17.6051 14.737 17.0993 14.675 16.6013C14.621 16.1673 14.8323 15.7453 15.2132 15.526C15.4825 15.3709 15.751 15.2133 16.0122 15.0567L15.4639 13.7328C15.1685 13.8069 14.8671 13.8852 14.5671 13.966C14.1425 14.0803 13.6948 13.9312 13.4262 13.5862C13.1177 13.1901 12.76 12.8326 12.3632 12.5236C12.0178 12.2548 11.8685 11.8067 11.9828 11.3823C12.0636 11.0822 12.142 10.7807 12.2161 10.4851L10.8921 9.93677C10.7352 10.1986 10.5775 10.4673 10.4227 10.7361C10.2035 11.117 9.78129 11.3283 9.34669 11.2742C8.84731 11.2119 8.34166 11.2119 7.8436 11.2739C7.41012 11.3282 6.98768 11.1167 6.76833 10.7358C6.61309 10.4661 6.45537 10.1976 6.29906 9.93677L4.97514 10.4851C5.04939 10.7813 5.12774 11.0826 5.20833 11.3819C5.32262 11.8063 5.17356 12.2542 4.82852 12.5228C4.43243 12.8313 4.07487 13.1889 3.76596 13.5857C3.49694 13.9311 3.04891 14.0806 2.6246 13.9662C2.32385 13.8853 2.02239 13.8069 1.72742 13.733L1.17904 15.0568C1.44096 15.2139 1.70958 15.3716 1.9784 15.5264C2.35948 15.7458 2.57057 16.1682 2.51644 16.6026C2.45446 17.1015 2.4543 17.6072 2.51629 18.1055C2.57022 18.5395 2.35897 18.9615 1.97809 19.1808C1.70917 19.3356 1.44061 19.4933 1.17909 19.6501L1.72747 20.974C2.02269 20.9 2.3241 20.8216 2.62429 20.7408C3.04871 20.6265 3.49653 20.7755 3.76515 21.1206C4.0737 21.5168 4.43127 21.8743 4.82811 22.1832C5.17351 22.452 5.32287 22.9001 5.20858 23.3245C5.12769 23.6248 5.04934 23.9263 4.97529 24.2217L6.29921 24.7701C6.45496 24.5101 6.61268 24.2415 6.76868 23.9706C6.98793 23.5897 7.40966 23.3787 7.84477 23.4327C8.34369 23.4948 8.84944 23.4948 9.3477 23.433C9.78159 23.3792 10.2037 23.5903 10.423 23.9711C10.5771 24.2389 10.7348 24.5074 10.8922 24.7701L12.2162 24.2218C12.1425 23.928 12.0642 23.6267 11.983 23.3249C11.8687 22.9006 12.0177 22.4528 12.3627 22.1841C12.7589 21.8756 13.1165 21.518 13.4254 21.1211C13.6943 20.7757 14.1422 20.6265 14.5668 20.7407Z" fill="#CAFD35"/>
<path fill-rule="evenodd" clip-rule="evenodd" d="M12.2526 15.8383L12.2527 15.8383C13.0879 17.855 12.1268 20.1752 10.1103 21.0105C9.62174 21.2128 9.10853 21.3139 8.59533 21.3139C8.08212 21.3139 7.56891 21.2128 7.08048 21.0105C6.10363 20.6058 5.34269 19.845 4.93809 18.8681C4.10275 16.8515 5.06389 14.5312 7.08043 13.6959C9.09733 12.8606 11.4174 13.8217 12.2526 15.8383ZM7.52497 19.9374C8.21536 20.2232 8.97554 20.2233 9.66574 19.9374C11.0906 19.3471 11.7698 17.7077 11.1796 16.2828C10.7338 15.2068 9.68986 14.5561 8.59173 14.5561C8.23563 14.5561 7.87397 14.6245 7.52502 14.769C6.10009 15.3592 5.42094 16.9987 6.01124 18.4236C6.29719 19.1138 6.83478 19.6515 7.52497 19.9374Z" fill="#CAFD35"/>
<path fill-rule="evenodd" clip-rule="evenodd" d="M24.5541 5.02885C24.7615 5.05652 24.9674 5.08566 25.1679 5.11566C25.6142 5.18246 25.9508 5.57383 25.9508 6.02607V7.15907C25.9508 7.61131 25.6142 8.00263 25.1678 8.06943C24.9674 8.09943 24.7614 8.12852 24.5541 8.15625C24.4495 8.50393 24.3099 8.84076 24.1378 9.16072C24.2645 9.3264 24.3896 9.49274 24.5105 9.65624C24.7789 10.0192 24.7401 10.534 24.4204 10.8537L23.6192 11.6547C23.2995 11.9745 22.7847 12.0133 22.4219 11.7448C22.258 11.6236 22.0917 11.4985 21.9263 11.372C21.6063 11.5442 21.2694 11.6839 20.9218 11.7883C20.8941 11.9957 20.865 12.2017 20.8351 12.4022C20.7683 12.8486 20.3769 13.1851 19.9247 13.1851H18.7917C18.3395 13.1851 17.9481 12.8485 17.8813 12.4022C17.8513 12.2017 17.8222 11.9957 17.7946 11.7884C17.447 11.6839 17.1101 11.5443 16.7901 11.3721C16.6246 11.4985 16.4584 11.6236 16.2945 11.7448C15.9316 12.0132 15.4169 11.9745 15.0972 11.6547L14.296 10.8535C13.9762 10.534 13.9374 10.0191 14.2058 9.65629C14.3268 9.49274 14.4519 9.3265 14.5786 9.16067C14.4065 8.84066 14.2669 8.50377 14.1623 8.15619C13.9549 8.12852 13.749 8.09938 13.5485 8.06938C13.1022 8.00258 12.7656 7.61121 12.7656 7.15902V6.02602C12.7656 5.57378 13.1023 5.18246 13.5486 5.11566C13.7491 5.08566 13.955 5.05657 14.1624 5.02885C14.2669 4.68122 14.4066 4.34433 14.5787 4.02437C14.4518 3.85844 14.3267 3.6921 14.206 3.5288C13.9375 3.16582 13.9764 2.65104 14.2962 2.33133L15.0973 1.5303C15.4169 1.21055 15.9316 1.17177 16.2946 1.44024C16.4584 1.56142 16.6248 1.6865 16.7902 1.81301C17.1101 1.64079 17.447 1.50121 17.7946 1.39665C17.8223 1.18921 17.8514 0.983236 17.8814 0.782889C17.9481 0.336632 18.3395 0 18.7917 0H19.9247C20.3769 0 20.7683 0.336632 20.8351 0.78294C20.8651 0.983388 20.8941 1.18931 20.9218 1.3967C21.2694 1.50126 21.6063 1.64084 21.9263 1.81306C22.0918 1.6866 22.258 1.56157 22.4219 1.44029C22.7847 1.17182 23.2995 1.2106 23.6192 1.5304L24.4204 2.33149C24.7402 2.65109 24.779 3.16582 24.5106 3.52875C24.3898 3.6921 24.2647 3.85839 24.1378 4.02437C24.31 4.34438 24.4496 4.68132 24.5541 5.02885ZM24.2932 7.07768C24.4795 7.0534 24.6653 7.02775 24.8473 7.00135V6.18395C24.6653 6.15749 24.4795 6.13189 24.2931 6.10757C23.9245 6.05947 23.6228 5.7979 23.5245 5.4411C23.4304 5.0997 23.2938 4.77006 23.1186 4.46151C22.9357 4.13952 22.9639 3.74106 23.1905 3.44639C23.305 3.29754 23.4183 3.14798 23.5286 3.00024L22.9506 2.42221C22.8022 2.53285 22.6528 2.64617 22.5044 2.76021C22.2099 2.98676 21.8113 3.01519 21.4893 2.83218C21.1808 2.65697 20.8512 2.52033 20.5097 2.42621C20.1529 2.32794 19.8913 2.02618 19.8432 1.65751C19.8189 1.47126 19.7933 1.2855 19.7669 1.1035H18.9494C18.923 1.28556 18.8974 1.47131 18.873 1.65766C18.8251 2.02618 18.5635 2.32794 18.2066 2.42626C17.8652 2.52043 17.5355 2.65702 17.2271 2.83223C16.9048 3.01524 16.5063 2.98696 16.2118 2.76016C16.0635 2.64617 15.914 2.53285 15.7658 2.42221L15.1878 3.00024C15.298 3.14793 15.4113 3.29744 15.5258 3.44624C15.7524 3.74096 15.7807 4.13947 15.5976 4.46146C15.4224 4.76996 15.2859 5.09955 15.1917 5.44104C15.0935 5.79775 14.7917 6.05937 14.4231 6.10747C14.2368 6.13174 14.051 6.15739 13.869 6.18379V7.0012C14.051 7.0277 14.2368 7.05325 14.4232 7.07757C14.7918 7.12567 15.0935 7.38724 15.1918 7.74405C15.2859 8.08549 15.4225 8.41513 15.5977 8.72358C15.7807 9.04557 15.7524 9.44403 15.5259 9.73875C15.4114 9.8875 15.2981 10.037 15.1878 10.1849L15.7658 10.7629C15.9141 10.6523 16.0636 10.539 16.2119 10.4249C16.5065 10.1982 16.9051 10.1701 17.2271 10.353C17.5357 10.5283 17.8652 10.6649 18.2067 10.7589C18.5635 10.8573 18.825 11.159 18.8731 11.5277C18.8975 11.7139 18.9231 11.8996 18.9495 12.0817H19.767C19.7934 11.8996 19.819 11.7138 19.8433 11.5275C19.8912 11.159 20.1529 10.8572 20.5098 10.7589C20.8511 10.6648 21.1807 10.5282 21.4892 10.3529C21.8112 10.1701 22.2098 10.1981 22.5045 10.4249C22.6528 10.539 22.8023 10.6523 22.9506 10.7629L23.5286 10.1849C23.4182 10.0371 23.3048 9.88755 23.1906 9.73895C22.9639 9.44413 22.9356 9.04567 23.1186 8.72368C23.2939 8.41523 23.4304 8.08565 23.5246 7.7441C23.6228 7.3874 23.9245 7.12577 24.2932 7.07768Z" fill="#CAFD35"/>
<path fill-rule="evenodd" clip-rule="evenodd" d="M17.0039 6.59292C17.0039 5.29616 18.0589 4.24121 19.3556 4.24121C20.6524 4.24121 21.7073 5.29616 21.7073 6.59292C21.7073 7.88973 20.6524 8.94468 19.3556 8.94468C18.0589 8.94468 17.0039 7.88973 17.0039 6.59292ZM18.0493 6.59287C18.0493 7.31321 18.6354 7.89925 19.3556 7.89925C20.0759 7.89925 20.6619 7.31321 20.6619 6.59287C20.6619 5.87257 20.0759 5.28653 19.3556 5.28653C18.6353 5.28653 18.0493 5.87252 18.0493 6.59287Z" fill="#CAFD35"/>
</svg>
