<svg width="21" height="21" viewBox="0 0 21 21" fill="none" xmlns="http://www.w3.org/2000/svg">
<g id="time-left">
<path id="Path" fill-rule="evenodd" clip-rule="evenodd" d="M12.6 19.1728C12.4272 19.2162 12.2509 19.2547 12.076 19.2871C11.6187 19.3727 11.3163 19.8154 11.4009 20.2761C11.4427 20.5027 11.5706 20.6915 11.7442 20.8147C11.9232 20.9415 12.1509 20.9987 12.383 20.9553C12.5913 20.9163 12.8013 20.8706 13.0073 20.8188C13.4589 20.7057 13.734 20.2453 13.6214 19.791C13.509 19.3363 13.0519 19.0596 12.6 19.1728Z" fill="#F734C0"/>
<path id="Path_2" fill-rule="evenodd" clip-rule="evenodd" d="M18.8305 7.8036C18.8896 7.98267 19.0023 8.12885 19.1446 8.22986C19.3557 8.37949 19.6319 8.42984 19.8955 8.34212C20.3374 8.19444 20.5768 7.71484 20.4306 7.2703C20.364 7.06765 20.2901 6.86436 20.2114 6.66643C20.0385 6.23146 19.5483 6.01969 19.1159 6.19368C18.684 6.36758 18.4735 6.8611 18.6465 7.2962C18.7126 7.46257 18.7746 7.63334 18.8305 7.8036Z" fill="#F734C0"/>
<path id="Path_3" fill-rule="evenodd" clip-rule="evenodd" d="M15.3394 17.962C15.1907 18.0608 15.0373 18.1564 14.8827 18.2459C14.4794 18.4801 14.3413 18.9989 14.5738 19.4046C14.637 19.515 14.7211 19.6052 14.8179 19.6741C15.0779 19.8582 15.431 19.8858 15.7249 19.7154C15.9087 19.6087 16.0914 19.4952 16.2685 19.3774C16.6567 19.1192 16.7635 18.593 16.5069 18.2021C16.2504 17.8111 15.7277 17.7037 15.3394 17.962Z" fill="#F734C0"/>
<path id="Path_4" fill-rule="evenodd" clip-rule="evenodd" d="M20.9544 10.1724C20.936 9.70419 20.5443 9.3398 20.079 9.35808C19.6143 9.37654 19.2519 9.771 19.2702 10.239C19.2772 10.4179 19.279 10.5995 19.2749 10.7783C19.2683 11.0719 19.411 11.3336 19.6327 11.4909C19.7648 11.5845 19.9251 11.6411 20.0989 11.6451C20.5641 11.6555 20.9496 11.2842 20.9599 10.8158C20.9645 10.6022 20.9628 10.3858 20.9544 10.1724Z" fill="#F734C0"/>
<path id="Path_5" fill-rule="evenodd" clip-rule="evenodd" d="M18.6926 15.7305C18.3196 15.4489 17.7919 15.5253 17.5125 15.9001C17.4055 16.0436 17.2929 16.1853 17.1775 16.3218C16.876 16.6783 16.9186 17.2138 17.2728 17.5174C17.293 17.5347 17.3134 17.5505 17.3346 17.5654C17.6867 17.8152 18.1761 17.7578 18.4608 17.4215C18.5986 17.2587 18.7329 17.0894 18.8607 16.918C19.1401 16.5433 19.0645 16.0118 18.6926 15.7305Z" fill="#F734C0"/>
<path id="Path_6" fill-rule="evenodd" clip-rule="evenodd" d="M19.9322 12.6641C19.4881 12.5239 19.0151 12.7727 18.876 13.2197C18.8227 13.3905 18.7637 13.5621 18.6999 13.7301C18.56 14.1001 18.6941 14.5071 19.0014 14.7252C19.0578 14.7651 19.1199 14.7989 19.1873 14.8245C19.6222 14.9915 20.1091 14.772 20.2748 14.3341C20.3505 14.1343 20.4207 13.9302 20.4842 13.7272C20.6232 13.2801 20.3762 12.8042 19.9322 12.6641Z" fill="#F734C0"/>
<path id="Path_7" fill-rule="evenodd" clip-rule="evenodd" d="M8.92268 19.2948C8.16921 19.1586 7.44642 18.9267 6.76104 18.6033C6.75292 18.5991 6.74567 18.5942 6.73715 18.5903C6.57564 18.5138 6.4144 18.4318 6.25812 18.3462C6.25758 18.3456 6.25659 18.3452 6.25573 18.3448C5.96899 18.1859 5.68914 18.01 5.41726 17.8174C1.45286 15.0067 0.499657 9.47374 3.29248 5.48369C3.89976 4.61639 4.63467 3.89282 5.45399 3.31933C5.46408 3.31225 5.47418 3.30522 5.48418 3.2981C8.37132 1.29589 12.2916 1.16096 15.3573 3.21841L14.6989 4.17593C14.5158 4.44244 14.6284 4.63666 14.9489 4.60763L17.809 4.34992C18.1298 4.32089 18.3217 4.04154 18.2354 3.72967L17.4674 0.944516C17.3814 0.632283 17.1613 0.594909 16.978 0.861378L16.3181 1.82116C14.0683 0.301136 11.3699 -0.278473 8.69155 0.18897C8.42179 0.235959 8.15582 0.293471 7.8935 0.360417C7.89148 0.360779 7.88985 0.361006 7.88823 0.361369C7.87809 0.363864 7.86782 0.367175 7.85795 0.369941C5.5484 0.966877 3.53335 2.32262 2.09548 4.25698C2.08335 4.27145 2.07087 4.2856 2.05942 4.30134C2.01161 4.36616 1.96416 4.43247 1.9177 4.49878C1.84172 4.60745 1.76682 4.71885 1.69517 4.83024C1.6862 4.84367 1.67935 4.85732 1.67151 4.87088C0.484966 6.72147 -0.0873519 8.86093 0.0107984 11.039C0.0110237 11.0462 0.0106181 11.0534 0.0107984 11.0608C0.0203069 11.2735 0.0370709 11.4892 0.0598284 11.7016C0.0610451 11.7153 0.0640645 11.7283 0.0663627 11.742C0.0898863 11.9555 0.119404 12.1695 0.156401 12.3835C0.532418 14.5669 1.55574 16.5316 3.08915 18.0603C3.09271 18.0639 3.0964 18.0678 3.10001 18.0715C3.10127 18.0729 3.10267 18.0737 3.10388 18.075C3.51586 18.484 3.96398 18.8622 4.44649 19.2043C5.70919 20.0998 7.11524 20.6917 8.62526 20.9645C9.08343 21.0473 9.52109 20.7403 9.60329 20.2794C9.68544 19.8182 9.38072 19.3773 8.92268 19.2948Z" fill="#F734C0"/>
<path id="Path_8" fill-rule="evenodd" clip-rule="evenodd" d="M9.96339 3.72852C9.58652 3.72852 9.28125 4.03603 9.28125 4.4148V11.2521L15.4943 14.4847C15.5943 14.5368 15.7013 14.5614 15.8067 14.5614C16.0535 14.5614 16.2918 14.4261 16.413 14.1901C16.5858 13.8533 16.455 13.4395 16.1204 13.2656L10.6448 10.4164V4.4148C10.6447 4.03603 10.3398 3.72852 9.96339 3.72852Z" fill="#F734C0"/>
</g>
</svg>
