<svg width="75" height="74" viewBox="0 0 75 74" fill="none" xmlns="http://www.w3.org/2000/svg">
<path fill-rule="evenodd" clip-rule="evenodd" d="M54.6792 21.1537C61.2237 22.1104 66.7138 26.5171 68.988 32.6397V32.6409C73.0432 42.23 75.0863 52.5282 74.9948 62.9155C75.0834 66.2043 74.0462 69.4272 72.05 72.0643C71.1186 73.2696 69.6746 73.9833 68.1373 73.9991H68.0709C66.5021 73.9968 65.0192 73.2921 64.0403 72.0841L56.6221 62.2137C55.2038 60.3336 52.9674 59.2242 50.5896 59.2214H24.4109C22.0371 59.2282 19.8053 60.337 18.3887 62.2137L11.0037 72.0435C10.0139 73.3023 8.47893 74.0272 6.86325 73.9991C5.32652 73.9838 3.88247 73.2701 2.95106 72.066C0.954339 69.4283 -0.0829237 66.2049 0.00518355 62.9155C-0.0863565 52.5288 1.9567 42.2305 6.01192 32.642C7.41592 29.0787 9.88292 26.0182 13.0874 23.8641C15.2872 22.4875 17.7485 21.5658 20.3213 21.1548C22.3655 20.8093 24.4664 21.2552 26.1856 22.3996C27.2029 23.0749 28.3906 23.4588 29.6161 23.5079H45.3839C46.6093 23.4588 47.7965 23.0749 48.8137 22.3996C50.5318 21.2535 52.6338 20.807 54.6792 21.1537ZM70.067 70.5659C71.7233 68.3561 72.5787 65.662 72.4951 62.9155C72.5884 52.8653 70.6157 42.9002 66.6961 33.6212C65.4992 30.5083 63.3657 27.83 60.5806 25.9454C58.6646 24.7469 56.5214 23.9447 54.2815 23.5857C52.8718 23.3399 51.4198 23.6409 50.2309 24.4267C48.7983 25.3879 47.1162 25.924 45.3839 25.9708H29.6161C27.8843 25.9246 26.2022 25.3885 24.7708 24.4267C23.5807 23.6415 22.1287 23.3399 20.7184 23.5857C18.4785 23.9447 16.3359 24.7469 14.4193 25.9454C11.6342 27.83 9.50017 30.5088 8.30386 33.6223C4.38423 42.9008 2.41154 52.8659 2.5048 62.9155C2.42127 65.662 3.27717 68.3561 4.93461 70.5659C5.39803 71.1736 6.12406 71.5327 6.89529 71.5361H6.9279C7.74432 71.5339 8.51497 71.1657 9.02302 70.536L16.3783 60.7485C18.2668 58.2444 21.2442 56.7658 24.4109 56.7584H50.5896C53.7558 56.7658 56.7331 58.2444 58.6222 60.7485L66.0112 70.5766C66.509 71.2131 67.2899 71.5711 68.1047 71.5361C68.8764 71.5327 69.6025 71.1736 70.067 70.5659Z" fill="#CAFD35"/>
<path fill-rule="evenodd" clip-rule="evenodd" d="M66.4914 43.5671C65.8132 43.7343 65.4025 44.405 65.5742 45.0656C66.4015 48.2551 67.0042 51.4965 67.3773 54.7662C67.4492 55.3901 67.991 55.8621 68.6361 55.8626C68.6837 55.8626 68.7319 55.8604 68.7794 55.8553C69.4715 55.7791 69.971 55.1732 69.8968 54.4985C69.5104 51.1165 68.8873 47.7644 68.0328 44.4649C67.9516 44.1464 67.7433 43.8726 67.4538 43.7043C67.1649 43.5361 66.8186 43.4864 66.4914 43.5671Z" fill="#CAFD35"/>
<path fill-rule="evenodd" clip-rule="evenodd" d="M8.51058 44.2875C7.84666 44.1321 7.1833 44.5466 7.02709 45.2143C6.54711 47.2689 6.14808 49.3953 5.83734 51.5381C5.73886 52.2167 6.20525 52.848 6.87992 52.9482C6.93992 52.9568 6.99992 52.9608 7.06048 52.9608C7.67403 52.9596 8.19362 52.507 8.28192 51.8962C8.58247 49.8245 8.96848 47.7676 9.43204 45.7836C9.50732 45.4626 9.45242 45.1244 9.27978 44.8437C9.10715 44.5631 8.83038 44.3632 8.51058 44.2875Z" fill="#CAFD35"/>
<path fill-rule="evenodd" clip-rule="evenodd" d="M6.78691 55.8661C6.05731 55.8127 5.41936 56.3237 5.3617 57.0077C5.18688 59.0984 5.09766 61.2255 5.09766 63.3248C5.09766 64.0116 5.69129 64.5682 6.42393 64.5682C7.15596 64.5682 7.7496 64.0116 7.7496 63.3248C7.7496 61.2898 7.83579 59.2316 8.00575 57.2074C8.03488 56.8779 7.92259 56.5513 7.69376 56.2998C7.46492 56.0477 7.13897 55.8918 6.78691 55.8661Z" fill="#CAFD35"/>
<path fill-rule="evenodd" clip-rule="evenodd" d="M18.5682 27.5684C21.9867 27.5684 24.7575 30.3292 24.7575 33.7353C24.7536 37.1392 21.985 39.8977 18.5682 39.9017C15.1503 39.9017 12.3789 37.1409 12.3789 33.7353C12.3789 30.3292 15.1503 27.5684 18.5682 27.5684ZM14.8551 33.7353C14.8551 35.7785 16.5176 37.435 18.5682 37.435C20.6194 37.435 22.2819 35.7785 22.2819 33.7353C22.2819 31.6915 20.6194 30.035 18.5682 30.035C16.5176 30.035 14.8551 31.6915 14.8551 33.7353Z" fill="#CAFD35"/>
<path fill-rule="evenodd" clip-rule="evenodd" d="M27.3065 42.0781C23.888 42.0781 21.1172 44.8394 21.1172 48.2448C21.1172 51.6502 23.888 54.4115 27.3065 54.4115C30.7244 54.4115 33.4958 51.6502 33.4958 48.2448C33.4913 44.8411 30.7227 42.0826 27.3065 42.0781ZM30.7919 47.0118H28.544V44.7716C29.5929 45.1448 30.4179 45.9668 30.7919 47.0118ZM26.0684 47.0118V44.7716C25.0201 45.1448 24.1951 45.9668 23.8206 47.0118H26.0684ZM23.8206 49.4784H26.0684V51.718C25.0201 51.3448 24.1951 50.5228 23.8206 49.4784ZM28.544 49.4784V51.718C29.5929 51.3448 30.4179 50.5228 30.7919 49.4784H28.544Z" fill="#CAFD35"/>
<path fill-rule="evenodd" clip-rule="evenodd" d="M41.5039 48.2448C41.5039 44.8394 44.2749 42.0781 47.6929 42.0781C51.1099 42.0826 53.8786 44.8411 53.8825 48.2448C53.8825 51.6502 51.1116 54.4115 47.6929 54.4115C44.2749 54.4115 41.5039 51.6502 41.5039 48.2448ZM43.9796 48.2448C43.9796 50.2885 45.6422 51.9449 47.6929 51.9449C49.7442 51.9449 51.4068 50.2885 51.4068 48.2448C51.4068 46.2017 49.7442 44.5447 47.6929 44.5447C45.6422 44.5447 43.9796 46.2017 43.9796 48.2448Z" fill="#CAFD35"/>
<path fill-rule="evenodd" clip-rule="evenodd" d="M48.7876 48.6079C48.7876 49.4096 48.1356 50.0592 47.331 50.0592C46.527 50.0592 45.875 49.4096 45.875 48.6079C45.875 47.8068 46.527 47.1572 47.331 47.1572C48.1356 47.1572 48.7876 47.8068 48.7876 48.6079Z" fill="#CAFD35"/>
<path fill-rule="evenodd" clip-rule="evenodd" d="M34.2251 33.3732C34.2251 34.1742 33.5726 34.8238 32.7688 34.8238C31.965 34.8238 31.3125 34.1742 31.3125 33.3732C31.3125 32.5715 31.965 31.9219 32.7688 31.9219C33.5726 31.9219 34.2251 32.5715 34.2251 33.3732Z" fill="#CAFD35"/>
<path fill-rule="evenodd" clip-rule="evenodd" d="M43.69 33.3732C43.69 34.1742 43.038 34.8238 42.2333 34.8238C41.4293 34.8238 40.7773 34.1742 40.7773 33.3732C40.7773 32.5715 41.4293 31.9219 42.2333 31.9219C43.038 31.9219 43.69 32.5715 43.69 33.3732Z" fill="#CAFD35"/>
<path fill-rule="evenodd" clip-rule="evenodd" d="M38.5923 17.4123C38.5923 18.2133 37.9403 18.8629 37.1357 18.8629C36.3317 18.8629 35.6797 18.2133 35.6797 17.4123C35.6797 16.6105 36.3317 15.9609 37.1357 15.9609C37.9403 15.9609 38.5923 16.6105 38.5923 17.4123Z" fill="#CAFD35"/>
<path fill-rule="evenodd" clip-rule="evenodd" d="M28.2826 5.52258C33.4141 1.40365 40.8596 1.40365 45.9917 5.52258C46.5271 5.95246 47.3227 5.88174 47.768 5.36499C48.2134 4.84825 48.1401 4.08037 47.6048 3.65049C41.5369 -1.21683 32.7368 -1.21683 26.669 3.65049C26.1342 4.08037 26.0609 4.84769 26.5068 5.36444C26.9522 5.88118 27.7472 5.95134 28.2826 5.52147V5.52258Z" fill="#CAFD35"/>
<path fill-rule="evenodd" clip-rule="evenodd" d="M44.5982 10.8818C45.106 10.8818 45.5658 10.5806 45.7685 10.1148C45.9707 9.64954 45.8778 9.10839 45.5313 8.73712C43.3642 6.40384 40.3223 5.07812 37.1361 5.07812C33.9506 5.07812 30.9087 6.40384 28.741 8.73712C28.2607 9.252 28.2887 10.0593 28.8047 10.5398C29.32 11.0196 30.1281 10.9916 30.6084 10.4767C32.2929 8.66123 34.6587 7.62915 37.1361 7.62915C39.6141 7.62915 41.9794 8.66123 43.6639 10.4767C43.9052 10.7353 44.2441 10.8824 44.5982 10.8818Z" fill="#CAFD35"/>
<path fill-rule="evenodd" clip-rule="evenodd" d="M40.7012 14.6707C40.9305 15.0241 41.3157 15.2362 41.7291 15.2356C41.972 15.2356 42.2092 15.1618 42.4114 15.0223C42.9785 14.6335 43.1321 13.8448 42.7543 13.2613C41.5755 11.4329 39.6291 10.2828 37.5003 10.1572C35.3721 10.2828 33.4252 11.4329 32.2464 13.2613C31.8685 13.8448 32.0216 14.6329 32.5881 15.0223C33.1552 15.4111 33.9216 15.2536 34.2995 14.6707C35.0264 13.5531 36.2001 12.8289 37.5003 12.6964C38.8005 12.8289 39.9748 13.5531 40.7012 14.6707Z" fill="#CAFD35"/>
<path fill-rule="evenodd" clip-rule="evenodd" d="M53.8853 34.8227C53.8853 35.6244 53.2333 36.274 52.4293 36.274C51.6246 36.274 50.9727 35.6244 50.9727 34.8227C50.9727 34.0217 51.6246 33.3721 52.4293 33.3721C53.2333 33.3721 53.8853 34.0217 53.8853 34.8227Z" fill="#CAFD35"/>
<path fill-rule="evenodd" clip-rule="evenodd" d="M58.979 39.9018C58.979 40.7035 58.327 41.3531 57.5231 41.3531C56.7184 41.3531 56.0664 40.7035 56.0664 39.9018C56.0664 39.1008 56.7184 38.4512 57.5231 38.4512C58.327 38.4512 58.979 39.1008 58.979 39.9018Z" fill="#CAFD35"/>
<path fill-rule="evenodd" clip-rule="evenodd" d="M64.0767 34.8227C64.0767 35.6244 63.4247 36.274 62.6207 36.274C61.8161 36.274 61.1641 35.6244 61.1641 34.8227C61.1641 34.0217 61.8161 33.3721 62.6207 33.3721C63.4247 33.3721 64.0767 34.0217 64.0767 34.8227Z" fill="#CAFD35"/>
<path fill-rule="evenodd" clip-rule="evenodd" d="M58.979 29.7446C58.979 30.5463 58.327 31.1959 57.5231 31.1959C56.7184 31.1959 56.0664 30.5463 56.0664 29.7446C56.0664 28.9435 56.7184 28.2939 57.5231 28.2939C58.327 28.2939 58.979 28.9435 58.979 29.7446Z" fill="#CAFD35"/>
</svg>
