<svg width="62" height="84" viewBox="0 0 62 84" fill="none" xmlns="http://www.w3.org/2000/svg">
<path fill-rule="evenodd" clip-rule="evenodd" d="M55.4737 32.1434V24.4737C55.4737 10.9787 44.4949 0 31 0C17.5051 0 6.52632 10.9787 6.52632 24.4737V32.1434C2.80683 32.9012 0 36.1975 0 40.1368V49.3992C0 50.3004 0.730386 51.0308 1.63158 51.0308C2.53277 51.0308 3.26316 50.3004 3.26316 49.3992V40.1368C3.26316 37.4377 5.45878 35.2421 8.1579 35.2421H53.8421C56.5412 35.2421 58.7368 37.4377 58.7368 40.1368V75.3789C58.7368 77.5057 57.3729 79.3196 55.4737 79.9933V70.1579C55.4737 69.2567 54.7433 68.5263 53.8421 68.5263C52.9409 68.5263 52.2105 69.2567 52.2105 70.1579V80.2737H8.1579C5.45878 80.2737 3.26316 78.0781 3.26316 75.3789V62.4895C3.26316 61.5883 2.53277 60.8579 1.63158 60.8579C0.730386 60.8579 0 61.5883 0 62.4895V75.3789C0 79.8773 3.65958 83.5368 8.1579 83.5368H53.8421C58.3404 83.5368 62 79.8773 62 75.3789V40.1368C62 36.1975 59.1932 32.9012 55.4737 32.1434ZM18.6 31.9789V24.4737C18.6 17.6363 24.1627 12.0737 31 12.0737C37.8373 12.0737 43.4 17.6363 43.4 24.4737V31.9789H18.6ZM46.6632 24.4737V31.9789H52.2105V24.4737C52.2105 12.7779 42.6957 3.26316 31 3.26316C19.3043 3.26316 9.78947 12.7779 9.78947 24.4737V31.9789H15.3368V24.4737C15.3368 15.8371 22.3635 8.81053 31 8.81053C39.6365 8.81053 46.6632 15.8371 46.6632 24.4737Z" fill="#CAFD35"/>
</svg>
